<svg width="462" height="438" viewBox="0 0 462 438" fill="none" xmlns="http://www.w3.org/2000/svg">
<g clip-path="url(#clip0_426_361)">
<path d="M230.963 0.00625678C37.0405 0.00625678 0 438 0 438H7.71938C27.1585 315.035 84.2569 49.2346 229.938 49.2346C371.193 49.2346 429.116 298.968 450.306 426.256H339.603C338.578 419.561 337.446 412.66 336.209 405.659C334.259 394.947 332.196 383.929 329.727 372.911H387.75C366.861 259.938 321.901 109.168 230.963 109.168C140.011 109.168 104.727 259.932 83.8444 372.911H86.3133C111.003 270.643 155.757 136.667 231.275 136.667C304.012 136.667 346.397 260.764 371.399 361.167H327.058C309.463 285.059 279.835 203.502 230.969 203.502C179.527 203.502 159.057 293.612 141.874 372.804H318.001C320.883 383.722 323.558 394.741 325.927 405.552C328.396 416.57 330.658 427.489 332.715 437.787H461.932C461.932 437.994 424.891 0 230.963 0M156.375 361.273C173.658 298.248 192.178 231.201 231.169 231.201C270.366 231.201 296.912 296.903 314.807 361.273H156.375Z" fill="#FF5C00"/>
</g>
<defs>
<clipPath id="clip0_426_361">
<rect width="462" height="438" fill="white"/>
</clipPath>
</defs>
</svg>
