<?xml version="1.0" encoding="UTF-8"?>
<svg id="Argan_x5F_Brand_x5F_Components" xmlns="http://www.w3.org/2000/svg" xmlns:xlink="http://www.w3.org/1999/xlink" version="1.1" viewBox="0 0 2280.71 1908.77">
  <!-- Generator: Adobe Illustrator 30.0.0, SVG Export Plug-In . SVG Version: 2.1.1 Build 123)  -->
  <defs>
    <style>
      .st0 {
        fill: url(#New_Gradient_Swatch_2);
        opacity: .2;
      }

      .st1 {
        fill: url(#New_Gradient_Swatch_22);
        opacity: .52;
      }

      .st2 {
        fill: url(#New_Gradient_Swatch_21);
        opacity: .36;
      }

      .st3 {
        fill: url(#New_Gradient_Swatch_24);
        opacity: .84;
      }

      .st4 {
        fill: url(#New_Gradient_Swatch_23);
        opacity: .68;
      }

      .st5 {
        fill: url(#New_Gradient_Swatch_25);
      }
    </style>
    <linearGradient id="New_Gradient_Swatch_2" data-name="New Gradient Swatch 2" x1="-5401.96" y1="-329.83" x2="-3253.03" y2="-329.83" gradientTransform="translate(5401.96 1220.01)" gradientUnits="userSpaceOnUse">
      <stop offset=".19" stop-color="#ff8f00"/>
      <stop offset=".22" stop-color="#ff8a00"/>
      <stop offset=".38" stop-color="#ff7000"/>
      <stop offset=".53" stop-color="#ff6100"/>
      <stop offset=".65" stop-color="#ff5c00"/>
    </linearGradient>
    <linearGradient id="New_Gradient_Swatch_21" data-name="New Gradient Swatch 2" x1="-5376.57" y1="-304.21" x2="-3226.68" y2="-304.21" xlink:href="#New_Gradient_Swatch_2"/>
    <linearGradient id="New_Gradient_Swatch_22" data-name="New Gradient Swatch 2" x1="-5351.18" y1="-278.59" x2="-3200.32" y2="-278.59" xlink:href="#New_Gradient_Swatch_2"/>
    <linearGradient id="New_Gradient_Swatch_23" data-name="New Gradient Swatch 2" x1="-5325.79" y1="-253.38" x2="-3173.96" y2="-253.38" xlink:href="#New_Gradient_Swatch_2"/>
    <linearGradient id="New_Gradient_Swatch_24" data-name="New Gradient Swatch 2" x1="-5300.4" y1="-228.64" x2="-3147.61" y2="-228.64" xlink:href="#New_Gradient_Swatch_2"/>
    <linearGradient id="New_Gradient_Swatch_25" data-name="New Gradient Swatch 2" x1="-5275" y1="-203.93" x2="-3121.25" y2="-203.93" xlink:href="#New_Gradient_Swatch_2"/>
  </defs>
  <path class="st0" d="M5,1780.36l-5-6.24,212.03-169.8c12.45-10.16,25.54-20.58,39.39-31.62,53.98-43,115.16-91.74,165.75-146.49,58.17-62.96,91.46-122.29,101.76-181.4,5.25-30.09,4.04-61.94-3.68-97.38-6.18-28.35-16.73-59.32-32.24-94.68-26.19-59.68-45.08-116.93-56.17-170.16-14.06-67.51-15.14-127.29-3.2-177.7,6.35-26.81,16.18-47.2,30.05-62.35,59.4-64.86,173.69-68.19,339.71-9.91,120.32,42.24,216.86,61.88,313.04,63.69,102.89,1.94,205.76-14,305.75-47.37,99.48-33.19,190.77-81.84,271.34-144.59,126.1-98.2,232.9-229.47,336.19-356.42,40.17-49.37,81.71-100.42,123.19-147.92l6.03,5.26c-41.39,47.39-82.88,98.39-123.01,147.71-103.57,127.29-210.67,258.92-337.48,357.68-81.29,63.31-173.38,112.39-273.72,145.87-100.86,33.66-204.63,49.72-308.44,47.78-97.07-1.82-194.39-21.6-315.54-64.14-66.22-23.25-122.3-36.29-171.46-39.88-72.18-5.27-125.91,10.76-159.7,47.65-12.93,14.11-22.14,33.34-28.16,58.79-14.63,61.79-16.28,171.42,58.92,342.8,15.73,35.85,26.44,67.31,32.73,96.19,7.95,36.47,9.18,69.33,3.75,100.46-10.58,60.67-44.52,121.34-103.77,185.46-51,55.2-112.43,104.14-166.64,147.32-13.83,11.02-26.9,21.43-39.35,31.58L5,1780.36Z"/>
  <path class="st2" d="M2175.29,30.86c-41.38,47.38-82.87,98.37-122.99,147.69-103.6,127.32-210.72,258.98-337.6,357.79-81.35,63.36-173.52,112.47-273.93,145.98-100.93,33.68-204.78,49.76-308.67,47.82-97.15-1.83-194.53-21.62-315.76-64.18-66.16-23.23-122.19-36.26-171.27-39.85-71.96-5.26-125.5,10.7-159.13,47.42-12.84,14.02-22,33.15-28,58.48-14.6,61.68-16.25,171.15,58.87,342.36,15.75,35.89,26.47,67.4,32.77,96.32,7.97,36.56,9.2,69.51,3.75,100.73-10.6,60.81-44.6,121.59-103.94,185.81-51.04,55.23-112.49,104.19-166.72,147.39-13.83,11.02-26.9,21.43-39.34,31.58l-212.06,169.83-5.88-7.34,212.03-169.8c12.45-10.16,25.54-20.58,39.39-31.62,54.02-43.03,115.12-91.7,165.61-146.33,56.57-61.2,91.1-120.64,101.65-181.14,5.23-30,4.03-61.76-3.68-97.11-6.17-28.31-16.7-59.23-32.2-94.55-26.2-59.72-45.12-117.02-56.22-170.3-14.08-67.61-15.16-127.5-3.2-178.01,6.38-26.93,16.26-47.42,30.21-62.66,59.6-65.08,174.15-68.48,340.45-10.1,120.24,42.21,216.72,61.84,312.82,63.65,102.81,1.94,205.6-13.99,305.52-47.33,99.4-33.17,190.62-81.78,271.13-144.48,126.03-98.16,232.81-229.39,336.08-356.31,39.08-48.02,79.45-97.64,119.8-144.03,1.14-1.31,3.29-1.72,4.42-3.02l6.06,5.3Z"/>
  <path class="st1" d="M2201.64,56.46c-41.37,47.37-82.86,98.36-122.98,147.67-103.62,127.35-210.77,259.04-337.71,357.9-81.42,63.41-173.65,112.56-274.14,146.09-101.01,33.71-204.94,49.8-308.91,47.85-97.23-1.83-194.68-21.63-315.98-64.21-66.1-23.2-122.07-36.23-171.09-39.81-71.73-5.24-125.08,10.64-158.57,47.2-12.76,13.93-21.87,32.96-27.83,58.17-14.58,61.58-16.21,170.89,58.83,341.92,15.77,35.94,26.5,67.49,32.82,96.45,7.99,36.65,9.22,69.69,3.76,101-10.63,60.95-44.68,121.84-104.12,186.17-51.07,55.27-112.55,104.25-166.79,147.46-13.83,11.02-26.9,21.43-39.34,31.57l-212.07,169.83-6.75-8.43,212.03-169.8c12.45-10.15,25.54-20.58,39.4-31.62,54.05-43.06,115.07-91.67,165.47-146.16,54.97-59.44,90.74-119,101.53-180.87,5.21-29.91,4.01-61.58-3.67-96.84-6.16-28.26-16.68-59.14-32.15-94.42-26.22-59.77-45.15-117.11-56.26-170.44-14.1-67.71-15.18-127.7-3.19-178.31,6.4-27.05,16.34-47.64,30.38-62.97,59.81-65.31,174.61-68.77,341.2-10.29,120.17,42.18,216.58,61.8,312.6,63.61,102.73,1.94,205.45-13.98,305.28-47.3,99.33-33.14,190.48-81.72,270.92-144.37,125.97-98.11,232.73-229.31,335.97-356.2,39.35-48.37,80.02-98.35,120.67-145.03.85-.98,3.73-.18,4.59-1.16l6.1,5.33Z"/>
  <path class="st4" d="M2228,82.05c-41.36,47.36-82.84,98.35-122.96,147.65-103.65,127.38-210.82,259.1-337.82,358.01-81.48,63.46-173.78,112.65-274.35,146.2-101.09,33.73-205.09,49.84-309.14,47.89-97.3-1.83-194.82-21.65-316.2-64.25-66.04-23.18-121.95-36.19-170.91-39.77-71.51-5.22-124.67,10.58-158,46.97-12.68,13.84-21.73,32.77-27.67,57.85-14.56,61.48-16.17,170.62,58.79,341.48,15.79,35.98,26.53,67.57,32.86,96.59,8.01,36.74,9.24,69.87,3.77,101.27-10.65,61.08-44.77,122.09-104.29,186.52-51.11,55.31-112.61,104.31-166.87,147.53-13.83,11.02-26.89,21.42-39.33,31.57l-212.07,169.84-7.63-9.52,212.03-169.8c12.45-10.15,25.54-20.58,39.4-31.62,54.09-43.09,115.02-91.63,165.33-146,53.37-57.68,90.39-117.35,101.42-180.61,5.2-29.82,4-61.4-3.67-96.57-6.15-28.21-16.65-59.05-32.11-94.28-26.24-59.81-45.19-117.2-56.3-170.57-14.12-67.81-15.2-127.9-3.19-178.62,6.43-27.16,16.42-47.86,30.54-63.28,60.02-65.53,175.07-69.06,341.95-10.48,120.1,42.16,216.44,61.76,312.39,63.57,102.65,1.93,205.29-13.97,305.05-47.26,99.25-33.12,190.33-81.65,270.72-144.26,125.91-98.06,232.64-229.23,335.85-356.09,39.63-48.71,80.6-99.06,121.53-146.02.57-.65,4.18,1.35,4.75.7l6.14,5.36Z"/>
  <path class="st3" d="M2254.36,107.65c-41.35,47.35-82.83,98.33-122.95,147.63-103.67,127.41-210.87,259.17-337.93,358.12-81.54,63.5-173.92,112.73-274.56,146.32-101.16,33.76-205.25,49.88-309.38,47.92-97.38-1.83-194.97-21.66-316.42-64.29-65.98-23.16-121.83-36.16-170.73-39.73-71.29-5.21-124.25,10.52-157.43,46.75-12.6,13.75-21.59,32.58-27.5,57.54-14.53,61.37-16.13,170.36,58.75,341.03,15.81,36.02,26.57,67.66,32.9,96.72,8.03,36.83,9.26,70.04,3.77,101.54-10.67,61.22-44.85,122.35-104.47,186.88-51.14,55.35-112.67,104.36-166.95,147.61-13.83,11.02-26.89,21.42-39.32,31.56l-212.08,169.84-8.5-10.62,212.03-169.8c12.45-10.15,25.54-20.58,39.4-31.62,54.12-43.11,114.98-91.59,165.19-145.84,51.77-55.93,90.03-115.7,101.3-180.35,5.18-29.72,3.98-61.23-3.66-96.3-6.14-28.17-16.63-58.97-32.07-94.15-26.26-59.86-45.22-117.29-56.35-170.71-14.15-67.91-15.22-128.11-3.19-178.92,6.46-27.28,16.51-48.09,30.71-63.59,60.23-65.76,175.53-69.35,342.7-10.66,120.02,42.13,216.3,61.73,312.17,63.53,102.57,1.93,205.13-13.96,304.82-47.23,99.17-33.09,190.19-81.59,270.51-144.15,125.84-98.01,232.55-229.15,335.74-355.98,39.91-49.05,81.17-99.76,122.4-147.02.28-.33,4.63,2.89,4.91,2.57l6.18,5.4Z"/>
  <path class="st5" d="M136.34,1908.77l-9.38-11.71,212.03-169.8c12.44-10.15,25.54-20.58,39.4-31.62,108.36-86.33,243.23-193.76,266.24-325.75,5.17-29.63,3.97-61.05-3.66-96.03-6.13-28.12-16.61-58.88-32.03-94.02-26.28-59.9-45.26-117.38-56.39-170.85-14.17-68.01-15.24-128.31-3.18-179.22,6.49-27.4,16.59-48.31,30.87-63.91,60.43-65.99,175.98-69.64,343.45-10.85,119.95,42.11,216.16,61.69,311.95,63.49,102.49,1.93,204.97-13.95,304.58-47.19,99.1-33.07,190.04-81.53,270.3-144.03,125.78-97.96,232.46-229.07,335.63-355.87,40.19-49.4,81.75-100.47,123.27-148.01l11.3,9.87c-41.35,47.35-82.82,98.32-122.93,147.62-103.7,127.44-210.92,259.23-338.05,358.23-81.6,63.55-174.05,112.82-274.77,146.43-101.24,33.78-205.4,49.91-309.61,47.96-97.46-1.83-195.11-21.67-316.63-64.33-65.92-23.14-121.71-36.13-170.55-39.69-71.06-5.19-123.84,10.46-156.86,46.52-12.51,13.66-21.46,32.38-27.34,57.23-14.51,61.27-16.1,170.09,58.71,340.59,15.82,36.06,26.6,67.74,32.95,96.85,8.05,36.92,9.28,70.22,3.78,101.81-10.7,61.36-44.93,122.6-104.64,187.23-51.18,55.39-112.73,104.42-167.03,147.68-13.83,11.02-26.89,21.42-39.32,31.56l-212.08,169.85Z"/>
</svg>