<svg width="96" height="96" viewBox="0 0 96 96" fill="none" xmlns="http://www.w3.org/2000/svg">
<path d="M29.8427 38.6427V25.4427C29.8427 24.7973 29.344 24.2987 28.6987 24.2987H22.744C21.7467 24.2987 21.2187 23.096 21.9227 22.3627L35.944 7.57867C36.384 7.10934 37.1467 7.10934 37.5867 7.57867L51.8133 22.3627C52.5173 23.096 52.0187 24.2987 50.992 24.2987H45.1253C44.48 24.2987 43.9227 24.8267 43.9227 25.4427V41.7227M36.9707 62.872H31.016C30.3707 62.872 29.872 62.3733 29.872 61.728V38.6133" stroke="black" stroke-miterlimit="10" stroke-linecap="round"/>
<path d="M36.8827 62.872H42.6907C43.3067 62.872 43.864 62.3733 43.864 61.7573V40.872" stroke="black" stroke-miterlimit="10" stroke-linecap="round"/>
<path d="M52.0773 54.2773V70.5573C52.0773 71.1733 51.52 71.7013 50.904 71.7013H45.008C44.0107 71.7013 43.4827 72.904 44.1867 73.6373L58.4133 88.4213C58.8533 88.8907 59.616 88.8907 60.056 88.4213L74.1067 73.6373C74.7813 72.904 74.2827 71.7013 73.256 71.7013H67.3013C66.656 71.7013 66.1573 71.2027 66.1573 70.5573V57.3573V34.272C66.1573 33.6267 65.6293 33.128 65.0133 33.128H59.0293" stroke="black" stroke-miterlimit="10" stroke-linecap="round"/>
<path d="M59.1467 33.128H53.3093C52.6933 33.128 52.136 33.6267 52.136 34.2427V55.128" stroke="black" stroke-miterlimit="10" stroke-linecap="round"/>
</svg>
