<svg width="96" height="96" viewBox="0 0 96 96" fill="none" xmlns="http://www.w3.org/2000/svg">
<path d="M47.8982 64.3508C56.8946 64.3508 64.1875 57.0578 64.1875 48.0615C64.1875 39.0652 56.8946 31.7722 47.8982 31.7722C38.9019 31.7722 31.609 39.0652 31.609 48.0615C31.609 57.0578 38.9019 64.3508 47.8982 64.3508Z" stroke="black" stroke-miterlimit="10" stroke-linecap="round"/>
<path d="M48.217 24.3571L54.1421 28.2854C54.2285 28.343 54.3302 28.3757 54.4358 28.3814L61.5379 28.6867C61.7683 28.6963 61.9718 28.8441 62.0525 29.0611L64.537 35.7216C64.5734 35.8195 64.6368 35.9059 64.7174 35.9712L70.2835 40.3929C70.464 40.5369 70.5427 40.775 70.4794 40.9977L68.5747 47.8464C68.5459 47.9481 68.5459 48.0537 68.5747 48.1555L70.4794 55.0041C70.5408 55.2269 70.464 55.4649 70.2835 55.6089L64.7174 60.0307C64.6349 60.096 64.5734 60.1824 64.537 60.2803L62.0525 66.9408C61.9718 67.1577 61.7683 67.3056 61.5379 67.3152L54.4358 67.6205C54.3302 67.6243 54.2304 67.6589 54.1421 67.7165L48.217 71.6448C48.025 71.7734 47.7734 71.7734 47.5795 71.6448L41.6544 67.7165C41.568 67.6589 41.4662 67.6262 41.3606 67.6205L34.2586 67.3152C34.0282 67.3056 33.8246 67.1577 33.744 66.9408L31.2595 60.2803C31.223 60.1824 31.1597 60.096 31.079 60.0307L25.513 55.6089C25.3325 55.4649 25.2538 55.2269 25.3171 55.0041L27.2218 48.1555C27.2506 48.0537 27.2506 47.9481 27.2218 47.8464L25.3171 40.9977C25.2557 40.775 25.3325 40.5369 25.513 40.3929L31.079 35.9712C31.1616 35.9059 31.223 35.8195 31.2595 35.7216L33.744 29.0611C33.8246 28.8441 34.0282 28.6963 34.2586 28.6867L41.3606 28.3814C41.4662 28.3776 41.5661 28.343 41.6544 28.2854L47.5795 24.3571C47.7715 24.2285 48.023 24.2285 48.217 24.3571Z" stroke="black" stroke-miterlimit="10" stroke-linecap="round"/>
<path d="M47.6621 54.8217L42.2861 57.648C41.8637 57.8707 41.3702 57.5117 41.4509 57.0413L42.4781 51.0566C42.5107 50.8704 42.4474 50.6784 42.313 50.5459L37.9642 46.3065C37.6224 45.9725 37.8106 45.3926 38.2829 45.3235L44.2925 44.4499C44.4806 44.423 44.6419 44.304 44.7264 44.135L47.4144 38.6899C47.6256 38.2617 48.2362 38.2617 48.4474 38.6899L51.1354 44.135C51.2198 44.3059 51.3811 44.423 51.5693 44.4499L57.5789 45.3235C58.0512 45.3926 58.2394 45.9725 57.8976 46.3065L53.5488 50.5459C53.4125 50.6784 53.351 50.8685 53.3837 51.0566L54.4109 57.0413C54.4915 57.5117 53.9981 57.8707 53.5757 57.648L48.1997 54.8217C48.0326 54.7334 47.831 54.7334 47.664 54.8217H47.6621Z" stroke="black" stroke-miterlimit="10" stroke-linecap="round"/>
</svg>
