<svg width="96" height="96" viewBox="0 0 96 96" fill="none" xmlns="http://www.w3.org/2000/svg">
<path d="M48.1936 27.5664C49.6614 27.5664 50.8512 26.3766 50.8512 24.9088C50.8512 23.441 49.6614 22.2512 48.1936 22.2512C46.7259 22.2512 45.536 23.441 45.536 24.9088C45.536 26.3766 46.7259 27.5664 48.1936 27.5664Z" stroke="black" stroke-linecap="round" stroke-linejoin="round"/>
<path d="M49.936 27.1088V68.9792" stroke="black" stroke-linecap="round" stroke-linejoin="round"/>
<path d="M46.3456 26.9152V69.3488" stroke="black" stroke-linecap="round" stroke-linejoin="round"/>
<path d="M39.2704 73.7488H57.0464C57.0464 73.7488 56.9584 69.3488 48.1584 69.3488C39.3584 69.3488 39.2704 73.7488 39.2704 73.7488Z" stroke="black" stroke-linecap="round" stroke-linejoin="round"/>
<path d="M70.1584 30.3472C70.1584 30.3472 69.6304 32.0192 67.6944 32.0192C65.7584 32.0192 64.5088 30.2592 64.5088 30.2592H48.1584" stroke="black" stroke-linecap="round" stroke-linejoin="round"/>
<path d="M26.1584 30.3472C26.1584 30.3472 26.6864 32.0192 28.6224 32.0192C30.5584 32.0192 31.808 30.2592 31.808 30.2592H48.1584" stroke="black" stroke-linecap="round" stroke-linejoin="round"/>
<path d="M67.272 32.3184L61.3584 43.5472H73.4144L67.5008 32.3184" stroke="black" stroke-linecap="round" stroke-linejoin="round"/>
<path d="M61.3584 43.5472C61.3584 43.5472 60.1088 49.5136 67.6944 49.5136C74.5584 49.5136 73.4144 43.5472 73.4144 43.5472" stroke="black" stroke-linecap="round" stroke-linejoin="round"/>
<path d="M28.4991 32.3184L22.6031 43.5472H34.6416L28.7456 32.3184" stroke="black" stroke-linecap="round" stroke-linejoin="round"/>
<path d="M22.6032 43.5472C22.6032 43.5472 21.3536 49.5136 28.9392 49.5136C35.8032 49.5136 34.6592 43.5472 34.6592 43.5472" stroke="black" stroke-linecap="round" stroke-linejoin="round"/>
</svg>
