<svg width="96" height="96" viewBox="0 0 96 96" fill="none" xmlns="http://www.w3.org/2000/svg">
<g clip-path="url(#clip0_4062_21839)">
<mask id="mask0_4062_21839" style="mask-type:luminance" maskUnits="userSpaceOnUse" x="4" y="4" width="88" height="88">
<path d="M91.2466 4H4.75343V91.8493H91.2466V4Z" fill="white"/>
</mask>
<g mask="url(#mask0_4062_21839)">
<path d="M46.7342 26.3014V31.2137C46.7342 31.9671 47.6685 32.3589 48.1808 31.7863L52.8219 26.8438C52.9816 26.6721 53.2137 26.5756 53.4548 26.5786L80.6082 26.7203C81.0603 26.7203 81.4521 26.3586 81.4521 25.8764L81.7474 6.07644C81.7534 5.59425 81.3857 5.23261 80.9036 5.23261L47.5721 5.19041C47.0899 5.19041 46.7282 5.55206 46.7282 6.03425V26.2863H46.7312L46.7342 26.3014Z" stroke="black" stroke-linecap="round" stroke-linejoin="round"/>
<path d="M54.9918 18.6767C56.5589 18.6767 57.8548 17.411 57.8548 15.8137C57.8548 14.2164 56.589 12.9507 54.9918 12.9507C53.3945 12.9507 52.1288 14.2164 52.1288 15.8137C52.1288 17.411 53.3945 18.6767 54.9918 18.6767Z" stroke="black" stroke-linecap="round" stroke-linejoin="round"/>
<path d="M64.2438 18.6767C65.811 18.6767 67.1068 17.411 67.1068 15.8137C67.1068 14.2164 65.8411 12.9507 64.2438 12.9507C62.6466 12.9507 61.3808 14.2164 61.3808 15.8137C61.3808 17.411 62.6466 18.6767 64.2438 18.6767Z" stroke="black" stroke-linecap="round" stroke-linejoin="round"/>
<path d="M73.4959 18.6767C75.063 18.6767 76.3589 17.411 76.3589 15.8137C76.3589 14.2164 75.0932 12.9507 73.4959 12.9507C71.8986 12.9507 70.6329 14.2164 70.6329 15.8137C70.6329 17.411 71.8986 18.6767 73.4959 18.6767Z" stroke="black" stroke-linecap="round" stroke-linejoin="round"/>
<path d="M81.6932 17.7425H89.1973C89.6795 17.7425 90.0411 18.1342 90.0411 18.5863V79.2521C90.0411 79.7342 89.6493 80.0959 89.1973 80.0959H6.80274C6.32055 80.0959 5.95891 79.7041 5.95891 79.2521V18.5863C5.95891 18.1041 6.35069 17.7425 6.80274 17.7425H46.5534" stroke="black" stroke-linecap="round" stroke-linejoin="round"/>
<path d="M39.5315 80.0959L33.7753 90.6438" stroke="black" stroke-linecap="round" stroke-linejoin="round"/>
<path d="M56.4685 80.0959L62.2247 90.6438" stroke="black" stroke-linecap="round" stroke-linejoin="round"/>
<path d="M26.7534 90.6438H68.8849" stroke="black" stroke-linecap="round" stroke-linejoin="round"/>
<path d="M6.80274 69.3671H89.9206" stroke="black" stroke-linecap="round" stroke-linejoin="round"/>
<path d="M20.1233 69.126H46.8548V62.3753C46.8548 59.3616 45.9808 56.3781 44.263 53.8767C42.3342 51.074 39.0192 48.3918 33.474 48.3918C27.9288 48.3918 24.6137 51.0137 22.6849 53.726C20.9671 56.137 20.0932 59.0904 20.0932 62.0438V69.126H20.1233Z" stroke="black" stroke-linecap="round" stroke-linejoin="round"/>
<path d="M33.5041 47.6986C39.0493 47.6986 43.5699 43.2082 43.5699 37.6329C43.5699 32.0575 39.0795 27.5671 33.5041 27.5671C27.9288 27.5671 23.4384 32.0575 23.4384 37.6329C23.4384 43.2082 27.9288 47.6986 33.5041 47.6986Z" stroke="black" stroke-linecap="round" stroke-linejoin="round"/>
</g>
</g>
<defs>
<clipPath id="clip0_4062_21839">
<rect width="86.4931" height="88" fill="white" transform="translate(4.75343 4)"/>
</clipPath>
</defs>
</svg>
