<svg width="96" height="96" viewBox="0 0 96 96" fill="none" xmlns="http://www.w3.org/2000/svg">
<g clip-path="url(#clip0_4062_21896)">
<mask id="mask0_4062_21896" style="mask-type:luminance" maskUnits="userSpaceOnUse" x="4" y="4" width="88" height="88">
<path d="M91.7077 4H4.14624V91.883H91.7077V4Z" fill="white"/>
</mask>
<g mask="url(#mask0_4062_21896)">
<path d="M61.7701 90.7136H90.5382V83.4339C90.5382 80.1887 89.6027 76.9728 87.7608 74.2831C85.6851 71.2718 82.1183 68.3774 76.1542 68.3774C70.1901 68.3774 66.6233 71.1841 64.5476 74.1369C62.7057 76.7389 61.7701 79.8963 61.7701 83.0831V90.6844V90.7136Z" stroke="black" stroke-linecap="round" stroke-linejoin="round"/>
<path d="M76.1542 67.6465C82.1183 67.6465 86.9715 62.7934 86.9715 56.8292C86.9715 50.8651 82.1183 46.012 76.1542 46.012C70.1901 46.012 65.3369 50.8651 65.3369 56.8292C65.3369 62.7934 70.1901 67.6465 76.1542 67.6465Z" stroke="black" stroke-linecap="round" stroke-linejoin="round"/>
<path d="M5.31567 90.7136H34.0838V83.4339C34.0838 80.1887 33.1482 76.9728 31.3064 74.2831C29.2306 71.2718 25.6638 68.3774 19.6997 68.3774C13.7356 68.3774 10.1688 71.1841 8.09308 74.1369C6.25122 76.7389 5.31567 79.8963 5.31567 83.0831V90.6844V90.7136Z" stroke="black" stroke-linecap="round" stroke-linejoin="round"/>
<path d="M19.6997 67.6465C25.6638 67.6465 30.517 62.7934 30.517 56.8292C30.517 50.8651 25.6638 46.012 19.6997 46.012C13.7356 46.012 8.88245 50.8651 8.88245 56.8292C8.88245 62.7934 13.7356 67.6465 19.6997 67.6465Z" stroke="black" stroke-linecap="round" stroke-linejoin="round"/>
<path d="M33.6744 49.8711H62.4425V42.5914C62.4425 39.3462 61.507 36.1302 59.6651 33.4405C57.5894 30.4292 54.0226 27.5349 48.0585 27.5349C42.0944 27.5349 38.5276 30.3415 36.4518 33.2943C34.61 35.8963 33.6744 39.0538 33.6744 42.2405V49.8419V49.8711Z" stroke="black" stroke-linecap="round" stroke-linejoin="round"/>
<path d="M48.0585 26.804C54.0226 26.804 58.8758 21.9508 58.8758 15.9867C58.8758 10.0226 54.0518 5.16943 48.0585 5.16943C42.0651 5.16943 37.2412 10.0226 37.2412 15.9867C37.2412 21.9508 42.0944 26.804 48.0585 26.804Z" stroke="black" stroke-linecap="round" stroke-linejoin="round"/>
</g>
</g>
<defs>
<clipPath id="clip0_4062_21896">
<rect width="87.7076" height="88" fill="white" transform="translate(4.14624 4)"/>
</clipPath>
</defs>
</svg>
