<svg width="96" height="96" viewBox="0 0 96 96" fill="none" xmlns="http://www.w3.org/2000/svg">
<path d="M19.6589 37.538H76.3277" stroke="black" stroke-linejoin="round"/>
<path d="M37.7683 42.5587H30.0922C29.7741 42.5587 29.5162 42.8166 29.5162 43.1347V50.8109C29.5162 51.129 29.7741 51.3869 30.0922 51.3869H37.7683C38.0865 51.3869 38.3443 51.129 38.3443 50.8109V43.1347C38.3443 42.8166 38.0865 42.5587 37.7683 42.5587Z" stroke="black" stroke-linecap="round" stroke-linejoin="round"/>
<path d="M51.721 42.5587H44.0448C43.7267 42.5587 43.4688 42.8166 43.4688 43.1347V50.8109C43.4688 51.129 43.7267 51.3869 44.0448 51.3869H51.721C52.0391 51.3869 52.297 51.129 52.297 50.8109V43.1347C52.297 42.8166 52.0391 42.5587 51.721 42.5587Z" stroke="black" stroke-linecap="round" stroke-linejoin="round"/>
<path d="M65.6736 42.8198H57.9974C57.6793 42.8198 57.4214 43.0777 57.4214 43.3958V51.072C57.4214 51.3901 57.6793 51.648 57.9974 51.648H65.6736C65.9917 51.648 66.2496 51.3901 66.2496 51.072V43.3958C66.2496 43.0777 65.9917 42.8198 65.6736 42.8198Z" stroke="black" stroke-linecap="round" stroke-linejoin="round"/>
<path d="M37.7683 56.7936H30.0922C29.7741 56.7936 29.5162 57.0515 29.5162 57.3696V65.0457C29.5162 65.3639 29.7741 65.6217 30.0922 65.6217H37.7683C38.0865 65.6217 38.3443 65.3639 38.3443 65.0457V57.3696C38.3443 57.0515 38.0865 56.7936 37.7683 56.7936Z" stroke="black" stroke-linecap="round" stroke-linejoin="round"/>
<path d="M51.721 56.7936H44.0448C43.7267 56.7936 43.4688 57.0515 43.4688 57.3696V65.0457C43.4688 65.3639 43.7267 65.6217 44.0448 65.6217H51.721C52.0391 65.6217 52.297 65.3639 52.297 65.0457V57.3696C52.297 57.0515 52.0391 56.7936 51.721 56.7936Z" stroke="black" stroke-linecap="round" stroke-linejoin="round"/>
<path d="M65.6736 56.7936H57.9974C57.6793 56.7936 57.4214 57.0515 57.4214 57.3696V65.0457C57.4214 65.3639 57.6793 65.6217 57.9974 65.6217H65.6736C65.9917 65.6217 66.2496 65.3639 66.2496 65.0457V57.3696C66.2496 57.0515 65.9917 56.7936 65.6736 56.7936Z" stroke="black" stroke-linecap="round" stroke-linejoin="round"/>
<path d="M75.6595 28.1644H20.016C19.6979 28.1644 19.44 28.4223 19.44 28.7404V75.3619C19.44 75.68 19.6979 75.9379 20.016 75.9379H75.6595C75.9776 75.9379 76.2355 75.68 76.2355 75.3619V28.7404C76.2355 28.4223 75.9776 28.1644 75.6595 28.1644Z" stroke="black" stroke-linecap="round" stroke-linejoin="round"/>
<path d="M24.674 28.128C24.674 25.849 26.5229 24 28.8019 24C31.081 24 32.9299 25.849 32.9299 28.128" stroke="black" stroke-miterlimit="10" stroke-linecap="round"/>
<path d="M43.9277 28.128C43.9277 25.849 45.7766 24 48.0557 24C50.3347 24 52.1837 25.849 52.1837 28.128" stroke="black" stroke-miterlimit="10" stroke-linecap="round"/>
<path d="M63.1795 28.128C63.1795 25.849 65.0285 24 67.3075 24C69.5865 24 71.4355 25.849 71.4355 28.128" stroke="black" stroke-miterlimit="10" stroke-linecap="round"/>
</svg>
