<svg width="96" height="96" viewBox="0 0 96 96" fill="none" xmlns="http://www.w3.org/2000/svg">
<path d="M20.064 35.8081V70.0609C20.064 70.8865 20.736 71.5585 21.5616 71.5585H74.4576C75.2832 71.5585 75.9552 70.8865 75.9552 70.0609V35.8081C75.9552 32.7169 73.44 30.2017 70.3488 30.2017H25.6704C22.5792 30.2017 20.064 32.6977 20.064 35.8081Z" stroke="black" stroke-miterlimit="10" stroke-linecap="round"/>
<path d="M20.2944 38.4384H75.936" stroke="black" stroke-miterlimit="10" stroke-linecap="round"/>
<path d="M34.0416 24.4608V33.7728" stroke="black" stroke-miterlimit="10" stroke-linecap="round"/>
<path d="M61.9008 24.4608V33.7728" stroke="black" stroke-miterlimit="10" stroke-linecap="round"/>
<path d="M27.2064 45.7537H36.5184" stroke="black" stroke-miterlimit="10" stroke-linecap="round"/>
<path d="M43.5072 45.7537H52.8" stroke="black" stroke-miterlimit="10" stroke-linecap="round"/>
<path d="M59.5584 45.7537H68.8704" stroke="black" stroke-miterlimit="10" stroke-linecap="round"/>
<path d="M27.2064 54.2208H36.5184" stroke="black" stroke-miterlimit="10" stroke-linecap="round"/>
<path d="M43.5072 54.2208H52.8" stroke="black" stroke-miterlimit="10" stroke-linecap="round"/>
<path d="M59.5584 54.2208H68.8704" stroke="black" stroke-miterlimit="10" stroke-linecap="round"/>
<path d="M27.2064 62.688H36.5184" stroke="black" stroke-miterlimit="10" stroke-linecap="round"/>
<path d="M43.5072 62.688H52.8" stroke="black" stroke-miterlimit="10" stroke-linecap="round"/>
<path d="M59.5584 62.688H68.8704" stroke="black" stroke-miterlimit="10" stroke-linecap="round"/>
</svg>
