<svg width="96" height="96" viewBox="0 0 96 96" fill="none" xmlns="http://www.w3.org/2000/svg">
<g clip-path="url(#clip0_4062_21913)">
<mask id="mask0_4062_21913" style="mask-type:luminance" maskUnits="userSpaceOnUse" x="14" y="4" width="68" height="88">
<path d="M81.88 4H14.12V92H81.88V4Z" fill="white"/>
</mask>
<g mask="url(#mask0_4062_21913)">
<mask id="mask1_4062_21913" style="mask-type:luminance" maskUnits="userSpaceOnUse" x="14" y="4" width="68" height="88">
<path d="M81.6453 4H14.12V91.7067H81.6453V4Z" fill="white"/>
</mask>
<g mask="url(#mask1_4062_21913)">
<path d="M40.7547 27.1733V46.1227C40.7547 46.592 40.6373 47.0613 40.4027 47.5013L40.344 47.6187L15.4987 87.7173C15.1467 88.2747 15.3227 89.36 15.4693 89.5947C15.5867 89.8 15.88 90.5333 16.5547 90.5333H79.2107C79.856 90.5333 80.208 89.8 80.296 89.5947C80.384 89.36 80.6187 88.2747 80.2667 87.7173L55.4213 47.824L55.392 47.7653C55.1867 47.3253 55.0693 46.856 55.0693 46.3573V27.144H40.7547V27.1733Z" stroke="black" stroke-linecap="round" stroke-linejoin="round"/>
<path d="M57.0053 51.96C56.712 52.048 49.848 54.072 47.8533 54.4533C45.36 54.9227 35.9733 55.6853 35.592 55.7147C35.5333 55.6853 35.5333 55.7147 35.4747 55.7147" stroke="black" stroke-linecap="round" stroke-linejoin="round"/>
<path d="M58.7653 83.024C58.648 83.024 58.56 83.024 58.4427 82.9947C57.4453 82.848 56.7413 81.88 56.9173 80.8827C57.0053 80.384 57.2693 79.944 57.68 79.68C58.0613 79.3867 58.56 79.2693 59.0587 79.3573C59.528 79.416 59.968 79.7093 60.2613 80.0907C60.5547 80.5013 60.672 81 60.584 81.4694C60.496 81.968 60.232 82.408 59.8507 82.7013C59.528 82.9067 59.1467 83.024 58.7653 83.024Z" stroke="black" stroke-linecap="round" stroke-linejoin="round"/>
<path d="M51.52 74.9574C52.4587 74.9574 53.192 74.1947 53.192 73.256C53.192 72.3174 52.4587 71.5547 51.52 71.5547C50.552 71.5547 49.8187 72.3174 49.8187 73.256C49.8187 74.1947 50.552 74.9574 51.52 74.9574Z" fill="black" stroke="black" stroke-miterlimit="10"/>
<path d="M37.792 83.112C37.5867 83.112 37.4107 83.0827 37.2053 83.0533C35.1227 82.7307 33.7147 80.7653 34.0667 78.712C34.2133 77.7147 34.7707 76.8347 35.592 76.248C36.4133 75.6613 37.4107 75.4267 38.408 75.5733C39.4053 75.7493 40.2853 76.2773 40.9013 77.0987C41.488 77.9493 41.7227 78.9173 41.5467 79.944C41.4 80.9413 40.8427 81.8213 40.0213 82.408C39.3467 82.8773 38.584 83.0827 37.792 83.0827V83.112Z" stroke="black" stroke-linecap="round" stroke-linejoin="round"/>
<path d="M41.6347 66.5973C42.3973 66.5973 43.0133 65.952 43.0133 65.1893C43.0133 64.3973 42.3973 63.7813 41.6347 63.7813C40.8427 63.7813 40.2267 64.3973 40.2267 65.1893C40.2267 65.952 40.8427 66.5973 41.6347 66.5973Z" fill="black" stroke="black" stroke-miterlimit="10"/>
<path d="M53.456 64.4267C53.3093 64.4267 53.192 64.3973 53.0453 64.3973C51.5787 64.1627 50.6107 62.784 50.8453 61.3467C50.9333 60.6427 51.3147 60.0267 51.9013 59.616C52.488 59.2053 53.192 59.0293 53.896 59.1467C54.6 59.264 55.216 59.6453 55.6267 60.232C56.0373 60.7893 56.2133 61.4933 56.096 62.1973C55.9787 62.9013 55.5973 63.5173 55.0107 63.928C54.5413 64.2507 54.0133 64.4267 53.456 64.4267Z" stroke="black" stroke-linecap="round" stroke-linejoin="round"/>
<path d="M47.8827 45.888C47.736 45.888 47.6187 45.8587 47.472 45.8293C46.0053 45.5947 45.0373 44.2453 45.272 42.808C45.36 42.104 45.7413 41.488 46.328 41.048C46.9147 40.6373 47.6187 40.4907 48.3227 40.608C49.0267 40.7253 49.6427 41.1067 50.0533 41.664C50.464 42.2507 50.64 42.9547 50.5227 43.6587C50.4053 44.3627 50.024 44.9787 49.4373 45.3893C48.968 45.712 48.44 45.888 47.8827 45.888Z" stroke="black" stroke-linecap="round" stroke-linejoin="round"/>
<path d="M40.2853 23.3307C40.1093 23.3307 39.9333 23.3307 39.728 23.3013C37.792 22.9787 36.5013 21.16 36.7947 19.2533C36.9707 18.344 37.4693 17.4933 38.232 16.936C38.9947 16.408 39.9333 16.1733 40.872 16.32C41.7813 16.496 42.632 16.9947 43.16 17.7573C43.7173 18.52 43.952 19.4587 43.8053 20.3973C43.6293 21.3067 43.1307 22.1573 42.368 22.6853C41.752 23.1253 41.0187 23.3307 40.2853 23.3307Z" stroke="black" stroke-linecap="round" stroke-linejoin="round"/>
<path d="M54.9813 5.17334C53.8667 5.17334 52.7813 5.52534 51.8427 6.20001C50.6693 7.02134 49.9067 8.31201 49.6427 9.72001C49.4373 11.128 49.76 12.5653 50.5813 13.7387C51.432 14.912 52.6933 15.6747 54.1307 15.9387C55.5387 16.144 56.9467 15.8213 58.1493 15C59.3227 14.1493 60.0853 12.888 60.3493 11.4507C60.5547 10.0427 60.232 8.63467 59.3813 7.43201C58.56 6.25867 57.2987 5.49601 55.8613 5.23201C55.568 5.20267 55.2747 5.17334 55.0107 5.17334H54.9813Z" stroke="black" stroke-linecap="round" stroke-linejoin="round"/>
</g>
</g>
</g>
<defs>
<clipPath id="clip0_4062_21913">
<rect width="67.76" height="88" fill="white" transform="translate(14.12 4)"/>
</clipPath>
</defs>
</svg>
