<svg width="96" height="96" viewBox="0 0 96 96" fill="none" xmlns="http://www.w3.org/2000/svg">
<path d="M73.0752 35.6352C73.0368 36.0192 72.6336 36.2496 72.288 36.0768L68.7168 34.368" stroke="black" stroke-miterlimit="10" stroke-linecap="round"/>
<path d="M73.44 31.3728L73.0752 35.6352" stroke="black" stroke-miterlimit="10" stroke-linecap="round"/>
<path d="M36.4224 75.7632L34.5408 71.9232C34.368 71.5776 34.5984 71.1744 34.9824 71.136L38.9184 70.752" stroke="black" stroke-miterlimit="10" stroke-linecap="round"/>
<path d="M25.7472 27.552L29.8944 26.5536C30.2592 26.4576 30.6048 26.7648 30.5664 27.1488L30.0864 31.0656" stroke="black" stroke-miterlimit="10" stroke-linecap="round"/>
<path d="M31.9296 35.3088V59.712C31.9296 60.0192 32.1792 60.2496 32.4672 60.2496H63.2256C63.5328 60.2496 63.7632 60 63.7632 59.712V39.936C63.7632 39.6288 63.5136 39.3984 63.2256 39.3984H46.7136C46.5792 39.3984 46.464 39.36 46.368 39.264L41.184 34.8864C41.088 34.8096 40.9536 34.752 40.8384 34.752H32.4864C32.1792 34.752 31.9296 35.0016 31.9296 35.3088Z" stroke="black" stroke-miterlimit="10" stroke-linecap="round"/>
<path d="M27.8976 66.2976C23.3664 61.4016 20.5824 54.8544 20.5824 47.6544C20.5824 39.3216 24.288 31.872 30.1632 26.8416" stroke="black" stroke-miterlimit="10" stroke-linecap="round"/>
<path d="M74.8224 41.9136C75.2256 43.7568 75.4176 45.6768 75.4176 47.6544C75.4176 62.8032 63.1488 75.072 48 75.072C43.0848 75.072 38.4576 73.7856 34.464 71.5008" stroke="black" stroke-miterlimit="10" stroke-linecap="round"/>
<path d="M34.5408 23.7696C38.5152 21.5232 43.104 20.2368 48 20.2368C58.5408 20.2368 67.6992 26.1888 72.288 34.9248" stroke="black" stroke-miterlimit="10" stroke-linecap="round"/>
</svg>
