<svg width="96" height="96" viewBox="0 0 96 96" fill="none" xmlns="http://www.w3.org/2000/svg">
<g clip-path="url(#clip0_4062_21920)">
<mask id="mask0_4062_21920" style="mask-type:luminance" maskUnits="userSpaceOnUse" x="4" y="4" width="88" height="88">
<path d="M91.9706 4H4V92H91.9706V4Z" fill="white"/>
</mask>
<g mask="url(#mask0_4062_21920)">
<path d="M36.9338 62.3037H19.7164C11.9171 62.3037 5.26555 55.7993 5.17726 48C5.12134 41.2308 9.76856 35.6388 16.0669 34.1084C16.5967 33.9818 16.8615 33.402 16.6555 32.9311C16.0375 31.3418 14.9191 28.016 14.9191 24.0134C14.9191 13.8595 23.6308 5.67758 33.7552 5.20668C44.2328 4.73578 53.0033 12.8 54.2395 22.895C54.3072 23.4542 54.8575 23.8074 55.3873 23.6308C59.8903 22.1003 64.3933 21.7766 68.6609 24.0722C72.1632 25.9558 74.9003 29.2227 75.901 33.0783C75.9893 33.4314 76.2836 36.9043 76.6368 36.9632C79.4033 37.3164 90.8228 39.4943 90.7345 51.6789C90.6726 59.4194 84.0535 62.3037 76.313 62.3037H59.2722" stroke="black" stroke-miterlimit="10" stroke-linecap="round"/>
<path d="M40.495 70.0736V68.2488C40.495 65.7177 38.9351 63.9224 37.1986 62.2742C30.6943 56.1231 29.1639 46.293 34.9913 39.1117C38.1405 35.2267 42.9672 32.9017 47.9705 32.9017C57.1826 32.9017 64.6876 40.3772 64.6876 49.6187C64.6876 52.2675 64.1873 54.9458 63.0394 57.3297C61.8033 59.9197 59.7726 61.7445 57.6535 63.5986C56.3879 64.7465 55.6816 66.5418 55.5933 68.2488C55.505 68.396 55.5815 70.0736 55.5815 70.0736" stroke="black" stroke-miterlimit="10" stroke-linecap="round"/>
<path d="M53.5332 85.2602C53.5332 88.3211 51.0609 90.8227 47.9706 90.8227C44.8803 90.8227 42.4081 88.3505 42.4081 85.2602" stroke="black" stroke-miterlimit="10" stroke-linecap="round"/>
<path d="M47.9706 60.891C51.2963 60.891 54.004 58.1833 54.004 54.8575C54.004 51.5318 51.2963 48.8241 47.9706 48.8241C44.6448 48.8241 41.9371 51.5318 41.9371 54.8575C41.9371 58.1833 44.6448 60.891 47.9706 60.891Z" stroke="black" stroke-miterlimit="10" stroke-linecap="round"/>
<path d="M47.9706 70.0736V61.2736" stroke="black" stroke-miterlimit="10" stroke-linecap="round"/>
<path d="M57.9478 70.0736H37.7872C37.2869 70.0736 36.9043 70.4562 36.9043 70.9565V83.9064C36.9043 84.4067 37.2869 84.7893 37.7872 84.7893H57.9478C58.4481 84.7893 58.8307 84.4067 58.8307 83.9064V70.9565C58.8307 70.4562 58.4481 70.0736 57.9478 70.0736Z" stroke="black" stroke-miterlimit="10" stroke-linecap="round"/>
</g>
</g>
<defs>
<clipPath id="clip0_4062_21920">
<rect width="88" height="88" fill="white" transform="translate(4 4)"/>
</clipPath>
</defs>
</svg>
