<svg width="96" height="96" viewBox="0 0 96 96" fill="none" xmlns="http://www.w3.org/2000/svg">
<g clip-path="url(#clip0_4062_21868)">
<mask id="mask0_4062_21868" style="mask-type:luminance" maskUnits="userSpaceOnUse" x="4" y="4" width="88" height="88">
<path d="M91.8534 4H4.14673V92H91.8534V4Z" fill="white"/>
</mask>
<g mask="url(#mask0_4062_21868)">
<mask id="mask1_4062_21868" style="mask-type:luminance" maskUnits="userSpaceOnUse" x="4" y="4" width="88" height="88">
<path d="M91.8241 4H4.14673V91.7653H91.8241V4Z" fill="white"/>
</mask>
<g mask="url(#mask1_4062_21868)">
<path d="M26.9973 62.1093H19.8107C12.0373 62.1093 5.37868 55.6267 5.32001 47.8533C5.26134 41.1067 9.89601 35.5333 16.1733 34.008C16.7013 33.8613 16.9653 33.304 16.76 32.8053C16.144 31.2213 15.0587 27.9067 15.0587 23.9173C15.0587 13.8267 23.712 5.64267 33.832 5.20267C44.2747 4.73334 53.016 12.7413 54.248 22.8027C54.3067 23.36 54.864 23.712 55.392 23.536C59.88 22.0107 64.368 21.688 68.6507 24.0053C72.112 25.8533 74.8693 29.1093 75.8373 32.9813C75.9253 33.3333 76.2187 36.7947 76.6 36.8533C79.3573 37.176 90.7387 39.376 90.6507 51.52C90.5627 59.2053 83.992 62.1093 76.2773 62.1093H68.6507" stroke="black" stroke-miterlimit="10" stroke-linecap="round"/>
<path d="M47.9707 77.04C53.984 77.04 58.8533 72.1707 58.8533 66.1573C58.8533 60.1733 53.984 55.304 47.9707 55.304C41.9573 55.304 37.088 60.1733 37.088 66.1573C37.088 72.1707 41.9573 77.04 47.9707 77.04Z" stroke="black" stroke-miterlimit="10"/>
<path d="M47.9706 90.592H44.1573C43.8053 90.592 43.4826 90.2693 43.4826 89.9173V87.336C43.4826 87.0133 43.2773 86.7493 42.984 86.6907C40.344 86.0747 38.4373 85.1067 36.3253 83.552C36.0613 83.3467 35.68 83.376 35.4746 83.6107L34.448 84.608C34.184 84.872 33.7733 84.872 33.5093 84.608L29.7546 80.824C29.4906 80.5893 29.4906 80.1493 29.7546 79.8853L31.104 78.536C31.3093 78.3307 31.368 77.9787 31.192 77.744C30.048 75.808 28.4053 72.9333 27.848 70.7333C27.76 70.44 27.5253 70.2347 27.2026 70.2347L24.416 70.2053C24.064 70.176 23.7706 69.8827 23.7706 69.5307V62.9307C23.7706 62.5493 24.064 62.256 24.4453 62.256H27.2906C27.6133 62.256 27.848 62.0507 27.936 61.7573C28.552 59.6453 30.3413 56.9173 31.4853 55.0987C31.632 54.8347 31.6026 54.512 31.3973 54.2773L29.7546 52.4293C29.52 52.1653 29.52 51.784 29.7546 51.52L32.9226 48.3813C33.1866 48.1173 33.5973 48.1173 33.8613 48.3813L35.328 49.8187C35.5626 50.0533 35.9146 50.0827 36.1786 49.9067C38.2026 48.528 40.4613 47.5307 42.9546 47.0027C43.2773 46.9147 43.4826 46.6507 43.4826 46.328V42.7493C43.4826 42.3973 43.776 42.0747 44.128 42.0747H51.784C52.1653 42.0747 52.4586 42.3973 52.4586 42.7493L52.4293 46.328C52.4293 46.6507 52.664 46.9147 52.9866 47.0027C55.4506 47.5307 57.7386 48.528 59.7626 49.9067C60.0266 50.0827 60.3786 50.0533 60.6133 49.8187L62.08 48.3813C62.3146 48.1173 62.7546 48.1173 63.0186 48.3813L66.1573 51.52C66.4213 51.784 66.4213 52.1653 66.1866 52.4293L64.5146 54.2773C64.3386 54.512 64.3093 54.8347 64.456 55.0987C65.6 56.9173 67.3893 59.6453 67.976 61.7573C68.064 62.0507 68.328 62.2267 68.6213 62.256H71.496C71.848 62.256 72.1706 62.5493 72.1706 62.9307V69.5307C72.1706 69.8827 71.8773 70.2053 71.496 70.2053L68.7093 70.2347C68.416 70.2347 68.152 70.44 68.064 70.7333C67.5066 72.9333 65.864 75.808 64.72 77.744C64.5733 77.9787 64.632 78.3307 64.8373 78.536L66.1866 79.8853C66.4506 80.1493 66.4506 80.5893 66.1866 80.824L62.432 84.608C62.168 84.872 61.728 84.872 61.464 84.608L60.4666 83.6107C60.232 83.376 59.88 83.3467 59.616 83.552C57.504 85.1067 55.568 86.0747 52.9573 86.6907C52.6346 86.7493 52.4293 87.0133 52.4293 87.336V89.9173C52.4293 90.2693 52.136 90.592 51.7546 90.592H47.9706Z" stroke="black" stroke-miterlimit="10"/>
</g>
</g>
</g>
<defs>
<clipPath id="clip0_4062_21868">
<rect width="87.7067" height="88" fill="white" transform="translate(4.14673 4)"/>
</clipPath>
</defs>
</svg>
