<svg width="96" height="96" viewBox="0 0 96 96" fill="none" xmlns="http://www.w3.org/2000/svg">
<g clip-path="url(#clip0_4062_21902)">
<mask id="mask0_4062_21902" style="mask-type:luminance" maskUnits="userSpaceOnUse" x="4" y="4" width="88" height="88">
<path d="M91.9706 4H4V92H91.9706V4Z" fill="white"/>
</mask>
<g mask="url(#mask0_4062_21902)">
<path d="M90.7639 51.6789C90.7021 59.4194 84.0829 62.3037 76.3425 62.3037H19.7164C11.9171 62.3037 5.26555 55.7993 5.17726 48C5.12134 41.2308 9.76856 35.6388 16.0669 34.1084C16.5967 33.9818 16.8615 33.402 16.6555 32.9311C16.0375 31.3418 14.9191 28.016 14.9191 24.0134C14.9191 13.8595 23.6308 5.67758 33.7552 5.20668C44.2328 4.73578 53.0033 12.8 54.2395 22.895C54.3072 23.4542 54.8575 23.8074 55.3873 23.6308C59.8903 22.1003 64.3933 21.7766 68.6609 24.0722C72.1632 25.9558 74.9003 29.2227 75.901 33.0783C75.9893 33.4314 76.2836 36.9043 76.6368 36.9632C79.4033 37.3164 90.8228 39.4943 90.7345 51.6789H90.7315H90.7639Z" stroke="black" stroke-miterlimit="10" stroke-linecap="round"/>
<path d="M68.9258 47.8823H27.0154C26.5151 47.8823 26.1324 48.2649 26.1324 48.7652V61.303C26.1324 61.8033 26.5151 62.1859 27.0154 62.1859H68.9258C69.4261 62.1859 69.8087 61.8033 69.8087 61.303V48.7652C69.8087 48.2649 69.4261 47.8823 68.9258 47.8823Z" stroke="black" stroke-miterlimit="10" stroke-linecap="round"/>
<path d="M26.1324 77.7257V63.0983C26.1324 62.598 26.5445 62.2154 27.0154 62.2154H68.9258C69.4261 62.2154 69.8087 62.598 69.8087 63.0983V77.7257" stroke="black" stroke-miterlimit="10" stroke-linecap="round"/>
<path d="M27.0154 76.4896H68.9258C69.3967 76.4896 69.8087 76.8722 69.8087 77.3726V89.9104C69.8087 90.4107 69.4261 90.7933 68.9258 90.7933H27.0154C26.5445 90.7933 26.1324 90.4107 26.1324 89.9104V77.3431C26.1324 76.8722 26.5151 76.4602 27.0154 76.4602V76.4896Z" stroke="black" stroke-miterlimit="10" stroke-linecap="round"/>
</g>
</g>
<defs>
<clipPath id="clip0_4062_21902">
<rect width="88" height="88" fill="white" transform="translate(4 4)"/>
</clipPath>
</defs>
</svg>
