<svg width="96" height="96" viewBox="0 0 96 96" fill="none" xmlns="http://www.w3.org/2000/svg">
<g clip-path="url(#clip0_4062_21766)">
<mask id="mask0_4062_21766" style="mask-type:luminance" maskUnits="userSpaceOnUse" x="4" y="4" width="88" height="88">
<path d="M92 4H4V92H92V4Z" fill="white"/>
</mask>
<g mask="url(#mask0_4062_21766)">
<mask id="mask1_4062_21766" style="mask-type:luminance" maskUnits="userSpaceOnUse" x="4" y="4" width="88" height="88">
<path d="M91.9706 4H4V91.9706H91.9706V4Z" fill="white"/>
</mask>
<g mask="url(#mask1_4062_21766)">
<path d="M47.9706 59.0368V48.8829C47.9706 48.3826 47.588 48 47.0876 48H42.4963C41.7017 48 41.3191 47.0582 41.8488 46.499L52.6796 35.1385C53.0328 34.7559 53.592 34.7559 53.9452 35.1385L64.9231 46.499C65.4528 47.0582 65.0702 48 64.2756 48H59.7431C59.2722 48 58.8602 48.3826 58.8602 48.8829V61.4207C58.8602 61.8916 59.2722 62.3037 59.7431 62.3037H76.3719C84.0829 62.3037 90.705 59.39 90.7639 51.6789C90.7933 48.0883 89.7338 44.5565 87.2615 41.9371C85.4074 39.9652 82.9646 38.6408 80.4335 37.7873C79.5505 37.5224 78.6676 37.3458 77.7552 37.1692C77.0783 37.0221 76.4602 36.9926 76.2542 36.2274C76.1365 35.8448 76.1365 35.4916 76.107 35.109C75.6656 30.7826 73.4582 27.1037 69.7793 24.6903C69.4261 24.4843 69.0729 24.2488 68.6903 24.0428C64.4227 21.7472 59.9197 22.0709 55.4167 23.6013C54.887 23.7779 54.3278 23.4247 54.2689 22.895C53.0328 12.7706 44.2622 4.73578 33.7846 5.20669C23.6308 5.64816 14.9485 13.8301 14.9485 23.9839C14.9485 27.9866 16.0375 31.3124 16.6555 32.9017C16.8615 33.402 16.5967 33.9612 16.0669 34.0789C9.798 35.6388 5.14783 41.1719 5.17726 47.9117C5.20669 55.8876 11.8582 62.3037 19.8341 62.3037H36.2863C36.7866 62.3037 37.1692 62.6863 37.1692 63.1866V76.7251C37.1692 77.196 36.7866 77.608 36.2863 77.608H31.7539C30.9592 77.608 30.5766 78.5498 31.1064 79.109L42.1726 90.5579C42.4669 90.8816 42.9672 90.8522 43.2615 90.5579L54.0923 79.1679C54.6221 78.6087 54.2395 77.6963 53.4743 77.6963H48.8535C48.3826 77.6963 47.9706 77.2843 47.9706 76.8134V59.0074V59.0368Z" stroke="black" stroke-miterlimit="10" stroke-linecap="round"/>
</g>
</g>
</g>
<defs>
<clipPath id="clip0_4062_21766">
<rect width="88" height="88" fill="white" transform="translate(4 4)"/>
</clipPath>
</defs>
</svg>
