<svg width="96" height="96" viewBox="0 0 96 96" fill="none" xmlns="http://www.w3.org/2000/svg">
<g clip-path="url(#clip0_4062_21897)">
<mask id="mask0_4062_21897" style="mask-type:luminance" maskUnits="userSpaceOnUse" x="4" y="4" width="88" height="88">
<path d="M91.8241 4H4.14673V91.824H91.8241V4Z" fill="white"/>
</mask>
<g mask="url(#mask0_4062_21897)">
<path d="M90.6214 51.52C90.5598 59.2347 83.9627 62.1093 76.2481 62.1093H19.8107C12.0374 62.1093 5.40808 55.6267 5.32008 47.8533C5.26434 41.1067 9.89608 35.5333 16.1734 34.008C16.7014 33.8819 16.9654 33.304 16.7601 32.8347C16.1441 31.2507 15.0294 27.936 15.0294 23.9467C15.0294 13.8267 23.7121 5.672 33.8027 5.20266C44.2454 4.73333 52.9867 12.7707 54.2187 22.832C54.2862 23.3893 54.8347 23.7413 55.3627 23.5653C59.8507 22.04 64.3387 21.7173 68.5921 24.0053C72.0827 25.8827 74.8107 29.1387 75.8081 32.9813C75.8961 33.3333 76.1894 36.7947 76.5414 36.8533C79.2987 37.2053 90.6801 39.376 90.5921 51.52H90.5891H90.6214Z" stroke="black" stroke-miterlimit="10" stroke-linecap="round"/>
<path d="M48.0294 47.3253V79.7387" stroke="black" stroke-miterlimit="10" stroke-linecap="round"/>
<path d="M48.0001 90.6507C50.9041 90.6507 53.2507 88.304 53.2507 85.4C53.2507 82.496 50.9041 80.1493 48.0001 80.1493C45.0961 80.1493 42.7494 82.496 42.7494 85.4C42.7494 88.304 45.0961 90.6507 48.0001 90.6507Z" stroke="black" stroke-miterlimit="10" stroke-linecap="round"/>
<path d="M12.8881 89.7707C15.7921 89.7707 18.1388 87.424 18.1388 84.52C18.1388 81.616 15.7921 79.2693 12.8881 79.2693C9.98412 79.2693 7.63745 81.616 7.63745 84.52C7.63745 87.424 9.98412 89.7707 12.8881 89.7707Z" stroke="black" stroke-miterlimit="10" stroke-linecap="round"/>
<path d="M83.2001 89.7707C86.1041 89.7707 88.4508 87.424 88.4508 84.52C88.4508 81.616 86.1041 79.2693 83.2001 79.2693C80.2961 79.2693 77.9495 81.616 77.9495 84.52C77.9495 87.424 80.2961 89.7707 83.2001 89.7707Z" stroke="black" stroke-miterlimit="10" stroke-linecap="round"/>
<path d="M48.0001 46.9147C51.6961 46.9147 54.6881 43.9227 54.6881 40.2267C54.6881 36.5307 51.6961 33.5387 48.0001 33.5387C44.3041 33.5387 41.3121 36.5307 41.3121 40.2267C41.3121 43.9227 44.3041 46.9147 48.0001 46.9147Z" stroke="black" stroke-miterlimit="10" stroke-linecap="round"/>
<path d="M75.1628 52.8987C78.1548 52.8987 80.5894 50.464 80.5894 47.472C80.5894 44.48 78.1548 42.0453 75.1628 42.0453C72.1708 42.0453 69.7361 44.48 69.7361 47.472C69.7361 50.464 72.1708 52.8987 75.1628 52.8987Z" stroke="black" stroke-miterlimit="10" stroke-linecap="round"/>
<path d="M21.2774 52.8987C24.2694 52.8987 26.704 50.464 26.704 47.472C26.704 44.48 24.2694 42.0453 21.2774 42.0453C18.2854 42.0453 15.8507 44.48 15.8507 47.472C15.8507 50.464 18.2854 52.8987 21.2774 52.8987Z" stroke="black" stroke-miterlimit="10" stroke-linecap="round"/>
<path d="M75.1627 52.8987V84.4907H77.3627" stroke="black" stroke-linecap="round" stroke-linejoin="round"/>
<path d="M21.3654 52.8987V84.4907H19.1654" stroke="black" stroke-linecap="round" stroke-linejoin="round"/>
</g>
</g>
<defs>
<clipPath id="clip0_4062_21897">
<rect width="87.7067" height="88" fill="white" transform="translate(4.14673 4)"/>
</clipPath>
</defs>
</svg>
