<svg width="96" height="96" viewBox="0 0 96 96" fill="none" xmlns="http://www.w3.org/2000/svg">
<g clip-path="url(#clip0_4062_21907)">
<mask id="mask0_4062_21907" style="mask-type:luminance" maskUnits="userSpaceOnUse" x="4" y="9" width="88" height="78">
<path d="M92 9.59198H4V86.408H92V9.59198Z" fill="white"/>
</mask>
<g mask="url(#mask0_4062_21907)">
<mask id="mask1_4062_21907" style="mask-type:luminance" maskUnits="userSpaceOnUse" x="4" y="9" width="88" height="78">
<path d="M92 9.59198H4V86.3786H92V9.59198Z" fill="white"/>
</mask>
<g mask="url(#mask1_4062_21907)">
<path d="M88.8214 10.7692H7.17858C6.06019 10.7692 5.17725 11.6816 5.17725 12.7706V83.1706C5.17725 84.289 6.08962 85.2013 7.17858 85.2013H88.8214C89.9104 85.2013 90.8227 84.289 90.8227 83.1706V12.7706C90.8227 11.6522 89.9104 10.7692 88.8214 10.7692Z" stroke="black" stroke-miterlimit="10" stroke-linecap="round"/>
<path d="M6.38391 26.1913H89.6454" stroke="black" stroke-linecap="round" stroke-linejoin="round"/>
<path d="M48 66.8656C54.0334 66.8656 58.9191 61.9799 58.9191 55.9465C58.9191 49.9425 54.0334 45.0569 48 45.0569C41.9666 45.0569 37.0809 49.9425 37.0809 55.9465C37.0809 61.9799 41.9666 66.8656 48 66.8656Z" stroke="black" stroke-miterlimit="10"/>
<path d="M47.9999 80.4335H44.1738C43.8207 80.4335 43.4969 80.1391 43.4969 79.786V77.1666C43.4969 76.8723 43.2909 76.6074 42.9966 76.5191C40.3478 75.9305 38.4347 74.9298 36.3157 73.3993C36.0508 73.1933 35.6976 73.2228 35.4621 73.4582L34.432 74.4589C34.1672 74.6943 33.7551 74.6943 33.4902 74.4589L29.723 70.6622C29.4581 70.3973 29.4581 69.9853 29.723 69.7204L31.0769 68.3666C31.2829 68.1606 31.3417 67.8074 31.1651 67.5425C30.0173 65.6 28.3692 62.7452 27.81 60.5378C27.7511 60.2435 27.4862 60.0375 27.1625 60.008L24.3665 59.9786C24.0133 59.9786 23.719 59.6843 23.719 59.3311V52.6796C23.719 52.3264 24.0133 52.0321 24.3959 52.0321L27.2508 52.0027C27.5745 52.0027 27.81 51.7967 27.8983 51.5024C28.5163 49.4127 30.3116 46.6756 31.4595 44.8214C31.6066 44.586 31.5772 44.2622 31.3712 44.0268L29.723 42.1726C29.4876 41.9077 29.4876 41.4957 29.7524 41.2602L32.9016 38.0816C33.1665 37.8167 33.5785 37.8167 33.8434 38.0816L35.315 39.5532C35.5504 39.7886 35.9036 39.8181 36.1391 39.6415C38.1993 38.2582 40.4655 37.2575 42.9672 36.6983C43.2909 36.6395 43.4969 36.3746 43.4969 36.0509V32.4602C43.4969 32.0776 43.7912 31.7833 44.1444 31.7833H51.826C52.2086 31.7833 52.5029 32.0776 52.5029 32.4602L52.4735 36.0509C52.4735 36.3746 52.709 36.6395 53.0327 36.6983C55.5344 37.2575 57.8006 38.2582 59.8314 39.6415C60.0963 39.8181 60.4494 39.7886 60.6849 39.5532L62.1565 38.0816C62.3919 37.8462 62.8334 37.8462 63.0983 38.0816L66.2474 41.2602C66.5123 41.4957 66.5123 41.9077 66.2769 42.1726L64.5993 44.0268C64.3932 44.2622 64.3932 44.586 64.5404 44.8214C65.6882 46.6756 67.4835 49.4127 68.0722 51.5024C68.1605 51.7967 68.4253 52.0027 68.7197 52.0027L71.6039 52.0321C71.9571 52.0321 72.2809 52.3264 72.2809 52.6796V59.3311C72.2809 59.6843 71.9866 59.9786 71.6039 59.9786L68.808 60.008C68.5136 60.008 68.2488 60.2435 68.1899 60.5378C67.6013 62.7452 65.9531 65.6 64.8053 67.5425C64.6581 67.8074 64.6876 68.1606 64.923 68.3666L66.2769 69.7204C66.5417 69.9853 66.5417 70.3973 66.2769 70.6622L62.5096 74.4589C62.2447 74.6943 61.8033 74.7238 61.5678 74.4589L60.5377 73.4582C60.3023 73.2228 59.9491 73.1933 59.6842 73.3993C57.5651 74.9298 55.6227 75.901 53.0033 76.5191C52.6795 76.6074 52.4735 76.8723 52.4735 77.1666V79.786C52.4735 80.1391 52.1792 80.4335 51.7966 80.4335H47.9999Z" stroke="black" stroke-miterlimit="10"/>
</g>
</g>
</g>
<defs>
<clipPath id="clip0_4062_21907">
<rect width="88" height="76.8161" fill="white" transform="translate(4 9.59198)"/>
</clipPath>
</defs>
</svg>
