<svg width="96" height="96" viewBox="0 0 96 96" fill="none" xmlns="http://www.w3.org/2000/svg">
<mask id="mask0_4062_21735" style="mask-type:luminance" maskUnits="userSpaceOnUse" x="4" y="16" width="88" height="64">
<path d="M91.885 16.7974H4V79.0013H91.885V16.7974Z" fill="white"/>
</mask>
<g mask="url(#mask0_4062_21735)">
<path d="M62.2065 17.9477C66.1464 17.9477 69.3386 21.1111 69.3386 24.9935V70.8052C69.3386 74.6876 66.1464 77.851 62.2065 77.851H12.2824C8.34249 77.851 5.15033 74.6876 5.15033 70.8052V24.9935C5.15033 21.1111 8.34249 17.9477 12.2824 17.9477H62.2065ZM62.2065 17.9477H62.2037" stroke="black" stroke-linejoin="round"/>
<path d="M69.3386 37.3307L86.7085 27.2941C87.9739 26.5464 89.6131 26.9778 90.3608 28.2432C90.5908 28.6458 90.7346 29.1059 90.7346 29.5948V66.2039C90.7346 67.6706 89.5268 68.8497 88.0601 68.8497C87.6 68.8497 87.1111 68.726 86.7085 68.4758L69.3386 58.4392" stroke="black" stroke-linejoin="round"/>
</g>
</svg>
