<svg width="96" height="96" viewBox="0 0 96 96" fill="none" xmlns="http://www.w3.org/2000/svg">
<g clip-path="url(#clip0_4062_21825)">
<mask id="mask0_4062_21825" style="mask-type:luminance" maskUnits="userSpaceOnUse" x="4" y="4" width="88" height="88">
<path d="M91.7037 4H4.29626V92H91.7037V4Z" fill="white"/>
</mask>
<g mask="url(#mask0_4062_21825)">
<path d="M48.2074 47.2889C52.7111 47.2889 56.3259 43.6445 56.3259 39.1408C56.3259 34.6371 52.6815 30.9926 48.2074 30.9926C43.7333 30.9926 40.0889 34.6371 40.0889 39.1408C40.0889 43.6445 43.7333 47.2889 48.2074 47.2889Z" stroke="black" stroke-miterlimit="10"/>
<path d="M60.0296 59.763C60.0296 53.0074 54.5481 47.5259 47.7925 47.5852C41.0962 47.6356 35.7333 53.2148 35.7333 59.9111V63.8815C35.7333 64.16 35.9703 64.3852 36.237 64.3852H60.0296V59.763ZM60.0296 59.763V59.757" stroke="black" stroke-miterlimit="10"/>
<path d="M47.9704 16.8889C51.1704 16.8889 53.7482 14.3111 53.7482 11.1111C53.7482 7.91112 51.1704 5.33334 47.9704 5.33334C44.7704 5.33334 42.1926 7.91112 42.1926 11.1111C42.1926 14.3111 44.7704 16.8889 47.9704 16.8889Z" stroke="black" stroke-miterlimit="10"/>
<path d="M73.4519 27.9704C76.6519 27.9704 79.2296 25.3926 79.2296 22.1926C79.2296 18.9926 76.6519 16.4148 73.4519 16.4148C70.2519 16.4148 67.6741 18.9926 67.6741 22.1926C67.6741 25.3926 70.2519 27.9704 73.4519 27.9704Z" stroke="black" stroke-miterlimit="10"/>
<path d="M84.6223 53.6889C87.8223 53.6889 90.4 51.1111 90.4 47.9111C90.4 44.7111 87.8223 42.1333 84.6223 42.1333C81.4223 42.1333 78.8445 44.7111 78.8445 47.9111C78.8445 51.1111 81.4223 53.6889 84.6223 53.6889Z" stroke="black" stroke-miterlimit="10"/>
<path d="M74.0444 78.9333C77.2444 78.9333 79.8222 76.3556 79.8222 73.1556C79.8222 69.9556 77.2444 67.3778 74.0444 67.3778C70.8444 67.3778 68.2666 69.9556 68.2666 73.1556C68.2666 76.3556 70.8444 78.9333 74.0444 78.9333Z" stroke="black" stroke-miterlimit="10"/>
<path d="M47.8814 90.6667C51.0814 90.6667 53.6592 88.0889 53.6592 84.8889C53.6592 81.6889 51.0814 79.1111 47.8814 79.1111C44.6814 79.1111 42.1036 81.6889 42.1036 84.8889C42.1036 88.0889 44.6814 90.6667 47.8814 90.6667Z" stroke="black" stroke-miterlimit="10"/>
<path d="M21.363 79.1111C24.563 79.1111 27.1408 76.5334 27.1408 73.3334C27.1408 70.1334 24.563 67.5556 21.363 67.5556C18.163 67.5556 15.5852 70.1334 15.5852 73.3334C15.5852 76.5334 18.163 79.1111 21.363 79.1111Z" stroke="black" stroke-miterlimit="10"/>
<path d="M11.3778 52.6815C14.5778 52.6815 17.1555 50.1037 17.1555 46.9037C17.1555 43.7037 14.5778 41.1259 11.3778 41.1259C8.17775 41.1259 5.59998 43.7037 5.59998 46.9037C5.59998 50.1037 8.17775 52.6815 11.3778 52.6815Z" stroke="black" stroke-miterlimit="10"/>
<path d="M22.1926 27.9704C25.3926 27.9704 27.9704 25.3926 27.9704 22.1926C27.9704 18.9926 25.3926 16.4148 22.1926 16.4148C18.9926 16.4148 16.4148 18.9926 16.4148 22.1926C16.4148 25.3926 18.9926 27.9704 22.1926 27.9704Z" stroke="black" stroke-miterlimit="10"/>
<path d="M26.3704 18.2815C30.963 14.9037 36.3259 12.5926 42.1926 11.6444" stroke="black" stroke-miterlimit="10"/>
<path d="M12 41.1556C13.0074 35.763 15.2 30.7556 18.2815 26.4593" stroke="black" stroke-miterlimit="10"/>
<path d="M17.8074 68.6815C14.6074 64 12.4445 58.5778 11.7037 52.6815" stroke="black" stroke-miterlimit="10"/>
<path d="M41.9851 84.1482C35.9407 83.1408 30.4296 80.6815 25.7777 77.0963" stroke="black" stroke-miterlimit="10"/>
<path d="M69.9851 77.2741C65.3036 80.8 59.7333 83.2296 53.6592 84.1778" stroke="black" stroke-miterlimit="10"/>
<path d="M84.1777 53.6889C83.2888 59.2593 81.1851 64.4148 78.1036 68.8296" stroke="black" stroke-miterlimit="10"/>
<path d="M77.5703 26.2519C80.9185 30.8445 83.2296 36.2667 84.1481 42.1333" stroke="black" stroke-miterlimit="10"/>
<path d="M53.7777 11.6444C59.5259 12.563 64.8296 14.8148 69.3629 18.1037" stroke="black" stroke-miterlimit="10"/>
</g>
</g>
<defs>
<clipPath id="clip0_4062_21825">
<rect width="87.4074" height="88" fill="white" transform="translate(4.29626 4)"/>
</clipPath>
</defs>
</svg>
