<svg width="96" height="96" viewBox="0 0 96 96" fill="none" xmlns="http://www.w3.org/2000/svg">
<path d="M39.5713 33.504V46.176C39.5713 46.176 44.5441 45.0624 44.5441 48.864C44.5441 53.4336 39.5713 51.9168 39.5713 51.9168V62.4768H28.4737C26.6305 62.4768 24.8257 61.9392 23.3089 60.9024C21.6001 59.712 19.9489 57.6384 19.9489 54.144C19.9489 46.8288 27.4561 46.656 27.4561 46.656C27.4561 46.656 29.0689 34.5216 39.5713 33.504Z" stroke="black" stroke-linecap="round" stroke-linejoin="round"/>
<path d="M48.6335 33.504V46.176C48.6335 46.176 54.3935 44.5824 54.3935 48.9408C54.3935 53.2992 48.6335 51.9936 48.6335 51.9936V62.496H70.0031C70.0031 62.496 76.0319 61.4016 76.0319 55.68C76.0319 49.9584 71.2127 48.864 69.7151 48.6528C69.7151 48.6528 71.2319 43.0656 66.2783 40.3968C61.3247 37.728 58.6367 40.0512 58.6367 40.0512C58.6367 40.0512 55.3343 34.0032 48.6335 33.504Z" stroke="black" stroke-linecap="round" stroke-linejoin="round"/>
</svg>
