<svg width="96" height="96" viewBox="0 0 96 96" fill="none" xmlns="http://www.w3.org/2000/svg">
<path d="M20.64 19.9488H32.2944C32.4672 19.9488 32.6208 20.0256 32.7168 20.1408L35.5584 23.3664C35.6544 23.4624 35.712 23.616 35.712 23.7504V40.7616C35.712 41.088 35.4624 41.3376 35.136 41.3376H20.7168C20.3904 41.3376 20.1408 41.088 20.1408 40.7616L20.064 20.5248C20.064 20.2176 20.3328 19.9488 20.64 19.9488Z" stroke="black" stroke-linecap="round" stroke-linejoin="round"/>
<path d="M23.9808 27.1104H31.7952" stroke="black" stroke-linecap="round" stroke-linejoin="round"/>
<path d="M23.9808 34.1184H31.7952" stroke="black" stroke-linecap="round" stroke-linejoin="round"/>
<path d="M40.8 19.9488H52.4544C52.6272 19.9488 52.7808 20.0256 52.8768 20.1408L55.7184 23.3664C55.8144 23.4624 55.872 23.616 55.872 23.7504V40.7616C55.872 41.088 55.6224 41.3376 55.296 41.3376H40.8768C40.5504 41.3376 40.3008 41.088 40.3008 40.7616L40.224 20.5248C40.224 20.2176 40.4736 19.9488 40.8 19.9488Z" stroke="black" stroke-linecap="round" stroke-linejoin="round"/>
<path d="M44.1407 27.1104H51.9551" stroke="black" stroke-linecap="round" stroke-linejoin="round"/>
<path d="M44.1407 34.1184H51.9551" stroke="black" stroke-linecap="round" stroke-linejoin="round"/>
<path d="M60.96 19.9488H72.6144C72.7872 19.9488 72.9408 20.0256 73.0368 20.1408L75.8784 23.3664C75.9744 23.4624 76.032 23.616 76.032 23.7504V40.7616C76.032 41.088 75.7824 41.3376 75.456 41.3376H61.0368C60.7104 41.3376 60.4608 41.088 60.4608 40.7616L60.384 20.5248C60.384 20.2176 60.6336 19.9488 60.96 19.9488Z" stroke="black" stroke-linecap="round" stroke-linejoin="round"/>
<path d="M64.2816 27.1104H72.1152" stroke="black" stroke-linecap="round" stroke-linejoin="round"/>
<path d="M64.2816 34.1184H72.1152" stroke="black" stroke-linecap="round" stroke-linejoin="round"/>
<path d="M27.8593 41.3376V48.7488C27.8593 49.0752 28.1089 49.3248 28.4353 49.3248H68.736C69.0624 49.3248 69.312 49.0752 69.312 48.7488V41.3376" stroke="black" stroke-linecap="round" stroke-linejoin="round"/>
<path d="M47.8848 41.3376V58.1184" stroke="black" stroke-linecap="round" stroke-linejoin="round"/>
<path d="M50.9952 55.5264L48.2496 59.1168C48 59.4432 47.52 59.4048 47.3088 59.0784L45.1008 55.5456" stroke="black" stroke-miterlimit="10" stroke-linecap="round"/>
<path d="M20.5056 62.2272H38.5344C38.688 62.2272 38.8224 62.2848 38.9376 62.4L43.2576 66.6816C43.3728 66.7968 43.5072 66.8544 43.6608 66.8544H52.512C52.6656 66.8544 52.8 66.7968 52.9152 66.6816L57.2352 62.4C57.3504 62.2848 57.4848 62.2272 57.6384 62.2272H75.4752C75.8016 62.2272 76.0512 62.4768 76.0512 62.8032V75.4752C76.0512 75.8016 75.8016 76.0512 75.4752 76.0512H20.6016C20.2944 76.0512 20.0256 75.8016 20.0256 75.4752L19.9296 62.8032C19.9296 62.4768 20.1792 62.2272 20.5056 62.2272Z" stroke="black" stroke-linecap="round" stroke-linejoin="round"/>
</svg>
