<svg width="96" height="96" viewBox="0 0 96 96" fill="none" xmlns="http://www.w3.org/2000/svg">
<g clip-path="url(#clip0_4062_21869)">
<mask id="mask0_4062_21869" style="mask-type:luminance" maskUnits="userSpaceOnUse" x="4" y="4" width="88" height="88">
<path d="M92 4.29236H4V91.7076H92V4.29236Z" fill="white"/>
</mask>
<g mask="url(#mask0_4062_21869)">
<mask id="mask1_4062_21869" style="mask-type:luminance" maskUnits="userSpaceOnUse" x="4" y="4" width="88" height="88">
<path d="M91.7369 4.29236H4V91.5907H91.7369V4.29236Z" fill="white"/>
</mask>
<g mask="url(#mask1_4062_21869)">
<path d="M25.9561 64.8691C34.2591 64.8691 40.9834 58.1448 40.9834 49.8418C40.9834 41.5389 34.2591 34.8146 25.9561 34.8146C17.6532 34.8146 10.9289 41.5389 10.9289 49.8418C10.9289 58.1448 17.6532 64.8691 25.9561 64.8691Z" stroke="black" stroke-miterlimit="10"/>
<path d="M5.16943 89.5442V86.4452C5.16943 75.1016 14.0864 65.6585 25.4299 65.3369C37.212 65.0153 46.7429 74.4585 46.7429 86.182V89.5442C46.7429 90.0119 46.3336 90.4213 45.8658 90.4213H6.04651C5.5495 90.4213 5.16943 90.0119 5.16943 89.5442Z" stroke="black" stroke-miterlimit="10"/>
<path d="M90.5674 53.6133V22.1555C90.5674 21.6877 90.1581 21.2784 89.6904 21.2784H82.586C82.089 21.2784 81.709 21.6877 81.709 22.1555V53.6133C81.709 54.0811 82.089 54.4611 82.586 54.4611H89.6904C90.1581 54.4611 90.5674 54.0811 90.5674 53.6133Z" stroke="black" stroke-miterlimit="10"/>
<path d="M76.2126 53.6133V37.6797C76.2126 37.1827 75.8033 36.8026 75.3356 36.8026H68.2312C67.7342 36.8026 67.3542 37.1827 67.3542 37.6797V53.6133C67.3542 54.081 67.7342 54.4611 68.2312 54.4611H75.3356C75.8033 54.4611 76.2126 54.081 76.2126 53.6133Z" stroke="black" stroke-miterlimit="10"/>
<path d="M61.8578 53.6133V25.8684C61.8578 25.3714 61.4485 24.9914 60.9807 24.9914H53.8472C53.3794 24.9914 52.9993 25.3714 52.9993 25.8684V53.6133C52.9993 54.0811 53.3794 54.4611 53.8472 54.4611H60.9807C61.4485 54.4611 61.8578 54.0811 61.8578 53.6133Z" stroke="black" stroke-miterlimit="10"/>
<path d="M57.4139 20.7521C59.6359 20.7521 61.4777 18.9395 61.4777 16.7176C61.4777 14.4664 59.6359 12.6538 57.4139 12.6538C55.192 12.6538 53.3794 14.4664 53.3794 16.7176C53.3794 18.9395 55.192 20.7521 57.4139 20.7521Z" stroke="black" stroke-miterlimit="10"/>
<path d="M71.7688 31.7449C73.9907 31.7449 75.8326 29.9322 75.8326 27.7103C75.8326 25.4591 73.9907 23.6465 71.7688 23.6465C69.5468 23.6465 67.7342 25.4591 67.7342 27.7103C67.7342 29.9322 69.5468 31.7449 71.7688 31.7449Z" stroke="black" stroke-miterlimit="10"/>
<path d="M86.1236 13.5601C88.3747 13.5601 90.1874 11.7475 90.1874 9.49634C90.1874 7.27442 88.3747 5.46179 86.1236 5.46179C83.9017 5.46179 82.089 7.27442 82.089 9.49634C82.089 11.7475 83.9017 13.5601 86.1236 13.5601Z" stroke="black" stroke-miterlimit="10"/>
<path d="M60.8053 18.9395L68.5528 25.2837" stroke="black" stroke-miterlimit="10"/>
<path d="M74.0784 24.1435L84.4279 12.6538" stroke="black" stroke-miterlimit="10"/>
</g>
</g>
</g>
<defs>
<clipPath id="clip0_4062_21869">
<rect width="88" height="87.4153" fill="white" transform="translate(4 4.29236)"/>
</clipPath>
</defs>
</svg>
