<svg width="96" height="96" viewBox="0 0 96 96" fill="none" xmlns="http://www.w3.org/2000/svg">
<path d="M32.5056 57.408C32.5056 57.408 20.0832 59.4816 20.0832 48.4416C20.0832 48.4416 19.392 39.5712 28.1664 38.9568C28.1664 38.9568 24.3264 28.3392 32.64 22.6176C40.9536 16.896 51.9744 22.7904 52.3776 32.5632C52.3776 32.5632 58.7712 30.2208 62.3232 33.1008C65.8944 35.9808 66.1824 40.896 66.1824 40.896C66.1824 40.896 72.8256 40.8 75.2064 45.6C76.512 48.2112 76.0128 51.3984 74.016 53.5296C72.1152 55.5456 68.4288 57.5808 61.3632 57.5808" stroke="black" stroke-linecap="round" stroke-linejoin="round"/>
<path d="M46.9824 44.1216V56.5248C46.9824 56.9664 47.4624 57.2544 47.8464 57.024C49.44 56.0832 52.9344 54.2208 56.2368 53.8752C56.5248 53.8368 56.7552 53.5872 56.7552 53.2992L56.5824 39.7824C56.5824 39.456 56.2944 39.1872 55.968 39.2064C54.1824 39.3216 48.8832 39.9936 47.0208 43.8528C47.0016 43.9488 46.9824 44.0256 46.9824 44.1216Z" stroke="black" stroke-linecap="round" stroke-linejoin="round"/>
<path d="M47.0784 44.1216V56.5248C47.0784 56.9664 46.5984 57.2544 46.2144 57.024C44.6208 56.0832 41.1264 54.2208 37.824 53.8752C37.536 53.8368 37.3056 53.5872 37.3056 53.2992L37.4784 39.7824C37.4784 39.456 37.7664 39.1872 38.0928 39.2064C39.8784 39.3216 45.1776 39.9936 47.04 43.8528C47.0592 43.9488 47.0784 44.0256 47.0784 44.1216Z" stroke="black" stroke-linecap="round" stroke-linejoin="round"/>
<path d="M37.1904 41.8944H33.2928C32.9664 41.8944 32.7168 42.144 32.7168 42.4704V57.3888C32.7168 57.7344 33.024 58.0032 33.3504 57.9648C35.328 57.7344 41.472 57.3312 46.8864 59.9808" stroke="black" stroke-linecap="round" stroke-linejoin="round"/>
<path d="M56.7744 41.8944H60.672C60.9984 41.8944 61.248 42.144 61.248 42.4704V57.3888C61.248 57.7344 60.9408 58.0032 60.6144 57.9648C58.6368 57.7344 52.4928 57.3312 47.0784 59.9808V70.1376" stroke="black" stroke-linecap="round" stroke-linejoin="round"/>
<path d="M32.5824 70.1376V63.7632C32.5824 63.4368 32.832 63.1872 33.1584 63.1872H60.8064C61.1328 63.1872 61.3824 63.4368 61.3824 63.7632V70.1376" stroke="black" stroke-linecap="round" stroke-linejoin="round"/>
<path d="M32.5824 75.6288C33.9079 75.6288 34.9824 74.5543 34.9824 73.2288C34.9824 71.9033 33.9079 70.8288 32.5824 70.8288C31.2569 70.8288 30.1824 71.9033 30.1824 73.2288C30.1824 74.5543 31.2569 75.6288 32.5824 75.6288Z" stroke="black" stroke-linecap="round" stroke-linejoin="round"/>
<path d="M49.4677 73.617C49.6801 72.3087 48.7916 71.0759 47.4833 70.8635C46.1749 70.6511 44.9421 71.5396 44.7297 72.848C44.5173 74.1563 45.4058 75.3891 46.7142 75.6015C48.0225 75.8139 49.2553 74.9254 49.4677 73.617Z" stroke="black" stroke-linecap="round" stroke-linejoin="round"/>
<path d="M61.3824 75.6288C62.7079 75.6288 63.7824 74.5543 63.7824 73.2288C63.7824 71.9033 62.7079 70.8288 61.3824 70.8288C60.0569 70.8288 58.9824 71.9033 58.9824 73.2288C58.9824 74.5543 60.0569 75.6288 61.3824 75.6288Z" stroke="black" stroke-linecap="round" stroke-linejoin="round"/>
</svg>
