<svg width="96" height="96" viewBox="0 0 96 96" fill="none" xmlns="http://www.w3.org/2000/svg">
<g clip-path="url(#clip0_4062_21861)">
<mask id="mask0_4062_21861" style="mask-type:luminance" maskUnits="userSpaceOnUse" x="4" y="4" width="88" height="88">
<path d="M91.9706 4H4V91.9411H91.9706V4Z" fill="white"/>
</mask>
<g mask="url(#mask0_4062_21861)">
<path d="M55.3579 52.8562C58.2127 52.8562 60.5084 50.5605 60.5084 47.7057C60.5084 44.8508 58.2127 42.5552 55.3579 42.5552C52.503 42.5552 50.2074 44.8508 50.2074 47.7057C50.2074 50.5605 52.503 52.8562 55.3579 52.8562Z" stroke="black" stroke-miterlimit="10"/>
<path d="M85.9665 52.8562C88.8214 52.8562 91.117 50.5605 91.117 47.7057C91.117 44.8508 88.8214 42.5552 85.9665 42.5552C83.1117 42.5552 80.816 44.8508 80.816 47.7057C80.816 50.5605 83.1117 52.8562 85.9665 52.8562Z" stroke="black" stroke-miterlimit="10"/>
<path d="M60.5084 47.7057H80.0803" stroke="black"/>
<path d="M83.9064 15.7726C86.7612 15.7726 89.0569 13.4769 89.0569 10.6221C89.0569 7.76721 86.7612 5.47156 83.9064 5.47156C81.0515 5.47156 78.7559 7.76721 78.7559 10.6221C78.7559 13.4769 81.0515 15.7726 83.9064 15.7726Z" stroke="black" stroke-miterlimit="10"/>
<path d="M79.0502 10.7692H63.2749C63.0159 10.7692 62.7746 10.8811 62.598 11.093L55.7993 19.01" stroke="black"/>
<path d="M55.9465 25.6615C53.7686 24.9846 51.4435 24.602 49.0301 24.602C36.3452 24.602 26.0736 34.8736 26.0736 47.5585C26.0736 60.2435 36.3452 70.515 49.0301 70.515C51.4435 70.515 53.7686 70.1324 55.9465 69.4555" stroke="black"/>
</g>
<path d="M55.7699 41.9665L55.8023 5.47156C55.8023 5.30969 55.6698 5.17725 55.5079 5.17725H39.7327L39.5679 13.7712C34.7117 15.8903 32.8281 16.891 28.9137 19.6575C28.4428 19.9813 27.8247 19.9342 27.4421 19.5398L22.7331 15.4488L15.0221 23.6013L19.7311 28.5458C17.4354 32.1953 13.109 40.7304 13.109 40.7304H5.17725V54.8575H13.006C13.7712 58.8896 16.9204 65.8354 18.9217 69.2201L15.1251 73.0461L22.9833 80.9043L26.2796 77.6669C30.4883 80.816 34.1378 83.2 39.5532 84.2007V90.7639H55.7699V53.4448" stroke="black" stroke-linecap="round" stroke-linejoin="round"/>
</g>
<defs>
<clipPath id="clip0_4062_21861">
<rect width="88" height="88" fill="white" transform="translate(4 4)"/>
</clipPath>
</defs>
</svg>
