<svg width="96" height="96" viewBox="0 0 96 96" fill="none" xmlns="http://www.w3.org/2000/svg">
<path d="M66.624 76.8H29.376C29.0573 76.8 28.8 76.5428 28.8 76.224V20.6938C28.8 20.3751 29.0573 20.1178 29.376 20.1178H56.64C56.7898 20.1178 56.9357 20.1773 57.0432 20.281L61.6973 24.8276C61.6973 24.8276 61.7146 24.8448 61.7242 24.8525L67.0003 29.3914C67.127 29.5008 67.2 29.6602 67.2 29.8272V76.2221C67.2 76.5408 66.9427 76.7981 66.624 76.7981V76.8Z" stroke="black" stroke-linecap="round" stroke-linejoin="round"/>
<path d="M57.6 20.8397V28.3508C57.6 28.6695 57.8573 28.9268 58.176 28.9268H66.457" stroke="black" stroke-linejoin="round"/>
<path d="M38.4 38.4H57.6" stroke="black" stroke-linecap="round" stroke-linejoin="round"/>
<path d="M38.4 47.6698H57.6" stroke="black" stroke-linecap="round" stroke-linejoin="round"/>
<path d="M37.4515 57.2698H56.6515" stroke="black" stroke-linecap="round" stroke-linejoin="round"/>
</svg>
