<svg width="96" height="96" viewBox="0 0 96 96" fill="none" xmlns="http://www.w3.org/2000/svg">
<g clip-path="url(#clip0_4062_21898)">
<mask id="mask0_4062_21898" style="mask-type:luminance" maskUnits="userSpaceOnUse" x="4" y="7" width="88" height="82">
<path d="M91.9114 7.10068H4V88.6336H91.9114V7.10068Z" fill="white"/>
</mask>
<g mask="url(#mask0_4062_21898)">
<path d="M63.9758 69.5571L68.3463 76.0537C69.8228 78.2685 73.1302 78.1208 74.4295 75.8057L90.2873 47.4271C90.9074 46.3345 90.8778 44.9761 90.2607 43.913L70.6497 10.0537C70 8.96109 68.8188 8.28189 67.549 8.28189H27.2403C25.9409 8.28189 24.7302 8.99062 24.1101 10.1423L5.62417 43.9248C5.03356 44.9879 5.03356 46.3168 5.63598 47.3799L21.4642 75.7879C22.7635 78.1208 26.0709 78.2389 27.5474 76.0419L31.9179 69.5453" stroke="black" stroke-miterlimit="10"/>
<path d="M27.4175 61.1409L45.8443 86.3597C46.9074 87.8362 49.0926 87.8362 50.1852 86.3597L68.6121 61.1409C75.6993 51.4255 75.0497 38.0779 67.047 29.1007C56.9181 17.7611 39.1705 17.7611 29.0416 29.1007C21.0094 38.0779 20.3597 51.4255 27.4765 61.1409H27.4795H27.4175ZM27.4175 61.1409L26.7087 61.6725" stroke="black" stroke-miterlimit="10"/>
<path d="M63.1786 45.7557C63.1786 54.1423 56.3866 60.9343 48.0001 60.9343C39.6135 60.9343 32.8215 54.1423 32.8215 45.7557C32.8215 37.3692 39.6135 30.5772 48.0001 30.5772C56.3866 30.5772 63.1786 37.3692 63.1786 45.7557Z" stroke="black" stroke-miterlimit="10"/>
</g>
</g>
<defs>
<clipPath id="clip0_4062_21898">
<rect width="88" height="81.7987" fill="white" transform="translate(4 7.10068)"/>
</clipPath>
</defs>
</svg>
