<svg width="96" height="96" viewBox="0 0 96 96" fill="none" xmlns="http://www.w3.org/2000/svg">
<mask id="mask0_4062_21849" style="mask-type:luminance" maskUnits="userSpaceOnUse" x="4" y="9" width="88" height="78">
<path d="M91.9114 9.46307H4V86.4778H91.9114V9.46307Z" fill="white"/>
</mask>
<g mask="url(#mask0_4062_21849)">
<path d="M90.051 37.8711L50.0376 84.3221C48.945 85.5919 46.9665 85.5919 45.8443 84.3221L22.545 57.2725L62.7061 11.5893C63.2376 10.9986 63.9759 10.6443 64.7732 10.6443H87.9544C89.4899 10.6443 90.7302 11.8846 90.7302 13.4201V36.0698C90.7302 36.7195 90.494 37.3691 90.051 37.8711Z" stroke="black" stroke-miterlimit="10"/>
<path d="M5.86041 37.8711L5.21074 38.4322M33.2054 11.5893L73.3664 57.2725L50.0671 84.3221C48.9745 85.5919 46.9664 85.5919 45.8738 84.3221L5.86041 37.8711C5.41746 37.3691 5.18121 36.7195 5.18121 36.0698V13.4201C5.18121 11.8846 6.42148 10.6443 7.95705 10.6443H31.1383C31.9356 10.6443 32.6738 10.9986 33.2054 11.5893ZM33.2054 11.5893L33.855 11.0282" stroke="black" stroke-miterlimit="10"/>
<path d="M45.8739 84.3221L22.5745 57.2725L47.9705 28.3624L73.3665 57.2429L59.694 73.1302L50.0671 84.2926C48.9745 85.5624 46.996 85.5624 45.8739 84.2926V84.3221Z" stroke="black" stroke-miterlimit="10"/>
</g>
</svg>
