<svg width="96" height="96" viewBox="0 0 96 96" fill="none" xmlns="http://www.w3.org/2000/svg">
<mask id="mask0_4062_21739" style="mask-type:luminance" maskUnits="userSpaceOnUse" x="0" y="0" width="96" height="96">
<path d="M95.8684 0H0V95.764H95.8684V0Z" fill="white"/>
</mask>
<g mask="url(#mask0_4062_21739)">
<path d="M61.0034 21.0974H2.98918C2.04845 21.0974 1.2843 21.8666 1.2843 22.8169V92.7547C1.2843 93.7018 2.04845 94.4743 2.98918 94.4743H72.4592C73.3999 94.4743 74.164 93.705 74.164 92.7547V31.2016" stroke="black" stroke-miterlimit="10" stroke-linecap="round"/>
<path d="M1.42877 45.4594H74.0163" stroke="black" stroke-linecap="round" stroke-linejoin="round"/>
<path d="M1.42877 70.0541H74.0163" stroke="black" stroke-linecap="round" stroke-linejoin="round"/>
<path d="M60.236 40.3652C63.1321 40.3652 65.4791 38.0024 65.4791 35.0869C65.4791 32.1713 63.1321 29.8085 60.236 29.8085C57.3399 29.8085 54.9929 32.1713 54.9929 35.0869C54.9929 38.0024 57.3399 40.3652 60.236 40.3652Z" stroke="black" stroke-miterlimit="10"/>
<path d="M60.236 62.6295C63.1321 62.6295 65.4791 60.2666 65.4791 57.3511C65.4791 54.4355 63.1321 52.0727 60.236 52.0727C57.3399 52.0727 54.9929 54.4355 54.9929 57.3511C54.9929 60.2666 57.3399 62.6295 60.236 62.6295Z" stroke="black" stroke-miterlimit="10"/>
<path d="M60.236 86.1672C63.1321 86.1672 65.4791 83.8044 65.4791 80.8889C65.4791 77.9733 63.1321 75.6105 60.236 75.6105C57.3399 75.6105 54.9929 77.9733 54.9929 80.8889C54.9929 83.8044 57.3399 86.1672 60.236 86.1672Z" stroke="black" stroke-miterlimit="10"/>
<path d="M75.1208 31.1402C83.3081 31.1402 89.9446 24.459 89.9446 16.2165C89.9446 7.97412 83.3081 1.29291 75.1208 1.29291C66.9335 1.29291 60.297 7.97412 60.297 16.2165C60.297 24.459 66.9335 31.1402 75.1208 31.1402Z" stroke="black" stroke-miterlimit="10" stroke-linecap="round"/>
<path d="M87.4274 24.5656L93.6883 30.1446C94.7864 31.124 94.8891 32.8113 93.9163 33.9167C92.9434 35.0222 91.2674 35.1256 90.1694 34.1462L83.9085 28.5672" stroke="black" stroke-miterlimit="10" stroke-linecap="round"/>
</g>
</svg>
