<svg width="96" height="96" viewBox="0 0 96 96" fill="none" xmlns="http://www.w3.org/2000/svg">
<g clip-path="url(#clip0_4062_21921)">
<mask id="mask0_4062_21921" style="mask-type:luminance" maskUnits="userSpaceOnUse" x="4" y="4" width="88" height="88">
<path d="M91.9114 4H4V91.9114H91.9114V4Z" fill="white"/>
</mask>
<g mask="url(#mask0_4062_21921)">
<path d="M47.9409 30.5772C59.4282 35.1839 67.549 46.4054 67.549 59.5463C67.549 59.9007 67.549 60.2846 67.5313 60.6685C62.1863 65.0094 55.3648 67.5785 47.9527 67.5785C40.5407 67.5785 33.7192 64.9799 28.3742 60.6685C28.3742 60.3141 28.3565 59.9302 28.3565 59.5463C28.3565 46.4054 36.4773 35.1839 47.9646 30.5772H47.9409Z" stroke="black" stroke-miterlimit="10"/>
<path d="M79.1249 35.243C73.7799 30.902 66.9584 28.3329 59.5463 28.3329C42.3302 28.3329 28.3624 42.3007 28.3624 59.5168C28.3624 59.8711 28.3624 60.255 28.392 60.6389C21.3047 54.9101 16.7866 46.1691 16.7866 36.3651C16.7571 19.149 30.7249 5.18121 47.941 5.18121C65.1571 5.18121 78.5343 18.5584 79.0953 35.243H79.1249Z" stroke="black" stroke-miterlimit="10"/>
<path d="M67.549 60.6389C62.204 64.9799 55.3826 67.549 47.9705 67.549C30.7544 67.549 16.7866 53.5812 16.7866 36.3651C16.7866 36.0107 16.7866 35.6268 16.8161 35.243C9.69933 40.9718 5.18121 49.7423 5.18121 59.5463C5.18121 76.7624 19.149 90.7302 36.3651 90.7302C53.5812 90.7302 66.9584 77.353 67.5195 60.6685L67.549 60.6389Z" stroke="black" stroke-miterlimit="10"/>
<path d="M47.9409 88.5155C59.4282 83.9087 67.549 72.6873 67.549 59.5463C67.549 46.4054 59.4282 35.1839 47.9409 30.5772C51.5141 29.1597 55.4121 28.3624 59.5168 28.3624C76.7329 28.3624 90.7006 42.3302 90.7006 59.5463C90.7006 76.7624 76.7329 90.7302 59.5168 90.7302C55.4416 90.7302 51.5141 89.9329 47.9409 88.5155ZM47.9409 88.5155V88.5095" stroke="black" stroke-miterlimit="10"/>
</g>
</g>
<defs>
<clipPath id="clip0_4062_21921">
<rect width="88" height="88" fill="white" transform="translate(4 4)"/>
</clipPath>
</defs>
</svg>
