<svg width="96" height="96" viewBox="0 0 96 96" fill="none" xmlns="http://www.w3.org/2000/svg">
<mask id="mask0_4062_21829" style="mask-type:luminance" maskUnits="userSpaceOnUse" x="4" y="5" width="88" height="85">
<path d="M91.9708 5.90033H4V89.895H91.9708V5.90033Z" fill="white"/>
</mask>
<g mask="url(#mask0_4062_21829)">
<path d="M47.1522 82.9662L42.3575 88.0824C41.6558 88.8718 40.4279 88.8718 39.7262 88.0824L5.60797 49.0525C5.02325 48.3801 5.02325 47.4153 5.60797 46.7429L39.7262 7.74223C40.4279 6.95287 41.6558 6.95287 42.3575 7.74223L47.1229 12.8585" stroke="black" stroke-linecap="round" stroke-linejoin="round"/>
<path d="M75.8326 64.8399L54.5197 88.1701C53.818 88.9303 52.6193 88.9303 51.9469 88.1701L36.3057 71.0964C35.0778 69.7808 35.0778 67.7342 36.3057 66.3894L51.0991 50.2512C52.327 48.9356 52.327 46.8891 51.0991 45.5442L36.3057 29.406C35.0778 28.0904 35.0778 26.0439 36.3057 24.699L51.9177 7.65451C52.6193 6.89438 53.818 6.89438 54.4904 7.65451L78.5808 34.0253" stroke="black" stroke-linecap="round" stroke-linejoin="round"/>
<path d="M69.7515 29.8738C71.1256 28.3827 73.4937 28.3827 74.8678 29.8738L90.3336 46.7429C90.9475 47.4153 90.9475 48.4385 90.3336 49.111L74.8678 65.9801C73.4937 67.4711 71.1256 67.4711 69.7515 65.9801L56.4492 51.4498C54.6366 49.4618 54.6366 46.392 56.4492 44.404L69.7515 29.8738Z" stroke="black" stroke-linecap="round" stroke-linejoin="round"/>
</g>
</svg>
