<svg width="96" height="96" viewBox="0 0 96 96" fill="none" xmlns="http://www.w3.org/2000/svg">
<g clip-path="url(#clip0_4062_21904)">
<mask id="mask0_4062_21904" style="mask-type:luminance" maskUnits="userSpaceOnUse" x="4" y="4" width="88" height="88">
<path d="M91.8544 4H4.14575V92H91.8544V4Z" fill="white"/>
</mask>
<g mask="url(#mask0_4062_21904)">
<mask id="mask1_4062_21904" style="mask-type:luminance" maskUnits="userSpaceOnUse" x="4" y="4" width="88" height="88">
<path d="M91.8252 4H4.14575V91.796H91.8252V4Z" fill="white"/>
</mask>
<g mask="url(#mask1_4062_21904)">
<path d="M48.0291 58.6649C54.0026 58.6649 58.8397 53.8278 58.8397 47.8543C58.8397 41.91 54.0026 37.0729 48.0291 37.0729C42.0848 37.0729 37.2477 41.91 37.2477 47.8543C37.2477 53.8278 42.0848 58.6649 48.0291 58.6649Z" stroke="black" stroke-miterlimit="10"/>
<path d="M48.0291 71.9523H44.241C43.8914 71.9523 43.6 71.661 43.6 71.2822V68.7179C43.6 68.4265 43.396 68.1351 43.0755 68.0769C40.4821 67.4649 38.5589 66.5033 36.4609 64.959C36.1987 64.7841 35.849 64.8133 35.6159 65.0173L34.596 66.008C34.3629 66.2702 33.9258 66.2702 33.6636 66.008L29.9338 62.2782C29.6715 62.0159 29.6715 61.608 29.9338 61.3457L31.2741 60.0053C31.4781 59.7722 31.5364 59.4517 31.3907 59.1894C30.2251 57.2663 28.6225 54.4398 28.0397 52.2543C27.9814 51.9629 27.7192 51.7298 27.4278 51.7298L24.6596 51.7007C24.2808 51.7007 23.9894 51.4093 23.9894 51.0305V44.4742C23.9894 44.1245 24.2808 43.8331 24.6596 43.8331L27.5152 43.804C27.8066 43.804 28.0689 43.6 28.1271 43.3086C28.7391 41.2398 30.5165 38.5007 31.653 36.6941C31.7987 36.4318 31.7695 36.1113 31.5947 35.9073L29.9338 34.0716C29.7006 33.8093 29.7006 33.4014 29.9629 33.1682L33.0808 30.0212C33.343 29.759 33.751 29.759 34.0132 30.0212L35.4702 31.4782C35.7033 31.7113 36.053 31.7404 36.3152 31.5656C38.3258 30.1961 40.5695 29.2053 43.0463 28.6517C43.3669 28.5934 43.5708 28.3312 43.5708 28.0106V24.4557C43.5708 24.0769 43.8622 23.7855 44.241 23.7855H51.8463C52.196 23.7855 52.4874 24.0769 52.4874 24.4557V28.0106C52.4874 28.3312 52.6914 28.5934 53.0119 28.6517C55.4887 29.2053 57.7324 30.1961 59.743 31.5656C60.0053 31.7404 60.3549 31.7113 60.5881 31.4782L62.045 30.0212C62.3073 29.759 62.7152 29.759 62.9775 30.0212L66.0953 33.1682C66.3576 33.4014 66.3576 33.8093 66.1245 34.0716L64.4927 35.9073C64.2887 36.1113 64.2596 36.461 64.4053 36.6941C65.5417 38.5007 67.3192 41.2398 67.9311 43.3086C68.0185 43.6 68.2516 43.804 68.543 43.804L71.3987 43.8331C71.7775 43.8331 72.0689 44.1245 72.0689 44.4742V51.0305C72.0689 51.4093 71.7775 51.7007 71.3987 51.7007L68.6596 51.7298C68.339 51.7298 68.0768 51.9629 68.0185 52.2543C67.4357 54.4398 65.8331 57.2663 64.6967 59.1894C64.5218 59.4517 64.5801 59.7722 64.7841 60.0053L66.1245 61.3457C66.3867 61.608 66.3867 62.0159 66.1245 62.2782L62.3947 66.008C62.1324 66.2702 61.7245 66.2702 61.4622 66.008L60.4424 65.0173C60.2092 64.8133 59.8596 64.7841 59.5973 64.959C57.4993 66.5033 55.6053 67.4649 52.9828 68.0769C52.6914 68.1351 52.4583 68.4265 52.4583 68.7179V71.2822C52.4583 71.661 52.1669 71.9523 51.8172 71.9523H48.0291Z" stroke="black" stroke-miterlimit="10"/>
<path d="M47.8544 89.7272V77.1974" stroke="black" stroke-linecap="round" stroke-linejoin="round"/>
<path d="M43.5709 86.1431L48.0292 90.6305L52.5166 86.114" stroke="black" stroke-linecap="round" stroke-linejoin="round"/>
<path d="M89.7564 47.8252H77.2266" stroke="black" stroke-linecap="round" stroke-linejoin="round"/>
<path d="M86.1722 52.1378L90.6596 47.6504L86.1431 43.1921" stroke="black" stroke-linecap="round" stroke-linejoin="round"/>
<path d="M48.204 6.03973V18.5695" stroke="black" stroke-linecap="round" stroke-linejoin="round"/>
<path d="M52.5166 9.62387L48.0292 5.16559L43.5709 9.68214" stroke="black" stroke-linecap="round" stroke-linejoin="round"/>
<path d="M6.18542 47.6795H18.7152" stroke="black" stroke-linecap="round" stroke-linejoin="round"/>
<path d="M9.76956 43.3961L5.31128 47.8543L9.82784 52.3418" stroke="black" stroke-linecap="round" stroke-linejoin="round"/>
<path d="M75.2741 75.3325L67.0861 67.1444" stroke="black" stroke-linecap="round" stroke-linejoin="round"/>
<path d="M70.1166 75.7987H75.9735L75.9444 69.9418" stroke="black" stroke-linecap="round" stroke-linejoin="round"/>
<path d="M75.2741 20.4927L67.0861 28.71" stroke="black" stroke-linecap="round" stroke-linejoin="round"/>
<path d="M75.7404 25.6504V19.8226L69.8834 19.8517" stroke="black" stroke-linecap="round" stroke-linejoin="round"/>
<path d="M20.755 20.347L28.9431 28.5643" stroke="black" stroke-linecap="round" stroke-linejoin="round"/>
<path d="M25.9126 19.8808H20.0557L20.0848 25.7669" stroke="black" stroke-linecap="round" stroke-linejoin="round"/>
<path d="M20.4927 75.0994L28.7099 66.8821" stroke="black" stroke-linecap="round" stroke-linejoin="round"/>
<path d="M20.0265 69.9418V75.7696H25.9126" stroke="black" stroke-linecap="round" stroke-linejoin="round"/>
</g>
</g>
</g>
<defs>
<clipPath id="clip0_4062_21904">
<rect width="87.7086" height="88" fill="white" transform="translate(4.14575 4)"/>
</clipPath>
</defs>
</svg>
