<svg width="96" height="96" viewBox="0 0 96 96" fill="none" xmlns="http://www.w3.org/2000/svg">
<g clip-path="url(#clip0_4062_21880)">
<mask id="mask0_4062_21880" style="mask-type:luminance" maskUnits="userSpaceOnUse" x="4" y="4" width="88" height="88">
<path d="M92 4H4V92H92V4Z" fill="white"/>
</mask>
<g mask="url(#mask0_4062_21880)">
<mask id="mask1_4062_21880" style="mask-type:luminance" maskUnits="userSpaceOnUse" x="4" y="4" width="88" height="88">
<path d="M91.8823 4H4V91.8823H91.8823V4Z" fill="white"/>
</mask>
<g mask="url(#mask1_4062_21880)">
<path d="M87.9385 32.7545C89.7338 37.493 90.705 42.6141 90.705 47.9411C90.705 71.5746 71.5746 90.705 47.9411 90.705C43.703 90.705 39.612 90.087 35.7271 88.9391C30.1057 87.2615 24.9552 84.4656 20.5405 80.7866" stroke="black" stroke-miterlimit="10" stroke-linecap="round"/>
<path d="M6.97258 60.2435C5.79532 56.3291 5.17726 52.2087 5.17726 47.9411C5.17726 24.3371 24.3371 5.17725 47.9411 5.17725C57.6241 5.17725 66.5712 8.38527 73.7231 13.8301" stroke="black" stroke-miterlimit="10" stroke-linecap="round"/>
<path d="M77.4314 21.5117C79.992 21.5117 82.0522 19.4515 82.0522 16.8909C82.0522 14.3598 79.992 12.2702 77.4314 12.2702C74.8709 12.2702 72.8107 14.3598 72.8107 16.8909C72.8107 19.4515 74.8709 21.5117 77.4314 21.5117Z" stroke="black" stroke-miterlimit="10"/>
<path d="M17.097 82.1993C19.6575 82.1993 21.7177 80.1391 21.7177 77.5786C21.7177 75.018 19.6575 72.9578 17.097 72.9578C14.5659 72.9578 12.5057 75.018 12.5057 77.5786C12.5057 80.1391 14.5659 82.1993 17.097 82.1993Z" stroke="black" stroke-miterlimit="10"/>
<path d="M42.7906 43.6441C40.2007 42.0548 38.4937 39.2294 38.4937 35.9625C38.4937 30.9886 42.5258 26.9271 47.4997 26.9271C52.503 26.9271 56.5351 30.9886 56.5351 35.9625C56.5351 39.0234 55.0341 41.7016 52.709 43.3498" stroke="black" stroke-miterlimit="10"/>
<path d="M33.6375 45.5572C32.6957 43.9385 31.3124 41.5839 30.8415 39.7298C30.7826 39.4943 30.5766 39.3177 30.3117 39.3177L28.0161 39.2883C27.6923 39.2883 27.4569 39.0528 27.4569 38.7291V33.2548C27.4569 32.9605 27.6923 32.6956 28.0161 32.6956H30.4C30.6355 32.6956 30.8415 32.5191 30.9298 32.2836C31.4301 30.5472 32.9017 28.2515 33.8729 26.7505C33.9906 26.5445 33.9612 26.2796 33.8141 26.0736L32.4308 24.5431C32.2248 24.3371 32.2248 23.9839 32.4308 23.7779L35.0502 21.1585C35.2856 20.9525 35.6388 20.9525 35.8448 21.1585L37.0515 22.3946C37.2575 22.5712 37.5224 22.6007 37.7579 22.4535C39.4355 21.3057 41.3191 20.4816 43.3793 20.0107C43.6442 19.9518 43.8207 19.7458 43.8207 19.4809V16.5084C43.8207 16.214 44.0562 15.9492 44.3799 15.9492H50.7371C51.0314 15.9492 51.2669 16.214 51.2669 16.5084V19.4809C51.2669 19.7458 51.4435 19.9518 51.7084 20.0107C53.7686 20.4816 55.6522 21.3057 57.3298 22.4535C57.5652 22.6007 57.8595 22.5712 58.0361 22.3946L59.2428 21.1585C59.4783 20.9525 59.8314 20.9525 60.0375 21.1585L62.6569 23.7779C62.8629 23.9839 62.8629 24.3371 62.6569 24.5431L61.303 26.0736C61.1264 26.2796 61.097 26.5445 61.2442 26.7505C62.186 28.2515 63.6575 30.5472 64.1579 32.2836C64.2462 32.5191 64.4522 32.6956 64.6876 32.6956H67.0716C67.3953 32.6956 67.6308 32.9605 67.6308 33.2548V38.7291C67.6308 39.0528 67.3953 39.2883 67.0716 39.2883L64.7759 39.3177C64.511 39.3177 64.305 39.4943 64.2462 39.7298C63.7753 41.5839 62.4214 43.9385 61.4502 45.5572" stroke="black" stroke-miterlimit="10"/>
<path d="M47.4997 68.1311C52.503 68.1311 56.5351 64.099 56.5351 59.1251C56.5351 54.1217 52.503 50.0896 47.4997 50.0896C42.5258 50.0896 38.4937 54.1217 38.4937 59.1251C38.4937 64.099 42.5258 68.1311 47.4997 68.1311Z" stroke="black" stroke-miterlimit="10"/>
<path d="M47.5585 79.3739H44.3799C44.0856 79.3739 43.8207 79.1384 43.8207 78.8147V76.6662C43.8207 76.4308 43.6736 76.1953 43.4087 76.1364C41.2308 75.6361 39.6415 74.812 37.8756 73.5465C37.6696 73.3699 37.3753 73.3993 37.1692 73.5759L36.3157 74.4C36.1097 74.6354 35.7565 74.6354 35.5505 74.4L32.4308 71.2803C32.1953 71.0742 32.1953 70.7211 32.4308 70.4856L33.5492 69.3672C33.7258 69.1906 33.7552 68.9257 33.6375 68.6903C32.6662 67.101 31.3124 64.717 30.8415 62.8923C30.7826 62.6568 30.5766 62.4803 30.3117 62.4803L28.0161 62.4508C27.6923 62.4508 27.4569 62.1859 27.4569 61.8916V56.4174C27.4569 56.1231 27.6923 55.8582 28.0161 55.8582H30.4C30.6355 55.8582 30.8415 55.6816 30.9298 55.4461C31.4301 53.7097 32.9017 51.414 33.8729 49.913C33.9906 49.707 33.9612 49.4127 33.7846 49.2361L32.4308 47.7057C32.2248 47.4997 32.2248 47.1465 32.4308 46.9405L35.0502 44.3211C35.2562 44.115 35.6094 44.115 35.8448 44.3211L37.0515 45.5277C37.2281 45.7338 37.5224 45.7632 37.7579 45.616C39.4355 44.4682 41.3191 43.6441 43.3793 43.1732C43.6442 43.1144 43.8207 42.9083 43.8207 42.6435V39.6709C43.8207 39.3471 44.0562 39.1117 44.3799 39.1117H50.7077C51.0314 39.1117 51.2669 39.3471 51.2669 39.6709V42.6435C51.2669 42.9083 51.4435 43.1144 51.7084 43.1732C53.7686 43.6441 55.6522 44.4682 57.3298 45.616C57.5652 45.7632 57.8595 45.7338 58.0361 45.5277L59.2428 44.3211C59.4783 44.115 59.8314 44.115 60.0375 44.3211L62.6569 46.9405C62.8629 47.1465 62.8629 47.4997 62.6569 47.7057L61.303 49.2361C61.1264 49.4127 61.097 49.707 61.2147 49.913C62.186 51.414 63.6575 53.6803 64.1579 55.4461C64.2462 55.6816 64.4522 55.8582 64.6876 55.8582H67.0716C67.3659 55.8582 67.6308 56.1231 67.6308 56.4174V61.8916C67.6308 62.1859 67.3953 62.4508 67.0716 62.4508L64.7759 62.4803C64.511 62.4803 64.305 62.6568 64.2462 62.8923C63.7753 64.717 62.4214 67.101 61.4502 68.6903C61.3324 68.9257 61.3619 69.1906 61.5385 69.3672L62.6569 70.4856C62.8923 70.7211 62.8923 71.0742 62.6569 71.2803L59.5371 74.4C59.3311 74.6354 58.9779 74.6354 58.7719 74.4L57.9184 73.5759C57.7124 73.3993 57.4181 73.3699 57.212 73.5465C55.4462 74.812 53.8569 75.6361 51.6789 76.1364C51.4141 76.1953 51.2669 76.4308 51.2669 76.6662V78.8147C51.2669 79.1384 51.002 79.3739 50.7077 79.3739H47.5291H47.5585Z" stroke="black" stroke-miterlimit="10"/>
</g>
</g>
</g>
<defs>
<clipPath id="clip0_4062_21880">
<rect width="88" height="88" fill="white" transform="translate(4 4)"/>
</clipPath>
</defs>
</svg>
