<svg width="96" height="96" viewBox="0 0 96 96" fill="none" xmlns="http://www.w3.org/2000/svg">
<g clip-path="url(#clip0_4062_21860)">
<mask id="mask0_4062_21860" style="mask-type:luminance" maskUnits="userSpaceOnUse" x="4" y="4" width="88" height="88">
<path d="M91.7076 4H4.29236V92H91.7076V4Z" fill="white"/>
</mask>
<g mask="url(#mask0_4062_21860)">
<mask id="mask1_4062_21860" style="mask-type:luminance" maskUnits="userSpaceOnUse" x="4" y="4" width="88" height="88">
<path d="M91.4445 4H4.29236V91.8246H91.4445V4Z" fill="white"/>
</mask>
<g mask="url(#mask1_4062_21860)">
<path d="M84.2525 54.4611H89.1349C89.7781 54.4319 90.2751 53.9349 90.2751 53.2917V41.7143C90.2751 41.0711 89.7781 40.5448 89.1349 40.5448L84.1063 40.5156C83.5801 40.4864 83.1123 40.1355 82.9661 39.6385C81.9136 35.9841 78.7854 31.1601 76.7973 27.9734C76.505 27.5349 76.5635 26.9502 76.9143 26.5701L79.8086 23.3249C80.2472 22.8571 80.2179 22.1555 79.7794 21.7169L74.2538 16.1914C73.786 15.7236 73.0551 15.7236 72.6166 16.1914L70.0146 18.7641C69.6346 19.1442 69.0206 19.2027 68.5528 18.9103C64.986 16.4837 61.0392 14.7296 56.6538 13.7648C56.1276 13.6478 55.7183 13.1801 55.7183 12.6246L55.7475 6.33887C55.7475 5.69568 55.2213 5.16943 54.5781 5.16943H41.1588C40.5156 5.16943 39.9894 5.69568 39.9894 6.33887L40.0186 12.6246C40.0186 13.1801 39.6385 13.6478 39.0831 13.7648C34.7269 14.7296 30.7508 16.4837 27.1841 18.9103C26.7163 19.2027 26.1023 19.1442 25.7223 18.7641L23.1495 16.1914C22.6817 15.7528 21.9508 15.7528 21.5123 16.1914L15.9867 21.7169C15.5482 22.1555 15.5189 22.8571 15.9282 23.3249L18.8518 26.5701C19.2027 26.9502 19.2319 27.5349 18.9688 27.9734C16.9515 31.1601 13.8525 35.9841 12.7708 39.6385C12.6246 40.1648 12.1568 40.4864 11.6598 40.5156L6.63123 40.5448C5.98804 40.5448 5.46179 41.0711 5.46179 41.7143V53.2917C5.46179 53.9349 5.9588 54.4319 6.60199 54.4611H84.2525Z" stroke="black" stroke-miterlimit="10"/>
<path d="M33.1774 55.0166V61.9455C33.1774 62.1794 33.0605 62.4133 32.8851 62.5887L25.7515 68.6698" stroke="black" stroke-miterlimit="10"/>
<path d="M47.7953 55.0166V77.8206" stroke="black" stroke-miterlimit="10"/>
<path d="M21.3076 80.4226C24.8452 80.4226 27.7395 77.5574 27.7395 74.0199C27.7395 70.4824 24.8452 67.588 21.3076 67.588C17.7701 67.588 14.905 70.4824 14.905 74.0199C14.905 77.5574 17.7701 80.4226 21.3076 80.4226Z" stroke="black" stroke-miterlimit="10"/>
<path d="M47.7954 90.6552C51.3329 90.6552 54.198 87.7901 54.198 84.2525C54.198 80.715 51.3329 77.8206 47.7954 77.8206C44.2286 77.8206 41.3635 80.715 41.3635 84.2525C41.3635 87.7901 44.2286 90.6552 47.7954 90.6552Z" stroke="black" stroke-miterlimit="10"/>
<path d="M62.4133 55.0166V61.9455C62.4133 62.1794 62.5302 62.4133 62.7057 62.5887L69.8392 68.6698" stroke="black" stroke-miterlimit="10"/>
<path d="M74.2538 80.4226C77.8206 80.4226 80.6857 77.5574 80.6857 74.0199C80.6857 70.4824 77.8206 67.588 74.2538 67.588C70.7163 67.588 67.8511 70.4824 67.8511 74.0199C67.8511 77.5574 70.7163 80.4226 74.2538 80.4226Z" stroke="black" stroke-miterlimit="10"/>
</g>
</g>
</g>
<defs>
<clipPath id="clip0_4062_21860">
<rect width="87.4153" height="88" fill="white" transform="translate(4.29236 4)"/>
</clipPath>
</defs>
</svg>
