<svg width="96" height="96" viewBox="0 0 96 96" fill="none" xmlns="http://www.w3.org/2000/svg">
<g clip-path="url(#clip0_4062_21747)">
<mask id="mask0_4062_21747" style="mask-type:luminance" maskUnits="userSpaceOnUse" x="0" y="0" width="96" height="96">
<path d="M95.9904 0H0V95.9936H95.9904V0Z" fill="white"/>
</mask>
<g mask="url(#mask0_4062_21747)">
<path d="M8.71387 16.1306C12.8171 16.1306 16.1434 12.8075 16.1434 8.70745C16.1434 4.60738 12.8171 1.2843 8.71387 1.2843C4.61059 1.2843 1.2843 4.60738 1.2843 8.70745C1.2843 12.8075 4.61059 16.1306 8.71387 16.1306Z" stroke="black" stroke-miterlimit="10"/>
<path d="M87.2798 16.1306C91.3831 16.1306 94.7094 12.8075 94.7094 8.70745C94.7094 4.60738 91.3831 1.2843 87.2798 1.2843C83.1765 1.2843 79.8502 4.60738 79.8502 8.70745C79.8502 12.8075 83.1765 16.1306 87.2798 16.1306Z" stroke="black" stroke-miterlimit="10"/>
<path d="M8.71387 94.7061C12.8171 94.7061 16.1434 91.383 16.1434 87.2829C16.1434 83.1829 12.8171 79.8598 8.71387 79.8598C4.61059 79.8598 1.2843 83.1829 1.2843 87.2829C1.2843 91.383 4.61059 94.7061 8.71387 94.7061Z" stroke="black" stroke-miterlimit="10"/>
<path d="M87.2798 94.7061C91.3831 94.7061 94.7094 91.383 94.7094 87.2829C94.7094 83.1829 91.3831 79.8598 87.2798 79.8598C83.1765 79.8598 79.8502 83.1829 79.8502 87.2829C79.8502 91.383 83.1765 94.7061 87.2798 94.7061Z" stroke="black" stroke-miterlimit="10"/>
<path d="M87.2798 16.1338V79.6961" stroke="black" stroke-miterlimit="10"/>
<path d="M8.71387 16.1338V79.6961" stroke="black" stroke-miterlimit="10"/>
<path d="M16.1402 8.70746H79.8502" stroke="black" stroke-miterlimit="10"/>
<path d="M16.1402 87.2894H79.8502" stroke="black" stroke-miterlimit="10"/>
<path d="M38.689 40.4356H24.5619C24.0289 40.4356 23.5987 40.8658 23.5987 41.3988V71.5794C23.5987 72.1124 24.0289 72.5426 24.5619 72.5426H71.1171C71.6501 72.5426 72.0803 72.1124 72.0803 71.5794V41.3988C72.0803 40.8658 71.6501 40.4356 71.1171 40.4356H56.99" stroke="black" stroke-miterlimit="10"/>
<path d="M55.8663 71.5794V24.8958C55.8663 24.3629 55.436 23.9326 54.903 23.9326H40.776C40.243 23.9326 39.8127 24.3629 39.8127 24.8958V71.5794" stroke="black" stroke-miterlimit="10"/>
</g>
</g>
<defs>
<clipPath id="clip0_4062_21747">
<rect width="96" height="96" fill="white"/>
</clipPath>
</defs>
</svg>
