<svg width="96" height="96" viewBox="0 0 96 96" fill="none" xmlns="http://www.w3.org/2000/svg">
<g clip-path="url(#clip0_4062_21874)">
<mask id="mask0_4062_21874" style="mask-type:luminance" maskUnits="userSpaceOnUse" x="4" y="4" width="88" height="88">
<path d="M91.8827 4H4V91.736H91.8827V4Z" fill="white"/>
</mask>
<g mask="url(#mask0_4062_21874)">
<path d="M33.304 90.5627L47.9414 47.4133L62.6667 90.5627" stroke="black" stroke-linecap="round" stroke-linejoin="round"/>
<path d="M47.9707 79.504C65.3947 79.504 79.5333 65.3653 79.5333 47.9413C79.5333 30.5173 65.3947 16.3787 47.9707 16.3787C30.5467 16.3787 16.408 30.5173 16.408 47.9413C16.408 65.3653 30.5467 79.504 47.9707 79.504Z" stroke="black" stroke-miterlimit="10"/>
<path d="M47.9414 47.384C51.8427 47.384 54.9814 44.2454 54.9814 40.344C54.9814 36.4427 51.8427 33.304 47.9414 33.304C44.04 33.304 40.9014 36.472 40.9014 40.344C40.9014 44.216 44.04 47.384 47.9414 47.384Z" stroke="black" stroke-miterlimit="10"/>
<path d="M74.224 79.7974C77.304 79.7974 79.7974 77.304 79.7974 74.224C79.7974 71.144 77.304 68.6507 74.224 68.6507C71.144 68.6507 68.6507 71.144 68.6507 74.224C68.6507 77.304 71.144 79.7974 74.224 79.7974Z" stroke="black" stroke-miterlimit="10"/>
<path d="M85.136 53.5146C88.216 53.5146 90.7093 51.0213 90.7093 47.9413C90.7093 44.8613 88.216 42.368 85.136 42.368C82.056 42.368 79.5627 44.8613 79.5627 47.9413C79.5627 51.0213 82.056 53.5146 85.136 53.5146Z" stroke="black" stroke-miterlimit="10"/>
<path d="M74.224 27.2027C77.304 27.2027 79.7974 24.7094 79.7974 21.6294C79.7974 18.5494 77.304 16.056 74.224 16.056C71.144 16.056 68.6507 18.5494 68.6507 21.6294C68.6507 24.7094 71.144 27.2027 74.224 27.2027Z" stroke="black" stroke-miterlimit="10"/>
<path d="M47.9413 16.32C51.0213 16.32 53.5146 13.8267 53.5146 10.7467C53.5146 7.66667 51.0213 5.17334 47.9413 5.17334C44.8613 5.17334 42.368 7.66667 42.368 10.7467C42.368 13.8267 44.8613 16.32 47.9413 16.32Z" stroke="black" stroke-miterlimit="10"/>
<path d="M21.6294 27.2027C24.7094 27.2027 27.2027 24.7094 27.2027 21.6294C27.2027 18.5494 24.7094 16.056 21.6294 16.056C18.5494 16.056 16.056 18.5494 16.056 21.6294C16.056 24.7094 18.5494 27.2027 21.6294 27.2027Z" stroke="black" stroke-miterlimit="10"/>
<path d="M10.7467 53.5146C13.8267 53.5146 16.32 51.0213 16.32 47.9413C16.32 44.8613 13.8267 42.368 10.7467 42.368C7.66667 42.368 5.17334 44.8613 5.17334 47.9413C5.17334 51.0213 7.66667 53.5146 10.7467 53.5146Z" stroke="black" stroke-miterlimit="10"/>
<path d="M21.6294 79.7974C24.7094 79.7974 27.2027 77.304 27.2027 74.224C27.2027 71.144 24.7094 68.6507 21.6294 68.6507C18.5494 68.6507 16.056 71.144 16.056 74.224C16.056 77.304 18.5494 79.7974 21.6294 79.7974Z" stroke="black" stroke-miterlimit="10"/>
</g>
</g>
<defs>
<clipPath id="clip0_4062_21874">
<rect width="88" height="88" fill="white" transform="translate(4 4)"/>
</clipPath>
</defs>
</svg>
