<svg width="96" height="96" viewBox="0 0 96 96" fill="none" xmlns="http://www.w3.org/2000/svg">
<g clip-path="url(#clip0_4062_21847)">
<mask id="mask0_4062_21847" style="mask-type:luminance" maskUnits="userSpaceOnUse" x="4" y="4" width="88" height="88">
<path d="M91.2691 4H4.7309V91.9708H91.2691V4Z" fill="white"/>
</mask>
<g mask="url(#mask0_4062_21847)">
<path d="M56.2153 62.3548H60.2206C70.7747 62.3548 78.9608 53.8764 80.8319 43.8777M14.9634 44.3163C17.01 54.1103 25.1083 62.3548 35.487 62.3548H39.4923" stroke="black" stroke-miterlimit="10" stroke-linecap="square"/>
<path d="M54.8704 55.1043V72.7043C54.8704 76.5634 51.7129 79.7209 47.8538 79.7209C43.9946 79.7209 40.8372 76.5634 40.8372 72.7043V55.1043H54.8704Z" stroke="black" stroke-linecap="round" stroke-linejoin="round"/>
<path d="M71.9734 40.0186V29.1721C71.9734 15.9575 61.2438 5.19867 48.0292 5.16943H47.9853C34.7707 5.19282 24.0411 15.9575 24.0411 29.1721V40.0186" stroke="black" stroke-miterlimit="10" stroke-linecap="round"/>
<path d="M90.0704 78.113C89.9155 73.4352 89.3395 68.5528 88.3163 63.1734C87.0006 56.3907 84.5741 49.7542 80.8611 41.6851C80.5395 40.9834 79.8379 40.5156 79.0485 40.5156H16.9515C16.1913 40.5156 15.4604 40.9834 15.1388 41.6851C11.4259 49.7542 8.99931 56.3907 7.6837 63.1734C6.66044 68.5528 6.07573 73.4352 5.92955 78.113C5.82137 81.3874 6.04357 85.5389 8.73619 88.4917C9.9641 89.8366 11.6598 90.4505 13.4432 90.7136C13.8525 90.7721 14.2325 90.8013 14.6418 90.8013H81.3581C81.7674 90.8013 82.1475 90.7721 82.5568 90.7136C84.3694 90.4417 86.0359 89.8366 87.2638 88.4917C89.9535 85.5389 90.1874 81.3874 90.0704 78.113ZM90.0704 78.113H90.0792" stroke="black" stroke-miterlimit="10" stroke-linecap="round"/>
<path d="M32.505 39.3169V30.6046C32.505 22.1555 39.3754 15.285 47.8246 15.285H48.2047C56.6538 15.285 63.5243 22.1555 63.5243 30.6046V39.3169" stroke="black" stroke-miterlimit="10" stroke-linecap="round"/>
</g>
</g>
<defs>
<clipPath id="clip0_4062_21847">
<rect width="86.5382" height="88" fill="white" transform="translate(4.7309 4)"/>
</clipPath>
</defs>
</svg>
