<svg width="96" height="96" viewBox="0 0 96 96" fill="none" xmlns="http://www.w3.org/2000/svg">
<path d="M47.9232 35.6544C47.9232 35.6544 52.0512 37.6512 52.0512 41.7792C52.0512 45.9072 49.1136 51.4944 53.5296 51.4944C57.9456 51.4944 57.3504 47.2128 57.3504 47.2128C57.3504 47.2128 64.2432 54.1824 62.8992 62.4192C61.5552 70.656 54.24 75.936 47.9424 75.936C41.6448 75.936 33.6 69.312 33.2544 62.6112C32.9088 55.9104 35.4048 50.6304 35.4048 50.6304C35.4048 50.6304 36.9216 56.64 40.416 55.0272C43.9104 53.4144 39.7056 49.5936 40.5888 46.5984C41.472 43.6032 49.5744 42.0672 47.9232 35.6544Z" stroke="black" stroke-linecap="round" stroke-linejoin="round"/>
<path d="M50.4384 57.5232C50.4384 57.5232 49.44 61.8816 52.2432 64.4352C55.0464 67.008 55.1808 74.6112 48.1536 74.6112C41.1264 74.6112 41.28 68.064 42.1056 63.9168L45.4464 64.4352C45.4272 64.4352 45.888 59.136 50.4384 57.5232Z" stroke="black" stroke-linecap="round" stroke-linejoin="round"/>
<path d="M25.7089 49.44C27.6706 49.44 29.2609 47.8497 29.2609 45.888C29.2609 43.9263 27.6706 42.336 25.7089 42.336C23.7471 42.336 22.1569 43.9263 22.1569 45.888C22.1569 47.8497 23.7471 49.44 25.7089 49.44Z" stroke="black" stroke-linecap="round" stroke-linejoin="round"/>
<path d="M32.1216 33.8496C34.0833 33.8496 35.6736 32.2593 35.6736 30.2976C35.6736 28.3359 34.0833 26.7456 32.1216 26.7456C30.1599 26.7456 28.5696 28.3359 28.5696 30.2976C28.5696 32.2593 30.1599 33.8496 32.1216 33.8496Z" stroke="black" stroke-linecap="round" stroke-linejoin="round"/>
<path d="M51.4894 24.021C51.7033 22.071 50.2959 20.3168 48.3458 20.1029C46.3958 19.889 44.6416 21.2964 44.4277 23.2464C44.2138 25.1964 45.6212 26.9506 47.5712 27.1645C49.5212 27.3784 51.2755 25.971 51.4894 24.021Z" stroke="black" stroke-linecap="round" stroke-linejoin="round"/>
<path d="M63.5905 33.6576C65.5522 33.6576 67.1425 32.0673 67.1425 30.1056C67.1425 28.1439 65.5522 26.5536 63.5905 26.5536C61.6287 26.5536 60.0385 28.1439 60.0385 30.1056C60.0385 32.0673 61.6287 33.6576 63.5905 33.6576Z" stroke="black" stroke-linecap="round" stroke-linejoin="round"/>
<path d="M70.2913 49.44C72.253 49.44 73.8433 47.8497 73.8433 45.888C73.8433 43.9263 72.253 42.336 70.2913 42.336C68.3295 42.336 66.7393 43.9263 66.7393 45.888C66.7393 47.8497 68.3295 49.44 70.2913 49.44Z" stroke="black" stroke-linecap="round" stroke-linejoin="round"/>
<path d="M26.0736 41.856C26.0736 41.856 26.8992 37.2096 29.5488 33.3888" stroke="black" stroke-linecap="round" stroke-linejoin="round"/>
<path d="M35.04 27.7632C35.04 27.7632 39.7248 24.4992 44.16 23.9616" stroke="black" stroke-linecap="round" stroke-linejoin="round"/>
<path d="M51.9937 24C51.9937 24 56.0449 24.48 60.5761 27.552" stroke="black" stroke-linecap="round" stroke-linejoin="round"/>
<path d="M66.144 33.0624C66.144 33.0624 68.9664 36.9408 69.888 42.0288" stroke="black" stroke-linecap="round" stroke-linejoin="round"/>
</svg>
