<svg width="96" height="96" viewBox="0 0 96 96" fill="none" xmlns="http://www.w3.org/2000/svg">
<mask id="mask0_4062_21806" style="mask-type:luminance" maskUnits="userSpaceOnUse" x="0" y="0" width="96" height="96">
<path d="M95.7239 0H0V95.8111H95.7239V0Z" fill="white"/>
</mask>
<g mask="url(#mask0_4062_21806)">
<path d="M63.5544 18.2558V61.8492C63.5544 62.891 62.7105 63.7377 61.6721 63.7377H34.0642C33.0258 63.7377 32.1819 62.891 32.1819 61.8492V18.2558C32.1819 17.2139 33.0258 16.3672 34.0642 16.3672H38.1427C39.1811 16.3672 40.025 15.5205 40.025 14.4787V3.14756C40.025 2.10572 40.8689 1.25903 41.9074 1.25903H53.8289C54.8674 1.25903 55.7113 2.10572 55.7113 3.14756V14.4787C55.7113 15.5205 56.5552 16.3672 57.5937 16.3672H61.6721C62.7105 16.3672 63.5544 17.2139 63.5544 18.2558Z" stroke="black" stroke-linejoin="round"/>
<path d="M32.1819 24.2361H63.5544" stroke="black" stroke-linejoin="round"/>
<path d="M32.1819 55.7115H63.5544" stroke="black" stroke-linejoin="round"/>
<path d="M85.6847 71.424H10.0392C5.189 71.424 1.25488 75.371 1.25488 80.2371V85.739C1.25488 90.6051 5.189 94.5521 10.0392 94.5521H85.6847C90.5349 94.5521 94.469 90.6051 94.469 85.739V80.2371C94.469 75.371 90.5349 71.424 85.6847 71.424Z" stroke="black" stroke-linejoin="round"/>
<path d="M24.3356 91.1465C28.8282 91.1465 32.4674 87.4954 32.4674 82.9881C32.4674 78.4808 28.8282 74.8297 24.3356 74.8297C19.8431 74.8297 16.2039 78.4808 16.2039 82.9881C16.2039 87.4954 19.8431 91.1465 24.3356 91.1465Z" stroke="black" stroke-linejoin="round"/>
<path d="M47.7114 91.1465C52.2039 91.1465 55.8431 87.4954 55.8431 82.9881C55.8431 78.4808 52.2039 74.8297 47.7114 74.8297C43.2188 74.8297 39.5796 78.4808 39.5796 82.9881C39.5796 87.4954 43.2188 91.1465 47.7114 91.1465Z" stroke="black" stroke-linejoin="round"/>
<path d="M71.3976 91.1465C75.8902 91.1465 79.5294 87.4954 79.5294 82.9881C79.5294 78.4808 75.8902 74.8297 71.3976 74.8297C66.9051 74.8297 63.2659 78.4808 63.2659 82.9881C63.2659 87.4954 66.9051 91.1465 71.3976 91.1465Z" stroke="black" stroke-linejoin="round"/>
<path d="M63.5544 18.2558V61.8492C63.5544 62.891 62.7105 63.7377 61.6721 63.7377H34.0642C33.0258 63.7377 32.1819 62.891 32.1819 61.8492V18.2558C32.1819 17.2139 33.0258 16.3672 34.0642 16.3672H38.1427C39.1811 16.3672 40.025 15.5205 40.025 14.4787V3.14756C40.025 2.10572 40.8689 1.25903 41.9074 1.25903H53.8289C54.8674 1.25903 55.7113 2.10572 55.7113 3.14756V14.4787C55.7113 15.5205 56.5552 16.3672 57.5937 16.3672H61.6721C62.7105 16.3672 63.5544 17.2139 63.5544 18.2558Z" stroke="black" stroke-linejoin="round"/>
<path d="M32.1819 24.2361H63.5544" stroke="black" stroke-linejoin="round"/>
<path d="M32.1819 55.7115H63.5544" stroke="black" stroke-linejoin="round"/>
<path d="M85.6847 71.424H10.0392C5.189 71.424 1.25488 75.371 1.25488 80.2371V85.739C1.25488 90.6051 5.189 94.5521 10.0392 94.5521H85.6847C90.5349 94.5521 94.469 90.6051 94.469 85.739V80.2371C94.469 75.371 90.5349 71.424 85.6847 71.424Z" stroke="black" stroke-linejoin="round"/>
<path d="M24.3356 91.1465C28.8282 91.1465 32.4674 87.4954 32.4674 82.9881C32.4674 78.4808 28.8282 74.8297 24.3356 74.8297C19.8431 74.8297 16.2039 78.4808 16.2039 82.9881C16.2039 87.4954 19.8431 91.1465 24.3356 91.1465Z" stroke="black" stroke-linejoin="round"/>
<path d="M47.7114 91.1465C52.2039 91.1465 55.8431 87.4954 55.8431 82.9881C55.8431 78.4808 52.2039 74.8297 47.7114 74.8297C43.2188 74.8297 39.5796 78.4808 39.5796 82.9881C39.5796 87.4954 43.2188 91.1465 47.7114 91.1465Z" stroke="black" stroke-linejoin="round"/>
<path d="M71.3976 91.1465C75.8902 91.1465 79.5294 87.4954 79.5294 82.9881C79.5294 78.4808 75.8902 74.8297 71.3976 74.8297C66.9051 74.8297 63.2659 78.4808 63.2659 82.9881C63.2659 87.4954 66.9051 91.1465 71.3976 91.1465Z" stroke="black" stroke-linejoin="round"/>
</g>
</svg>
