<svg width="96" height="96" viewBox="0 0 96 96" fill="none" xmlns="http://www.w3.org/2000/svg">
<g clip-path="url(#clip0_4062_21755)">
<mask id="mask0_4062_21755" style="mask-type:luminance" maskUnits="userSpaceOnUse" x="0" y="0" width="96" height="96">
<path d="M96 0H0V96H96V0Z" fill="white"/>
</mask>
<g mask="url(#mask0_4062_21755)">
<path d="M48 83.1572C67.4183 83.1572 83.1572 67.4184 83.1572 48C83.1572 28.5817 67.4183 12.8428 48 12.8428C28.5816 12.8428 12.8428 28.5817 12.8428 48C12.8428 67.4184 28.5816 83.1572 48 83.1572Z" stroke="black" stroke-miterlimit="10"/>
<path d="M27.3584 76.0776C32.3799 68.7026 39.7646 64.0439 48 64.0439C56.2355 64.0439 63.7999 68.8182 68.8246 76.3505" stroke="black" stroke-miterlimit="10"/>
<path d="M68.8246 19.7426C63.8031 27.1176 56.4185 31.7763 48.183 31.7763C39.9476 31.7763 32.3831 27.002 27.3584 19.4697" stroke="black" stroke-miterlimit="10"/>
<path d="M50.2283 83.3145C39.36 77.5224 31.725 63.8866 31.725 47.9904C31.725 32.0942 39.3247 18.5161 50.1576 12.7015" stroke="black" stroke-miterlimit="10"/>
<path d="M45.7719 83.3145C56.6401 77.5224 64.2751 63.8866 64.2751 47.9904C64.2751 32.0942 56.6754 18.5161 45.8425 12.7015" stroke="black" stroke-miterlimit="10"/>
<path d="M13.2441 48H82.7558" stroke="black" stroke-miterlimit="10"/>
<path d="M48 13.2441V82.7558" stroke="black" stroke-miterlimit="10"/>
<path d="M61.2763 92.8022C57.067 94.0479 52.6106 94.7158 48 94.7158C22.1988 94.7158 1.2843 73.8012 1.2843 48C1.2843 37.4079 4.80965 27.6378 10.7495 19.8036" stroke="black" stroke-miterlimit="10" stroke-linecap="round"/>
<path d="M31.6255 4.23494C36.7209 2.32778 42.2401 1.2843 48.0001 1.2843C73.8013 1.2843 94.7158 22.1988 94.7158 48C94.7158 59.2471 90.7409 69.5663 84.1205 77.6284" stroke="black" stroke-miterlimit="10" stroke-linecap="round"/>
<path d="M13.9794 20.7347C16.7278 20.7347 18.956 18.5065 18.956 15.7581C18.956 13.0098 16.7278 10.7816 13.9794 10.7816C11.231 10.7816 9.00281 13.0098 9.00281 15.7581C9.00281 18.5065 11.231 20.7347 13.9794 20.7347Z" stroke="black" stroke-miterlimit="10"/>
<path d="M80.2483 86.5541C82.9967 86.5541 85.2249 84.3259 85.2249 81.5775C85.2249 78.8292 82.9967 76.601 80.2483 76.601C77.5 76.601 75.2717 78.8292 75.2717 81.5775C75.2717 84.3259 77.5 86.5541 80.2483 86.5541Z" stroke="black" stroke-miterlimit="10"/>
</g>
</g>
<defs>
<clipPath id="clip0_4062_21755">
<rect width="96" height="96" fill="white"/>
</clipPath>
</defs>
</svg>
