<svg width="96" height="96" viewBox="0 0 96 96" fill="none" xmlns="http://www.w3.org/2000/svg">
<path d="M48 56.4973V26.1514" stroke="black" stroke-miterlimit="10" stroke-linecap="round"/>
<path d="M64.1621 39.0486H48.528C48.2358 39.0486 48 38.8128 48 38.5206V26.6794C48 26.3872 48.2358 26.1514 48.528 26.1514H64.1621C64.6355 26.1514 64.8696 26.7269 64.5299 27.0578L59.22 32.2216C59.007 32.4293 59.007 32.7707 59.22 32.9784L64.5299 38.1422C64.8696 38.4731 64.6355 39.0486 64.1621 39.0486Z" stroke="black" stroke-miterlimit="10" stroke-linecap="round"/>
<path d="M64.8872 73.872C65.1864 73.872 65.4258 73.6239 65.4152 73.3229C65.1248 63.9808 57.4618 56.4973 48.0493 56.4973C38.6368 56.4973 30.972 63.9808 30.6834 73.3229C30.6746 73.6221 30.9122 73.872 31.2114 73.872H64.8872Z" stroke="black" stroke-miterlimit="10" stroke-linecap="round"/>
</svg>
