<svg width="96" height="96" viewBox="0 0 96 96" fill="none" xmlns="http://www.w3.org/2000/svg">
<g clip-path="url(#clip0_4062_21748)">
<mask id="mask0_4062_21748" style="mask-type:luminance" maskUnits="userSpaceOnUse" x="0" y="0" width="96" height="96">
<path d="M95.9807 0H0V95.8528H95.9807V0Z" fill="white"/>
</mask>
<g mask="url(#mask0_4062_21748)">
<path d="M47.8041 24.5312C54.248 24.5312 59.4686 19.3248 59.4686 12.9056C59.4686 6.48643 54.248 1.28003 47.8041 1.28003C41.3603 1.28003 36.1396 6.48643 36.1396 12.9056C36.1396 19.3248 41.3635 24.5312 47.8041 24.5312Z" stroke="black" stroke-miterlimit="10"/>
<path d="M30.9769 45.9008V43.1168C30.9769 33.9776 38.2074 26.3552 47.3708 26.096C56.9258 25.824 64.6315 33.4624 64.6315 42.9216V45.904C64.6315 46.2944 64.3137 46.6112 63.9219 46.6112H31.6865C31.2948 46.6112 30.9769 46.2944 30.9769 45.904V45.9008Z" stroke="black" stroke-miterlimit="10"/>
<path d="M77.8692 72.4928C84.3099 72.4928 89.5337 67.2864 89.5337 60.8672C89.5337 54.448 84.3099 49.2416 77.8692 49.2416C71.4285 49.2416 66.2047 54.4448 66.2047 60.8672C66.2047 67.2896 71.4253 72.4928 77.8692 72.4928Z" stroke="black" stroke-miterlimit="10"/>
<path d="M61.0419 93.8656V91.0816C61.0419 81.9424 68.2724 74.32 77.4357 74.0608C86.9908 73.7888 94.6965 81.4272 94.6965 90.8864V93.8688C94.6965 94.2592 94.3786 94.576 93.9869 94.576H61.7514C61.3597 94.576 61.0419 94.2592 61.0419 93.8688V93.8656Z" stroke="black" stroke-miterlimit="10"/>
<path d="M18.1116 72.4928C24.5523 72.4928 29.7761 67.2864 29.7761 60.8672C29.7761 54.448 24.5523 49.2416 18.1116 49.2416C11.671 49.2416 6.44714 54.4448 6.44714 60.8672C6.44714 67.2896 11.671 72.4928 18.1116 72.4928Z" stroke="black" stroke-miterlimit="10"/>
<path d="M1.2843 93.8656V91.0816C1.2843 81.9424 8.5148 74.32 17.6781 74.0608C27.2332 73.7888 34.9389 81.4272 34.9389 90.8864V93.8688C34.9389 94.2592 34.621 94.576 34.2293 94.576H1.99387C1.60216 94.576 1.2843 94.2592 1.2843 93.8688V93.8656Z" stroke="black" stroke-miterlimit="10"/>
</g>
</g>
<defs>
<clipPath id="clip0_4062_21748">
<rect width="96" height="96" fill="white"/>
</clipPath>
</defs>
</svg>
