<svg width="96" height="96" viewBox="0 0 96 96" fill="none" xmlns="http://www.w3.org/2000/svg">
<path d="M47.9808 54.7008C51.7346 54.7008 54.7776 51.6577 54.7776 47.904C54.7776 44.1502 51.7346 41.1072 47.9808 41.1072C44.227 41.1072 41.184 44.1502 41.184 47.904C41.184 51.6577 44.227 54.7008 47.9808 54.7008Z" stroke="black" stroke-linecap="round" stroke-linejoin="round"/>
<path d="M52.7808 52.704L59.1744 59.0976" stroke="black" stroke-linecap="round" stroke-linejoin="round"/>
<path d="M50.7072 54.3936C50.7072 54.3936 45.9456 77.6064 75.1296 75.072C75.1296 75.072 79.3152 52.7232 54.7584 50.3232" stroke="black" stroke-linecap="round" stroke-linejoin="round"/>
<path d="M53.1072 43.3728L59.5008 36.9792" stroke="black" stroke-linecap="round" stroke-linejoin="round"/>
<path d="M54.4704 45.1584C54.4704 45.1584 77.9904 50.1888 75.456 21.0048C75.456 21.0048 53.1072 16.8192 50.7072 41.376" stroke="black" stroke-linecap="round" stroke-linejoin="round"/>
<path d="M43.2192 52.704L36.8256 59.0976" stroke="black" stroke-linecap="round" stroke-linejoin="round"/>
<path d="M45.2928 54.3936C45.2928 54.3936 50.0544 77.6064 20.8704 75.072C20.8704 75.072 16.6848 52.7232 41.2416 50.3232" stroke="black" stroke-linecap="round" stroke-linejoin="round"/>
<path d="M42.8928 43.3728L36.4992 36.9792" stroke="black" stroke-linecap="round" stroke-linejoin="round"/>
<path d="M41.5296 45.1584C41.5296 45.1584 18.0096 50.1888 20.544 21.0048C20.544 21.0048 42.8928 16.8192 45.2928 41.376" stroke="black" stroke-linecap="round" stroke-linejoin="round"/>
</svg>
