<svg width="96" height="96" viewBox="0 0 96 96" fill="none" xmlns="http://www.w3.org/2000/svg">
<path d="M47.8656 25.4016V70.5984" stroke="black" stroke-linecap="round" stroke-linejoin="round"/>
<path d="M64.512 71.904C68.5627 71.904 71.8464 68.6203 71.8464 64.5696C71.8464 60.5189 68.5627 57.2352 64.512 57.2352C60.4613 57.2352 57.1776 60.5189 57.1776 64.5696C57.1776 68.6203 60.4613 71.904 64.512 71.904Z" stroke="black" stroke-linecap="round" stroke-linejoin="round"/>
<path d="M64.512 59.9616V65.7792" stroke="black" stroke-linecap="round" stroke-linejoin="round"/>
<path d="M64.512 69.7152C65.0634 69.7152 65.5104 69.2682 65.5104 68.7168C65.5104 68.1654 65.0634 67.7184 64.512 67.7184C63.9606 67.7184 63.5136 68.1654 63.5136 68.7168C63.5136 69.2682 63.9606 69.7152 64.512 69.7152Z" fill="black" stroke="black" stroke-miterlimit="10"/>
<path d="M64.5504 57.2544C65.7024 55.2576 66.5472 53.0496 66.912 50.592C66.9696 50.2272 66.9888 49.8624 66.9888 49.4976V32.6208C66.9888 32.6208 59.136 25.4016 47.8656 25.4016C36.5952 25.4016 28.5888 32.6208 28.5888 32.6208V49.0752C28.5888 49.8816 28.7232 50.688 28.9728 51.4368C30.048 54.6048 34.0032 62.4192 47.8656 70.5792C47.8656 70.5792 52.32 68.9088 56.9472 65.4528" stroke="black" stroke-linecap="round" stroke-linejoin="round"/>
<path d="M68.832 58.6368C70.0416 56.3904 70.9248 53.8944 71.3088 51.1872C71.3664 50.7456 71.4048 50.304 71.4048 49.8432V29.088C71.4048 29.088 61.7472 20.1984 47.8656 20.1984C33.984 20.1984 24.1536 29.088 24.1536 29.088V49.3248C24.1536 50.3232 24.3072 51.3024 24.6336 52.2432C25.9584 56.1408 30.816 65.76 47.8848 75.8016C47.8848 75.8016 53.3376 73.7664 59.0208 69.5424" stroke="black" stroke-linecap="round" stroke-linejoin="round"/>
</svg>
