<svg width="96" height="96" viewBox="0 0 96 96" fill="none" xmlns="http://www.w3.org/2000/svg">
<path d="M29.3184 44.5632V55.2768C29.3184 56.1984 28.4928 56.9088 27.5712 56.7552C24.864 56.3136 19.968 54.816 19.968 49.8816C19.968 44.9472 24.8832 43.5072 27.5904 43.104C28.4928 42.9504 29.3184 43.6608 29.3184 44.5632Z" stroke="black" stroke-miterlimit="10" stroke-linecap="round"/>
<path d="M66.6816 44.5632V55.2768C66.6816 56.1984 67.5072 56.9088 68.4288 56.7552C71.136 56.3136 76.032 54.816 76.032 49.8816C76.032 44.9472 71.1168 43.5072 68.4096 43.104C67.5072 42.9504 66.6816 43.6608 66.6816 44.5632Z" stroke="black" stroke-miterlimit="10" stroke-linecap="round"/>
<path d="M29.3184 44.5632V42.7392C29.3184 35.6544 33.312 29.2032 39.648 26.0352C44.9088 23.4048 51.0912 23.4048 56.352 26.0352C62.688 29.2032 66.6816 35.6736 66.6816 42.7392V44.5632" stroke="black" stroke-miterlimit="10" stroke-linecap="round"/>
<path d="M70.752 56.1792V57.6768C70.752 64.3392 65.3568 69.7344 58.6944 69.7344" stroke="black" stroke-miterlimit="10" stroke-linecap="round"/>
<path d="M56.0448 71.9424H51.7248C50.4768 71.9424 49.4592 70.9248 49.4592 69.6768C49.4592 68.4288 50.4768 67.4112 51.7248 67.4112H56.0448C57.2928 67.4112 58.3104 68.4288 58.3104 69.6768C58.3296 70.9248 57.312 71.9424 56.0448 71.9424Z" stroke="black" stroke-miterlimit="10" stroke-linecap="round"/>
</svg>
