<svg width="96" height="96" viewBox="0 0 96 96" fill="none" xmlns="http://www.w3.org/2000/svg">
<path d="M59.3088 39.7248V38.784C59.3088 37.4784 58.4832 36.5376 57.6 35.6736C54.2208 32.4672 53.4336 27.3792 56.448 23.6352C58.08 21.6192 60.5952 20.4096 63.1872 20.4096C67.9872 20.4096 71.8656 24.288 71.8656 29.088C71.8656 30.4512 71.5968 31.8528 71.0016 33.0816C70.3488 34.4256 69.312 35.3664 68.1984 36.3456C67.5264 36.9408 67.1808 37.8816 67.1232 38.7648V39.7056" stroke="black" stroke-miterlimit="10" stroke-linecap="round"/>
<path d="M67.3728 40.4352H59.1552C58.2912 40.4352 57.6 41.1264 57.6 41.9904C57.6 42.8544 58.2912 43.5456 59.1552 43.5456H67.3728C68.2368 43.5456 68.928 42.8544 68.928 41.9904C68.928 41.1264 68.2368 40.4352 67.3728 40.4352Z" stroke="black" stroke-miterlimit="10" stroke-linecap="round"/>
<path d="M67.3728 43.5456C68.2368 43.5456 68.928 44.2368 68.928 45.1008C68.928 45.9648 68.2368 46.656 67.3728 46.656H59.1552C58.2912 46.656 57.6 45.9648 57.6 45.1008C57.6 44.2368 58.2912 43.5456 59.1552 43.5456" stroke="black" stroke-miterlimit="10" stroke-linecap="round"/>
<path d="M65.9136 46.6752C66.0096 46.9824 66.0864 47.2896 66.0864 47.6352C66.0864 49.2288 64.8 50.5152 63.2064 50.5152C61.6128 50.5152 60.3264 49.2288 60.3264 47.6352C60.3264 47.2896 60.384 46.9824 60.4992 46.6752" stroke="black" stroke-miterlimit="10" stroke-linecap="round"/>
<path d="M63.1872 34.9632C64.9152 34.9632 66.3168 33.5616 66.3168 31.8336C66.3168 30.1056 64.9152 28.704 63.1872 28.704C61.4592 28.704 60.0576 30.1056 60.0576 31.8336C60.0576 33.5616 61.4592 34.9632 63.1872 34.9632Z" stroke="black" stroke-miterlimit="10" stroke-linecap="round"/>
<path d="M63.1873 40.4352V35.1552" stroke="black" stroke-miterlimit="10" stroke-linecap="round"/>
<path d="M56.2368 23.1168C56.2368 23.1168 40.6848 20.352 31.6032 29.4336C22.5216 38.5152 28.4352 44.928 28.6272 45.8304C28.9152 47.1168 27.7248 49.9968 23.0016 53.2992C22.4832 53.664 22.464 54.432 22.9824 54.816L25.7088 56.8512C25.9584 57.0432 26.0736 57.3696 25.9584 57.6768C25.7088 58.3488 25.3632 59.5584 25.632 60.2304C26.0352 61.1904 27.8016 62.112 27.3408 62.8992C26.8992 63.6864 26.0736 64.3392 27.3408 65.2224C28.608 66.1056 27.7824 66.6816 27.3408 67.5264C26.8992 68.3712 26.5728 71.0976 27.9744 71.5968C29.7216 72.2304 35.8272 72.0576 37.4976 72.8448C39.168 73.632 40.3968 75.552 40.3968 75.552" stroke="black" stroke-miterlimit="10" stroke-linecap="round"/>
<path d="M70.8288 34.3872C70.8288 34.3872 80.0064 49.5744 63.4944 64.3968" stroke="black" stroke-miterlimit="10" stroke-linecap="round"/>
</svg>
