<svg width="96" height="96" viewBox="0 0 96 96" fill="none" xmlns="http://www.w3.org/2000/svg">
<mask id="mask0_4062_21779" style="mask-type:luminance" maskUnits="userSpaceOnUse" x="0" y="0" width="96" height="96">
<path d="M95.7046 0H0V95.9294H95.7046V0Z" fill="white"/>
</mask>
<g mask="url(#mask0_4062_21779)">
<path d="M56.4666 10.5183C62.0212 11.5714 67.0042 13.806 71.4157 16.9557L75.9042 12.4896L83.7319 20.3173L79.0764 25.4994C81.3785 29.2142 85.7001 35.6452 86.6248 40.0792L94.4171 40.1274V55.375L86.7821 55.4745C85.9152 60.1493 81.9725 66.7955 79.6158 70.7575L82.9293 74.0709C83.4301 74.5718 83.4301 75.3841 82.9293 75.885L75.6731 83.1411C75.1754 83.6388 74.3695 83.642 73.8654 83.1476L71.1331 80.457C66.4551 84.0177 62.4096 86.1207 56.4666 87.344V94.6451H38.7885V87.4916C32.9001 86.3904 28.9092 83.8058 24.3147 80.3639L20.7123 83.8957L12.1333 75.3167L16.2783 71.1524C14.0982 67.4408 10.6563 59.8668 9.82477 55.4777H1.2843V40.0824H9.89862C9.89862 40.0824 14.6023 30.7714 17.1099 26.7805L11.9727 21.3801L20.3912 12.4961L25.5412 16.9493C25.9714 17.3795 26.6585 17.4405 27.1626 17.0777C31.4296 14.0404 33.4941 12.9552 38.7885 10.6531L38.9683 1.29071H56.1777C56.3543 1.29071 56.4987 1.43519 56.4987 1.61178L56.4634 10.5215L56.4666 10.5183Z" stroke="black" stroke-linecap="round" stroke-linejoin="round"/>
<path d="M39.4852 60.3933V58.4155C39.4852 55.6608 37.7707 53.6894 35.8764 51.8978C28.7839 45.1842 27.1176 34.4733 33.4619 26.6424C36.9006 22.3979 42.1629 19.8839 47.6275 19.8839C57.6899 19.8839 65.8483 28.0423 65.8483 38.1046C65.8483 40.9846 65.2928 43.9 64.0374 46.5038C62.6825 49.3196 60.4736 51.3167 58.1651 53.3458C56.7684 54.5852 56.0203 56.5694 55.9208 58.4155C55.9111 58.5665 55.9079 60.3933 55.9079 60.3933" stroke="black" stroke-miterlimit="10" stroke-linecap="round"/>
<path d="M53.6829 73.8526C53.6829 77.1982 50.9731 79.908 47.6275 79.908C44.282 79.908 41.5721 77.1982 41.5721 73.8526" stroke="black" stroke-miterlimit="10" stroke-linecap="round"/>
<path d="M47.6276 50.3824C51.2621 50.3824 54.2063 47.4382 54.2063 43.8036C54.2063 40.1691 51.2621 37.2249 47.6276 37.2249C43.993 37.2249 41.0488 40.1691 41.0488 43.8036C41.0488 47.4382 43.993 50.3824 47.6276 50.3824Z" stroke="black" stroke-miterlimit="10" stroke-linecap="round"/>
<path d="M47.6276 60.3933V50.7869" stroke="black" stroke-miterlimit="10" stroke-linecap="round"/>
<path d="M36.5506 60.3933H58.5279C59.0608 60.3933 59.4911 60.708 59.4911 61.0932V71.3579C59.4911 71.7431 59.0608 72.0578 58.5279 72.0578H36.5506C36.0176 72.0578 35.5874 71.7431 35.5874 71.3579V61.0932C35.5874 60.708 36.0176 60.3933 36.5506 60.3933Z" stroke="black" stroke-miterlimit="10" stroke-linecap="round"/>
</g>
</svg>
