<svg width="96" height="96" viewBox="0 0 96 96" fill="none" xmlns="http://www.w3.org/2000/svg">
<g clip-path="url(#clip0_4062_21760)">
<mask id="mask0_4062_21760" style="mask-type:luminance" maskUnits="userSpaceOnUse" x="0" y="0" width="96" height="96">
<path d="M96 0H0V96H96V0Z" fill="white"/>
</mask>
<g mask="url(#mask0_4062_21760)">
<mask id="mask1_4062_21760" style="mask-type:luminance" maskUnits="userSpaceOnUse" x="0" y="0" width="96" height="96">
<path d="M95.8973 0H0V95.9519H95.8973V0Z" fill="white"/>
</mask>
<g mask="url(#mask1_4062_21760)">
<path d="M56.03 93.9805C53.4165 94.4332 50.7323 94.6708 47.9904 94.6708C45.2485 94.6708 42.5804 94.4364 39.9765 93.9869C17.9992 90.1855 1.2843 71.0272 1.2843 47.9647C1.2843 36.6791 5.28805 26.331 11.9503 18.2561" stroke="black" stroke-miterlimit="10" stroke-linecap="round"/>
<path d="M6.948 11.7512L16.0086 23.1973C16.4453 23.7496 17.3089 23.6597 17.6268 23.0304L24.9472 8.37995C25.3036 7.66396 24.6839 6.85165 23.9005 7.00577L7.52271 10.21C6.81636 10.3481 6.50492 11.1861 6.95121 11.7544H6.948V11.7512Z" stroke="black" stroke-miterlimit="10"/>
<path d="M39.8705 1.9746C42.484 1.52189 45.1681 1.2843 47.9101 1.2843C50.652 1.2843 53.3201 1.51868 55.924 1.96818C77.9012 5.76644 94.613 24.9247 94.613 47.9872C94.613 59.2728 90.6092 69.6209 83.947 77.6958" stroke="black" stroke-miterlimit="10" stroke-linecap="round"/>
<path d="M88.9493 84.2007L79.8887 72.7545C79.4521 72.2023 78.5884 72.2922 78.2705 72.9215L70.9501 87.5719C70.5937 88.2879 71.2134 89.1002 71.9968 88.9461L88.3746 85.7418C89.081 85.6038 89.3924 84.7658 88.9461 84.1975H88.9493V84.2007Z" stroke="black" stroke-miterlimit="10"/>
<path d="M47.7688 58.0238C53.6059 58.0238 58.3385 53.2913 58.3385 47.4542C58.3385 41.6172 53.6059 36.8846 47.7688 36.8846C41.9318 36.8846 37.1992 41.6172 37.1992 47.4542C37.1992 53.2913 41.9318 58.0238 47.7688 58.0238Z" stroke="black" stroke-miterlimit="10"/>
<path d="M52.2028 28.4918C55.0089 29.0248 57.5261 30.155 59.7576 31.7443L62.0243 29.4871L65.9799 33.4427L63.6297 36.0594C64.7919 37.9377 66.9752 41.1869 67.444 43.4248L71.3803 43.4505V51.1562L67.521 51.2075C67.0812 53.5706 65.0905 56.929 63.8994 58.9293L65.5754 60.6053C65.829 60.8589 65.829 61.2699 65.5754 61.5203L61.9087 65.1869C61.6583 65.4374 61.2505 65.4406 60.9969 65.1869L59.6163 63.8256C57.2532 65.6236 55.208 66.6863 52.206 67.306V70.9951H43.2738V67.3798C40.2975 66.8244 38.2812 65.5176 35.9598 63.7774L34.1394 65.5626L29.8049 61.2281L31.8983 59.1251C30.797 57.2501 29.0568 53.4229 28.6362 51.2043H24.321V43.4248H28.6715C28.6715 43.4248 31.0475 38.7211 32.3157 36.7048L29.7214 33.9757L33.9756 29.4871L36.5763 31.7378C36.7946 31.9562 37.1414 31.9851 37.395 31.802C39.5494 30.2673 40.5929 29.7183 43.2706 28.556L43.3605 23.8267H52.2188L52.1996 28.4918H52.2028Z" stroke="black" stroke-linecap="round" stroke-linejoin="round"/>
</g>
</g>
</g>
<defs>
<clipPath id="clip0_4062_21760">
<rect width="96" height="96" fill="white"/>
</clipPath>
</defs>
</svg>
