<svg width="96" height="96" viewBox="0 0 96 96" fill="none" xmlns="http://www.w3.org/2000/svg">
<g clip-path="url(#clip0_4062_21809)">
<mask id="mask0_4062_21809" style="mask-type:luminance" maskUnits="userSpaceOnUse" x="0" y="0" width="96" height="96">
<path d="M96 0H0V95.8578H96V0Z" fill="white"/>
</mask>
<g mask="url(#mask0_4062_21809)">
<path d="M92.3075 94.5648H80.6606C79.3817 94.5648 78.3429 93.5854 78.3429 92.3798V71.7802H53.0606V92.3798C53.0606 93.5854 52.0217 94.5648 50.7429 94.5648H3.68917C2.41032 94.5648 1.37146 93.5854 1.37146 92.3798V3.47796C1.37146 2.2723 2.41032 1.29291 3.68917 1.29291H24.8709C26.1497 1.29291 27.1886 2.2723 27.1886 3.47796V46.0897L57.5143 24.8533C58.224 24.3555 59.1497 24.278 59.9383 24.6529C60.7269 25.0279 61.2172 25.7745 61.2172 26.6085V46.0897L90.9086 24.5495C91.6149 24.0452 92.5475 23.9644 93.3395 24.3361C94.1315 24.7079 94.6252 25.4578 94.6252 26.2949V92.3765C94.6252 93.5822 93.5863 94.5616 92.3075 94.5616V94.5648Z" stroke="black" stroke-linecap="round" stroke-linejoin="round"/>
</g>
</g>
<defs>
<clipPath id="clip0_4062_21809">
<rect width="96" height="96" fill="white"/>
</clipPath>
</defs>
</svg>
