<svg width="96" height="96" viewBox="0 0 96 96" fill="none" xmlns="http://www.w3.org/2000/svg">
<path d="M73.4976 75.8208H23.1168C22.7712 75.8208 22.5024 75.552 22.5024 75.2064L22.5792 66.3552C22.5792 66.0288 22.848 65.7408 23.1936 65.7408H42.336C42.6816 65.7408 42.9504 66.0096 42.9504 66.3552V75.3216" stroke="black" stroke-miterlimit="10" stroke-linecap="round"/>
<path d="M32.7936 55.6992C35.6778 55.6992 38.016 53.361 38.016 50.4768C38.016 47.5925 35.6778 45.2544 32.7936 45.2544C29.9093 45.2544 27.5712 47.5925 27.5712 50.4768C27.5712 53.361 29.9093 55.6992 32.7936 55.6992Z" stroke="black" stroke-miterlimit="10" stroke-linecap="round"/>
<path d="M52.1062 25.7952C52.5343 23.1575 50.7432 20.6722 48.1055 20.244C45.4679 19.8159 42.9826 21.607 42.5544 24.2447C42.1263 26.8823 43.9174 29.3677 46.5551 29.7958C49.1927 30.224 51.678 28.4328 52.1062 25.7952Z" stroke="black" stroke-miterlimit="10" stroke-linecap="round"/>
<path d="M65.3568 43.3344C67.7745 43.3344 69.7344 41.3745 69.7344 38.9568C69.7344 36.5391 67.7745 34.5792 65.3568 34.5792C62.9392 34.5792 60.9792 36.5391 60.9792 38.9568C60.9792 41.3745 62.9392 43.3344 65.3568 43.3344Z" stroke="black" stroke-miterlimit="10" stroke-linecap="round"/>
<path d="M41.952 65.472L38.0352 50.4768" stroke="black" stroke-miterlimit="10" stroke-linecap="round"/>
<path d="M23.6544 65.2416L27.5712 50.2272" stroke="black" stroke-miterlimit="10" stroke-linecap="round"/>
<path d="M38.0352 50.4768L51.7632 26.9376" stroke="black" stroke-miterlimit="10" stroke-linecap="round"/>
<path d="M29.0688 46.8288L42.816 23.2896" stroke="black" stroke-miterlimit="10" stroke-linecap="round"/>
<path d="M50.0544 21.024L67.2576 35.0208" stroke="black" stroke-miterlimit="10" stroke-linecap="round"/>
<path d="M49.2864 31.1808L62.6496 42.4128" stroke="black" stroke-miterlimit="10" stroke-linecap="round"/>
<path d="M67.4688 47.1552H63.2448C62.9184 47.1552 62.6688 46.9056 62.6688 46.5792V43.9296C62.6688 43.6032 62.9184 43.3536 63.2448 43.3536H67.4688C67.7952 43.3536 68.0448 43.6032 68.0448 43.9296V46.5792C68.0448 46.8864 67.776 47.1552 67.4688 47.1552Z" stroke="black" stroke-miterlimit="10" stroke-linecap="round"/>
<path d="M68.0448 47.1552L72.6528 50.1504C72.9216 50.3232 73.0176 50.688 72.8448 50.976L70.0992 55.5264" stroke="black" stroke-miterlimit="10" stroke-linecap="round"/>
<path d="M62.5344 47.1552L57.9264 50.1504C57.6576 50.3232 57.5616 50.688 57.7344 50.976L60.48 55.5264" stroke="black" stroke-miterlimit="10" stroke-linecap="round"/>
</svg>
