<svg width="96" height="96" viewBox="0 0 96 96" fill="none" xmlns="http://www.w3.org/2000/svg">
<path d="M64.06 25.5319H57.7997V25.4069C57.7997 23.6135 56.404 22.0841 54.6123 22.0207C52.7291 21.9538 51.1838 23.4604 51.1838 25.3277V25.5319H44.788C44.4958 25.5319 44.26 25.7677 44.26 26.0599V30.525H64.5898V26.0599C64.5898 25.7677 64.3539 25.5319 64.0618 25.5319H64.06Z" stroke="black" stroke-linecap="round" stroke-linejoin="round"/>
<path d="M51.6819 39.3074H64.852" stroke="black" stroke-linecap="round" stroke-linejoin="round"/>
<path d="M51.6819 43.776H64.852" stroke="black" stroke-linecap="round" stroke-linejoin="round"/>
<path d="M51.6819 47.6973H64.852" stroke="black" stroke-linecap="round" stroke-linejoin="round"/>
<path d="M51.6819 52.1941H64.852" stroke="black" stroke-linecap="round" stroke-linejoin="round"/>
<path d="M42.324 56.8H26.5967C26.3051 56.8 26.0687 57.0364 26.0687 57.328V73.344C26.0687 73.6357 26.3051 73.872 26.5967 73.872H42.324C42.6156 73.872 42.852 73.6357 42.852 73.344V57.328C42.852 57.0364 42.6156 56.8 42.324 56.8Z" stroke="black" stroke-linecap="round" stroke-linejoin="round"/>
<path d="M38.7565 56.712V31.0441C38.7565 30.752 38.9923 30.5161 39.2845 30.5161H69.56C69.8522 30.5161 70.088 30.752 70.088 31.0441V73.344C70.088 73.6361 69.8522 73.872 69.56 73.872H38.7565" stroke="black" stroke-linecap="round" stroke-linejoin="round"/>
<path d="M35.5621 56.8879H32.5437C32.2521 56.8879 32.0157 57.1243 32.0157 57.4159V60.466C32.0157 60.7576 32.2521 60.994 32.5437 60.994H35.5621C35.8537 60.994 36.0901 60.7576 36.0901 60.466V57.4159C36.0901 57.1243 35.8537 56.8879 35.5621 56.8879Z" stroke="black" stroke-linecap="round" stroke-linejoin="round"/>
<path d="M47.252 39.376H42.852V43.776H47.252V39.376Z" stroke="black" stroke-linecap="round" stroke-linejoin="round"/>
<path d="M47.252 47.6973H42.852V52.0973H47.252V47.6973Z" stroke="black" stroke-linecap="round" stroke-linejoin="round"/>
</svg>
