<svg width="96" height="96" viewBox="0 0 96 96" fill="none" xmlns="http://www.w3.org/2000/svg">
<path d="M71.1744 48.6144C69.5155 46.9229 66.8813 46.7789 65.0477 48.2784L57.7651 54.2304C57.0105 52.9171 55.5936 52.032 53.975 52.032H42.7123C39.648 52.032 36.6528 53.28 34.4928 55.4553L24.0499 66.0038C23.5315 66.5261 23.5257 67.3517 24.0365 67.8816L32.688 76.2048C32.9395 76.4582 33.2736 76.6003 33.6307 76.6022C33.6345 76.6022 33.6384 76.6022 33.6422 76.6022C33.9955 76.6022 34.3257 76.4678 34.5792 76.2221L41.8694 69.5097L41.8925 69.4867C42.8717 68.5075 44.1734 67.968 45.5597 67.968H55.3152C57.0931 67.968 58.8307 67.2422 60.0729 65.9827L71.1283 55.0329C72.9024 53.2761 72.9216 50.3961 71.1744 48.6144ZM70.0473 53.9424L58.9862 64.8979C58.0243 65.8733 56.6861 66.432 55.3152 66.432H45.5597C43.7683 66.432 42.0864 67.127 40.8173 68.3904L33.6441 74.9952L25.2768 66.9465L35.5814 56.5363C37.4534 54.6509 40.0531 53.568 42.7104 53.568H53.9731C55.5341 53.568 56.8051 54.839 56.8051 56.4C56.8051 57.9609 55.5341 59.232 53.9731 59.232H43.3651C42.9408 59.232 42.5971 59.5757 42.5971 60C42.5971 60.4243 42.9408 60.768 43.3651 60.768H53.9731C56.3808 60.768 58.3411 58.8077 58.3411 56.4C58.3411 56.1888 58.3257 55.9814 58.2969 55.7798L66.0192 49.4688C67.2345 48.4761 68.9779 48.5721 70.0781 49.6915C71.2358 50.8704 71.2224 52.7789 70.0473 53.9424Z" fill="black"/>
<path d="M47.9904 41.2992C51.8995 41.2992 55.079 38.1197 55.079 34.2106C55.079 30.3015 51.8995 27.1219 47.9904 27.1219C44.0813 27.1219 40.9017 30.3015 40.9017 34.2106C40.9017 38.1197 44.0813 41.2992 47.9904 41.2992ZM47.9904 28.656C51.0528 28.656 53.543 31.1482 53.543 34.2087C53.543 37.2711 51.0509 39.7613 47.9904 39.7613C44.928 39.7613 42.4377 37.2691 42.4377 34.2087C42.4358 31.1482 44.928 28.656 47.9904 28.656Z" fill="black"/>
<path d="M33.9667 37.2211H35.9424C36.288 38.4384 36.983 39.9975 37.5437 41.0573L36.6989 41.9059C36.4013 42.2055 36.4013 42.6912 36.7008 42.9907L39.2928 45.5827C39.5904 45.8803 40.0723 45.8823 40.3738 45.5885L40.9958 44.9799C42.0192 45.7152 43.1059 46.3719 44.5306 46.7424V48.2899C44.5306 48.7143 44.8742 49.0579 45.2985 49.0579H50.64C51.0643 49.0579 51.408 48.7143 51.408 48.2899V46.6963C52.7155 46.3623 53.7965 45.8535 54.9984 45.0106L55.3593 45.3658C55.8105 45.8093 56.5401 45.8074 56.9875 45.36L59.1802 43.1674C59.6314 42.7162 59.6314 41.9847 59.1802 41.5335L58.6003 40.9536C59.2262 39.888 60.025 38.4576 60.4013 37.2173L62.1178 37.1943C62.5382 37.1885 62.8762 36.8467 62.8762 36.4263V31.8183C62.8762 31.3959 62.5344 31.0522 62.1139 31.0503L60.336 31.0387C59.929 29.8618 59.0822 28.5139 58.4333 27.481L59.4528 26.3463C59.7254 26.0429 59.7139 25.5783 59.424 25.2903L57.0585 22.9248C56.759 22.6253 56.2733 22.6253 55.9738 22.9229L55.0656 23.8253C53.9251 23.0957 52.7001 22.5677 51.4118 22.2528L51.4195 20.0851C51.4195 19.8816 51.3389 19.6858 51.1949 19.5399C51.0509 19.3959 50.855 19.3133 50.6515 19.3133H45.3542C44.9357 19.3133 44.5939 19.6474 44.5862 20.0659L44.5402 22.4045C43.3229 22.9459 42.6586 23.3031 41.5891 24.0499L40.2432 22.8864C39.9322 22.6176 39.4656 22.6407 39.1834 22.9383L36.6394 25.6224C36.359 25.9181 36.359 26.3847 36.6394 26.6803L37.7894 27.888C37.2077 28.8922 36.4608 30.3283 36.0998 31.033H33.9686C33.5443 31.033 33.2006 31.3767 33.2006 31.801V36.4531C33.1987 36.8775 33.5424 37.2211 33.9667 37.2211ZM34.7347 32.569H36.5683C36.8582 32.569 37.1232 32.4058 37.2538 32.1466C37.2672 32.1197 38.6669 29.3511 39.3965 28.1895C39.5827 27.8919 39.5443 27.5059 39.3024 27.2525L38.2522 26.1485L39.7901 24.5261L40.775 25.3786C41.1725 25.7549 41.7792 25.7971 42.2285 25.4765C43.4784 24.5875 44.0717 24.2803 45.6019 23.6141C45.8765 23.4951 46.057 23.2243 46.0627 22.9248L46.103 20.8493H49.8758L49.8682 22.8672C49.8662 23.2378 50.1293 23.5565 50.4941 23.6256C52.0032 23.9117 53.4202 24.5223 54.7085 25.4419C55.0138 25.6589 55.4304 25.6263 55.6953 25.3613L56.5094 24.553L57.817 25.8605L56.8973 26.8839C56.6688 27.1373 56.6362 27.5117 56.8166 27.8016C56.905 27.9456 57.0048 28.1031 57.1104 28.272C57.7766 29.3299 58.7827 30.9274 58.9978 31.9603C59.0707 32.3136 59.3837 32.569 59.7446 32.5709L61.3363 32.5805V35.6659L59.7869 35.6851C59.4202 35.6909 59.1091 35.952 59.0419 36.313C58.8019 37.5994 57.6115 39.6019 56.9702 40.6791C56.7898 40.9805 56.8397 41.3664 57.0873 41.6141L57.8189 42.3456L56.1619 44.0026L55.6051 43.4535C55.3325 43.1847 54.9043 43.1578 54.601 43.3901C53.1667 44.4807 52.0512 45.0067 50.4806 45.3293C50.1235 45.4023 49.8662 45.7171 49.8662 46.0819V47.52H46.0608V46.1261C46.0608 45.7555 45.7978 45.4387 45.4349 45.3715C43.751 45.0567 42.6029 44.2733 41.3818 43.3575C41.0784 43.1309 40.6541 43.1578 40.3834 43.4227L39.8381 43.9565L38.3251 42.4435L39.0374 41.7274C39.2832 41.4797 39.3312 41.0976 39.1545 40.7962C38.5344 39.7402 37.5264 37.5207 37.296 36.3053C37.2269 35.9424 36.9101 35.6813 36.5414 35.6813H34.729V32.569H34.7347Z" fill="black"/>
</svg>
