<svg width="96" height="96" viewBox="0 0 96 96" fill="none" xmlns="http://www.w3.org/2000/svg">
<g clip-path="url(#clip0_4062_21791)">
<mask id="mask0_4062_21791" style="mask-type:luminance" maskUnits="userSpaceOnUse" x="0" y="0" width="96" height="96">
<path d="M95.9259 0H0V95.9967H95.9259V0Z" fill="white"/>
</mask>
<g mask="url(#mask0_4062_21791)">
<path d="M1.28857 47.3404V54.8996H9.84804C10.6824 59.36 14.1326 67.053 16.3168 70.8245L12.1643 75.0563L20.7624 83.7714L24.3737 80.1861C28.9772 83.6833 32.9782 86.3086 38.88 87.4253V94.6939H56.5981V87.2751C62.5546 86.0343 66.6105 83.8955 71.2977 80.2808L74.036 83.0139C74.5385 83.5167 75.3471 83.5135 75.8464 83.0073L83.1205 75.6343C83.6231 75.1249 83.6231 74.302 83.1205 73.7926L79.7992 70.4261C82.1605 66.4 86.1133 59.6473 86.9831 54.8996L94.6373 54.7984V47.3404H1.28857Z" stroke="black" stroke-linecap="round" stroke-linejoin="round"/>
<path d="M70.1927 48.271C70.1927 48.271 70.1766 62.5404 57.7288 68.4539C51.5275 71.4024 44.3146 71.4318 38.0842 68.542C32.3854 65.8971 26.1905 60.2645 25.514 48.271" stroke="black" stroke-linecap="round" stroke-linejoin="round"/>
<path d="M17.8212 26.351C23.3589 26.351 27.8464 21.8024 27.8464 16.1893C27.8464 10.5763 23.3589 6.02771 17.8212 6.02771C12.2835 6.02771 7.79596 10.5763 7.79596 16.1893C7.79596 21.8024 12.2835 26.351 17.8212 26.351Z" stroke="black" stroke-miterlimit="10"/>
<path d="M3.94305 43.0563V40.9567C3.94305 33.293 9.90601 26.8963 17.4636 26.6775C25.3433 26.4489 31.6993 32.8555 31.6993 40.7902V43.053C31.6993 43.3795 31.4384 43.6473 31.113 43.6473H4.52936C4.20722 43.6473 3.94305 43.3828 3.94305 43.053V43.0563Z" stroke="black" stroke-miterlimit="10"/>
<path d="M46.7211 28.3036H40.771C40.2362 28.3036 39.8046 28.7412 39.8046 29.2832V42.1747C39.8046 42.7167 40.2362 43.1543 40.771 43.1543H46.7211C47.2558 43.1543 47.6875 42.7167 47.6875 42.1747V29.2832C47.6875 28.7412 47.2558 28.3036 46.7211 28.3036Z" stroke="black" stroke-miterlimit="10"/>
<path d="M60.4865 21.809H54.5364C54.0016 21.809 53.5699 22.2465 53.5699 22.7886V42.1747C53.5699 42.7167 54.0016 43.1543 54.5364 43.1543H60.4865C61.0212 43.1543 61.4529 42.7167 61.4529 42.1747V22.7886C61.4529 22.2465 61.0212 21.809 60.4865 21.809Z" stroke="black" stroke-miterlimit="10"/>
<path d="M88.4295 16.5812H82.4794C81.9446 16.5812 81.5129 17.0187 81.5129 17.5608V42.1714C81.5129 42.7134 81.9446 43.151 82.4794 43.151H88.4295C88.9642 43.151 89.3959 42.7134 89.3959 42.1714V17.5608C89.3959 17.0187 88.9642 16.5812 88.4295 16.5812Z" stroke="black" stroke-miterlimit="10"/>
<path d="M74.5707 27.6506H68.6206C68.0859 27.6506 67.6542 28.0881 67.6542 28.6302V42.1747C67.6542 42.7167 68.0859 43.1542 68.6206 43.1542H74.5707C75.1055 43.1542 75.5371 42.7167 75.5371 42.1747V28.6302C75.5371 28.0881 75.1055 27.6506 74.5707 27.6506Z" stroke="black" stroke-miterlimit="10"/>
<path d="M43.7444 22.6906L56.9685 11.3959C57.2907 11.1216 57.7546 11.0889 58.109 11.3175L70.8886 19.5461C71.2945 19.8073 71.8292 19.7257 72.1417 19.3567L85.4561 3.58527" stroke="black" stroke-miterlimit="10" stroke-linecap="round"/>
<path d="M79.026 3.17712L86.371 1.33549C87.0249 1.17222 87.6402 1.72079 87.5629 2.39998L86.7447 9.43998" stroke="black" stroke-miterlimit="10" stroke-linecap="round"/>
</g>
</g>
<defs>
<clipPath id="clip0_4062_21791">
<rect width="96" height="96" fill="white"/>
</clipPath>
</defs>
</svg>
