<svg width="96" height="96" viewBox="0 0 96 96" fill="none" xmlns="http://www.w3.org/2000/svg">
<path d="M20.1792 47.616V52.0512H25.2864C25.7856 54.6816 27.84 59.1936 29.1456 61.4208L26.6688 63.9168L31.7952 69.0432L33.9456 66.9312C36.6912 68.9856 39.072 70.5216 42.5856 71.1936V75.456H53.1456V71.0976C56.6976 70.368 59.1168 69.12 61.9008 66.9888L63.5328 68.6016C63.84 68.8896 64.32 68.8896 64.608 68.6016L68.9472 64.2624C69.2544 63.9552 69.2544 63.4752 68.9472 63.1872L66.9696 61.2096C68.3712 58.848 70.7328 54.8736 71.2512 52.0704L75.8208 52.0128V47.616H20.1792Z" stroke="black" stroke-linecap="round" stroke-linejoin="round"/>
<path d="M61.248 48.1536C61.248 48.1536 61.248 56.544 53.8176 60.0192C50.112 61.7472 45.8304 61.7664 42.1056 60.0768C38.7072 58.5216 35.0208 55.2192 34.6176 48.1536" stroke="black" stroke-linecap="round" stroke-linejoin="round"/>
<path d="M47.2512 45.1584H43.6992C43.3728 45.1584 43.1232 44.9088 43.1232 44.5824V36.9984C43.1232 36.672 43.3728 36.4224 43.6992 36.4224H47.2512C47.5776 36.4224 47.8272 36.672 47.8272 36.9984V44.5824C47.8272 44.8896 47.5776 45.1584 47.2512 45.1584Z" stroke="black" stroke-miterlimit="10"/>
<path d="M55.4688 45.1584H51.9168C51.5904 45.1584 51.3408 44.9088 51.3408 44.5824V33.1776C51.3408 32.8512 51.5904 32.6016 51.9168 32.6016H55.4688C55.7952 32.6016 56.0448 32.8512 56.0448 33.1776V44.5824C56.0448 44.8896 55.776 45.1584 55.4688 45.1584Z" stroke="black" stroke-miterlimit="10"/>
<path d="M72.1152 45.1584H68.5632C68.2368 45.1584 67.9872 44.9088 67.9872 44.5824V30.1056C67.9872 29.7792 68.2368 29.5296 68.5632 29.5296H72.1152C72.4416 29.5296 72.6912 29.7792 72.6912 30.1056V44.5824C72.6912 44.8896 72.4416 45.1584 72.1152 45.1584Z" stroke="black" stroke-miterlimit="10"/>
<path d="M63.8592 45.1584H60.3072C59.9808 45.1584 59.7312 44.9088 59.7312 44.5824V36.6144C59.7312 36.288 59.9808 36.0384 60.3072 36.0384H63.8592C64.1856 36.0384 64.4352 36.288 64.4352 36.6144V44.5824C64.4352 44.8896 64.1856 45.1584 63.8592 45.1584Z" stroke="black" stroke-miterlimit="10"/>
<path d="M45.4848 33.12L53.3568 26.4768C53.5488 26.3232 53.8176 26.304 54.0288 26.4384L61.6512 31.2768C61.9008 31.4304 62.208 31.392 62.4 31.1616L70.3296 21.888" stroke="black" stroke-miterlimit="10" stroke-linecap="round"/>
<path d="M66.5088 21.6384L70.8864 20.5632C71.2704 20.4672 71.6352 20.7936 71.5968 21.1968L71.1168 25.344" stroke="black" stroke-miterlimit="10" stroke-linecap="round"/>
<path d="M30.0288 32.9472C33.0509 32.9472 35.5008 30.4973 35.5008 27.4752C35.5008 24.4531 33.0509 22.0032 30.0288 22.0032C27.0067 22.0032 24.5568 24.4531 24.5568 27.4752C24.5568 30.4973 27.0067 32.9472 30.0288 32.9472Z" stroke="black" stroke-miterlimit="10"/>
<path d="M22.464 44.4864V43.0272C22.464 37.7088 25.1904 33.12 29.8368 33.12C34.4832 33.12 37.6128 37.4016 37.6128 42.912V44.4864C37.6128 44.7168 37.4784 44.8896 37.2864 44.8896H22.7712C22.5984 44.8896 22.464 44.7168 22.464 44.4864Z" stroke="black" stroke-miterlimit="10"/>
</svg>
