<svg width="96" height="96" viewBox="0 0 96 96" fill="none" xmlns="http://www.w3.org/2000/svg">
<path d="M29.5104 50.976L44.7552 66.3744C44.8704 66.5088 45.0432 66.5664 45.2352 66.5664L52.5504 66.6048C52.7232 66.6048 52.8768 66.5472 52.992 66.432C55.68 64.0128 85.536 36.5952 72.5952 23.5392C59.6544 10.4832 31.968 40.0704 29.5104 42.7392C29.3952 42.8544 29.3376 43.0272 29.3376 43.1808L29.2992 50.496C29.3184 50.6688 29.3952 50.8416 29.5104 50.976Z" stroke="black" stroke-miterlimit="10"/>
<path d="M33.3696 38.8032L56.9856 62.6304" stroke="black" stroke-miterlimit="10"/>
<path d="M61.7664 40.3968C65.149 40.3968 67.8912 37.6546 67.8912 34.272C67.8912 30.8894 65.149 28.1472 61.7664 28.1472C58.3838 28.1472 55.6416 30.8894 55.6416 34.272C55.6416 37.6546 58.3838 40.3968 61.7664 40.3968Z" stroke="black" stroke-miterlimit="10"/>
<path d="M37.1712 35.0208L23.7504 36.96C23.5008 36.9984 23.3088 37.1712 23.2128 37.4016L20.1792 45.9264C20.0256 46.368 20.352 46.8096 20.8128 46.8096L29.3376 46.848" stroke="black" stroke-miterlimit="10"/>
<path d="M60.8064 58.8672L58.7328 72.2688C58.6944 72.5184 58.5216 72.7104 58.2912 72.8064L49.7472 75.7632C49.3056 75.9168 48.864 75.5904 48.864 75.1296L48.9024 66.6048" stroke="black" stroke-miterlimit="10"/>
<path d="M35.1744 60.6335L25.3824 70.3103" stroke="black" stroke-miterlimit="10" stroke-linecap="round"/>
<path d="M37.1136 66.528L33.1584 70.4448" stroke="black" stroke-miterlimit="10" stroke-linecap="round"/>
<path d="M29.28 58.6368L25.344 62.5344" stroke="black" stroke-miterlimit="10" stroke-linecap="round"/>
</svg>
