<svg width="96" height="96" viewBox="0 0 96 96" fill="none" xmlns="http://www.w3.org/2000/svg">
<path d="M40.8576 51.552C40.6656 51.6864 40.5888 51.9168 40.6272 52.1472C40.8192 53.0496 41.4912 55.3536 43.2192 57.0816C44.9472 58.8096 47.2512 59.4624 48.1536 59.6736C48.384 59.7312 48.6144 59.6352 48.7488 59.4432L65.952 35.136C66.3168 34.6176 65.6832 33.9648 65.1648 34.3488L40.8576 51.552Z" stroke="black" stroke-miterlimit="10"/>
<path d="M66.912 42.6624C72.7488 56.256 65.184 64.9344 63.2832 66.816C63.0528 67.0464 63.0528 67.392 63.2832 67.6224L67.6608 72C67.8912 72.2304 68.256 72.2304 68.4672 72C70.1376 70.2528 76.3968 62.9952 76.3968 52.2816C76.3968 39.8976 66.912 23.8656 47.9232 23.8656C28.9344 23.8656 19.5456 39.7632 19.4496 52.1472C19.3728 62.88 25.5936 70.3104 27.264 72.096C27.4752 72.3264 27.8592 72.3456 28.0896 72.1152L32.6208 67.584C32.832 67.3728 32.8512 67.008 32.6208 66.7776C31.2576 65.3568 26.8224 60.192 26.8608 52.2624C26.8992 42.8736 34.08 31.1616 47.9232 31.1616C47.9232 31.1616 52.6656 30.9504 57.408 33.2928" stroke="black" stroke-miterlimit="10" stroke-linecap="round"/>
<path d="M19.4496 52.2816H26.8416" stroke="black" stroke-miterlimit="10" stroke-linecap="round"/>
<path d="M27.744 32.1024L32.9856 37.344" stroke="black" stroke-miterlimit="10" stroke-linecap="round"/>
<path d="M47.9232 23.8656V31.1808" stroke="black" stroke-miterlimit="10" stroke-linecap="round"/>
</svg>
