<svg width="96" height="96" viewBox="0 0 96 96" fill="none" xmlns="http://www.w3.org/2000/svg">
<path d="M57.792 66.2976C67.8551 66.2976 76.0128 58.1399 76.0128 48.0768C76.0128 38.0137 67.8551 29.856 57.792 29.856C47.7289 29.856 39.5712 38.0137 39.5712 48.0768C39.5712 58.1399 47.7289 66.2976 57.792 66.2976Z" stroke="black" stroke-miterlimit="10"/>
<path d="M56.064 29.856H19.8144" stroke="black" stroke-miterlimit="10" stroke-linecap="round"/>
<path d="M56.064 66.2592H19.8144" stroke="black" stroke-miterlimit="10" stroke-linecap="round"/>
<path d="M45.0048 61.056H25.0176" stroke="black" stroke-miterlimit="10" stroke-linecap="round"/>
<path d="M45.0048 35.0208H25.0176" stroke="black" stroke-miterlimit="10" stroke-linecap="round"/>
<path d="M39.5712 48.0192H25.0176" stroke="black" stroke-miterlimit="10" stroke-linecap="round"/>
<path d="M40.8192 54.7008H21.9072" stroke="black" stroke-miterlimit="10" stroke-linecap="round"/>
<path d="M40.8192 40.7808H21.9072" stroke="black" stroke-miterlimit="10" stroke-linecap="round"/>
<path d="M57.792 29.856V33.6192" stroke="black" stroke-miterlimit="10" stroke-linecap="round"/>
<path d="M57.792 62.1121V65.8561" stroke="black" stroke-miterlimit="10" stroke-linecap="round"/>
<path d="M43.968 48.0192H40.224" stroke="black" stroke-miterlimit="10" stroke-linecap="round"/>
<path d="M75.6096 48.0192H71.8464" stroke="black" stroke-miterlimit="10" stroke-linecap="round"/>
<path d="M57.6192 43.2192V46.752C57.6192 47.2512 58.2144 47.52 58.5984 47.1744L65.3376 40.8192" stroke="black" stroke-miterlimit="10" stroke-linecap="round"/>
</svg>
