<svg width="96" height="96" viewBox="0 0 96 96" fill="none" xmlns="http://www.w3.org/2000/svg">
<g clip-path="url(#clip0_4062_21796)">
<mask id="mask0_4062_21796" style="mask-type:luminance" maskUnits="userSpaceOnUse" x="0" y="0" width="96" height="96">
<path d="M95.8585 0H0V95.9034H95.8585V0Z" fill="white"/>
</mask>
<g mask="url(#mask0_4062_21796)">
<path d="M8.81513 58.3571H39.3701L21.4669 92.5981C20.0623 95.2848 16.0539 95.2848 14.6492 92.5981L2.14565 68.6819C-0.333504 63.9399 3.27071 58.3571 8.8185 58.3571H8.81513Z" stroke="black" stroke-linecap="round" stroke-linejoin="round"/>
<path d="M64.6535 58.2314H8.91619C6.02946 58.2314 3.39198 59.7905 2.09851 62.2614L15.9495 35.768C17.2396 33.2971 19.8804 31.7379 22.7671 31.7379H78.501C84.5474 31.7379 90.0749 28.4746 92.7865 23.3073L93.7095 21.5484L78.9457 49.7846C76.2375 54.9648 70.7031 58.2346 64.6501 58.2346H64.6535V58.2314Z" stroke="black" stroke-linecap="round" stroke-linejoin="round"/>
<path d="M92.7899 23.4298L92.8741 23.2687C98.0446 13.1339 90.3343 1.28534 78.5078 1.28534H36.3991C34.9541 1.28534 33.637 2.06494 32.9903 3.29876L22.949 21.8609C21.6825 24.2835 23.525 27.1377 26.3579 27.1377H64.6602C68.9751 27.1377 72.7444 29.3605 75.5368 31.8572H78.5078C84.5541 31.8572 90.0817 28.5938 92.7932 23.4265H92.7899V23.4298Z" stroke="black" stroke-linecap="round" stroke-linejoin="round"/>
</g>
</g>
<defs>
<clipPath id="clip0_4062_21796">
<rect width="96" height="96" fill="white"/>
</clipPath>
</defs>
</svg>
