<svg width="96" height="96" viewBox="0 0 96 96" fill="none" xmlns="http://www.w3.org/2000/svg">
<g clip-path="url(#clip0_4062_21792)">
<mask id="mask0_4062_21792" style="mask-type:luminance" maskUnits="userSpaceOnUse" x="0" y="0" width="96" height="96">
<path d="M95.7831 0H0V95.8469H95.7831V0Z" fill="white"/>
</mask>
<g mask="url(#mask0_4062_21792)">
<path d="M71.8341 38.955L92.5458 54.4872C95.1643 56.4359 95.1643 60.3524 92.5458 62.3203L50.8353 93.5984C49.0971 94.8965 46.7082 94.8965 44.97 93.5984L15.2196 71.3015C12.6011 69.3528 12.6011 65.4363 15.2196 63.4684L23.9712 56.9143" stroke="black" stroke-miterlimit="10"/>
<path d="M59.8516 29.9737L92.5235 54.4872C95.1419 56.4359 95.1419 60.3524 92.5235 62.3203L64.7792 83.1277C63.0409 84.4258 60.6521 84.4258 58.9139 83.1277L23.9489 56.9143" stroke="black" stroke-miterlimit="10"/>
<path d="M3.24034 33.5266L44.9477 2.25169C46.6859 0.953619 49.0748 0.953619 50.813 2.25169L80.5634 24.5486C83.1819 26.4973 83.1819 30.4138 80.5634 32.3817L38.8528 63.6598C37.1146 64.9579 34.7258 64.9579 32.9876 63.6598L3.24034 41.3629C0.621871 39.4142 0.621871 35.4977 3.24034 33.5298V33.5266Z" stroke="black" stroke-miterlimit="10"/>
<path d="M3.24034 33.5298L30.9815 12.7224C32.7197 11.4243 35.1085 11.4243 36.8467 12.7224L71.8118 38.9358L38.8337 63.6598C37.0955 64.9579 34.7067 64.9579 32.9685 63.6598L3.24034 41.3629C0.621871 39.4142 0.621871 35.4977 3.24034 33.5298Z" stroke="black" stroke-miterlimit="10"/>
</g>
</g>
<defs>
<clipPath id="clip0_4062_21792">
<rect width="96" height="96" fill="white"/>
</clipPath>
</defs>
</svg>
