<svg width="96" height="96" viewBox="0 0 96 96" fill="none" xmlns="http://www.w3.org/2000/svg">
<path d="M48.0299 54.4134C57.0911 54.4134 64.4366 47.0679 64.4366 38.0067C64.4366 28.9455 57.0911 21.6 48.0299 21.6C38.9687 21.6 31.6232 28.9455 31.6232 38.0067C31.6232 47.0679 38.9687 54.4134 48.0299 54.4134Z" stroke="black" stroke-miterlimit="10" stroke-linecap="round"/>
<path d="M43.6 59.5983V73.3439C43.6 73.6356 43.8364 73.8719 44.128 73.8719H51.7206C52.0122 73.8719 52.2486 73.6356 52.2486 73.3439V59.5983C52.2486 59.3067 52.0122 59.0703 51.7206 59.0703H44.128C43.8364 59.0703 43.6 59.3067 43.6 59.5983Z" stroke="black" stroke-miterlimit="10" stroke-linecap="round"/>
<path d="M48.0299 54.6V58.7025" stroke="black" stroke-miterlimit="10" stroke-linecap="round"/>
<path d="M48 26.6354V38.4714" stroke="black" stroke-miterlimit="10" stroke-linecap="round"/>
<path d="M48 44.2195V47.3787" stroke="black" stroke-miterlimit="10" stroke-linecap="round"/>
</svg>
