<svg width="96" height="96" viewBox="0 0 96 96" fill="none" xmlns="http://www.w3.org/2000/svg">
<path d="M53.882 46.1801L52.8665 46.5884C52.6905 46.6588 52.4881 46.6324 52.342 46.5128C51.77 46.0428 51.1223 45.6627 50.4165 45.3969C50.2405 45.33 50.1173 45.1681 50.0892 44.9816L49.9361 43.9027C49.8991 43.6422 49.6756 43.4486 49.4133 43.4486H46.5797C46.3175 43.4486 46.094 43.6422 46.057 43.9027L45.9039 44.9816C45.8775 45.1681 45.7543 45.33 45.5765 45.3969C44.8708 45.6627 44.2231 46.0428 43.6511 46.5128C43.505 46.6324 43.3026 46.6606 43.1266 46.5884L42.1111 46.1801C41.8665 46.0816 41.5884 46.1801 41.4564 46.4054L40.0396 48.8588C39.9076 49.0859 39.9639 49.3763 40.1716 49.5382L41.0269 50.2088C41.1765 50.3249 41.254 50.5132 41.2223 50.6998C41.1625 51.0624 41.1308 51.4355 41.1308 51.8156C41.1308 52.1958 41.1625 52.5689 41.2223 52.9315C41.2522 53.118 41.1748 53.3064 41.0269 53.4225L40.1716 54.0931C39.9657 54.255 39.9093 54.5454 40.0396 54.7725L41.4564 57.2259C41.5884 57.4529 41.8665 57.5497 42.1111 57.4512L43.1266 57.0429C43.3026 56.9725 43.505 56.9988 43.6511 57.1185C44.2231 57.5884 44.8708 57.9686 45.5765 58.2344C45.7525 58.3012 45.8757 58.4632 45.9039 58.6497L46.057 59.7286C46.094 59.9891 46.3175 60.1827 46.5797 60.1827H49.4133C49.6756 60.1827 49.8991 59.9891 49.9361 59.7286L50.0892 58.6497C50.1156 58.4632 50.2388 58.3012 50.4165 58.2344C51.1223 57.9686 51.77 57.5884 52.342 57.1185C52.4881 56.9988 52.6905 56.9707 52.8665 57.0429L53.882 57.4512C54.1266 57.5497 54.4047 57.4512 54.5367 57.2259L55.9535 54.7725C56.0855 54.5454 56.0292 54.255 55.8215 54.0931L54.9661 53.4225C54.8165 53.3064 54.7391 53.118 54.7708 52.9315C54.8306 52.5689 54.8623 52.1958 54.8623 51.8156C54.8623 51.4355 54.8306 51.0624 54.7708 50.6998C54.7409 50.5132 54.8183 50.3249 54.9661 50.2088L55.8215 49.5382C56.0274 49.3763 56.0837 49.0859 55.9535 48.8588L54.5367 46.4054C54.4047 46.1784 54.1266 46.0816 53.882 46.1801Z" stroke="black" stroke-linecap="round" stroke-linejoin="round"/>
<path d="M47.9948 54.8763C49.6842 54.8763 51.0537 53.5068 51.0537 51.8174C51.0537 50.1281 49.6842 48.7585 47.9948 48.7585C46.3054 48.7585 44.9359 50.1281 44.9359 51.8174C44.9359 53.5068 46.3054 54.8763 47.9948 54.8763Z" stroke="black" stroke-linecap="round" stroke-linejoin="round"/>
<path d="M38.0385 25.8486V22.971C38.0385 22.6788 38.2743 22.443 38.5665 22.443H61.6101C61.7474 22.443 61.8812 22.4976 61.9797 22.5926L65.9098 26.4329C65.9098 26.4329 65.9257 26.4488 65.9345 26.4558L70.3908 30.2891C70.5069 30.3894 70.5738 30.5355 70.5738 30.6886V69.9384C70.5738 70.2305 70.338 70.4664 70.0458 70.4664H64.1745" stroke="black" stroke-linecap="round" stroke-linejoin="round"/>
<path d="M62.4391 23.0978V29.3775C62.4391 29.6696 62.6749 29.9055 62.9671 29.9055H69.7184" stroke="black" stroke-linejoin="round"/>
<path d="M63.6464 73.872H32.167C31.8749 73.872 31.639 73.6361 31.639 73.344V26.3766C31.639 26.0845 31.8749 25.8486 32.167 25.8486H55.2107C55.348 25.8486 55.4818 25.9032 55.5803 25.9982L59.5104 29.8386C59.5104 29.8386 59.5262 29.8544 59.535 29.8614L63.9914 33.6947C64.1075 33.795 64.1744 33.9411 64.1744 34.0942V73.344C64.1744 73.6361 63.9386 73.872 63.6464 73.872Z" stroke="black" stroke-linecap="round" stroke-linejoin="round"/>
<path d="M56.0397 26.5034V32.7831C56.0397 33.0753 56.2755 33.3111 56.5677 33.3111H63.319" stroke="black" stroke-linejoin="round"/>
</svg>
