<svg width="96" height="96" viewBox="0 0 96 96" fill="none" xmlns="http://www.w3.org/2000/svg">
<path d="M69.56 22.311H26.44C26.1484 22.311 25.912 22.5474 25.912 22.839V60.4661C25.912 60.7577 26.1484 60.9941 26.44 60.9941H69.56C69.8516 60.9941 70.088 60.7577 70.088 60.4661V22.839C70.088 22.5474 69.8516 22.311 69.56 22.311Z" stroke="black" stroke-miterlimit="10" stroke-linecap="round"/>
<path d="M34.0679 70H44.1562" stroke="black" stroke-miterlimit="10" stroke-linecap="round"/>
<path d="M51.7559 70H61.8442" stroke="black" stroke-miterlimit="10" stroke-linecap="round"/>
<path d="M47.9067 73.4743C49.9781 73.4743 51.6572 71.7951 51.6572 69.7237C51.6572 67.6523 49.9781 65.9731 47.9067 65.9731C45.8353 65.9731 44.1561 67.6523 44.1561 69.7237C44.1561 71.7951 45.8353 73.4743 47.9067 73.4743Z" stroke="black" stroke-miterlimit="10" stroke-linecap="round"/>
<path d="M30.3173 73.4743C32.3887 73.4743 34.0679 71.7951 34.0679 69.7237C34.0679 67.6523 32.3887 65.9731 30.3173 65.9731C28.246 65.9731 26.5668 67.6523 26.5668 69.7237C26.5668 71.7951 28.246 73.4743 30.3173 73.4743Z" stroke="black" stroke-miterlimit="10" stroke-linecap="round"/>
<path d="M65.6986 73.4743C67.7699 73.4743 69.4491 71.7951 69.4491 69.7237C69.4491 67.6523 67.7699 65.9731 65.6986 65.9731C63.6272 65.9731 61.948 67.6523 61.948 69.7237C61.948 71.7951 63.6272 73.4743 65.6986 73.4743Z" stroke="black" stroke-miterlimit="10" stroke-linecap="round"/>
<path d="M52.2539 34.2949L47.8609 30.4L43.4539 34.2949V22.4572H52.2539V34.2949Z" stroke="black" stroke-linecap="round" stroke-linejoin="round"/>
</svg>
