<svg width="96" height="96" viewBox="0 0 96 96" fill="none" xmlns="http://www.w3.org/2000/svg">
<path d="M26.3045 34.4849C30.8259 27.2707 38.8462 22.4729 47.9877 22.4729C62.1099 22.4729 73.5587 33.9217 73.5587 48.0439C73.5587 62.1662 62.1099 73.615 47.9877 73.615C33.8654 73.615 22.4166 62.1662 22.4166 48.0439" stroke="black" stroke-linecap="round" stroke-linejoin="round"/>
<path d="M26.2446 26V33.9182C26.2446 34.2104 26.4805 34.4462 26.7726 34.4462H34.617" stroke="black" stroke-linejoin="round"/>
<path d="M56.272 39.1683H39.552C39.2604 39.1683 39.024 39.4047 39.024 39.6963V56.4163C39.024 56.7079 39.2604 56.9443 39.552 56.9443H56.272C56.5637 56.9443 56.8 56.7079 56.8 56.4163V39.6963C56.8 39.4047 56.5637 39.1683 56.272 39.1683Z" stroke="black" stroke-linejoin="round"/>
<path d="M49.584 39.2H46.24C45.9484 39.2 45.712 39.4363 45.712 39.728V43.072C45.712 43.3636 45.9484 43.6 46.24 43.6H49.584C49.8756 43.6 50.112 43.3636 50.112 43.072V39.728C50.112 39.4363 49.8756 39.2 49.584 39.2Z" stroke="black" stroke-linejoin="round"/>
</svg>
