<svg width="96" height="96" viewBox="0 0 96 96" fill="none" xmlns="http://www.w3.org/2000/svg">
<path d="M51.7248 23.424C54.1248 23.8848 56.2752 24.8448 58.176 26.208L60.1152 24.288L63.4944 27.6672L61.4784 29.9136C62.4768 31.5264 64.3392 34.2912 64.7424 36.2112L68.1024 36.2304V42.816L64.8 42.8544C64.416 44.8704 62.7264 47.7504 61.7088 49.4592L63.1488 50.8992C63.36 51.1104 63.36 51.4752 63.1488 51.6864L60.0192 54.816C59.808 55.0272 59.4624 55.0272 59.232 54.816L58.0416 53.6448C56.0256 55.1808 54.2784 56.0832 51.7056 56.6208V59.7696H44.064V56.6784C41.5104 56.1984 39.8016 55.0848 37.8048 53.6064L36.2496 55.1232L32.544 51.4176L34.3296 49.6128C33.3888 48 31.8912 44.736 31.5456 42.8352H27.8592V36.1728H31.584C31.584 36.1728 33.6192 32.1408 34.6944 30.432L32.4672 28.0896L36.096 24.2496L38.3232 26.1696C38.5152 26.3616 38.8032 26.3808 39.0336 26.2272C40.8768 24.9216 41.76 24.4416 44.064 23.4432L44.1408 19.392H51.5712C51.648 19.392 51.7056 19.4496 51.7056 19.5264L51.7248 23.424Z" stroke="black" stroke-linecap="round" stroke-linejoin="round"/>
<path d="M55.4315 40.7978C56.0976 36.6948 53.3113 32.8289 49.2083 32.1628C45.1052 31.4968 41.2393 34.2831 40.5732 38.3861C39.9072 42.489 42.6935 46.3551 46.7965 47.0211C50.8994 47.6872 54.7655 44.9009 55.4315 40.7978Z" stroke="black" stroke-linecap="round" stroke-linejoin="round"/>
<path d="M19.9296 76.5696H76.0704" stroke="black" stroke-linecap="round" stroke-linejoin="round"/>
<path d="M49.632 76.3776C49.632 76.3776 55.008 61.1328 76.0704 61.1328" stroke="black" stroke-linecap="round" stroke-linejoin="round"/>
<path d="M46.272 76.3776C46.272 76.3776 40.992 61.1328 19.9488 61.1328" stroke="black" stroke-linecap="round" stroke-linejoin="round"/>
<path d="M57.3696 71.6736H76.0704" stroke="black" stroke-linecap="round" stroke-linejoin="round"/>
<path d="M19.9296 71.6736H38.6688" stroke="black" stroke-linecap="round" stroke-linejoin="round"/>
<path d="M67.1616 66.8735H76.0704" stroke="black" stroke-linecap="round" stroke-linejoin="round"/>
<path d="M19.9296 66.8735H28.704" stroke="black" stroke-linecap="round" stroke-linejoin="round"/>
</svg>
