<svg width="96" height="96" viewBox="0 0 96 96" fill="none" xmlns="http://www.w3.org/2000/svg">
<path d="M70.2528 51.8209V31.1809C70.2528 30.8545 70.5024 30.6049 70.8288 30.6049H75.4944C75.8208 30.6049 76.0704 30.8545 76.0704 31.1809V51.8209C76.0704 52.1473 75.8208 52.3969 75.4944 52.3969H70.8288C70.5024 52.3969 70.2528 52.1473 70.2528 51.8209Z" stroke="black" stroke-miterlimit="10"/>
<path d="M60.8256 51.8208V41.3568C60.8256 41.0304 61.0752 40.7808 61.4016 40.7808H66.0672C66.3936 40.7808 66.6432 41.0304 66.6432 41.3568V51.8208C66.6432 52.1472 66.3936 52.3968 66.0672 52.3968H61.4016C61.0752 52.3968 60.8256 52.1472 60.8256 51.8208Z" stroke="black" stroke-miterlimit="10"/>
<path d="M51.3984 51.8208V33.6C51.3984 33.2736 51.648 33.024 51.9744 33.024H56.64C56.9664 33.024 57.216 33.2736 57.216 33.6V51.8208C57.216 52.1472 56.9664 52.3968 56.64 52.3968H51.9744C51.648 52.3968 51.3984 52.1472 51.3984 51.8208Z" stroke="black" stroke-miterlimit="10"/>
<path d="M54.2976 30.2592C55.7609 30.2592 56.9472 29.0729 56.9472 27.6096C56.9472 26.1462 55.7609 24.96 54.2976 24.96C52.8343 24.96 51.648 26.1462 51.648 27.6096C51.648 29.0729 52.8343 30.2592 54.2976 30.2592Z" stroke="black" stroke-miterlimit="10"/>
<path d="M63.7248 37.4784C65.1881 37.4784 66.3744 36.2921 66.3744 34.8288C66.3744 33.3655 65.1881 32.1792 63.7248 32.1792C62.2615 32.1792 61.0752 33.3655 61.0752 34.8288C61.0752 36.2921 62.2615 37.4784 63.7248 37.4784Z" stroke="black" stroke-miterlimit="10"/>
<path d="M73.152 25.5168C74.6153 25.5168 75.8016 24.3306 75.8016 22.8673C75.8016 21.4039 74.6153 20.2177 73.152 20.2177C71.6886 20.2177 70.5024 21.4039 70.5024 22.8673C70.5024 24.3306 71.6886 25.5168 73.152 25.5168Z" stroke="black" stroke-miterlimit="10"/>
<path d="M56.5248 29.0496L61.6128 33.216" stroke="black" stroke-miterlimit="10"/>
<path d="M65.2416 32.4864L72.0384 24.9408" stroke="black" stroke-miterlimit="10"/>
<path d="M31.968 56.7936C36.7715 56.7936 40.6656 52.8996 40.6656 48.096C40.6656 43.2925 36.7715 39.3984 31.968 39.3984C27.1644 39.3984 23.2704 43.2925 23.2704 48.096C23.2704 52.8996 27.1644 56.7936 31.968 56.7936Z" stroke="black" stroke-miterlimit="10"/>
<path d="M19.9296 75.1296V72.8064C19.9296 64.3584 24.2688 57.0624 31.6608 57.0624C39.0528 57.0624 44.0064 63.8784 44.0064 72.6336V75.1296C44.0064 75.4944 43.776 75.7824 43.5072 75.7824H20.448C20.16 75.7824 19.9296 75.4944 19.9296 75.1296Z" stroke="black" stroke-miterlimit="10"/>
</svg>
