<svg width="96" height="96" viewBox="0 0 96 96" fill="none" xmlns="http://www.w3.org/2000/svg">
<path d="M67.1928 61.2L48.4963 23.8036C48.301 23.4146 47.7466 23.4146 47.5512 23.8036L22.9904 72.9322C22.8144 73.2824 23.0696 73.696 23.4621 73.696H68.9123" stroke="black" stroke-miterlimit="10" stroke-linecap="round"/>
<path d="M47.9067 39.2V56.9337" stroke="black" stroke-miterlimit="10"/>
<path d="M48 61.2L47.9067 65.6" stroke="black" stroke-miterlimit="10"/>
<path d="M65.3536 73.4654C62.9442 72.5766 61.2264 70.2604 61.2264 67.543C61.2264 64.0582 64.0512 61.2334 67.536 61.2334C71.0208 61.2334 73.8456 64.0582 73.8456 67.543C73.8456 71.0278 71.0208 73.8526 67.536 73.8526C66.7686 73.8526 66.033 73.7153 65.3536 73.4654Z" stroke="black" stroke-linejoin="round"/>
<path d="M67.536 71.3763V65.4486" stroke="black" stroke-linejoin="round"/>
<path d="M70.037 66.6331L67.8546 64.9752C67.6662 64.8309 67.404 64.8309 67.2157 64.9752L65.0333 66.6331" stroke="black" stroke-linejoin="round"/>
</svg>
