<svg width="96" height="96" viewBox="0 0 96 96" fill="none" xmlns="http://www.w3.org/2000/svg">
<path d="M55.3269 32.35L60.6421 30.3894C60.7776 30.3384 60.929 30.3472 61.0574 30.4105L69.7413 34.6732C69.9014 34.7524 70.0123 34.9073 70.0334 35.0851L73.5992 64.7657C73.645 65.1529 73.2718 65.4539 72.904 65.3289L61.0258 61.2598C60.9149 61.2211 60.7952 61.2211 60.6843 61.2598L48.1813 65.5419C48.0704 65.5806 47.9507 65.5806 47.8398 65.5419L35.3368 61.2598C35.2259 61.2211 35.1062 61.2211 34.9954 61.2598L23.1154 65.3289C22.7475 65.4556 22.3744 65.1529 22.4202 64.7675L25.9683 35.0868C25.9894 34.9091 26.1003 34.7542 26.2605 34.675L34.9619 30.4123C35.0922 30.3489 35.2418 30.3419 35.3773 30.3912L40.6696 32.3518" stroke="black" stroke-miterlimit="10" stroke-linecap="round"/>
<path d="M48.0088 49.3534V65.6" stroke="black" stroke-miterlimit="10" stroke-linecap="round"/>
<path d="M35.1643 30.3103V61.2001" stroke="black" stroke-miterlimit="10" stroke-linecap="round"/>
<path d="M60.855 30.3103V61.2001" stroke="black" stroke-miterlimit="10" stroke-linecap="round"/>
<path d="M54.2523 43.5029L48.4032 49.3521C48.1966 49.5587 47.863 49.5587 47.6565 49.3521L41.8073 43.5029C38.3724 40.0681 38.3724 34.4927 41.8073 31.0579C45.2421 27.623 50.8175 27.623 54.2523 31.0579C57.6872 34.4927 57.6872 40.0681 54.2523 43.5029Z" stroke="black" stroke-miterlimit="10" stroke-linecap="round"/>
<path d="M48.0598 39.9638C49.7084 39.9638 51.0448 38.6274 51.0448 36.9789C51.0448 35.3303 49.7084 33.9939 48.0598 33.9939C46.4113 33.9939 45.0749 35.3303 45.0749 36.9789C45.0749 38.6274 46.4113 39.9638 48.0598 39.9638Z" stroke="black" stroke-miterlimit="10" stroke-linecap="round"/>
</svg>
