<svg width="96" height="96" viewBox="0 0 96 96" fill="none" xmlns="http://www.w3.org/2000/svg">
<path d="M65.6986 67.0767V73.5377C65.6986 73.8298 65.4627 74.0657 65.1706 74.0657H30.928C30.6358 74.0657 30.4 73.8298 30.4 73.5377C30.4053 68.6695 30.451 31.6708 30.4334 26.7973C30.4334 26.5052 30.6693 26.2676 30.9614 26.2676H65.1688C65.461 26.2676 65.6968 26.5034 65.6968 26.7956V49.4749" stroke="black" stroke-linejoin="round"/>
<path d="M70.4981 53.6831C67.837 49.3429 62.0783 48.1549 57.9176 51.0871C54.1495 53.7429 53.0776 58.9402 55.4871 62.8703C58.1482 67.2104 63.9069 68.3984 68.0675 65.4663C71.8357 62.8104 72.9075 57.6132 70.4981 53.6831Z" stroke="black" stroke-miterlimit="10"/>
<path d="M68.0658 65.4663L73.5394 73.7841" stroke="black" stroke-miterlimit="10" stroke-linecap="round"/>
<path d="M39.2 39.2H56.8" stroke="black" stroke-linecap="round" stroke-linejoin="round"/>
<path d="M39.2 47.6973H56.8" stroke="black" stroke-linecap="round" stroke-linejoin="round"/>
<path d="M38.3306 56.4973H54.2005" stroke="black" stroke-linecap="round" stroke-linejoin="round"/>
</svg>
