<svg width="96" height="96" viewBox="0 0 96 96" fill="none" xmlns="http://www.w3.org/2000/svg">
<path d="M29.3184 30.528H75.4944C75.8784 30.528 76.1472 30.912 76.032 31.2768L67.008 58.3296C66.9312 58.56 66.72 58.7136 66.4704 58.7136H34.5024C34.2336 58.7136 33.984 58.5216 33.9456 58.2336L28.6272 26.304C28.5888 26.0352 28.3392 25.824 28.0704 25.824H19.9296" stroke="black" stroke-miterlimit="10" stroke-linecap="round"/>
<path d="M34.5024 58.6945C34.5024 58.6945 32.7168 59.6929 32.7168 61.4209C32.7168 63.1489 34.0224 63.3985 34.0224 63.3985H62.208" stroke="black" stroke-miterlimit="10" stroke-linecap="round"/>
<path d="M38.7265 70.1761C40.5079 70.1761 41.9521 68.7319 41.9521 66.9505C41.9521 65.169 40.5079 63.7249 38.7265 63.7249C36.945 63.7249 35.5009 65.169 35.5009 66.9505C35.5009 68.7319 36.945 70.1761 38.7265 70.1761Z" stroke="black" stroke-miterlimit="10" stroke-linecap="round"/>
<path d="M57.3696 70.1761C59.1511 70.1761 60.5952 68.7319 60.5952 66.9505C60.5952 65.169 59.1511 63.7249 57.3696 63.7249C55.5882 63.7249 54.144 65.169 54.144 66.9505C54.144 68.7319 55.5882 70.1761 57.3696 70.1761Z" stroke="black" stroke-miterlimit="10" stroke-linecap="round"/>
</svg>
