<svg width="96" height="96" viewBox="0 0 96 96" fill="none" xmlns="http://www.w3.org/2000/svg">
<path d="M92.6121 50.592C93.9587 46.672 94.4993 43.2704 94.3191 39.952C93.5623 26.4992 88.1004 15.7856 78.0778 8.10565C74.5195 5.37605 70.0865 3.52965 64.5198 2.45444C58.3339 1.25764 52.0333 1.00484 45.8015 1.70884C37.784 2.61124 31.1262 4.79685 25.4481 8.39685C21.9194 10.6304 18.9804 13.7536 16.1954 18.2304C13.6857 22.2688 12.2506 25.792 11.6674 29.3216C11.3365 31.3696 11.3791 33.5232 11.8083 36.3104C12.0311 37.776 12.4636 39.28 13.1582 41.0528C14.0395 43.2896 13.5251 45.4144 11.5462 47.7408C10.039 49.5168 8.24678 50.9792 6.34644 52.5312C5.87463 52.9216 5.40282 53.3056 4.93429 53.6992C4.49196 54.0736 4.05292 54.448 3.61388 54.8256C3.10275 55.264 2.59818 55.7024 2.07722 56.1312C1.88064 56.2944 1.28432 56.7872 1.34985 57.5872C1.42193 58.384 2.10671 58.7808 2.33279 58.912C3.79736 59.7536 5.35039 60.3968 6.84446 61.0176L7.29333 61.2032C9.37388 62.0672 9.51149 62.3424 8.96432 64.4864C8.82671 65.0336 8.65306 65.68 8.44992 66.3008C7.98466 67.7376 8.63012 68.6752 9.25592 69.2032C9.70152 69.5776 10.1569 70.016 10.691 70.576C11.3594 71.2832 11.4511 72.384 10.8188 73.12C10.1373 73.9168 10.2225 74.8 11.0383 75.4752L11.1923 75.6032C11.6346 75.968 12.054 76.3136 12.3686 76.704C12.7814 77.2224 12.8305 77.6704 12.5422 78.256C12.3948 78.5536 12.2146 78.8544 12.0245 79.168L11.7821 79.5776C10.9498 81.0144 10.6845 82.6656 10.9957 84.48C11.3987 86.8544 13.5677 87.7312 14.282 88.016C15.9792 88.7008 17.7059 88.9536 19.4817 89.1712C21.1757 89.3792 22.8729 89.4592 24.5209 89.536C25.7234 89.5904 26.9651 89.648 28.1742 89.7568C31.2933 90.0384 33.3903 91.3088 34.6157 93.7568" stroke="black" stroke-miterlimit="10" stroke-linecap="round"/>
<path d="M43.8422 66.1184L43.852 94.6784" stroke="black" stroke-miterlimit="10" stroke-linecap="round"/>
<path d="M54.2548 20.0928L54.281 94.1408" stroke="black" stroke-miterlimit="10" stroke-linecap="round"/>
<path d="M64.1104 35.3217L64.1267 94.1441" stroke="black" stroke-miterlimit="10" stroke-linecap="round"/>
<path d="M73.8741 65.5745L73.8807 94.1377" stroke="black" stroke-miterlimit="10" stroke-linecap="round"/>
<path d="M82.7893 60.2432L73.8643 65.1552" stroke="black" stroke-miterlimit="10" stroke-linecap="round"/>
<path d="M71.9149 28.5439L64.1333 35.1423" stroke="black" stroke-miterlimit="10" stroke-linecap="round"/>
<path d="M34.7369 49.7249L43.8389 65.9777" stroke="black" stroke-miterlimit="10" stroke-linecap="round"/>
<path d="M80.2239 87.8816V75.696" stroke="black" stroke-miterlimit="10" stroke-linecap="round"/>
<path d="M31.8307 58.0992L36.3784 66.2304" stroke="black" stroke-miterlimit="10" stroke-linecap="round"/>
<path d="M31.9683 49.7216C34.4847 49.7216 36.5226 47.7312 36.5226 45.2736C36.5226 42.816 34.4847 40.8256 31.9683 40.8256C29.452 40.8256 27.4141 42.816 27.4141 45.2736C27.4141 47.7312 29.452 49.7216 31.9683 49.7216Z" stroke="black" stroke-miterlimit="10" stroke-linecap="round"/>
<path d="M54.2547 20.0928C56.771 20.0928 58.809 18.1024 58.809 15.6448C58.809 13.1872 56.771 11.1968 54.2547 11.1968C51.7384 11.1968 49.7004 13.1872 49.7004 15.6448C49.7004 18.1024 51.7384 20.0928 54.2547 20.0928Z" stroke="black" stroke-miterlimit="10" stroke-linecap="round"/>
<path d="M75.863 30.3967C78.3793 30.3967 80.4172 28.4063 80.4172 25.9487C80.4172 23.4911 78.3793 21.5007 75.863 21.5007C73.3467 21.5007 71.3087 23.4911 71.3087 25.9487C71.3087 28.4063 73.3467 30.3967 75.863 30.3967Z" stroke="black" stroke-miterlimit="10" stroke-linecap="round"/>
<path d="M87.2257 63.408C89.742 63.408 91.7799 61.4176 91.7799 58.96C91.7799 56.5024 89.742 54.512 87.2257 54.512C84.7093 54.512 82.6714 56.5024 82.6714 58.96C82.6714 61.4176 84.7093 63.408 87.2257 63.408Z" stroke="black" stroke-miterlimit="10" stroke-linecap="round"/>
</svg>
