<svg width="96" height="96" viewBox="0 0 96 96" fill="none" xmlns="http://www.w3.org/2000/svg">
<g clip-path="url(#clip0_4062_21910)">
<mask id="mask0_4062_21910" style="mask-type:luminance" maskUnits="userSpaceOnUse" x="0" y="0" width="96" height="96">
<path d="M96 0H0V95.9742H96V0Z" fill="white"/>
</mask>
<g mask="url(#mask0_4062_21910)">
<path d="M1.70631 70.5182L1.40149 94.0382C1.40149 94.2766 1.52762 94.4344 1.6047 94.5053C1.67828 94.5729 1.83244 94.6857 2.06718 94.6857H40.2955V84.6154C40.2955 77.5152 44.3948 72.9182 52.0222 72.7829C55.7326 72.7088 57.8733 73.0631 60.5886 75.5115C63.3916 78.0403 64.9962 81.2393 64.9962 84.8505V94.6889H93.9189C94.1606 94.6889 94.3183 94.5794 94.3883 94.5117C94.4654 94.4409 94.5951 94.2894 94.5951 94.0478V24.1579C94.5951 23.8035 94.2937 23.5168 93.9294 23.5168H65.9983C65.1959 23.5168 64.5478 22.9209 64.5478 22.1831V10.7791C64.5478 5.1222 58.5705 1.39495 52.5127 1.28864C49.5802 1.23388 46.7843 1.95549 44.633 3.89804C42.3837 5.92757 40.3936 8.43388 40.3936 11.3332V22.1799C40.3936 22.9176 39.7454 23.5136 38.9466 23.5136L2.38952 23.5684C2.02514 23.5684 1.72383 23.8551 1.72383 24.2094V47.4911H12.5116C20.1425 47.4911 25.4155 51.3311 25.5627 58.428C25.6362 61.9426 24.8829 63.9915 22.1711 66.5332C19.4698 69.0653 16.0783 70.5182 12.2698 70.5182H1.70631Z" stroke="black" stroke-miterlimit="10"/>
</g>
</g>
<defs>
<clipPath id="clip0_4062_21910">
<rect width="96" height="96" fill="white"/>
</clipPath>
</defs>
</svg>
