<svg width="96" height="96" viewBox="0 0 96 96" fill="none" xmlns="http://www.w3.org/2000/svg">
<path d="M53.5986 48.0439H41.4986C41.207 48.0439 40.9706 48.2803 40.9706 48.5719V60.6719C40.9706 60.9636 41.207 61.1999 41.4986 61.1999H53.5986C53.8902 61.1999 54.1266 60.9636 54.1266 60.6719V48.5719C54.1266 48.2803 53.8902 48.0439 53.5986 48.0439Z" stroke="black" stroke-miterlimit="10" stroke-linecap="round"/>
<path d="M48.7832 48.0529H46.4969C46.2053 48.0529 45.9689 48.2893 45.9689 48.5809V50.7562C45.9689 51.0478 46.2053 51.2842 46.4969 51.2842H48.7832C49.0748 51.2842 49.3112 51.0478 49.3112 50.7562V48.5809C49.3112 48.2893 49.0748 48.0529 48.7832 48.0529Z" stroke="black" stroke-miterlimit="10" stroke-linecap="round"/>
<path d="M24.2119 66.378V40.6644C24.2119 40.3722 24.4477 40.1364 24.7399 40.1364H70.3573C70.6495 40.1364 70.8853 40.3722 70.8853 40.6644V67.1295" stroke="black" stroke-linecap="round" stroke-linejoin="round"/>
<path d="M23.661 67.1295H42.8379C43.1301 67.1295 43.3659 67.3654 43.3659 67.6575V68.8508C43.3659 69.143 43.6018 69.3788 43.8939 69.3788H51.8351C52.1272 69.3788 52.3631 69.143 52.3631 68.8508V67.6575C52.3631 67.3654 52.5989 67.1295 52.8911 67.1295H72.0944C73.2595 67.1295 73.9407 68.439 73.2736 69.3946L70.7339 73.0255C70.4647 73.411 70.0247 73.6398 69.5547 73.6398H26.2429C25.7765 73.6398 25.34 73.4145 25.069 73.0343L22.4888 69.4034C21.8112 68.4495 22.4923 67.1295 23.6627 67.1295H23.661Z" stroke="black" stroke-linecap="round" stroke-linejoin="round"/>
<path d="M67.008 43.1847H28.721C28.4294 43.1847 28.193 43.4211 28.193 43.7127V63.3103C28.193 63.6019 28.4294 63.8383 28.721 63.8383H67.008C67.2996 63.8383 67.536 63.6019 67.536 63.3103V43.7127C67.536 43.4211 67.2996 43.1847 67.008 43.1847Z" stroke="black" stroke-linecap="round" stroke-linejoin="round"/>
</svg>
