<svg width="96" height="96" viewBox="0 0 96 96" fill="none" xmlns="http://www.w3.org/2000/svg">
<g clip-path="url(#clip0_4062_21818)">
<mask id="mask0_4062_21818" style="mask-type:luminance" maskUnits="userSpaceOnUse" x="0" y="0" width="96" height="96">
<path d="M95.7881 0H0V95.8812H95.7881V0Z" fill="white"/>
</mask>
<g mask="url(#mask0_4062_21818)">
<path d="M47.9583 61.1222C55.2787 61.1222 61.2121 55.1888 61.2121 47.8684C61.2121 40.548 55.2787 34.6146 47.9583 34.6146C40.6379 34.6146 34.7045 40.548 34.7045 47.8684C34.7045 55.1888 40.6379 61.1222 47.9583 61.1222Z" stroke="black" stroke-miterlimit="10"/>
<path d="M48.0193 77.6188H43.3734C42.9239 77.6188 42.5611 77.256 42.5611 76.8065V73.6472C42.5611 73.2715 42.3043 72.9408 41.9382 72.8573C38.734 72.1189 36.3934 70.9309 33.8216 69.043C33.5005 68.8086 33.0574 68.844 32.7749 69.1201L31.542 70.3369C31.2241 70.6516 30.7136 70.6484 30.399 70.3369L25.8012 65.7392C25.4834 65.4213 25.4834 64.9076 25.8012 64.5898L27.4548 62.9363C27.718 62.673 27.7694 62.2684 27.58 61.9506C26.1833 59.5907 24.1863 56.1135 23.496 53.423C23.4029 53.0634 23.0882 52.8065 22.719 52.8033L19.3253 52.7583C18.8822 52.7519 18.5226 52.3891 18.5226 51.946V43.8968C18.5226 43.4505 18.8822 43.0877 19.3285 43.0845L22.8281 43.062C23.1909 43.062 23.5024 42.8148 23.6051 42.4648C24.35 39.9091 26.5172 36.5636 27.9139 34.3418C28.1065 34.0335 28.0712 33.6386 27.8304 33.3689L25.8045 31.115C25.5155 30.7939 25.5283 30.3027 25.8334 29.9977L29.6734 26.1577C29.9912 25.8398 30.5017 25.8398 30.8196 26.1577L32.6079 27.9364C32.8808 28.2061 33.3079 28.2543 33.6289 28.0391C36.1108 26.3599 38.872 25.1335 41.9061 24.4688C42.285 24.3854 42.5579 24.0579 42.5547 23.6694L42.5386 19.3028C42.5386 18.8533 42.9014 18.4873 43.3509 18.4873H52.6812C53.1307 18.4873 53.4968 18.8533 53.4936 19.3028L53.4775 23.6694C53.4775 24.0579 53.7504 24.3854 54.1261 24.4688C57.1602 25.1335 59.9214 26.3599 62.4032 28.0391C62.7211 28.2543 63.1513 28.2093 63.4243 27.9364L65.2126 26.1577C65.5305 25.843 66.0442 25.843 66.3588 26.1577L70.1988 29.9977C70.5039 30.3027 70.5167 30.7939 70.2277 31.115L68.2018 33.3689C67.961 33.6386 67.9257 34.0367 68.1183 34.3418C69.515 36.5636 71.6822 39.9091 72.4271 42.4648C72.5298 42.8148 72.8412 43.0588 73.2041 43.062L76.7037 43.0845C77.15 43.0845 77.5096 43.4505 77.5096 43.8968V51.946C77.5096 52.3891 77.1532 52.7519 76.7069 52.7583L73.3132 52.8033C72.944 52.8097 72.6261 53.0634 72.5362 53.423C71.8459 56.1135 69.8521 59.5939 68.4522 61.9506C68.2628 62.2684 68.3142 62.6762 68.5774 62.9363L70.2309 64.5898C70.5488 64.9076 70.5488 65.4213 70.2309 65.7392L65.6332 70.3369C65.3186 70.6516 64.8081 70.6548 64.4902 70.3369L63.2573 69.1201C62.9748 68.8407 62.5317 68.8054 62.2106 69.043C59.6388 70.9309 57.2982 72.1189 54.094 72.8573C53.7279 72.9408 53.4711 73.2715 53.4711 73.6472V76.8065C53.4711 77.256 53.1083 77.6188 52.6588 77.6188H48.0129H48.0193Z" stroke="black" stroke-miterlimit="10"/>
<path d="M84.0755 47.9487C84.0755 45.0687 86.4096 42.7345 89.2896 42.7345C89.4213 42.7345 89.5529 42.7442 89.6846 42.7538C87.3151 23.7079 72.2119 8.61439 53.1596 6.26416C53.1596 6.34122 53.1725 6.42148 53.1725 6.49854C53.1725 9.37854 50.8383 11.7127 47.9583 11.7127C45.0783 11.7127 42.7441 9.37854 42.7441 6.49854C42.7441 6.41827 42.7537 6.34122 42.7569 6.26416C23.7046 8.61439 8.59828 23.7047 6.22878 42.7506C6.31868 42.7506 6.40858 42.7377 6.50169 42.7377C9.38169 42.7377 11.7159 45.0719 11.7159 47.9519C11.7159 50.8319 9.38169 53.1661 6.50169 53.1661C6.40537 53.1661 6.31226 53.1565 6.21594 53.1533C8.54691 72.2473 23.6757 87.389 42.7634 89.7392C42.7569 89.6236 42.7441 89.5048 42.7441 89.386C42.7441 86.506 45.0783 84.1719 47.9583 84.1719C50.8383 84.1719 53.1725 86.506 53.1725 89.386C53.1725 89.5048 53.1628 89.6204 53.1532 89.7392C72.2408 87.3858 87.3664 72.2441 89.6974 53.1468C89.5626 53.1565 89.4277 53.1661 89.2929 53.1661C86.4129 53.1661 84.0787 50.8319 84.0787 47.9519H84.0755V47.9487Z" stroke="black" stroke-miterlimit="10"/>
<path d="M6.22557 42.7473C3.474 42.8918 1.2843 45.1618 1.2843 47.9487C1.2843 50.7355 3.46758 52.9991 6.21273 53.15" stroke="black" stroke-miterlimit="10"/>
<path d="M89.6974 53.1436C92.388 52.9349 94.5071 50.6938 94.5071 47.9487C94.5071 45.2035 92.3816 42.9561 89.6878 42.7538" stroke="black" stroke-miterlimit="10"/>
<path d="M53.1596 6.2641C53.0344 3.49326 50.758 1.2843 47.9583 1.2843C45.1586 1.2843 42.879 3.49326 42.757 6.2641" stroke="black" stroke-miterlimit="10"/>
<path d="M42.7601 89.7328C42.9431 92.449 45.1971 94.5938 47.9551 94.5938C50.713 94.5938 52.9702 92.4458 53.15 89.7328" stroke="black" stroke-miterlimit="10"/>
</g>
</g>
<defs>
<clipPath id="clip0_4062_21818">
<rect width="96" height="96" fill="white"/>
</clipPath>
</defs>
</svg>
