<svg width="96" height="96" viewBox="0 0 96 96" fill="none" xmlns="http://www.w3.org/2000/svg">
<g clip-path="url(#clip0_4062_21855)">
<mask id="mask0_4062_21855" style="mask-type:luminance" maskUnits="userSpaceOnUse" x="0" y="0" width="96" height="96">
<path d="M95.9133 0H0V95.9422H95.9133V0Z" fill="white"/>
</mask>
<g mask="url(#mask0_4062_21855)">
<path d="M64.8306 88.2878H31.4039" stroke="black" stroke-miterlimit="10"/>
<path d="M71.7592 39.8191H75.4355C75.8272 39.8191 76.1804 40.0567 76.328 40.4195L83.8668 59.0062C84.0145 59.3691 84.3676 59.6066 84.7593 59.6066H93.6658C94.1988 59.6066 94.6291 60.0369 94.6291 60.5699V86.3614C94.6291 87.4242 93.7654 88.2879 92.7026 88.2879L80.2579 88.3007" stroke="black" stroke-miterlimit="10"/>
<path d="M16.0439 88.2879H2.24751C1.71454 88.2879 1.2843 87.8576 1.2843 87.3247V32.7556C1.2843 32.2226 1.71454 31.7924 2.24751 31.7924H18.9207" stroke="black" stroke-miterlimit="10"/>
<path d="M48.8252 43.9255C56.1456 43.9255 62.079 37.9921 62.079 30.6717C62.079 23.3513 56.1456 17.418 48.8252 17.418C41.5048 17.418 35.5714 23.3513 35.5714 30.6717C35.5714 37.9921 41.5048 43.9255 48.8252 43.9255Z" stroke="black" stroke-miterlimit="10"/>
<path d="M48.8862 60.4222H44.2403C43.7908 60.4222 43.428 60.0593 43.428 59.6098V56.4505C43.428 56.0749 43.1711 55.7442 42.8051 55.6607C39.6008 54.9222 37.2602 53.7343 34.6885 51.8464C34.3674 51.612 33.9243 51.6473 33.6418 51.9234L32.4089 53.1403C32.091 53.4549 31.5805 53.4517 31.2659 53.1403L26.6681 48.5426C26.3503 48.2247 26.3503 47.711 26.6681 47.3931L28.3216 45.7396C28.5849 45.4763 28.6363 45.0718 28.4469 44.7539C27.0502 42.3941 25.0531 38.9169 24.3628 36.2263C24.2697 35.8667 23.9551 35.6098 23.5859 35.6066L20.1921 35.5617C19.7491 35.5553 19.3895 35.1925 19.3895 34.7494V26.7001C19.3895 26.2539 19.7491 25.8911 20.1954 25.8878L23.695 25.8654C24.0578 25.8654 24.3693 25.6181 24.472 25.2682C25.2169 22.7125 27.3841 19.3669 28.7808 17.1451C28.9734 16.8369 28.9381 16.442 28.6973 16.1723L26.6713 13.9183C26.3824 13.5973 26.3952 13.106 26.7002 12.801L30.5402 8.96102C30.8581 8.64316 31.3686 8.64316 31.6865 8.96102L33.4748 10.7397C33.7477 11.0094 34.1748 11.0576 34.4958 10.8425C36.9777 9.16329 39.7389 7.9368 42.773 7.27219C43.1519 7.18871 43.4248 6.86122 43.4216 6.47272L43.4055 2.10617C43.4055 1.65667 43.7683 1.29065 44.2178 1.29065H53.5481C53.9976 1.29065 54.3636 1.65667 54.3604 2.10617L54.3444 6.47272C54.3444 6.86122 54.6173 7.18871 54.9929 7.27219C58.0271 7.9368 60.7883 9.16329 63.2701 10.8425C63.588 11.0576 64.0182 11.0127 64.2911 10.7397L66.0795 8.96102C66.3974 8.64637 66.9111 8.64637 67.2257 8.96102L71.0657 12.801C71.3707 13.106 71.3836 13.5973 71.0946 13.9183L69.0687 16.1723C68.8279 16.442 68.7925 16.8401 68.9852 17.1451C70.3818 19.3669 72.5491 22.7125 73.2939 25.2682C73.3967 25.6181 73.7081 25.8622 74.0709 25.8654L77.5706 25.8878C78.0169 25.8878 78.3765 26.2539 78.3765 26.7001V34.7494C78.3765 35.1925 78.0201 35.5553 77.5738 35.5617L74.1801 35.6066C73.8109 35.6131 73.493 35.8667 73.4031 36.2263C72.7128 38.9169 70.719 42.3973 69.3191 44.7539C69.1297 45.0718 69.181 45.4795 69.4443 45.7396L71.0978 47.3931C71.4157 47.711 71.4157 48.2247 71.0978 48.5426L66.5001 53.1403C66.1854 53.4549 65.6749 53.4581 65.3571 53.1403L64.1242 51.9234C63.8416 51.6441 63.3986 51.6088 63.0775 51.8464C60.5057 53.7343 58.1651 54.9222 54.9608 55.6607C54.5948 55.7442 54.338 56.0749 54.338 56.4505V59.6098C54.338 60.0593 53.9752 60.4222 53.5257 60.4222H48.8798H48.8862Z" stroke="black" stroke-miterlimit="10"/>
<path d="M31.1503 87.4659C31.1503 91.4375 27.9107 94.6579 23.9101 94.6579C19.9096 94.6579 16.67 91.4375 16.67 87.4659C16.67 83.4943 19.9096 80.2739 23.9101 80.2739C27.9107 80.2739 31.1503 83.4943 31.1503 87.4659Z" stroke="black" stroke-miterlimit="10"/>
<path d="M79.3108 87.4659C79.3108 91.4375 76.0712 94.6579 72.0706 94.6579C68.0701 94.6579 64.8305 91.4375 64.8305 87.4659C64.8305 83.4943 68.0701 80.2739 72.0706 80.2739C76.0712 80.2739 79.3108 83.4943 79.3108 87.4659Z" stroke="black" stroke-miterlimit="10"/>
</g>
</g>
<defs>
<clipPath id="clip0_4062_21855">
<rect width="96" height="96" fill="white"/>
</clipPath>
</defs>
</svg>
