<svg width="96" height="96" viewBox="0 0 96 96" fill="none" xmlns="http://www.w3.org/2000/svg">
<g clip-path="url(#clip0_4062_21837)">
<mask id="mask0_4062_21837" style="mask-type:luminance" maskUnits="userSpaceOnUse" x="0" y="0" width="96" height="97">
<path d="M95.8656 0H0V96.0032H95.8656V0Z" fill="white"/>
</mask>
<g mask="url(#mask0_4062_21837)">
<path d="M16.3424 71.4028L15.5616 70.0671C13.3568 66.3331 10.208 60.8299 9.1232 56.5726C8.9792 56.0043 8.48 55.5997 7.8944 55.5901L2.544 55.5194C1.8432 55.5098 1.28 54.9383 1.28 54.2352V41.4983C1.28 40.792 1.8496 40.2172 2.5536 40.214L8.0736 40.1787C8.6464 40.1755 9.1392 39.787 9.2992 39.2348C10.4736 35.1893 13.8944 29.898 16.0928 26.3791C16.3968 25.8943 16.3424 25.265 15.9584 24.838L12.7648 21.2709C12.3104 20.7636 12.3296 19.9866 12.8128 19.5018L18.8704 13.4239C19.3696 12.9231 20.1792 12.9231 20.6784 13.4239L23.5008 16.2397C23.9296 16.6699 24.6048 16.7438 25.1072 16.4003C29.024 13.745 33.376 11.8025 38.16 10.7526C38.7552 10.621 39.1872 10.1009 39.184 9.48761L39.1584 2.57818C39.1584 1.8654 39.7312 1.28748 40.4384 1.28748H55.152C55.8624 1.28748 56.4352 1.8654 56.432 2.57818L56.4064 9.48761C56.4064 10.1009 56.8352 10.621 57.4304 10.7526C62.2176 11.8025 66.5696 13.745 70.4832 16.4003C70.9856 16.7406 71.6608 16.6667 72.0896 16.2397L74.912 13.4239C75.4112 12.9231 76.2208 12.9263 76.72 13.4239L82.7776 19.5018C83.2576 19.9834 83.28 20.7604 82.8256 21.2709L79.632 24.838C79.2512 25.265 79.1936 25.8943 79.4976 26.3791C81.6992 29.8948 85.1168 35.1893 86.2912 39.2348C86.4512 39.787 86.944 40.1755 87.5168 40.1787L93.0368 40.214C93.7408 40.2172 94.3104 40.792 94.3104 41.4983V54.2352C94.3104 54.9383 93.7472 55.513 93.0464 55.5194L87.696 55.5901C87.1104 55.5965 86.6144 56.0043 86.4672 56.5726C85.3792 60.8332 82.2304 66.3363 80.0288 70.0671L79.0336 71.7014" stroke="black" stroke-miterlimit="10"/>
<path d="M47.8016 64.076C56.6528 64.076 63.8272 56.8776 63.8272 47.9968C63.8272 39.116 56.6528 31.9176 47.8016 31.9176C38.9504 31.9176 31.776 39.116 31.776 47.9968C31.776 56.8776 38.9504 64.076 47.8016 64.076Z" stroke="black" stroke-miterlimit="10"/>
<path d="M56.352 94.7189L39.2544 94.7093C33.6064 94.7061 29.0304 89.5561 29.0304 83.2054C29.0304 76.8546 33.6128 71.6982 39.264 71.7014L54.2592 71.711H56.3616C57.4016 71.711 58.4064 71.8876 59.3536 72.2151C59.8624 72.3917 60.3552 72.61 60.8288 72.8669C61.3152 73.1334 61.7792 73.4416 62.2208 73.7884C64.8608 75.8689 66.5856 79.314 66.5856 83.215C66.5856 89.5722 62.0032 94.7222 56.352 94.7189Z" stroke="black" stroke-miterlimit="10"/>
<path d="M28.7008 94.7189L11.6032 94.7093C5.95521 94.7061 1.37921 89.5561 1.37921 83.2054C1.37921 76.8546 5.96161 71.6982 11.6128 71.7014L26.608 71.711H28.7104C29.7504 71.711 30.7552 71.8876 31.7024 72.2151C32.2112 72.3917 32.704 72.61 33.1776 72.8669C33.664 73.1334 34.128 73.4416 34.5696 73.7884C37.2096 75.8689 38.9344 79.314 38.9344 83.215C38.9344 89.5722 34.352 94.7222 28.7008 94.7189Z" stroke="black" stroke-miterlimit="10"/>
<path d="M84.3488 94.7189L67.2512 94.7093C61.6032 94.7061 57.0272 89.5561 57.0272 83.2054C57.0272 76.8546 61.6096 71.6982 67.2608 71.7014L82.256 71.711H84.3584C85.3984 71.711 86.4032 71.8876 87.3504 72.2151C87.8592 72.3917 88.352 72.61 88.8256 72.8669C89.312 73.1334 89.776 73.4416 90.2176 73.7884C92.8576 75.8689 94.5824 79.314 94.5824 83.215C94.5824 89.5722 90 94.7222 84.3488 94.7189Z" stroke="black" stroke-miterlimit="10"/>
</g>
</g>
<defs>
<clipPath id="clip0_4062_21837">
<rect width="96" height="96" fill="white"/>
</clipPath>
</defs>
</svg>
