<svg width="96" height="96" viewBox="0 0 96 96" fill="none" xmlns="http://www.w3.org/2000/svg">
<path d="M57.4178 52.0216L55.4431 52.8153C55.26 52.8893 55.0524 52.8523 54.901 52.7238C53.9488 51.9213 52.8594 51.2806 51.6661 50.8477C51.4796 50.7808 51.344 50.6206 51.3159 50.4235L51.0167 48.3238C50.9797 48.0634 50.7562 47.8698 50.494 47.8698H45.5871C45.3248 47.8698 45.1013 48.0634 45.0644 48.3238L44.7652 50.4235C44.737 50.6189 44.6015 50.779 44.4149 50.8477C43.2216 51.2806 42.1304 51.9213 41.18 52.7238C41.0287 52.8506 40.821 52.8893 40.638 52.8153L38.6632 52.0216C38.4186 51.923 38.1405 52.0216 38.0085 52.2469L35.5551 56.4973C35.4231 56.7243 35.4794 57.0147 35.6871 57.1766L37.352 58.4826C37.5069 58.604 37.5791 58.8029 37.5439 58.9965C37.4348 59.6054 37.3767 60.232 37.3767 60.8726C37.3767 61.5133 37.4348 62.1398 37.5439 62.7488C37.5791 62.9441 37.5069 63.1413 37.352 63.2627L35.6871 64.5686C35.4812 64.7306 35.4248 65.021 35.5551 65.248L38.0085 69.4984C38.1405 69.7254 38.4186 69.8222 38.6632 69.7237L40.638 68.9299C40.821 68.856 41.0287 68.893 41.18 69.0214C42.1322 69.824 43.2216 70.4646 44.4149 70.8976C44.6015 70.9645 44.737 71.1246 44.7652 71.3218L45.0644 73.4214C45.1013 73.6819 45.3248 73.8755 45.5871 73.8755H50.494C50.7562 73.8755 50.9797 73.6819 51.0167 73.4214L51.3159 71.3218C51.344 71.1264 51.4796 70.9662 51.6661 70.8976C52.8594 70.4646 53.9506 69.824 54.901 69.0214C55.0524 68.8947 55.26 68.856 55.4431 68.9299L57.4178 69.7237C57.6624 69.8222 57.9405 69.7237 58.0725 69.4984L60.526 65.248C60.658 65.021 60.6016 64.7306 60.394 64.5686L58.729 63.2627C58.5741 63.1413 58.502 62.9424 58.5372 62.7488C58.6463 62.1398 58.7044 61.5133 58.7044 60.8726C58.7044 60.232 58.6463 59.6054 58.5372 58.9965C58.502 58.8011 58.5741 58.604 58.729 58.4826L60.394 57.1766C60.5999 57.0147 60.6562 56.7243 60.526 56.4973L58.0725 52.2469C57.9405 52.0198 57.6624 51.923 57.4178 52.0216Z" stroke="black" stroke-linejoin="round"/>
<path d="M48.0387 65.6229C50.6632 65.6229 52.7907 63.4954 52.7907 60.8709C52.7907 58.2464 50.6632 56.1189 48.0387 56.1189C45.4143 56.1189 43.2867 58.2464 43.2867 60.8709C43.2867 63.4954 45.4143 65.6229 48.0387 65.6229Z" stroke="black" stroke-linejoin="round"/>
<path d="M48.0387 48.0528V21.6" stroke="black" stroke-linejoin="round"/>
<path d="M42.7482 26.8905L48.0387 21.6L53.3293 26.8905" stroke="black" stroke-linejoin="round"/>
<path d="M36.868 42.8679L31.9506 37.9504C31.7447 37.7445 31.7447 37.4101 31.9506 37.2042L36.868 32.2867" stroke="black" stroke-linejoin="round"/>
<path d="M32.167 37.4717H64.0336" stroke="black" stroke-linejoin="round"/>
<path d="M58.743 32.1812L63.6605 37.0986C63.8664 37.3045 63.8664 37.6389 63.6605 37.8448L58.743 42.7623" stroke="black" stroke-linejoin="round"/>
<path d="M48.0387 48.0528V21.6" stroke="black" stroke-linejoin="round"/>
<path d="M42.7482 26.8906L47.6656 21.9732C47.8715 21.7672 48.2059 21.7672 48.2358 21.9732L53.1533 26.8906" stroke="black" stroke-linejoin="round"/>
</svg>
