<svg width="96" height="96" viewBox="0 0 96 96" fill="none" xmlns="http://www.w3.org/2000/svg">
<path fill-rule="evenodd" clip-rule="evenodd" d="M54.9749 26.961C53.9788 26.389 52.928 25.949 51.8492 25.641C51.6626 25.5882 51.5183 25.4404 51.476 25.252L50.8688 22.6226C50.8125 22.3815 50.5996 22.2125 50.3514 22.2125L45.5114 22.2336C45.265 22.2336 45.052 22.4061 44.9975 22.6472L44.4114 25.282C44.3692 25.4703 44.2266 25.6199 44.04 25.6744C43.0615 25.9613 42.1058 26.3591 41.1976 26.8642C41.0287 26.9575 40.8228 26.9557 40.6591 26.8536L38.3711 25.4245C38.1616 25.2943 37.8906 25.326 37.7164 25.5002L34.309 28.9375C34.1348 29.1135 34.1066 29.3845 34.2386 29.5922L35.6871 31.8679C35.7909 32.0316 35.7944 32.2375 35.7029 32.4064C35.2048 33.3199 34.8159 34.2773 34.536 35.2594C34.4832 35.446 34.3354 35.5903 34.1471 35.6343L31.5159 36.2415C31.2748 36.2978 31.1058 36.5108 31.1076 36.7589L31.1269 41.5989C31.1269 41.8453 31.2994 42.0583 31.5405 42.1128L34.1752 42.6989C34.3636 42.7412 34.5132 42.8837 34.5677 43.0703C34.8564 44.0488 35.2524 45.0028 35.7592 45.9127C35.8525 46.0816 35.8508 46.2876 35.7487 46.453L34.3178 48.741C34.1876 48.9504 34.2192 49.2215 34.3935 49.3957L37.8308 52.8048C38.0068 52.9791 38.2778 53.0072 38.4855 52.8752L40.7612 51.4268C40.9248 51.3229 41.1308 51.3194 41.3015 51.4109C42.2149 51.909 43.1724 52.298 44.1544 52.5778C44.341 52.6306 44.4853 52.7784 44.5293 52.9668L45.1365 55.598C45.1928 55.8391 45.4058 56.008 45.654 56.0063L50.494 55.9852C50.7404 55.9852 50.9533 55.8127 51.0079 55.5716L51.594 52.9351C51.6362 52.7468 51.7788 52.5972 51.9653 52.5426C52.9439 52.254 53.8978 51.858 54.8077 51.3528C54.9767 51.2596 55.1826 51.2613 55.3463 51.3634L57.6343 52.7925C57.8437 52.9228 58.1148 52.8911 58.289 52.7168L61.6981 49.2796C61.8724 49.1036 61.9005 48.8325 61.7685 48.6248L60.32 46.3492C60.2162 46.1855 60.2127 45.9796 60.3042 45.8088C60.8023 44.8954 61.1912 43.938 61.4711 42.9559C61.5239 42.7693 61.6717 42.625 61.86 42.581L64.4912 41.9738C64.7324 41.9175 64.9013 41.7045 64.9013 41.4564L64.882 36.6164C64.882 36.37 64.7095 36.157 64.4684 36.1024L61.8319 35.5164C61.6436 35.4741 61.494 35.3316 61.4394 35.145C61.1525 34.1664 60.7548 33.2125 60.2496 32.3026C60.1564 32.1336 60.1581 31.9277 60.2602 31.7623L61.6893 29.4743C61.8196 29.2648 61.7879 28.9938 61.6136 28.8196L58.1764 25.4104C58.0021 25.2362 57.7293 25.208 57.5216 25.34L54.9802 26.9575L54.9749 26.961Z" stroke="black" stroke-linecap="round" stroke-linejoin="round"/>
<path fill-rule="evenodd" clip-rule="evenodd" d="M50.2369 33.1192C53.5862 34.3372 55.3128 38.042 54.0931 41.3912C52.8734 44.7405 49.1704 46.4671 45.8211 45.2474C42.4718 44.0277 40.7453 40.3247 41.9649 36.9754C43.1846 33.6261 46.8877 31.8996 50.2369 33.1192Z" stroke="black" stroke-linecap="round" stroke-linejoin="round"/>
<path d="M29.5992 58.1975C27.9448 58.1975 26.5984 59.5439 26.5984 61.2001C26.5984 62.8562 27.9448 64.2026 29.5992 64.2026C31.2536 64.2026 32.6 62.8562 32.6 61.2001C32.6 59.5439 31.2536 58.1975 29.5992 58.1975Z" stroke="black" stroke-linejoin="round"/>
<path d="M66.4008 58.1975C64.7464 58.1975 63.4 59.5439 63.4 61.2001C63.4 62.8562 64.7464 64.2026 66.4008 64.2026C68.0552 64.2026 69.4016 62.8562 69.4016 61.2001C69.4016 59.5439 68.0552 58.1975 66.4008 58.1975Z" stroke="black" stroke-linejoin="round"/>
<path d="M48.1566 55.8479V68.3263" stroke="black" stroke-linejoin="round"/>
<path d="M63.4 61.3743L57.3263 61.3619C57.0359 61.3619 56.8 61.1243 56.8 60.8339V52.4" stroke="black" stroke-linejoin="round"/>
<path d="M32.9414 61.2H38.7899C39.082 61.2 39.3179 60.9642 39.3179 60.672V51.8773" stroke="black" stroke-linejoin="round"/>
<path d="M48.1567 67.8C46.5023 67.8 45.1559 69.1464 45.1559 70.8026C45.1559 72.4588 46.5023 73.8052 48.1567 73.8052C49.8111 73.8052 51.1575 72.4588 51.1575 70.8026C51.1575 69.1464 49.8111 67.8 48.1567 67.8Z" stroke="black" stroke-linejoin="round"/>
</svg>
