<svg width="96" height="96" viewBox="0 0 96 96" fill="none" xmlns="http://www.w3.org/2000/svg">
<path d="M28.5504 19.9296H67.4496C68.2944 19.9296 68.9856 20.6208 68.9856 21.4656V74.5152C68.9856 75.36 68.2944 76.0512 67.4496 76.0512H28.5504C27.7056 76.0512 27.0144 75.36 27.0144 74.5152V21.4656C27.0144 20.6208 27.7056 19.9296 28.5504 19.9296Z" stroke="black" stroke-linecap="round" stroke-linejoin="round"/>
<path d="M50.0318 71.9076C50.2017 70.861 49.4909 69.8747 48.4441 69.7048C47.3975 69.5349 46.4112 70.2457 46.2413 71.2924C46.0714 72.339 46.7822 73.3253 47.8289 73.4953C48.8755 73.6652 49.8618 72.9544 50.0318 71.9076Z" stroke="black" stroke-linecap="round" stroke-linejoin="round"/>
<path d="M64.896 23.8464H30.72V67.0464H64.896V23.8464Z" stroke="black" stroke-linecap="round" stroke-linejoin="round"/>
</svg>
