<svg width="96" height="96" viewBox="0 0 96 96" fill="none" xmlns="http://www.w3.org/2000/svg">
<path d="M33.1393 38.3232H20.4865C20.1793 38.3232 19.9489 38.6112 19.9489 38.976V75.4368C19.9489 75.8016 20.1985 76.0896 20.4865 76.0896H33.1393C33.4465 76.0896 33.6769 75.8016 33.6769 75.4368V38.976C33.6961 38.6112 33.4465 38.3232 33.1393 38.3232Z" stroke="black" stroke-miterlimit="10" stroke-linecap="round"/>
<path d="M33.9648 71.2896H59.0784C61.4016 71.2896 63.7632 70.848 65.7025 69.4848C67.4689 68.2368 68.8512 66.4128 69.5232 64.3584C69.792 63.5328 69.9456 62.6688 69.9456 61.8048V61.248" stroke="black" stroke-miterlimit="10" stroke-linecap="round"/>
<path d="M33.696 43.2384H34.7904C34.7904 43.2384 39.0144 43.1616 41.376 40.8C43.7376 38.4384 44.3712 36.192 44.3712 34.752V23.5008C44.3712 21.5232 45.9648 19.9104 47.9616 19.9104C49.8432 19.9104 51.36 21.4272 51.36 23.3088V31.968C51.36 31.968 51.2448 35.9616 52.512 38.4576C52.512 38.4576 53.6832 40.5696 55.1232 41.568C56.5824 42.5856 57.4464 43.2 59.5584 43.2384C61.0944 43.2576 72.7872 43.2384 72.7872 43.2384C74.592 43.2384 76.0512 44.6976 76.0512 46.5024C76.0512 47.808 75.5136 49.152 74.4768 49.9584C73.3824 50.8032 72.0192 50.688 70.7328 50.688L68.2944 50.6496" stroke="black" stroke-miterlimit="10" stroke-linecap="round"/>
<path d="M68.2944 56.5248C71.6736 56.5248 74.4192 53.7792 74.4192 50.4V50.1696" stroke="black" stroke-miterlimit="10" stroke-linecap="round"/>
<path d="M68.2944 61.5936C70.5024 61.4016 72.3648 60.3072 72.384 57.504V55.0656" stroke="black" stroke-miterlimit="10" stroke-linecap="round"/>
</svg>
