<svg width="96" height="96" viewBox="0 0 96 96" fill="none" xmlns="http://www.w3.org/2000/svg">
<path d="M48 73.92C61.0004 73.92 71.5392 63.3811 71.5392 50.3808C71.5392 37.3804 61.0004 26.8416 48 26.8416C34.9997 26.8416 24.4608 37.3804 24.4608 50.3808C24.4608 63.3811 34.9997 73.92 48 73.92Z" stroke="black" stroke-miterlimit="10"/>
<path d="M48 26.8608V22.7328" stroke="black" stroke-miterlimit="10" stroke-linecap="round"/>
<path d="M38.4192 22.08H57.6192" stroke="black" stroke-miterlimit="10" stroke-linecap="round"/>
<path d="M64.5696 33.6768L69.6 28.6464" stroke="black" stroke-miterlimit="10" stroke-linecap="round"/>
<path d="M48 53.2416C49.6542 53.2416 50.9952 51.9006 50.9952 50.2464C50.9952 48.5922 49.6542 47.2512 48 47.2512C46.3458 47.2512 45.0048 48.5922 45.0048 50.2464C45.0048 51.9006 46.3458 53.2416 48 53.2416Z" stroke="black" stroke-miterlimit="10" stroke-linecap="round"/>
<path d="M55.3921 36.5952C60.2305 39.2256 63.5136 44.352 63.5136 50.2464C63.5136 58.8096 56.5633 65.76 48.0001 65.76C39.4369 65.76 32.4865 58.8096 32.4865 50.2464C32.4865 41.6832 39.4369 34.7328 48.0001 34.7328" stroke="black" stroke-miterlimit="10" stroke-linecap="round"/>
<path d="M48 47.232V31.0464" stroke="black" stroke-miterlimit="10" stroke-linecap="round"/>
</svg>
