<svg width="96" height="96" viewBox="0 0 96 96" fill="none" xmlns="http://www.w3.org/2000/svg">
<path d="M55.1041 34.6752L33.8497 55.6416C33.8497 55.6416 21.4657 53.9328 20.8129 65.28C20.7361 66.6816 22.4065 67.4496 23.4241 66.4704L26.0737 63.8976C26.1889 63.8016 26.3233 63.744 26.4769 63.744H28.5121C28.6657 63.744 28.8193 63.8016 28.9153 63.9168L31.5841 66.5856C31.6993 66.7008 31.7569 66.8352 31.7569 66.9888V70.1376C31.7569 70.2912 31.6993 70.4448 31.5841 70.5408L29.1841 72.9408C28.2049 73.92 28.9345 75.6096 30.3361 75.5712C34.9441 75.3984 42.2017 73.344 40.3777 61.9008L62.1313 40.3008C62.1313 40.3008 75.8209 43.0656 74.8609 30.7392C74.7649 29.3952 73.0945 28.8192 72.1921 29.8176L69.6961 32.5824C69.6001 32.6976 69.4465 32.7552 69.2929 32.7744L66.7201 32.8896C66.5665 32.8896 66.3937 32.832 66.2785 32.7168L63.5137 29.952C63.4177 29.856 63.3409 29.7024 63.3409 29.5488L63.2833 26.6688C63.2833 26.496 63.3409 26.3424 63.4753 26.2272L65.9329 24.0384C67.0081 23.0784 66.2785 21.2928 64.8385 21.3504C60.5569 21.5808 54.2977 23.712 55.1041 34.6752Z" stroke="black" stroke-miterlimit="10" stroke-linecap="round"/>
<path d="M47.328 42.3552L31.2768 29.0304L31.104 24.8256L23.3664 20.4288L20.0448 23.7504L24.3264 31.7184L28.3776 31.968L42.816 46.7904" stroke="black" stroke-miterlimit="10" stroke-linecap="round"/>
<path d="M49.152 53.7984L69.4848 75.0144C72.9984 75.1872 75.9552 72.4032 75.9552 68.928V68.4672L54.5856 48.4608" stroke="black" stroke-miterlimit="10" stroke-linecap="round"/>
<path d="M57.1968 51.4752L52.1664 56.4864" stroke="black" stroke-miterlimit="10" stroke-linecap="round"/>
</svg>
