<svg width="96" height="96" viewBox="0 0 96 96" fill="none" xmlns="http://www.w3.org/2000/svg">
<path d="M75.5328 47.9425H35.6352C35.3088 47.9425 35.0592 47.6929 35.0592 47.3665V20.5249C35.0592 20.1985 35.3088 19.9489 35.6352 19.9489H75.5328C75.8592 19.9489 76.1088 20.1985 76.1088 20.5249V47.3665C76.1088 47.6929 75.84 47.9425 75.5328 47.9425Z" stroke="black" stroke-linecap="round" stroke-linejoin="round"/>
<path d="M53.9713 44.6593H52.0321C51.7249 44.6593 51.4561 44.4097 51.4561 44.0833V31.7185C51.4561 31.4113 51.7057 31.1425 52.0321 31.1425H53.9713C54.2785 31.1425 54.5473 31.3921 54.5473 31.7185V44.0833C54.5473 44.3905 54.2785 44.6593 53.9713 44.6593Z" stroke="black" stroke-linecap="round" stroke-linejoin="round"/>
<path d="M60.1728 44.6592H58.2336C57.9264 44.6592 57.6576 44.4096 57.6576 44.0832V29.2224C57.6576 28.9152 57.9072 28.6464 58.2336 28.6464H60.1728C60.48 28.6464 60.7488 28.896 60.7488 29.2224V44.0832C60.7296 44.3904 60.48 44.6592 60.1728 44.6592Z" stroke="black" stroke-linecap="round" stroke-linejoin="round"/>
<path d="M66.336 44.6592H64.3968C64.0896 44.6592 63.8208 44.4096 63.8208 44.0832V34.08C63.8208 33.7728 64.0704 33.504 64.3968 33.504H66.336C66.6432 33.504 66.912 33.7536 66.912 34.08V44.0832C66.912 44.3904 66.6624 44.6592 66.336 44.6592Z" stroke="black" stroke-linecap="round" stroke-linejoin="round"/>
<path d="M72.1728 44.5824H70.2336C69.9264 44.5824 69.6576 44.3328 69.6576 44.0064V27.8784C69.6576 27.5712 69.9072 27.3024 70.2336 27.3024H72.1728C72.48 27.3024 72.7488 27.552 72.7488 27.8784V44.0064C72.7488 44.3136 72.48 44.5824 72.1728 44.5824Z" stroke="black" stroke-linecap="round" stroke-linejoin="round"/>
<path d="M57.9264 48.6528L66.4512 62.6688" stroke="black" stroke-linecap="round" stroke-linejoin="round"/>
<path d="M54.72 48.6528L46.1952 62.6688" stroke="black" stroke-linecap="round" stroke-linejoin="round"/>
<path d="M27.7056 63.7248C30.8231 63.7248 33.3504 61.1975 33.3504 58.08C33.3504 54.9625 30.8231 52.4352 27.7056 52.4352C24.5881 52.4352 22.0608 54.9625 22.0608 58.08C22.0608 61.1975 24.5881 63.7248 27.7056 63.7248Z" stroke="black" stroke-miterlimit="10"/>
<path d="M19.8912 75.6287V74.1312C19.8912 68.64 22.7136 63.9167 27.4944 63.9167C32.2752 63.9167 35.5008 68.3327 35.5008 74.0159V75.6287C35.5008 75.8591 35.3472 76.0512 35.1744 76.0512H20.1984C20.0448 76.0512 19.8912 75.8591 19.8912 75.6287Z" stroke="black" stroke-miterlimit="10"/>
</svg>
