<svg width="96" height="96" viewBox="0 0 96 96" fill="none" xmlns="http://www.w3.org/2000/svg">
<path d="M38.6068 48H31.0529C30.7613 48 30.5249 48.2364 30.5249 48.528V73.2384C30.5249 73.53 30.7613 73.7664 31.0529 73.7664H38.6068C38.8984 73.7664 39.1348 73.53 39.1348 73.2384V48.528C39.1348 48.2364 38.8984 48 38.6068 48Z" stroke="black" stroke-linecap="round" stroke-linejoin="round"/>
<path d="M51.9282 39.4869H44.3743C44.0827 39.4869 43.8463 39.7233 43.8463 40.0149V73.5253C43.8463 73.8169 44.0827 74.0533 44.3743 74.0533H51.9282C52.2198 74.0533 52.4562 73.8169 52.4562 73.5253V40.0149C52.4562 39.7233 52.2198 39.4869 51.9282 39.4869Z" stroke="black" stroke-linecap="round" stroke-linejoin="round"/>
<path d="M65.6 73.7664H57.4266C57.1344 73.7664 56.8986 73.5306 56.8986 73.2384V30.928C56.8986 30.6359 57.1344 30.4 57.4266 30.4H64.9752C65.2674 30.4 65.5032 30.6359 65.5032 30.928V61.6911" stroke="black" stroke-linecap="round" stroke-linejoin="round"/>
<path d="M69.78 61.7544C72.1894 62.6432 73.9072 64.9593 73.9072 67.6768C73.9072 71.1616 71.0824 73.9864 67.5976 73.9864C64.1128 73.9864 61.288 71.1616 61.288 67.6768C61.288 64.192 64.1128 61.3672 67.5976 61.3672C68.3649 61.3672 69.1006 61.5045 69.78 61.7544Z" stroke="black" stroke-linejoin="round"/>
<path d="M65.4152 67.9619L66.6806 69.2273L69.78 66.1279" stroke="black" stroke-linejoin="round"/>
</svg>
