<svg width="96" height="96" viewBox="0 0 96 96" fill="none" xmlns="http://www.w3.org/2000/svg">
<path d="M32.6016 56.736H60.2496C60.576 56.736 60.8256 56.9856 60.8256 57.312V70.56C60.8256 70.8864 60.576 71.136 60.2496 71.136H32.6016C32.2752 71.136 32.0256 70.8864 32.0256 70.56V57.312C32.0256 57.0048 32.2752 56.736 32.6016 56.736Z" stroke="black" stroke-miterlimit="10" stroke-linecap="round"/>
<path d="M42.9504 71.136L41.6256 75.936" stroke="black" stroke-miterlimit="10" stroke-linecap="round"/>
<path d="M49.7664 71.136L51.2256 75.936" stroke="black" stroke-miterlimit="10" stroke-linecap="round"/>
<path d="M36.8256 75.936H56.0256" stroke="black" stroke-miterlimit="10" stroke-linecap="round"/>
<path d="M29.0496 35.5392C29.0496 35.5392 21.3312 46.0608 27.2448 57.5616" stroke="black" stroke-miterlimit="10" stroke-linecap="round"/>
<path d="M35.1168 60.1153C35.5091 60.1153 35.8272 59.7972 35.8272 59.4049C35.8272 59.0125 35.5091 58.6945 35.1168 58.6945C34.7245 58.6945 34.4064 59.0125 34.4064 59.4049C34.4064 59.7972 34.7245 60.1153 35.1168 60.1153Z" fill="black" stroke="black" stroke-miterlimit="10"/>
<path d="M37.1712 60.1153C37.5636 60.1153 37.8816 59.7972 37.8816 59.4049C37.8816 59.0125 37.5636 58.6945 37.1712 58.6945C36.7789 58.6945 36.4608 59.0125 36.4608 59.4049C36.4608 59.7972 36.7789 60.1153 37.1712 60.1153Z" fill="black" stroke="black" stroke-miterlimit="10"/>
<path d="M57.9648 30.1056C57.9648 30.1056 68.5248 35.8656 67.68 50.3808" stroke="black" stroke-miterlimit="10" stroke-linecap="round"/>
<path d="M25.5936 35.328L29.7408 34.3296C30.1056 34.2336 30.4512 34.5408 30.4128 34.9248L29.9328 38.8416" stroke="black" stroke-miterlimit="10" stroke-linecap="round"/>
<path d="M71.0016 48.5376L67.9296 51.4944C67.6608 51.7632 67.2 51.6671 67.0464 51.3215L65.4912 47.6927" stroke="black" stroke-miterlimit="10" stroke-linecap="round"/>
<path d="M46.464 29.664C49.115 29.664 51.264 27.5149 51.264 24.864C51.264 22.213 49.115 20.064 46.464 20.064C43.813 20.064 41.664 22.213 41.664 24.864C41.664 27.5149 43.813 29.664 46.464 29.664Z" stroke="black" stroke-miterlimit="10"/>
<path d="M39.8208 39.7823V38.4959C39.8208 33.8303 42.2208 29.7983 46.2912 29.7983C50.3616 29.7983 53.1072 33.5615 53.1072 38.3999V39.7823C53.1072 39.9743 52.9728 40.1471 52.8192 40.1471H40.0896C39.936 40.1471 39.8208 39.9935 39.8208 39.7823Z" stroke="black" stroke-miterlimit="10"/>
</svg>
