<svg width="96" height="96" viewBox="0 0 96 96" fill="none" xmlns="http://www.w3.org/2000/svg">
<path d="M40 24C24.916 24 17.372 24 12.688 28.688C8.00396 33.376 8 40.916 8 56C8 71.0841 8 78.6279 12.688 83.3118C17.376 87.9957 24.916 88.0002 40 88.0002H56C71.0841 88.0002 78.6279 88.0002 83.3118 83.3118C87.9957 78.624 88.0002 71.0841 88.0002 56C88.0002 51.32 88.0002 47.368 87.8601 44" stroke="black" stroke-linecap="round" stroke-linejoin="round"/>
<path d="M72 8L73.1799 11.188C74.7237 15.364 75.5001 17.452 77.0199 18.976C78.5481 20.5 80.6361 21.276 84.8121 22.82L88.0002 24L84.8121 25.18C80.6361 26.724 78.5481 27.5 77.0238 29.02C75.5001 30.548 74.7237 32.636 73.1799 36.812L72 40L70.8201 36.812C69.2757 32.636 68.4999 30.548 66.9801 29.024C65.4519 27.5 63.364 26.724 59.188 25.18L56 24L59.188 22.82C63.364 21.276 65.4519 20.5 66.9762 18.98C68.4999 17.452 69.2757 15.364 70.8201 11.188L72 8Z" stroke="black" stroke-linejoin="round"/>
</svg>
