<svg width="96" height="96" viewBox="0 0 96 96" fill="none" xmlns="http://www.w3.org/2000/svg">
<path d="M56.1599 59.4521L52.6159 71.8483C51.2879 76.488 44.7119 76.488 43.3839 71.8483L39.8439 59.4521C39.6198 58.6679 39.1996 57.9537 38.6229 57.3771C38.0462 56.8004 37.332 56.3802 36.5479 56.156L24.1519 52.616C19.5119 51.288 19.5119 44.712 24.1519 43.3841L36.5479 39.8441C37.332 39.6199 38.0462 39.1997 38.6229 38.623C39.1996 38.0463 39.6198 37.3322 39.8439 36.548L43.3839 24.152C44.7119 19.512 51.2879 19.512 52.6159 24.152L56.1559 36.548C56.3801 37.3322 56.8003 38.0463 57.377 38.623C57.9537 39.1997 58.6678 39.6199 59.4519 39.8441L71.8482 43.3841C76.488 44.712 76.488 51.288 71.8482 52.616L59.4519 56.156C58.6678 56.3802 57.9537 56.8004 57.377 57.3771C56.8003 57.9537 56.3801 58.6679 56.1559 59.4521M78.2802 78.864L76.776 84.8958C76.5762 85.704 75.4281 85.704 75.2238 84.8958L73.7157 78.864C73.6806 78.7239 73.608 78.5961 73.5061 78.4943C73.4037 78.3918 73.2759 78.3192 73.1358 78.2841L67.104 76.776C66.2958 76.5763 66.2958 75.4281 67.104 75.2238L73.1358 73.7164C73.2759 73.6807 73.4037 73.608 73.5061 73.5062C73.608 73.4037 73.6806 73.2759 73.7157 73.1358L75.2238 67.104C75.4242 66.2958 76.5717 66.2958 76.776 67.104L78.2841 73.1358C78.3191 73.2759 78.3918 73.4037 78.4943 73.5062C78.5961 73.608 78.7239 73.6807 78.864 73.7164L84.8958 75.2238C85.704 75.4243 85.704 76.5717 84.8958 76.776L78.864 78.2841C78.7239 78.3192 78.5961 78.3918 78.4943 78.4943C78.3918 78.5961 78.3152 78.7239 78.2802 78.864ZM22.2799 22.8641L20.7759 28.896C20.5759 29.7041 19.4239 29.7041 19.2239 28.896L17.7159 22.8641C17.6806 22.724 17.608 22.5962 17.5059 22.4941C17.4038 22.3919 17.276 22.3194 17.1359 22.284L11.1039 20.7761C10.2959 20.576 10.2959 19.424 11.1039 19.224L17.1359 17.7161C17.276 17.6807 17.4038 17.6081 17.5059 17.506C17.608 17.4039 17.6806 17.2761 17.7159 17.136L19.2239 11.1041C19.4239 10.296 20.5759 10.296 20.7759 11.1041L22.2839 17.136C22.3193 17.2761 22.3918 17.4039 22.494 17.506C22.596 17.6081 22.7239 17.6807 22.8639 17.7161L28.8959 19.224C29.7039 19.424 29.7039 20.576 28.8959 20.7761L22.8639 22.284C22.7239 22.3194 22.596 22.3919 22.494 22.4941C22.3918 22.5962 22.3153 22.724 22.2799 22.8641Z" stroke="black" stroke-miterlimit="10" stroke-linecap="round" stroke-linejoin="round"/>
</svg>
