<svg width="96" height="96" viewBox="0 0 96 96" fill="none" xmlns="http://www.w3.org/2000/svg">
<path d="M71.688 44.8133C70.5227 44.8133 69.5453 45.6253 69.2867 46.7133H62.4133V38.7067H66.3573C66.36 38.7067 66.364 38.704 66.3667 38.704C66.368 38.704 66.3693 38.704 66.3693 38.704L66.376 38.7013C66.3787 38.7 66.3813 38.7 66.384 38.6987L69.8787 37.164C70.3027 37.5053 70.84 37.7107 71.4253 37.7107C72.788 37.7107 73.896 36.6027 73.896 35.24C73.896 33.8773 72.788 32.7693 71.4253 32.7693C70.0627 32.7693 68.9547 33.8773 68.9547 35.24C68.9547 35.5933 69.0307 35.928 69.164 36.232L66.1213 37.5667H62.4133V33.8227C62.4133 33.3053 62.0173 32.8787 61.5133 32.8307V26.6907L64.452 25.3067C64.8933 25.7147 65.48 25.9667 66.1267 25.9667C67.4893 25.9667 68.5973 24.8587 68.5973 23.496C68.5973 22.1333 67.4893 21.0253 66.1267 21.0253C64.764 21.0253 63.656 22.1333 63.656 23.496C63.656 23.7973 63.7133 24.084 63.812 24.3507L60.6853 25.824C60.5067 25.8707 60.3747 26.0187 60.3747 26.1973V32.8267H54.9813V23.3787L57.3 20.8627C57.672 21.088 58.108 21.22 58.5733 21.22C59.936 21.22 61.044 20.112 61.044 18.7493C61.044 17.3867 59.936 16.2787 58.5733 16.2787C57.2107 16.2787 56.1027 17.3867 56.1027 18.7493C56.1027 19.232 56.244 19.6827 56.4853 20.064L54.044 22.7133C53.9227 22.8133 53.8413 22.992 53.8413 23.196V32.8267H48.484V26.4973C49.5893 26.252 50.4187 25.2653 50.4187 24.0867C50.4187 22.724 49.3107 21.616 47.948 21.616C46.5853 21.616 45.4773 22.724 45.4773 24.0867C45.4773 25.24 46.2733 26.2093 47.344 26.48V32.8267H41.536V28.8427C41.536 28.7 41.344 28.584 41.108 28.584H40.8227C40.5867 28.584 40.3947 28.7 40.3947 28.8427V31.1187V32.8253H34.5867V27.1853C34.5867 27.0547 34.4973 26.9427 34.368 26.884L30.996 25.2467C31.0107 25.1387 31.02 25.0307 31.02 24.9187C31.02 23.556 29.912 22.448 28.5493 22.448C27.1867 22.448 26.0787 23.556 26.0787 24.9187C26.0787 26.2813 27.1867 27.3893 28.5493 27.3893C29.3933 27.3893 30.14 26.9627 30.5853 26.3147L33.4453 27.704V32.8267H33.336C32.7867 32.8267 32.3387 33.2747 32.3387 33.824V38.0067H26.18C25.8773 36.9853 24.9307 36.2373 23.812 36.2373C22.4493 36.2373 21.3413 37.3453 21.3413 38.708C21.3413 40.0707 22.4493 41.1787 23.812 41.1787C25.024 41.1787 26.0333 40.3 26.2413 39.1467H32.3387V46.7147H28.4533C28.304 46.7147 28.1827 46.9067 28.1827 47.1427V47.428C28.1827 47.664 28.304 47.856 28.4533 47.856H32.3427V56.9427H28.3107C28.308 56.9427 28.3067 56.944 28.304 56.9453C28.2987 56.9453 28.2933 56.9453 28.2893 56.948L24.988 58.728C24.5493 58.3293 23.968 58.0827 23.3293 58.0827C21.9667 58.0827 20.8587 59.1907 20.8587 60.5533C20.8587 61.916 21.9667 63.024 23.3293 63.024C24.692 63.024 25.8 61.916 25.8 60.5533C25.8 60.2427 25.74 59.948 25.6347 59.6733L28.5853 58.0827H32.3427V61.9027C32.3427 62.452 32.7907 62.9 33.34 62.9H33.78V69.588C33.78 69.804 33.972 69.9787 34.208 69.9787H34.4933C34.7293 69.9787 34.9213 69.804 34.9213 69.588V62.9H40.3147V72.2747L37.508 73.5973C37.068 72.9147 36.3027 72.46 35.432 72.46C34.0693 72.46 32.9613 73.568 32.9613 74.9307C32.9613 76.2933 34.0693 77.4013 35.432 77.4013C36.7947 77.4013 37.9027 76.2933 37.9027 74.9307C37.9027 74.8453 37.8987 74.76 37.8893 74.676L41.1453 73.1427C41.1507 73.14 41.1547 73.1347 41.1587 73.1293C41.3307 73.056 41.456 72.8427 41.456 72.5893V62.9H46.8133V74.576C45.7253 74.8347 44.9133 75.812 44.9133 76.9773C44.9133 78.34 46.0213 79.448 47.384 79.448C48.7467 79.448 49.8547 78.34 49.8547 76.9773C49.8547 75.812 49.0427 74.8347 47.9547 74.576V62.9H53.7627V66.9427C53.7627 67.0853 53.9547 67.2013 54.1907 67.2013H54.476C54.712 67.2013 54.904 67.0853 54.904 66.9427V62.9H60.712V68.5987C60.712 68.7293 60.8013 68.8413 60.9307 68.9013L64.3307 70.552C64.2573 70.7853 64.2173 71.0347 64.2173 71.292C64.2173 72.6547 65.3253 73.7627 66.688 73.7627C68.0507 73.7627 69.1587 72.6547 69.1587 71.292C69.1587 69.9293 68.0507 68.8213 66.688 68.8213C65.9947 68.8213 65.3693 69.1093 64.92 69.5707L61.852 68.0813V62.8027C62.188 62.6427 62.4213 62.3 62.4213 61.9027V57.3747H65.928C65.9987 57.3747 66.056 57.1827 66.056 56.9467V56.6613C66.056 56.4253 65.9987 56.2333 65.928 56.2333H62.4213V47.856H69.2933C69.552 48.944 70.5293 49.756 71.6947 49.756C73.0573 49.756 74.1653 48.648 74.1653 47.2853C74.1573 45.9227 73.0493 44.8133 71.688 44.8133ZM71.4267 33.9093C72.16 33.9093 72.7573 34.5067 72.7573 35.24C72.7573 35.9733 72.16 36.5707 71.4267 36.5707C70.6933 36.5707 70.096 35.9733 70.096 35.24C70.096 34.5067 70.6933 33.9093 71.4267 33.9093ZM58.5733 17.4187C59.3067 17.4187 59.904 18.016 59.904 18.7493C59.904 19.4827 59.3067 20.08 58.5733 20.08C57.84 20.08 57.2427 19.4827 57.2427 18.7493C57.2427 18.0147 57.84 17.4187 58.5733 17.4187ZM46.6173 24.0867C46.6173 23.3533 47.2147 22.756 47.948 22.756C48.6813 22.756 49.2787 23.3533 49.2787 24.0867C49.2787 24.82 48.6813 25.4173 47.948 25.4173C47.2147 25.4173 46.6173 24.8213 46.6173 24.0867ZM28.552 26.2507C27.8187 26.2507 27.2213 25.6533 27.2213 24.92C27.2213 24.1867 27.8187 23.5893 28.552 23.5893C29.2853 23.5893 29.8827 24.1867 29.8827 24.92C29.8827 25.6533 29.2853 26.2507 28.552 26.2507ZM23.816 40.0387C23.0827 40.0387 22.4853 39.4413 22.4853 38.708C22.4853 37.9747 23.0827 37.3773 23.816 37.3773C24.5493 37.3773 25.1467 37.9747 25.1467 38.708C25.1467 39.4413 24.5507 40.0387 23.816 40.0387ZM23.3293 61.8813C22.596 61.8813 21.9987 61.284 21.9987 60.5507C21.9987 59.8173 22.596 59.22 23.3293 59.22C24.0627 59.22 24.66 59.8173 24.66 60.5507C24.66 61.284 24.0627 61.8813 23.3293 61.8813ZM35.428 76.2587C34.6947 76.2587 34.0973 75.6613 34.0973 74.928C34.0973 74.1947 34.6947 73.5973 35.428 73.5973C36.1613 73.5973 36.7587 74.1947 36.7587 74.928C36.7587 75.6613 36.1613 76.2587 35.428 76.2587ZM48.7093 76.9747C48.7093 77.708 48.112 78.3053 47.3787 78.3053C46.6453 78.3053 46.048 77.708 46.048 76.9747C46.048 76.2413 46.6453 75.644 47.3787 75.644C48.112 75.644 48.7093 76.2413 48.7093 76.9747ZM66.68 69.9587C67.4133 69.9587 68.0107 70.556 68.0107 71.2893C68.0107 72.0227 67.4133 72.62 66.68 72.62C65.9467 72.62 65.3493 72.0227 65.3493 71.2893C65.3493 70.556 65.9467 69.9587 66.68 69.9587ZM66.1267 22.164C66.86 22.164 67.4573 22.7613 67.4573 23.4947C67.4573 24.228 66.86 24.8253 66.1267 24.8253C65.3933 24.8253 64.796 24.228 64.796 23.4947C64.796 22.7613 65.392 22.164 66.1267 22.164ZM33.4827 47.4267V47.1413V33.9653H61.2747V56.6587V56.944V61.7573H33.4827V47.4267ZM71.688 48.6147C70.9547 48.6147 70.3573 48.0173 70.3573 47.284C70.3573 46.5507 70.9547 45.9533 71.688 45.9533C72.4213 45.9533 73.0187 46.5507 73.0187 47.284C73.0187 48.0187 72.4213 48.6147 71.688 48.6147Z" fill="black"/>
</svg>
