<svg width="96" height="96" viewBox="0 0 96 96" fill="none" xmlns="http://www.w3.org/2000/svg">
<g clip-path="url(#clip0_4062_21835)">
<mask id="mask0_4062_21835" style="mask-type:luminance" maskUnits="userSpaceOnUse" x="4" y="4" width="88" height="88">
<path d="M91.7653 4H4.14667V91.824H91.7653V4Z" fill="white"/>
</mask>
<g mask="url(#mask0_4062_21835)">
<path d="M32.4533 66.3627C36.9413 66.3627 40.5787 62.7253 40.5787 58.2373C40.5787 53.7493 36.9413 50.112 32.4533 50.112C27.9653 50.112 24.328 53.7493 24.328 58.2373C24.328 62.7253 27.9653 66.3627 32.4533 66.3627Z" stroke="black" stroke-miterlimit="10"/>
<path d="M32.4533 76.336H29.608C29.3322 76.336 29.1093 76.1131 29.1093 75.8373V73.9013C29.1093 73.6725 28.9509 73.4613 28.728 73.432C26.7626 72.992 25.3253 72.2587 23.7706 71.0853C23.5741 70.9416 23.3013 70.9621 23.1253 71.1323L22.3626 71.8656C22.169 72.0709 21.864 72.0563 21.6586 71.8656L18.8426 69.0496C18.649 68.856 18.649 68.5509 18.8426 68.3456L19.8693 67.3189C20.0306 67.1576 20.0746 66.9083 19.9456 66.7029C19.0949 65.2656 17.8629 63.1243 17.4522 61.4816C17.3965 61.2616 17.2029 61.1003 16.9829 61.1003L14.9002 61.0739C14.6274 61.0739 14.4016 60.848 14.4016 60.5752V55.6472C14.4016 55.3744 14.6362 55.1485 14.9002 55.1485L17.0416 55.1339C17.2645 55.1339 17.4522 54.9813 17.5109 54.7819C17.9802 53.2272 19.3002 51.1739 20.1509 49.6779C19.9632 49.7659 19.7109 49.6251 19.5642 49.6779C18.3322 48.2992 19.5642 49.5019 19.3677 49.5077C18.869 49.5371 18.693 49.5077 21.7144 47.1611C21.908 46.9675 22.213 46.9675 22.4184 47.1611L23.5037 48.2464C23.6709 48.4224 23.9437 48.44 24.1197 48.308C25.645 47.2813 27.317 46.5187 29.1943 46.108C29.4261 46.0581 29.605 45.8557 29.605 45.6093L29.5933 42.94C29.5933 42.6643 29.8279 42.4413 30.0919 42.4413H35.8119C36.0877 42.4413 36.3106 42.676 36.3106 42.94L36.2989 45.6093C36.2989 45.8469 36.4749 46.0493 36.7096 46.108C38.5576 46.5187 40.2589 47.2813 41.7842 48.308C41.9807 48.4547 42.2536 48.4107 42.4002 48.2464L43.4855 47.1611C43.6791 46.9675 43.9842 46.9675 44.1895 47.1611L46.5362 49.5077C46.7239 49.6837 46.7298 50.0064 46.5538 50.1824L45.3218 51.5611C45.1722 51.7371 45.1517 51.9717 45.269 52.1477C46.1197 53.4971 47.4397 55.5504 47.909 57.196C48.1143 57.4483 48.261 57.6653 48.261 57.196C50.4023 57.2107 48.261 57.4688 48.261 57.6947C48.4839 58.1933 48.7597 57.6947 53.189 57.6947C53.189 57.9675 52.969 58.1933 52.6903 58.1933L50.6077 58.2197C50.3818 58.2197 50.197 58.3781 50.1383 58.6011C49.7277 60.2437 48.4957 62.3851 47.645 63.8224C47.5306 64.0277 47.56 64.2624 47.7213 64.4384L48.748 65.4651C48.9416 65.6704 48.9416 65.9637 48.748 66.1691L45.9319 68.9851C45.7383 69.1904 45.4333 69.1787 45.228 68.9851L44.4653 68.2517C44.2922 68.0816 44.0253 68.0611 43.8199 68.2048C42.2359 69.3488 40.7986 70.0821 38.8626 70.5515C38.6397 70.6101 38.4813 70.8155 38.4813 71.0208V72.9568C38.4813 73.2325 38.2583 73.4555 37.9826 73.4555H35.1373L32.4533 76.336Z" stroke="black" stroke-miterlimit="10"/>
<path d="M40.6666 24.8853C39.8746 24.8267 39.0533 24.7973 38.2613 24.7973C20.0746 24.7973 5.3493 39.552 5.3493 57.7093C5.3493 75.8667 20.104 90.6213 38.2613 90.6213" stroke="black" stroke-linecap="round" stroke-linejoin="round"/>
<path d="M38.2907 29.3147L42.632 24.9733L38.232 20.5733" stroke="black" stroke-linecap="round" stroke-linejoin="round"/>
<path d="M67.8586 39.1413C71.5253 39.1413 74.488 36.1787 74.488 32.512C74.488 28.8453 71.5253 25.8827 67.8586 25.8827C64.192 25.8827 61.2293 28.8453 61.2293 32.512C61.2293 36.1787 64.192 39.1413 67.8586 39.1413Z" stroke="black" stroke-miterlimit="10"/>
<path d="M67.8587 47.3253H65.5413C65.3184 47.3253 65.1307 47.1435 65.1307 46.9147V45.3307C65.1307 45.1429 65.0016 44.9787 64.808 44.92C63.1947 44.5387 62.0507 43.952 60.76 43.0133C60.5987 42.896 60.3787 42.9136 60.232 43.0515L59.616 43.6675C59.4576 43.8141 59.2053 43.8229 59.0587 43.6675L56.7707 41.3795C56.6123 41.2211 56.6123 40.9688 56.7707 40.7928L57.592 39.9715C57.724 39.8395 57.7387 39.6488 57.6536 39.4728C56.9496 38.2995 55.9523 36.5688 55.6003 35.2195C55.5533 35.0405 55.3979 34.8968 55.2189 34.8968L53.5176 34.8733C53.2947 34.8733 53.1069 34.6885 53.1069 34.4627V30.444C53.1069 30.2211 53.2829 30.0333 53.5176 30.0333L55.2776 30.0216C55.4595 30.0216 55.6003 29.8984 55.6589 29.7283C56.0403 28.4376 57.1256 26.7656 57.8003 25.6803C57.8971 25.5277 57.8883 25.3283 57.7592 25.1816L56.7325 24.0669C56.5888 23.9056 56.5947 23.6563 56.7472 23.5096L58.6539 21.6029C58.8123 21.4445 59.0645 21.4445 59.2405 21.6029L60.1205 22.4829C60.2555 22.6296 60.4725 22.6413 60.6192 22.5328C61.8512 21.6821 63.2299 21.0661 64.7552 20.7435C64.9429 20.7024 65.0779 20.5381 65.0779 20.3328L65.0691 18.1621C65.0691 17.9363 65.2451 17.7515 65.4797 17.7515H70.1437C70.3696 17.7515 70.5544 17.9333 70.5544 18.1621L70.5456 20.3328C70.5456 20.5264 70.6923 20.6848 70.8683 20.7435C72.3936 21.0661 73.7723 21.6821 75.0043 22.5328C75.1627 22.6501 75.3856 22.6179 75.5029 22.4829L76.3829 21.6029C76.5413 21.4445 76.7936 21.4445 76.9696 21.6029L78.8763 23.5096C79.0288 23.6563 79.0347 23.9203 78.8909 24.0669L77.8643 25.1816C77.744 25.3283 77.7264 25.5043 77.8232 25.6803C78.5272 26.7949 79.6125 28.4669 79.9645 29.7283C80.0144 29.9043 80.1699 30.0216 80.3459 30.0216H82.1176H82.3405L82.7512 30.2035L83.1619 30.6141V34.6328C83.1619 34.8557 82.9829 35.0435 82.7512 35.0435L81.0499 35.0669C80.8651 35.0669 80.6979 35.196 80.6685 35.3896C80.3165 36.7389 79.3192 38.4696 78.6152 39.6429C78.5213 39.7896 78.5477 39.9949 78.6768 40.1416L79.4981 40.9629C79.6565 41.1096 79.6565 41.3736 79.4981 41.5496L77.2101 43.8376C77.0517 43.9843 76.7995 43.996 76.6528 43.8376L76.0368 43.2216C75.896 43.0837 75.6848 43.0661 75.5088 43.1835C74.2181 44.1221 73.0448 44.7088 71.4608 45.0901C71.2789 45.1195 71.1381 45.2984 71.1381 45.5008V47.0848C71.1381 47.3077 70.9563 47.4955 70.7275 47.4955H68.3808L67.8587 47.3253Z" stroke="black" stroke-miterlimit="10"/>
<path d="M66.9786 9.60267C67.5066 9.56453 68.0346 9.544 68.592 9.544C80.736 9.544 90.592 19.4 90.592 31.544C90.592 43.688 80.736 53.544 68.592 53.544" stroke="black" stroke-linecap="round" stroke-linejoin="round"/>
<path d="M69.0319 5.17333L64.6906 9.51467L69.0906 13.9147" stroke="black" stroke-linecap="round" stroke-linejoin="round"/>
</g>
</g>
<defs>
<clipPath id="clip0_4062_21835">
<rect width="87.7067" height="88" fill="white" transform="translate(4.14667 4)"/>
</clipPath>
</defs>
</svg>
