<svg width="96" height="96" viewBox="0 0 96 96" fill="none" xmlns="http://www.w3.org/2000/svg">
<g clip-path="url(#clip0_4062_21925)">
<mask id="mask0_4062_21925" style="mask-type:luminance" maskUnits="userSpaceOnUse" x="4" y="5" width="88" height="86">
<path d="M92 5.61333H4V90.3867H92V5.61333Z" fill="white"/>
</mask>
<g mask="url(#mask0_4062_21925)">
<mask id="mask1_4062_21925" style="mask-type:luminance" maskUnits="userSpaceOnUse" x="4" y="5" width="88" height="86">
<path d="M91.9413 5.61333H4V90.24H91.9413V5.61333Z" fill="white"/>
</mask>
<g mask="url(#mask1_4062_21925)">
<path d="M79.328 9.57333C81 9.896 82.496 10.5707 83.816 11.5093L85.1654 10.16L87.5413 12.536L86.1334 14.0907C86.8374 15.2053 88.128 17.1413 88.4213 18.4907H90.768V23.096L88.4507 23.1253C88.1867 24.5333 87.0134 26.528 86.28 27.7307L87.2774 28.728C87.4534 28.8747 87.4534 29.1387 87.2774 29.2853L85.1067 31.456C84.96 31.6027 84.696 31.6027 84.5494 31.456L83.728 30.6347C82.32 31.72 81.1173 32.3653 79.328 32.7173V34.9173H73.9894V32.776C72.2 32.4533 70.9974 31.6613 69.6187 30.6053L68.5334 31.6907L65.952 29.1093L67.184 27.848C66.5387 26.7333 65.512 24.4453 65.248 23.1253H62.6667V18.4907H65.2774C65.2774 18.4907 66.6854 15.6747 67.448 14.472L65.8934 12.8293L68.4454 10.16L69.9707 11.5093C70.1174 11.6267 70.3227 11.656 70.4694 11.5387C71.76 10.6293 72.376 10.3067 73.9894 9.60267L74.048 6.78667H79.2107C79.2694 6.78667 79.328 6.816 79.328 6.87467L79.2987 9.57333H79.328Z" stroke="black" stroke-linecap="round" stroke-linejoin="round"/>
<path d="M76.7173 26.1173C79.6213 26.1173 81.968 23.7707 81.968 20.8667C81.968 17.9627 79.6213 15.616 76.7173 15.616C73.8133 15.616 71.4667 17.9627 71.4667 20.8667C71.4667 23.7707 73.8133 26.1173 76.7173 26.1173Z" stroke="black" stroke-linecap="round" stroke-linejoin="round"/>
<path d="M62.0213 20.3093H48" stroke="black" stroke-linecap="round" stroke-linejoin="round"/>
<path d="M46.1814 15.616H24.504C24.0054 15.616 23.624 15.9973 23.624 16.496V23.8C23.624 24.2987 24.0054 24.68 24.504 24.68H46.1814C46.6507 24.68 47.0614 24.2987 47.0614 23.8V16.496C47.0614 15.9973 46.6507 15.616 46.1814 15.616Z" stroke="black" stroke-linecap="round" stroke-linejoin="round"/>
<path d="M64.456 44.744H42.7787C42.28 44.744 41.8987 45.1253 41.8987 45.624V52.928C41.8987 53.4267 42.28 53.808 42.7787 53.808H64.456C64.9254 53.808 65.336 53.4267 65.336 52.928V45.624C65.336 45.1253 64.9254 44.744 64.456 44.744Z" stroke="black" stroke-linecap="round" stroke-linejoin="round"/>
<path d="M54.072 73.872H32.3946C31.896 73.872 31.5146 74.2827 31.5146 74.752V82.0853C31.5146 82.5547 31.896 82.9653 32.3946 82.9653H54.072C54.5413 82.9653 54.952 82.5547 54.952 82.0853V74.752C54.952 74.2827 54.5413 73.872 54.072 73.872Z" stroke="black" stroke-linecap="round" stroke-linejoin="round"/>
<path d="M22.832 20.3093H12.2133C11.744 20.3093 11.3333 20.6907 11.3333 21.1893V48.9093C11.3333 49.3787 11.744 49.7893 12.2133 49.7893H40.6666" stroke="black" stroke-linecap="round" stroke-linejoin="round"/>
<path d="M66.3333 49.7893H83.7866C84.2853 49.7893 84.6666 50.1707 84.6666 50.6693V78.2427C84.6666 78.712 84.2853 79.1227 83.7866 79.1227H55.3333" stroke="black" stroke-linecap="round" stroke-linejoin="round"/>
<path d="M15.1467 89.0667C20.632 89.0667 25.0907 84.608 25.0907 79.1227C25.0907 73.608 20.632 69.1493 15.1467 69.1493C9.63201 69.1493 5.17334 73.608 5.17334 79.1227C5.17334 84.608 9.63201 89.0667 15.1467 89.0667Z" stroke="black" stroke-linecap="round" stroke-linejoin="round"/>
<path d="M31.2214 78.7413H25.0907" stroke="black" stroke-linecap="round" stroke-linejoin="round"/>
<path d="M11.1573 80.1493L13.1227 82.496C13.416 82.8773 14.0027 82.848 14.296 82.496L19.7227 75.6613" stroke="black" stroke-miterlimit="10" stroke-linecap="round"/>
</g>
</g>
</g>
<defs>
<clipPath id="clip0_4062_21925">
<rect width="88" height="84.7733" fill="white" transform="translate(4 5.61333)"/>
</clipPath>
</defs>
</svg>
