<svg width="96" height="96" viewBox="0 0 96 96" fill="none" xmlns="http://www.w3.org/2000/svg">
<mask id="mask0_4062_21851" style="mask-type:luminance" maskUnits="userSpaceOnUse" x="4" y="26" width="88" height="44">
<path d="M91.9413 26.5867H4V69.3547H91.9413V26.5867Z" fill="white"/>
</mask>
<g mask="url(#mask0_4062_21851)">
<path d="M67.7707 61.6107H27.584" stroke="black" stroke-miterlimit="10" stroke-linecap="round"/>
<path d="M13.416 60.9947L6.61064 59.7627C5.75997 59.5984 5.14397 58.824 5.17331 57.944L5.73064 46.7387C5.76877 45.9467 6.34664 45.272 7.10931 45.096L15.8213 43.16C16.2026 43.072 16.5546 42.8667 16.8186 42.544L28.1706 28.4053C28.4933 27.9947 29.0213 27.76 29.5493 27.76H54.3946C54.9226 27.76 55.392 27.9829 55.7146 28.376L69.5013 41.752C69.7272 42.016 70.0293 42.2213 70.352 42.3093L89.448 47.648C90.2106 47.8533 90.7386 48.5573 90.7386 49.3493V58.5013C90.7386 59.1173 90.416 59.6747 89.888 59.9973L88.392 60.9067C88.1632 61.0533 87.9226 61.1296 87.6586 61.1531L82.1733 61.7397" stroke="black" stroke-linecap="round" stroke-linejoin="round"/>
<path d="M20.5146 68.1813C24.416 68.1813 27.584 65.0133 27.584 61.112C27.584 57.2107 24.416 54.0427 20.5146 54.0427C16.6133 54.0427 13.4453 57.2107 13.4453 61.112C13.4453 65.0133 16.6133 68.1813 20.5146 68.1813Z" stroke="black" stroke-miterlimit="10"/>
<path d="M75.104 68.1813C79.0053 68.1813 82.1733 65.0133 82.1733 61.112C82.1733 57.2107 79.0053 54.0427 75.104 54.0427C71.2027 54.0427 68.0347 57.2107 68.0347 61.112C68.0347 65.0133 71.2027 68.1813 75.104 68.1813Z" stroke="black" stroke-miterlimit="10"/>
</g>
</svg>
