<svg width="96" height="96" viewBox="0 0 96 96" fill="none" xmlns="http://www.w3.org/2000/svg">
<g clip-path="url(#clip0_4062_21906)">
<mask id="mask0_4062_21906" style="mask-type:luminance" maskUnits="userSpaceOnUse" x="4" y="4" width="88" height="88">
<path d="M92 4H4V91.7057H92V4Z" fill="white"/>
</mask>
<g mask="url(#mask0_4062_21906)">
<path d="M6.3545 90.5284H89.6455C90.293 90.5343 90.8227 89.9987 90.8227 89.3512V27.2803C90.8227 26.8388 90.5726 26.4268 90.1752 26.2207L48.5003 5.29499C48.1766 5.12723 47.7645 5.12723 47.4408 5.29499L5.82474 26.2207C5.4127 26.4209 5.17725 26.8388 5.17725 27.2803V89.3512C5.17725 89.9987 5.70701 90.5284 6.3545 90.5284Z" stroke="black" stroke-miterlimit="10"/>
<path d="M75.0474 77.3137H21.4822C19.8635 77.3137 18.5391 75.9893 18.5391 74.3706V58.7719C18.5391 58.2127 18.7157 57.6535 19.01 57.1532L20.5698 54.7692C20.5993 54.7398 20.5993 54.7104 20.6287 54.6809L28.634 34.9913C29.0755 33.8729 30.1645 33.1666 31.3712 33.1666H64.2167C65.3645 33.1666 66.424 33.8435 66.8949 34.903L75.7538 54.6515C75.7538 54.6809 75.7832 54.7104 75.8126 54.7398L77.4608 57.1237C77.814 57.6241 77.9906 58.2127 77.9906 58.8013V74.3706C77.9906 75.9893 76.6661 77.3137 75.0474 77.3137Z" stroke="black" stroke-linecap="round" stroke-linejoin="round"/>
<path d="M37.2576 69.485L58.8308 69.5144" stroke="black" stroke-linecap="round" stroke-linejoin="round"/>
<path d="M28.6341 70.0147C31.4301 70.0147 33.7258 67.7485 33.7258 64.9231C33.7258 62.0977 31.4595 59.8314 28.6341 59.8314C25.8087 59.8314 23.5425 62.0977 23.5425 64.9231C23.5425 67.7485 25.8087 70.0147 28.6341 70.0147Z" stroke="black" stroke-miterlimit="10" stroke-linecap="round"/>
<path d="M66.9832 70.0147C69.7792 70.0147 72.0749 67.7485 72.0749 64.9231C72.0749 62.0977 69.8087 59.8314 66.9832 59.8314C64.1578 59.8314 61.8916 62.0977 61.8916 64.9231C61.8916 67.7485 64.1578 70.0147 66.9832 70.0147Z" stroke="black" stroke-miterlimit="10" stroke-linecap="round"/>
<path d="M28.4869 77.3137V80.61C28.4869 82.2582 27.1625 83.5532 25.5437 83.5532H21.4822C19.8635 83.5532 18.5391 82.2288 18.5391 80.61V72.899" stroke="black" stroke-linecap="round" stroke-linejoin="round"/>
<path d="M77.9907 72.899V80.61C77.9907 82.2582 76.6663 83.5532 75.0475 83.5532H70.986C69.3673 83.5532 68.0428 82.2288 68.0428 80.61V77.3137" stroke="black" stroke-linecap="round" stroke-linejoin="round"/>
<path d="M20.5993 52.5619H18.8334C17.2147 52.5619 15.8903 51.8261 15.8903 50.2074V49.6776C15.8903 48.0589 17.2147 47.0582 18.8334 47.0582H23.6013" stroke="black" stroke-linecap="round" stroke-linejoin="round"/>
<path d="M72.4575 47.0582H77.7552C79.3739 47.0582 80.6983 48.0589 80.6983 49.6776V50.2074C80.6983 51.8261 79.3739 52.5619 77.7552 52.5619H74.9592" stroke="black" stroke-linecap="round" stroke-linejoin="round"/>
<path d="M32.107 41.4957C31.8215 41.4957 31.6066 41.7017 31.5183 41.9666L28.1043 52.9445C28.0101 53.2094 28.1367 53.4448 28.1985 53.5625C28.2603 53.6803 28.4192 53.8274 28.6988 53.8363H67.8132C68.0987 53.8363 68.2546 53.6655 68.3135 53.5625C68.3724 53.4595 68.4901 53.2094 68.4077 52.9445L64.7288 41.9371C64.6346 41.6634 64.405 41.4957 64.1401 41.4957H32.1187H32.107Z" stroke="black" stroke-linecap="round" stroke-linejoin="round"/>
</g>
</g>
<defs>
<clipPath id="clip0_4062_21906">
<rect width="88" height="88" fill="white" transform="translate(4 4)"/>
</clipPath>
</defs>
</svg>
