<svg width="96" height="96" viewBox="0 0 96 96" fill="none" xmlns="http://www.w3.org/2000/svg">
<path d="M48.0134 55.0156C55.9536 55.0156 62.3904 48.5789 62.3904 40.6387C62.3904 32.6985 55.9536 26.2617 48.0134 26.2617C40.0733 26.2617 33.6365 32.6985 33.6365 40.6387C33.6365 48.5789 40.0733 55.0156 48.0134 55.0156Z" stroke="black" stroke-miterlimit="10" stroke-linecap="round"/>
<path d="M48.3322 19.7415L53.5085 23.1725C53.5949 23.2301 53.6966 23.2628 53.8022 23.2685L60.0077 23.5354C60.2381 23.545 60.4416 23.6929 60.5222 23.9098L62.6938 29.7293C62.7302 29.8273 62.7936 29.9137 62.8742 29.9789L67.7376 33.842C67.9181 33.986 67.9968 34.2241 67.9334 34.4468L66.2688 40.4295C66.24 40.5313 66.24 40.6369 66.2688 40.7386L67.9334 46.7213C67.9949 46.9441 67.9181 47.1821 67.7376 47.3261L62.8742 51.1892C62.7917 51.2545 62.7302 51.3409 62.6938 51.4388L60.5222 57.2583C60.4416 57.4753 60.2381 57.6231 60.0077 57.6327L53.8022 57.8996C53.6966 57.9034 53.5968 57.938 53.5085 57.9956L48.3322 61.4266C48.1402 61.5553 47.8886 61.5553 47.6947 61.4266L42.5184 57.9956C42.432 57.938 42.3302 57.9053 42.2246 57.8996L36.0192 57.6327C35.7888 57.6231 35.5853 57.4753 35.5046 57.2583L33.3331 51.4388C33.2966 51.3409 33.2333 51.2545 33.1526 51.1892L28.2893 47.3261C28.1088 47.1821 28.0301 46.9441 28.0934 46.7213L29.7581 40.7386C29.7869 40.6369 29.7869 40.5313 29.7581 40.4295L28.0934 34.4468C28.032 34.2241 28.1088 33.986 28.2893 33.842L33.1526 29.9789C33.2352 29.9137 33.2966 29.8273 33.3331 29.7293L35.5046 23.9098C35.5853 23.6929 35.7888 23.545 36.0192 23.5354L42.2246 23.2685C42.3302 23.2647 42.4301 23.2301 42.5184 23.1725L47.6947 19.7415C47.8867 19.6129 48.1382 19.6129 48.3322 19.7415Z" stroke="black" stroke-miterlimit="10" stroke-linecap="round"/>
<path d="M47.7753 46.6215L43.1846 49.0349C42.7622 49.2576 42.2688 48.8986 42.3494 48.4282L43.2269 43.3152C43.2595 43.129 43.1961 42.937 43.0617 42.8045L39.3465 39.1834C39.0048 38.8493 39.1929 38.2695 39.6653 38.2004L44.7993 37.4554C44.9875 37.4285 45.1488 37.3095 45.2333 37.1405L47.5296 32.4884C47.7408 32.0602 48.3513 32.0602 48.5625 32.4884L50.8589 37.1405C50.9433 37.3114 51.1046 37.4285 51.2928 37.4554L56.4269 38.2004C56.8992 38.2695 57.0873 38.8493 56.7456 39.1834L53.0304 42.8045C52.8941 42.937 52.8326 43.1271 52.8653 43.3152L53.7427 48.4282C53.8233 48.8986 53.3299 49.2576 52.9075 49.0349L48.3168 46.6215C48.1497 46.5332 47.9481 46.5332 47.7811 46.6215H47.7753Z" stroke="black" stroke-miterlimit="10" stroke-linecap="round"/>
<path d="M58.4774 57.8956L68.4 68.1753C68.7225 68.5094 68.5363 69.07 68.0774 69.1449L63.3293 69.9129C63.0835 69.9532 62.8915 70.1452 62.8531 70.3891L62.0966 75.0662C62.0198 75.5385 61.4342 75.7171 61.1078 75.3676L48.3513 61.7222" stroke="black" stroke-miterlimit="10" stroke-linecap="round"/>
<path d="M37.2115 57.8956L27.289 68.1753C26.9664 68.5094 27.1526 69.07 27.6115 69.1449L32.3597 69.9129C32.6054 69.9532 32.7974 70.1452 32.8358 70.3891L33.5923 75.0662C33.6691 75.5385 34.2547 75.7171 34.5811 75.3676L47.3376 61.7222" stroke="black" stroke-miterlimit="10" stroke-linecap="round"/>
</svg>
