<svg width="96" height="96" viewBox="0 0 96 96" fill="none" xmlns="http://www.w3.org/2000/svg">
<path d="M29.0707 39.2448H20.5248C20.2067 39.2448 19.9488 39.5026 19.9488 39.8208V65.6409C19.9488 65.959 20.2067 66.2169 20.5248 66.2169H29.0707C29.3888 66.2169 29.6467 65.959 29.6467 65.6409V39.8208C29.6467 39.5026 29.3888 39.2448 29.0707 39.2448Z" stroke="black" stroke-miterlimit="10" stroke-linecap="round"/>
<path d="M75.4406 39.2448H66.9523C66.6342 39.2448 66.3763 39.5026 66.3763 39.8208V65.6409C66.3763 65.959 66.6342 66.2169 66.9523 66.2169H75.4406C75.7588 66.2169 76.0166 65.959 76.0166 65.6409V39.8208C76.0166 39.5026 75.7588 39.2448 75.4406 39.2448Z" stroke="black" stroke-miterlimit="10" stroke-linecap="round"/>
<path d="M65.8003 29.639H30.2247C29.9065 29.639 29.6487 29.8969 29.6487 30.215V70.4141C29.6487 70.7322 29.9065 70.9901 30.2247 70.9901H65.8003C66.1184 70.9901 66.3763 70.7322 66.3763 70.4141V30.215C66.3763 29.8969 66.1184 29.639 65.8003 29.639Z" stroke="black" stroke-miterlimit="10" stroke-linecap="round"/>
<path d="M29.6487 66.4109H66.3763" stroke="black" stroke-miterlimit="10"/>
<path d="M29.6487 34.4717H66.3763" stroke="black" stroke-miterlimit="10"/>
<path d="M41.8138 70.9901H33.3446C33.0265 70.9901 32.7686 71.248 32.7686 71.5661V75.3524C32.7686 75.6705 33.0265 75.9284 33.3446 75.9284H41.8138C42.1319 75.9284 42.3898 75.6705 42.3898 75.3524V71.5661C42.3898 71.248 42.1319 70.9901 41.8138 70.9901Z" stroke="black" stroke-miterlimit="10" stroke-linecap="round"/>
<path d="M62.6208 70.9901H54.169C53.8508 70.9901 53.593 71.248 53.593 71.5661V75.3524C53.593 75.6705 53.8508 75.9284 54.169 75.9284H62.6208C62.9389 75.9284 63.1968 75.6705 63.1968 75.3524V71.5661C63.1968 71.248 62.9389 70.9901 62.6208 70.9901Z" stroke="black" stroke-miterlimit="10" stroke-linecap="round"/>
<path d="M45.9302 53.4855H38.9913C38.6732 53.4855 38.4153 53.7434 38.4153 54.0615V61.0003C38.4153 61.3185 38.6732 61.5764 38.9913 61.5764H45.9302C46.2483 61.5764 46.5062 61.3185 46.5062 61.0003V54.0615C46.5062 53.7434 46.2483 53.4855 45.9302 53.4855Z" stroke="black" stroke-miterlimit="10" stroke-linecap="round"/>
<path d="M45.9264 42.24H38.9875C38.6694 42.24 38.4115 42.4979 38.4115 42.816V49.7549C38.4115 50.073 38.6694 50.3309 38.9875 50.3309H45.9264C46.2445 50.3309 46.5024 50.073 46.5024 49.7549V42.816C46.5024 42.4979 46.2445 42.24 45.9264 42.24Z" stroke="black" stroke-miterlimit="10" stroke-linecap="round"/>
<path d="M57.0777 53.4855H50.1389C49.8208 53.4855 49.5629 53.7434 49.5629 54.0615V61.0003C49.5629 61.3185 49.8208 61.5764 50.1389 61.5764H57.0777C57.3959 61.5764 57.6537 61.3185 57.6537 61.0003V54.0615C57.6537 53.7434 57.3959 53.4855 57.0777 53.4855Z" stroke="black" stroke-miterlimit="10" stroke-linecap="round"/>
<path d="M57.0739 42.24H50.1351C49.8169 42.24 49.5591 42.4979 49.5591 42.816V49.7549C49.5591 50.073 49.8169 50.3309 50.1351 50.3309H57.0739C57.3921 50.3309 57.6499 50.073 57.6499 49.7549V42.816C57.6499 42.4979 57.3921 42.24 57.0739 42.24Z" stroke="black" stroke-miterlimit="10" stroke-linecap="round"/>
</svg>
