<svg width="96" height="96" viewBox="0 0 96 96" fill="none" xmlns="http://www.w3.org/2000/svg">
<path d="M40.3392 52.9344C48.4724 52.9344 55.0656 46.3412 55.0656 38.208C55.0656 30.0748 48.4724 23.4816 40.3392 23.4816C32.206 23.4816 25.6128 30.0748 25.6128 38.208C25.6128 46.3412 32.206 52.9344 40.3392 52.9344Z" stroke="black" stroke-miterlimit="10" stroke-linecap="round"/>
<path d="M40.3392 56.4096C50.3916 56.4096 58.5408 48.2605 58.5408 38.208C58.5408 28.1555 50.3916 20.0064 40.3392 20.0064C30.2867 20.0064 22.1376 28.1555 22.1376 38.208C22.1376 48.2605 30.2867 56.4096 40.3392 56.4096Z" stroke="black" stroke-miterlimit="10" stroke-linecap="round"/>
<path d="M37.4016 56.3904V75.4368C37.4016 75.744 37.6512 75.9936 37.9776 75.9936H42.7008C43.0272 75.9936 43.2768 75.744 43.2768 75.4368V56.2368" stroke="black" stroke-miterlimit="10" stroke-linecap="round"/>
<path d="M37.4016 61.9584H43.2768" stroke="black" stroke-miterlimit="10" stroke-linecap="round"/>
<path d="M35.3664 33.7152C36.6919 33.7152 37.7664 32.6407 37.7664 31.3152C37.7664 29.9897 36.6919 28.9152 35.3664 28.9152C34.0409 28.9152 32.9664 29.9897 32.9664 31.3152C32.9664 32.6407 34.0409 33.7152 35.3664 33.7152Z" stroke="black" stroke-miterlimit="10" stroke-linecap="round"/>
<path d="M47.4048 42.1056C48.7302 42.1056 49.8048 41.0311 49.8048 39.7056C49.8048 38.3801 48.7302 37.3056 47.4048 37.3056C46.0793 37.3056 45.0048 38.3801 45.0048 39.7056C45.0048 41.0311 46.0793 42.1056 47.4048 42.1056Z" stroke="black" stroke-miterlimit="10" stroke-linecap="round"/>
<path d="M61.7665 30.8736C63.0919 30.8736 64.1665 29.7991 64.1665 28.4736C64.1665 27.1481 63.0919 26.0736 61.7665 26.0736C60.441 26.0736 59.3665 27.1481 59.3665 28.4736C59.3665 29.7991 60.441 30.8736 61.7665 30.8736Z" stroke="black" stroke-miterlimit="10" stroke-linecap="round"/>
<path d="M71.4624 42.9696C72.7879 42.9696 73.8624 41.8951 73.8624 40.5696C73.8624 39.2441 72.7879 38.1696 71.4624 38.1696C70.1369 38.1696 69.0624 39.2441 69.0624 40.5696C69.0624 41.8951 70.1369 42.9696 71.4624 42.9696Z" stroke="black" stroke-miterlimit="10" stroke-linecap="round"/>
<path d="M37.5743 32.256L45.4847 37.9584" stroke="black" stroke-miterlimit="10" stroke-linecap="round"/>
<path d="M49.5168 38.5536L60.1536 30.2592" stroke="black" stroke-miterlimit="10" stroke-linecap="round"/>
<path d="M63.5712 30.048L70.368 38.4384" stroke="black" stroke-miterlimit="10" stroke-linecap="round"/>
</svg>
