<svg width="96" height="96" viewBox="0 0 96 96" fill="none" xmlns="http://www.w3.org/2000/svg">
<path d="M89.36 11.2387H6.41289C5.93031 11.2387 5.56128 11.6077 5.56128 12.0903V73.1793C5.56128 73.6619 5.93031 74.031 6.41289 74.031H89.36C89.8426 74.031 90.2116 73.6619 90.2116 73.1793V12.0903C90.2116 11.6077 89.8426 11.2387 89.36 11.2387Z" stroke="black" stroke-linecap="round" stroke-linejoin="round"/>
<path d="M39.3703 74.031L33.5793 84.6761" stroke="black" stroke-linecap="round" stroke-linejoin="round"/>
<path d="M56.4878 74.031L62.2788 84.6761" stroke="black" stroke-linecap="round" stroke-linejoin="round"/>
<path d="M26.4825 84.6761H68.978" stroke="black" stroke-linecap="round" stroke-linejoin="round"/>
<path d="M6.35608 63.1871H90.1832" stroke="black" stroke-linecap="round" stroke-linejoin="round"/>
<path d="M67.0762 11.2387V34.9987H90.24" stroke="black" stroke-linecap="round" stroke-linejoin="round"/>
<path d="M33.8065 62.96H60.7742V56.1471C60.7742 53.1097 59.8942 50.1006 58.1626 47.5742C56.2039 44.7639 52.8826 42.0387 47.2903 42.0387C41.6981 42.0387 38.3484 44.6787 36.4181 47.4323C34.6865 49.8735 33.8065 52.8258 33.8065 55.8348V62.96ZM33.8065 62.96H33.8008" stroke="black" stroke-linecap="round" stroke-linejoin="round"/>
<path d="M47.2903 41.3574C52.8826 41.3574 57.4245 36.8155 57.4245 31.2232C57.4245 25.631 52.8826 21.089 47.2903 21.089C41.6981 21.089 37.1561 25.631 37.1561 31.2232C37.1561 36.8155 41.6981 41.3574 47.2903 41.3574Z" stroke="black" stroke-linecap="round" stroke-linejoin="round"/>
<path d="M72.7535 34.8568H84.5342V31.8761C84.5342 30.5419 84.1652 29.2361 83.3987 28.129C82.5471 26.9084 81.0993 25.7161 78.6581 25.7161C76.2168 25.7161 74.769 26.88 73.9174 28.0723C73.151 29.151 72.7819 30.4284 72.7819 31.7342V34.8568H72.7535Z" stroke="black" stroke-linecap="round" stroke-linejoin="round"/>
<path d="M78.6297 25.4039C81.071 25.4039 83.0581 23.4168 83.0581 20.9755C83.0581 18.5342 81.071 16.5471 78.6297 16.5471C76.1884 16.5471 74.2013 18.5342 74.2013 20.9755C74.2013 23.4168 76.1884 25.4039 78.6297 25.4039Z" stroke="black" stroke-linecap="round" stroke-linejoin="round"/>
</svg>
