<svg width="96" height="96" viewBox="0 0 96 96" fill="none" xmlns="http://www.w3.org/2000/svg">
<path d="M48.0326 45.4156C55.0003 45.4156 60.649 39.767 60.649 32.7993C60.649 25.8316 55.0003 20.183 48.0326 20.183C41.065 20.183 35.4163 25.8316 35.4163 32.7993C35.4163 39.767 41.065 45.4156 48.0326 45.4156Z" stroke="black" stroke-miterlimit="10"/>
<path d="M63.4522 75.9168H31.3056C30.8986 75.9168 30.5683 75.5885 30.5683 75.1795V63.5482C30.5683 54.0346 38.0717 46.0934 47.5834 45.8227C57.5002 45.5405 65.497 53.4931 65.497 63.3446" stroke="black" stroke-miterlimit="10"/>
<path d="M41.3395 47.47L48.1632 54.6104L54.9715 47.47" stroke="black" stroke-miterlimit="10"/>
<path d="M48.1632 54.6105L42.8871 60.2322C42.6778 60.455 42.6797 60.8006 42.889 61.0233L47.7427 66.1439C47.9712 66.3839 48.3552 66.3839 48.5818 66.1401L53.3664 61.0214C53.5719 60.8006 53.5738 60.4588 53.3664 60.2361L48.1555 54.6124" stroke="black" stroke-miterlimit="10"/>
<path d="M68.2157 63.0048C70.8442 63.9744 72.7181 66.5011 72.7181 69.4656C72.7181 73.2672 69.6365 76.3488 65.8349 76.3488C62.0333 76.3488 58.9517 73.2672 58.9517 69.4656C58.9517 65.664 62.0333 62.5824 65.8349 62.5824C66.672 62.5824 67.4746 62.7322 68.2157 63.0048Z" stroke="black" stroke-linejoin="round"/>
<path d="M63.4522 69.7766L64.8327 71.1571L68.2157 67.776" stroke="black" stroke-linejoin="round"/>
</svg>
