<svg width="96" height="96" viewBox="0 0 96 96" fill="none" xmlns="http://www.w3.org/2000/svg">
<path d="M22.4064 55.392H39.4368V51.0912C39.4368 49.1712 38.88 47.2704 37.7856 45.6768C36.5568 43.8912 34.4448 42.1824 30.912 42.1824C27.3792 42.1824 25.2672 43.8528 24.0384 45.5808C22.944 47.1168 22.3872 48.9984 22.3872 50.88V55.392H22.4064Z" stroke="black" stroke-linecap="round" stroke-linejoin="round"/>
<path d="M30.912 41.76C34.4537 41.76 37.3248 38.8889 37.3248 35.3472C37.3248 31.8055 34.4537 28.9344 30.912 28.9344C27.3703 28.9344 24.4992 31.8055 24.4992 35.3472C24.4992 38.8889 27.3703 41.76 30.912 41.76Z" stroke="black" stroke-linecap="round" stroke-linejoin="round"/>
<path d="M31.9104 69.1968H20.5248C20.1984 69.1968 19.9488 68.9472 19.9488 68.6208V62.7456C19.9488 62.4192 20.1984 62.1696 20.5248 62.1696H31.9104C32.2368 62.1696 32.4864 62.4192 32.4864 62.7456V68.6208C32.4864 68.9472 32.2368 69.1968 31.9104 69.1968Z" stroke="black" stroke-linecap="round" stroke-linejoin="round"/>
<path d="M45.0816 69.1968H33.0624C32.736 69.1968 32.4864 68.9472 32.4864 68.6208V58.752C32.4864 58.4256 32.736 58.176 33.0624 58.176H45.0816C45.408 58.176 45.6576 58.4256 45.6576 58.752V68.6208C45.6576 68.9472 45.408 69.1968 45.0816 69.1968Z" stroke="black" stroke-linecap="round" stroke-linejoin="round"/>
<path d="M60.4224 69.1968H46.5216C46.1952 69.1968 45.9456 68.9472 45.9456 68.6208V53.184C45.9456 52.8576 46.1952 52.608 46.5216 52.608H60.4224C60.7488 52.608 60.9984 52.8576 60.9984 53.184V68.64C60.9984 68.9472 60.7488 69.1968 60.4224 69.1968Z" stroke="black" stroke-linecap="round" stroke-linejoin="round"/>
<path d="M75.4752 69.1968H61.5744C61.248 69.1968 60.9984 68.9472 60.9984 68.6208V44.4096C60.9984 44.0832 61.248 43.8336 61.5744 43.8336H75.4752C75.8016 43.8336 76.0512 44.0832 76.0512 44.4096V68.6208C76.0512 68.9472 75.8016 69.1968 75.4752 69.1968Z" stroke="black" stroke-linecap="round" stroke-linejoin="round"/>
<path d="M44.0448 40.8192L52.8384 33.408C53.0496 33.2352 53.3568 33.216 53.6064 33.3504L62.112 38.7456C62.3808 38.9184 62.7456 38.8608 62.9376 38.6304L71.7888 28.2816" stroke="black" stroke-miterlimit="10" stroke-linecap="round"/>
<path d="M67.5072 28.032L72.384 26.8224C72.8256 26.7072 73.2288 27.072 73.1712 27.5136L72.6336 32.1408" stroke="black" stroke-miterlimit="10" stroke-linecap="round"/>
</svg>
