<svg width="96" height="96" viewBox="0 0 96 96" fill="none" xmlns="http://www.w3.org/2000/svg">
<path d="M30.0864 51.2256H49.3056" stroke="black" stroke-miterlimit="10" stroke-linecap="round"/>
<path d="M30.0864 65.3184H49.3056" stroke="black" stroke-miterlimit="10" stroke-linecap="round"/>
<path d="M30.0864 55.872H44.5824" stroke="black" stroke-miterlimit="10" stroke-linecap="round"/>
<path d="M30.0864 60.672H44.5824" stroke="black" stroke-miterlimit="10" stroke-linecap="round"/>
<path d="M35.1936 36.9792C37.1765 36.9792 38.784 35.3717 38.784 33.3888C38.784 31.4059 37.1765 29.7984 35.1936 29.7984C33.2107 29.7984 31.6032 31.4059 31.6032 33.3888C31.6032 35.3717 33.2107 36.9792 35.1936 36.9792Z" stroke="black" stroke-miterlimit="10"/>
<path d="M30.24 44.544V43.584C30.24 40.1088 32.0256 37.0944 35.0784 37.0944C38.1312 37.0944 40.1664 39.8976 40.1664 43.5072V44.544C40.1664 44.6976 40.0704 44.8128 39.9552 44.8128H30.4512C30.336 44.8128 30.24 44.6784 30.24 44.544Z" stroke="black" stroke-miterlimit="10"/>
<path d="M63.3216 61.3056L64.7232 62.9952C64.9536 63.264 65.3568 63.264 65.568 62.9952L69.504 58.0608" stroke="black" stroke-miterlimit="10" stroke-linecap="round"/>
<path d="M70.56 66.3168H62.2464C61.4016 66.3168 60.7104 65.6256 60.7104 64.7808V56.4672C60.7104 55.6224 61.4016 54.9312 62.2464 54.9312H70.56C71.4048 54.9312 72.096 55.6224 72.096 56.4672V64.7808C72.096 65.6256 71.424 66.3168 70.56 66.3168Z" stroke="black" stroke-miterlimit="10" stroke-linecap="round"/>
<path d="M66.3744 66.3168V70.7136C66.3744 71.4432 65.7984 72.0192 65.0688 72.0192H25.2096C24.48 72.0192 23.904 71.4432 23.904 70.7136V25.2864C23.904 24.5568 24.48 23.9808 25.2096 23.9808H53.472" stroke="black" stroke-miterlimit="10" stroke-linecap="round"/>
<path d="M66.3744 33.984V54.9312" stroke="black" stroke-miterlimit="10" stroke-linecap="round"/>
<path d="M52.9152 24.5376V33.9072C52.9152 34.2144 53.1648 34.464 53.472 34.464H65.8368C66.3552 34.464 66.5856 33.792 66.1632 33.4848L53.7984 24.1152C53.4336 23.8272 52.9152 24.096 52.9152 24.5376Z" stroke="black" stroke-miterlimit="10" stroke-linecap="round"/>
</svg>
