<svg width="96" height="96" viewBox="0 0 96 96" fill="none" xmlns="http://www.w3.org/2000/svg">
<path d="M75.8169 50.3289C75.7766 55.3708 71.4605 57.2601 66.4185 57.2601H29.4528C24.3629 57.2601 20.0179 53.0188 19.9757 47.9289C19.9392 43.5091 22.9766 39.8707 27.0777 38.8646C27.4176 38.782 27.6019 38.4115 27.4713 38.087C27.0624 37.0579 26.3443 34.8844 26.3443 32.2713C26.3443 25.655 32.0217 20.302 38.6323 20.0121C45.4713 19.7107 51.1968 24.96 52.0013 31.5456C52.0454 31.9084 52.4064 32.1427 52.7539 32.0236C55.6877 31.0252 58.6195 30.8064 61.4208 32.3155C63.6979 33.5424 65.4969 35.6697 66.1382 38.1945C66.1958 38.423 66.3897 40.6982 66.624 40.727C68.4269 40.9516 75.8822 42.3782 75.8189 50.327H75.8169V50.3289Z" stroke="black" stroke-miterlimit="10" stroke-linecap="round"/>
<path d="M32.5805 70.7328C34.6673 70.7328 36.3591 69.0411 36.3591 66.9542C36.3591 64.8674 34.6673 63.1757 32.5805 63.1757C30.4937 63.1757 28.8019 64.8674 28.8019 66.9542C28.8019 69.0411 30.4937 70.7328 32.5805 70.7328Z" stroke="black" stroke-linecap="round" stroke-linejoin="round"/>
<path d="M63.4195 70.7328C65.5064 70.7328 67.1981 69.0411 67.1981 66.9542C67.1981 64.8674 65.5064 63.1757 63.4195 63.1757C61.3327 63.1757 59.641 64.8674 59.641 66.9542C59.641 69.0411 61.3327 70.7328 63.4195 70.7328Z" stroke="black" stroke-linecap="round" stroke-linejoin="round"/>
<path d="M48 76.6195C50.0868 76.6195 51.7786 74.9278 51.7786 72.8409C51.7786 70.7541 50.0868 69.0624 48 69.0624C45.9132 69.0624 44.2214 70.7541 44.2214 72.8409C44.2214 74.9278 45.9132 76.6195 48 76.6195Z" stroke="black" stroke-linecap="round" stroke-linejoin="round"/>
<path d="M48 69.0624V57.2698" stroke="black" stroke-linecap="round" stroke-linejoin="round"/>
<path d="M43.3651 57.6V66.3782C43.3651 66.6969 43.1078 66.9542 42.7891 66.9542H36.359" stroke="black" stroke-linecap="round" stroke-linejoin="round"/>
<path d="M52.6349 57.6V66.3782C52.6349 66.6969 52.8922 66.9542 53.2109 66.9542H59.641" stroke="black" stroke-linecap="round" stroke-linejoin="round"/>
<path d="M44.0563 38.1754V48.0001" stroke="black" stroke-linejoin="round"/>
<path d="M40.3584 45.1892L43.7088 47.7351C43.9142 47.8926 44.2003 47.8926 44.4058 47.7351L47.7562 45.1892" stroke="black" stroke-linejoin="round"/>
<path d="M51.9437 48.0001V38.1754" stroke="black" stroke-linejoin="round"/>
<path d="M55.6416 40.9863L52.2912 38.4403C52.0858 38.2829 51.7997 38.2829 51.5942 38.4403L48.2438 40.9863" stroke="black" stroke-linejoin="round"/>
</svg>
