<svg width="96" height="96" viewBox="0 0 96 96" fill="none" xmlns="http://www.w3.org/2000/svg">
<path d="M75.7248 48.0192H35.8272C35.5008 48.0192 35.2512 47.7696 35.2512 47.4432V20.6016C35.2512 20.2752 35.5008 20.0256 35.8272 20.0256H75.7248C76.0512 20.0256 76.3008 20.2752 76.3008 20.6016V47.4432C76.3008 47.7696 76.0512 48.0192 75.7248 48.0192Z" stroke="black" stroke-linecap="round" stroke-linejoin="round"/>
<path d="M54.1632 44.736H52.224C51.9168 44.736 51.648 44.4864 51.648 44.16V31.7952C51.648 31.488 51.8976 31.2192 52.224 31.2192H54.1632C54.4704 31.2192 54.7392 31.4688 54.7392 31.7952V44.16C54.7392 44.4672 54.4896 44.736 54.1632 44.736Z" stroke="black" stroke-linecap="round" stroke-linejoin="round"/>
<path d="M60.3648 44.736H58.4256C58.1184 44.736 57.8496 44.4864 57.8496 44.16V29.2992C57.8496 28.992 58.0992 28.7232 58.4256 28.7232H60.3648C60.672 28.7232 60.9408 28.9728 60.9408 29.2992V44.16C60.9408 44.4672 60.672 44.736 60.3648 44.736Z" stroke="black" stroke-linecap="round" stroke-linejoin="round"/>
<path d="M66.5472 44.736H64.608C64.3008 44.736 64.032 44.4864 64.032 44.16V34.1568C64.032 33.8496 64.2816 33.5808 64.608 33.5808H66.5472C66.8544 33.5808 67.1232 33.8304 67.1232 34.1568V44.16C67.104 44.4672 66.8544 44.736 66.5472 44.736Z" stroke="black" stroke-linecap="round" stroke-linejoin="round"/>
<path d="M72.3648 44.6592H70.4256C70.1184 44.6592 69.8496 44.4096 69.8496 44.0832V27.9552C69.8496 27.648 70.0992 27.3792 70.4256 27.3792H72.3648C72.672 27.3792 72.9408 27.6288 72.9408 27.9552V44.0832C72.9408 44.3904 72.6912 44.6592 72.3648 44.6592Z" stroke="black" stroke-linecap="round" stroke-linejoin="round"/>
<path d="M58.1184 48.7296L66.6624 62.7456" stroke="black" stroke-linecap="round" stroke-linejoin="round"/>
<path d="M54.912 48.7296L46.3872 62.7456" stroke="black" stroke-linecap="round" stroke-linejoin="round"/>
<path d="M19.6992 75.9744H36.7296V71.6736C36.7296 69.7536 36.1728 67.8528 35.0784 66.2592C33.8496 64.4736 31.7376 62.7648 28.2048 62.7648C24.672 62.7648 22.56 64.4352 21.3312 66.1632C20.2368 67.6992 19.68 69.5808 19.68 71.4624V75.9744H19.6992Z" stroke="black" stroke-linecap="round" stroke-linejoin="round"/>
<path d="M28.2048 62.3424C31.7464 62.3424 34.6176 59.4712 34.6176 55.9296C34.6176 52.388 31.7464 49.5168 28.2048 49.5168C24.6632 49.5168 21.792 52.388 21.792 55.9296C21.792 59.4712 24.6632 62.3424 28.2048 62.3424Z" stroke="black" stroke-linecap="round" stroke-linejoin="round"/>
</svg>
