<svg width="96" height="96" viewBox="0 0 96 96" fill="none" xmlns="http://www.w3.org/2000/svg">
<path d="M75.9744 48.3456V61.728C75.9744 62.0544 75.7248 62.304 75.4176 62.304H57.792C57.6 62.304 57.4272 62.208 57.3312 62.0352L52.9344 54.8352C52.8 54.624 52.8192 54.3744 52.9536 54.1824L57.504 48C57.6 47.8656 57.7728 47.7696 57.9456 47.7696H75.4176C75.7248 47.7696 75.9744 48.0192 75.9744 48.3456Z" stroke="black" stroke-linecap="round" stroke-linejoin="round"/>
<path d="M62.4768 57.1584C63.8553 57.1584 64.9728 56.0409 64.9728 54.6624C64.9728 53.2839 63.8553 52.1664 62.4768 52.1664C61.0983 52.1664 59.9808 53.2839 59.9808 54.6624C59.9808 56.0409 61.0983 57.1584 62.4768 57.1584Z" stroke="black" stroke-linecap="round" stroke-linejoin="round"/>
<path d="M62.4192 35.904V29.9136H38.976V35.904" stroke="black" stroke-linecap="round" stroke-linejoin="round"/>
<path d="M58.5024 29.5296V24.6528H34.08V35.8848" stroke="black" stroke-linecap="round" stroke-linejoin="round"/>
<path d="M52.8 24.6528V19.8912H28.4544V35.8848" stroke="black" stroke-linecap="round" stroke-linejoin="round"/>
<path d="M23.52 35.8848C23.52 35.8848 19.9488 35.136 20.0448 31.9296C20.1408 28.704 23.4816 28.608 23.4816 28.608H28.1088" stroke="black" stroke-linecap="round" stroke-linejoin="round"/>
<path d="M58.5024 28.608H66.72C67.4688 28.608 68.2176 28.8576 68.8128 29.3568C69.2736 29.76 69.6768 30.3168 69.6768 31.104V35.232" stroke="black" stroke-linecap="round" stroke-linejoin="round"/>
<path d="M72.1728 62.4V76.1088H20.0256V31.9104" stroke="black" stroke-linecap="round" stroke-linejoin="round"/>
<path d="M20.0256 35.8848H72.1728V47.5584" stroke="black" stroke-linecap="round" stroke-linejoin="round"/>
</svg>
