<svg width="96" height="96" viewBox="0 0 96 96" fill="none" xmlns="http://www.w3.org/2000/svg">
<path d="M24.3333 66.378V40.6644C24.3333 40.3722 24.5691 40.1364 24.8613 40.1364H70.4787C70.7709 40.1364 71.0067 40.3722 71.0067 40.6644V67.1295" stroke="black" stroke-linecap="round" stroke-linejoin="round"/>
<path d="M23.7824 67.1295H42.9593C43.2515 67.1295 43.4873 67.3654 43.4873 67.6575V68.8508C43.4873 69.143 43.7232 69.3788 44.0153 69.3788H51.9565C52.2486 69.3788 52.4845 69.143 52.4845 68.8508V67.6575C52.4845 67.3654 52.7203 67.1295 53.0125 67.1295H72.2158C73.3809 67.1295 74.0621 68.439 73.395 69.3946L70.8553 73.0255C70.5861 73.411 70.1461 73.6398 69.6761 73.6398H26.3643C25.8979 73.6398 25.4614 73.4145 25.1904 73.0343L22.6102 69.4034C21.9326 68.4495 22.6137 67.1295 23.7841 67.1295H23.7824Z" stroke="black" stroke-linecap="round" stroke-linejoin="round"/>
<path d="M67.1294 43.1847H28.8424C28.5508 43.1847 28.3144 43.4211 28.3144 43.7127V63.3103C28.3144 63.6019 28.5508 63.8383 28.8424 63.8383H67.1294C67.421 63.8383 67.6574 63.6019 67.6574 63.3103V43.7127C67.6574 43.4211 67.421 43.1847 67.1294 43.1847Z" stroke="black" stroke-linecap="round" stroke-linejoin="round"/>
<path d="M52.6957 49.9343L52.0128 50.2089C51.8386 50.2793 51.6379 50.2529 51.4919 50.1349C51.0554 49.7829 50.5643 49.4961 50.0328 49.2901C49.8586 49.2215 49.7354 49.0613 49.709 48.8765L49.6051 48.1532C49.5682 47.8927 49.3447 47.6991 49.0824 47.6991H46.9739C46.7117 47.6991 46.4882 47.8927 46.4512 48.1532L46.3474 48.8765C46.321 49.0631 46.1995 49.2215 46.0235 49.2901C45.492 49.4978 45.0027 49.7847 44.5645 50.1349C44.4184 50.2529 44.2178 50.2793 44.0435 50.2089L43.3607 49.9343C43.116 49.8357 42.8379 49.9343 42.7059 50.1596L41.6517 51.9847C41.5197 52.2117 41.576 52.5021 41.7837 52.6641L42.3575 53.1146C42.5071 53.2308 42.581 53.4191 42.5528 53.6057C42.5106 53.8802 42.4877 54.1618 42.4877 54.4469C42.4877 54.7321 42.5106 55.0137 42.5528 55.2882C42.581 55.4748 42.5071 55.6631 42.3575 55.7793L41.7837 56.2298C41.5778 56.3917 41.5215 56.6821 41.6517 56.9092L42.7059 58.7343C42.8379 58.9613 43.116 59.0581 43.3607 58.9596L44.0435 58.685C44.2178 58.6146 44.4184 58.641 44.5645 58.7589C45.001 59.1109 45.492 59.3978 46.0235 59.6037C46.1978 59.6724 46.321 59.8325 46.3474 60.0173L46.4512 60.7407C46.4882 61.0012 46.7117 61.1948 46.9739 61.1948H49.0824C49.3447 61.1948 49.5682 61.0012 49.6051 60.7407L49.709 60.0173C49.7354 59.8308 49.8568 59.6724 50.0328 59.6037C50.5643 59.3961 51.0536 59.1092 51.4919 58.7589C51.6379 58.641 51.8386 58.6146 52.0128 58.685L52.6957 58.9596C52.9403 59.0581 53.2184 58.9596 53.3504 58.7343L54.4047 56.9092C54.5367 56.6821 54.4803 56.3917 54.2727 56.2298L53.6989 55.7793C53.5493 55.6631 53.4754 55.4748 53.5035 55.2882C53.5458 55.0137 53.5687 54.7321 53.5687 54.4469C53.5687 54.1618 53.5458 53.8802 53.5035 53.6057C53.4754 53.4191 53.5493 53.2308 53.6989 53.1146L54.2727 52.6641C54.4786 52.5021 54.5349 52.2117 54.4047 51.9847L53.3504 50.1596C53.2184 49.9325 52.9403 49.8357 52.6957 49.9343Z" stroke="black" stroke-linecap="round" stroke-linejoin="round"/>
<path d="M48.03 56.9162C49.3927 56.9162 50.4975 55.8115 50.4975 54.4487C50.4975 53.086 49.3927 51.9812 48.03 51.9812C46.6672 51.9812 45.5624 53.086 45.5624 54.4487C45.5624 55.8115 46.6672 56.9162 48.03 56.9162Z" stroke="black" stroke-linecap="round" stroke-linejoin="round"/>
</svg>
