<svg width="96" height="96" viewBox="0 0 96 96" fill="none" xmlns="http://www.w3.org/2000/svg">
<mask id="mask0_4062_21928" style="mask-type:luminance" maskUnits="userSpaceOnUse" x="4" y="12" width="88" height="72">
<path d="M91.9405 12.9189H4V83.0513H91.9405V12.9189Z" fill="white"/>
</mask>
<g mask="url(#mask0_4062_21928)">
<path d="M21.1541 27.5459L89.6811 33.7892C90.0973 33.8189 90.4541 34.0865 90.6324 34.4432C90.8108 34.8297 90.7811 35.2459 90.573 35.6027L74.7568 60.3378" stroke="black" stroke-miterlimit="10" stroke-linecap="round"/>
<path d="M5.18921 14.1081H17.4081C17.973 14.1081 18.4784 14.5243 18.5676 15.0594L28.1406 64.4703L59.773 68.4243" stroke="black" stroke-miterlimit="10" stroke-linecap="round"/>
<path d="M38.873 66.3432L27.4568 78.2351C27.2189 78.4135 26.9216 78.5622 26.5946 78.5622H17.5865C17.1108 78.5622 16.6946 78.2649 16.4865 77.8486C16.3081 77.4027 16.3973 76.8973 16.7243 76.5703L28.8243 64.3513" stroke="black" stroke-miterlimit="10" stroke-linecap="round"/>
<path d="M70.6838 59.5648C64.5298 59.5648 59.5352 64.5594 59.5352 70.7135C59.5352 76.8676 64.5298 81.8621 70.6838 81.8621C76.8379 81.8621 81.8324 76.8676 81.8324 70.7135C81.8324 64.5594 76.8379 59.5648 70.6838 59.5648Z" stroke="black" stroke-miterlimit="10" stroke-linecap="round"/>
<path d="M73.1216 30.6973C73.2108 30.2216 73.3595 29.3 73.3595 28.8838C73.3595 25.2568 70.1487 22.3135 66.5216 22.3135C65.5108 22.3135 64.5297 22.5216 63.6378 22.9676C63.2811 23.1459 62.8351 23.1162 62.4784 22.9081C62.1216 22.7 61.9135 22.3135 61.9135 21.8973V21.5703C61.9135 17.9432 58.3757 15 54.7487 15C52.8757 15 51.1216 15.773 49.873 17.1703C49.4568 17.6459 48.7432 17.7054 48.2676 17.3189C46.7216 16.1 44.7892 15.4459 42.827 15.4459C37.9514 15.4459 33.0757 19.4297 33.0757 24.3054C33.0757 25.0784 33.1054 26.8324 33.2243 27.3676" stroke="black" stroke-miterlimit="10" stroke-linecap="round"/>
</g>
</svg>
