<svg width="96" height="96" viewBox="0 0 96 96" fill="none" xmlns="http://www.w3.org/2000/svg">
<g clip-path="url(#clip0_4062_21805)">
<mask id="mask0_4062_21805" style="mask-type:luminance" maskUnits="userSpaceOnUse" x="4" y="4" width="88" height="88">
<path d="M91.8576 4H4.1424V92H91.8576V4Z" fill="white"/>
</mask>
<g mask="url(#mask0_4062_21805)">
<mask id="mask1_4062_21805" style="mask-type:luminance" maskUnits="userSpaceOnUse" x="4" y="4" width="88" height="88">
<path d="M91.8576 4H4.1424V91.8006H91.8576V4Z" fill="white"/>
</mask>
<g mask="url(#mask1_4062_21805)">
<path d="M48.8829 30.9981L53.5534 40.4531C53.6958 40.7663 54.0091 40.9657 54.3508 41.0226L64.7457 42.532C65.6285 42.6744 65.9703 43.7282 65.3437 44.3262L57.7968 51.6738C57.569 51.9301 57.455 52.2718 57.512 52.6136L59.2777 62.9799C59.4201 63.8628 58.5372 64.4893 57.7683 64.0906L48.4272 59.1922C48.1424 59.0498 47.7722 59.0498 47.4589 59.1922L38.1463 64.0906C37.3774 64.4893 36.466 63.8628 36.6084 62.9799L38.4026 52.6136C38.4596 52.2718 38.3457 51.9301 38.0893 51.6738L30.5709 44.3262C29.9444 43.7282 30.2861 42.6744 31.1405 42.532L41.5638 41.0226C41.9055 40.9657 42.1903 40.7663 42.3612 40.4531L47.0033 30.9981C47.402 30.2291 48.5127 30.2291 48.8829 30.9981Z" stroke="black" stroke-linecap="round" stroke-linejoin="round"/>
<path d="M34.9282 13.9676C36.9786 8.75599 42.0479 5.13916 48 5.13916C53.9521 5.13916 59.0498 8.78447 61.1003 13.9961L61.4136 13.8537C63.2362 12.9709 64.9735 12.6576 67.1379 12.6576C74.9411 12.6576 81.2349 18.9515 81.2349 26.7262C81.2349 29.2039 80.6084 31.5392 79.4693 33.5612L79.4123 33.6751C85.9055 35.0136 90.7184 40.7379 90.7184 47.6298C90.7184 54.4932 85.9909 60.0466 79.6686 61.499L79.868 61.8693C81.0926 63.9767 81.6337 66.1411 81.6337 68.7612C81.6337 76.6498 75.2259 83.0291 67.3372 83.0291C65.1728 83.0291 63.2078 82.5735 61.3566 81.7191L61.1858 82.2317C59.0498 87.5003 54.0375 90.69 48 90.69C41.9625 90.69 36.7508 86.9307 34.6434 81.6337H34.6149C32.7638 82.488 30.7417 82.9722 28.6058 82.9722C20.7172 82.9722 14.3379 76.5929 14.3379 68.7042C14.3379 66.0841 15.0498 63.7489 16.2744 61.6414L16.3884 61.499C10.066 60.0466 5.28156 54.3793 5.28156 47.6298C5.28156 40.8803 10.066 35.1845 16.4453 33.7605L16.4168 33.6751C15.2492 31.6246 14.5657 29.2324 14.5657 26.6977C14.5657 18.8945 20.888 12.5437 28.7197 12.5437C30.9411 12.5437 33.0201 13.1133 34.8997 14.0531L34.9282 13.9676Z" stroke="black" stroke-linecap="round" stroke-linejoin="round"/>
<path d="M48 78.7573C65.2867 78.7573 79.2984 64.7456 79.2984 47.4589C79.2984 30.1722 65.2867 16.1605 48 16.1605C30.7133 16.1605 16.7016 30.1722 16.7016 47.4589C16.7016 64.7456 30.7133 78.7573 48 78.7573Z" stroke="black" stroke-linecap="round" stroke-linejoin="round"/>
</g>
</g>
</g>
<defs>
<clipPath id="clip0_4062_21805">
<rect width="87.7152" height="88" fill="white" transform="translate(4.1424 4)"/>
</clipPath>
</defs>
</svg>
