<svg width="96" height="96" viewBox="0 0 96 96" fill="none" xmlns="http://www.w3.org/2000/svg">
<g clip-path="url(#clip0_4062_21911)">
<mask id="mask0_4062_21911" style="mask-type:luminance" maskUnits="userSpaceOnUse" x="4" y="4" width="88" height="88">
<path d="M91.8 4H4.14288V91.7143H91.8V4Z" fill="white"/>
</mask>
<g mask="url(#mask0_4062_21911)">
<path d="M25.3715 33.1429H6.11434C5.6572 33.1429 5.28577 33.5714 5.28577 34.1143V89.5714C5.28577 90.1143 5.6572 90.5428 6.11434 90.5428H25.3715C25.8286 90.5428 26.2001 90.1143 26.2001 89.5714V34.1429C26.2001 33.6 25.8286 33.1714 25.3715 33.1714V33.1429Z" stroke="black" stroke-miterlimit="10" stroke-linecap="round"/>
<path d="M26.6001 83.2857H64.8001C68.3144 83.2857 71.9144 82.6 74.8858 80.5429C77.5715 78.6571 79.6858 75.8857 80.6858 72.7429C81.0858 71.4857 81.3144 70.1714 81.343 68.8571V68" stroke="black" stroke-miterlimit="10" stroke-linecap="round"/>
<path d="M26.2001 40.6286H27.8858C27.8858 40.6286 34.3144 40.5057 37.8858 36.9143C41.4858 33.3143 42.4572 29.9143 42.4572 27.7143V10.6C42.4572 7.57142 44.8858 5.14285 47.9144 5.14285C50.7715 5.14285 53.0858 7.45714 53.0858 10.3143V23.4857C53.0858 23.4857 52.9144 29.5429 54.8286 33.3429C54.8286 33.3429 56.6001 36.5429 58.8001 38.0857C61.0001 39.6286 62.3429 40.5714 65.5429 40.6286C67.8858 40.6629 85.6858 40.6286 85.6858 40.6286C88.4286 40.6286 90.6572 42.8571 90.6572 45.6C90.6572 47.6 89.8572 49.6286 88.2572 50.8571C86.6001 52.1429 84.5144 51.9714 82.5429 51.9714L78.8286 51.9" stroke="black" stroke-miterlimit="10" stroke-linecap="round"/>
<path d="M78.8286 60.8286C83.9715 60.8286 88.1429 56.6571 88.1429 51.5143V51.1714" stroke="black" stroke-miterlimit="10" stroke-linecap="round"/>
<path d="M78.8286 68.5429C82.2572 68.5429 85.0572 66.6857 85.0572 62.3143V58.6" stroke="black" stroke-miterlimit="10" stroke-linecap="round"/>
</g>
</g>
<defs>
<clipPath id="clip0_4062_21911">
<rect width="87.7143" height="88" fill="white" transform="translate(4.14288 4)"/>
</clipPath>
</defs>
</svg>
