<svg width="96" height="96" viewBox="0 0 96 96" fill="none" xmlns="http://www.w3.org/2000/svg">
<path d="M51.8016 35.4864V38.5488C51.8016 39.024 52.3824 39.2528 52.7168 38.9184L55.6208 35.8384C55.7264 35.7328 55.8672 35.68 56.008 35.68L72.9744 35.768C73.256 35.768 73.5024 35.5392 73.5024 35.24L73.6784 22.8496C73.6784 22.5504 73.4496 22.3216 73.1504 22.3216L52.312 22.2864C52.0128 22.2864 51.784 22.5152 51.784 22.8144V35.4864H51.8016Z" stroke="black" stroke-linecap="round" stroke-linejoin="round"/>
<path d="M56.976 30.6992C57.9578 30.6992 58.7536 29.9034 58.7536 28.9216C58.7536 27.9399 57.9578 27.144 56.976 27.144C55.9943 27.144 55.1984 27.9399 55.1984 28.9216C55.1984 29.9034 55.9943 30.6992 56.976 30.6992Z" stroke="black" stroke-linecap="round" stroke-linejoin="round"/>
<path d="M62.7488 30.6992C63.7305 30.6992 64.5264 29.9034 64.5264 28.9216C64.5264 27.9399 63.7305 27.144 62.7488 27.144C61.767 27.144 60.9712 27.9399 60.9712 28.9216C60.9712 29.9034 61.767 30.6992 62.7488 30.6992Z" stroke="black" stroke-linecap="round" stroke-linejoin="round"/>
<path d="M68.5392 30.6992C69.5209 30.6992 70.3168 29.9034 70.3168 28.9216C70.3168 27.9399 69.5209 27.144 68.5392 27.144C67.5575 27.144 66.7616 27.9399 66.7616 28.9216C66.7616 29.9034 67.5575 30.6992 68.5392 30.6992Z" stroke="black" stroke-linecap="round" stroke-linejoin="round"/>
<path d="M29.2559 62.4144C32.1137 62.4144 34.4303 60.0978 34.4303 57.24C34.4303 54.3823 32.1137 52.0656 29.2559 52.0656C26.3982 52.0656 24.0815 54.3823 24.0815 57.24C24.0815 60.0978 26.3982 62.4144 29.2559 62.4144Z" stroke="black" stroke-miterlimit="10"/>
<path d="M22.0928 73.3264V71.9536C22.0928 66.92 24.68 62.5904 29.0624 62.5904C33.4448 62.5904 36.4016 66.6384 36.4016 71.848V73.3264C36.4016 73.5376 36.2608 73.7136 36.1024 73.7136H22.3744C22.216 73.7136 22.0928 73.5376 22.0928 73.3264Z" stroke="black" stroke-miterlimit="10"/>
<path d="M66.744 62.4144C69.6017 62.4144 71.9184 60.0978 71.9184 57.24C71.9184 54.3823 69.6017 52.0656 66.744 52.0656C63.8862 52.0656 61.5696 54.3823 61.5696 57.24C61.5696 60.0978 63.8862 62.4144 66.744 62.4144Z" stroke="black" stroke-miterlimit="10"/>
<path d="M59.5984 73.3264V71.9536C59.5984 66.92 62.1856 62.5904 66.568 62.5904C70.9504 62.5904 73.9072 66.6384 73.9072 71.848V73.3264C73.9072 73.5376 73.7664 73.7136 73.608 73.7136H59.88C59.7216 73.7136 59.5984 73.5376 59.5984 73.3264Z" stroke="black" stroke-miterlimit="10"/>
<path d="M48.1056 50.8864C50.9634 50.8864 53.28 48.5697 53.28 45.712C53.28 42.8543 50.9634 40.5376 48.1056 40.5376C45.2479 40.5376 42.9312 42.8543 42.9312 45.712C42.9312 48.5697 45.2479 50.8864 48.1056 50.8864Z" stroke="black" stroke-miterlimit="10"/>
<path d="M40.96 61.7984V60.4256C40.96 55.392 43.5472 51.0624 47.9296 51.0624C52.312 51.0624 55.2688 55.1104 55.2688 60.32V61.7984C55.2688 62.0096 55.128 62.1856 54.9696 62.1856H41.2416C41.0832 62.1856 40.96 62.0096 40.96 61.7984Z" stroke="black" stroke-miterlimit="10"/>
</svg>
