<svg width="96" height="96" viewBox="0 0 96 96" fill="none" xmlns="http://www.w3.org/2000/svg">
<g clip-path="url(#clip0_4062_21790)">
<mask id="mask0_4062_21790" style="mask-type:luminance" maskUnits="userSpaceOnUse" x="0" y="0" width="96" height="96">
<path d="M95.9775 0H0V95.9454H95.9775V0Z" fill="white"/>
</mask>
<g mask="url(#mask0_4062_21790)">
<path d="M47.9871 47.0946C54.2544 47.0946 59.3337 42.0152 59.3337 35.748C59.3337 29.4807 54.2544 24.4013 47.9871 24.4013C41.7198 24.4013 36.6405 29.4807 36.6405 35.748C36.6405 42.0152 41.7198 47.0946 47.9871 47.0946Z" stroke="black" stroke-miterlimit="10"/>
<path d="M63.3279 63.3247C63.3279 54.7649 56.319 47.8459 47.7271 47.9871C39.1353 48.1284 32.6497 55.1663 32.6497 63.5751V70.9083C32.6497 71.2583 32.9354 71.5441 33.2854 71.5441H62.3872C62.9073 71.5441 63.3279 71.1235 63.3279 70.6033V63.3247Z" stroke="black" stroke-miterlimit="10"/>
<path d="M12.753 88.0439C16.8691 88.0439 20.2082 84.7047 20.2082 80.5886C20.2082 76.4725 16.8691 73.1334 12.753 73.1334C8.63686 73.1334 5.29773 76.4725 5.29773 80.5886C5.29773 84.7047 8.63686 88.0439 12.753 88.0439Z" stroke="black" stroke-miterlimit="10"/>
<path d="M13.8157 22.1924C17.9318 22.1924 21.271 18.8532 21.271 14.7371C21.271 10.621 17.9318 7.28186 13.8157 7.28186C9.6996 7.28186 6.36047 10.621 6.36047 14.7371C6.36047 18.8532 9.6996 22.1924 13.8157 22.1924Z" stroke="black" stroke-miterlimit="10"/>
<path d="M9.11521 74.3117C4.20604 66.7955 1.2843 57.6835 1.2843 47.8587C1.2843 38.034 4.39547 28.3345 9.59681 20.6833" stroke="black" stroke-miterlimit="10"/>
<path d="M83.2247 88.0439C87.3408 88.0439 90.6799 84.7047 90.6799 80.5886C90.6799 76.4725 87.3408 73.1334 83.2247 73.1334C79.1085 73.1334 75.7694 76.4725 75.7694 80.5886C75.7694 84.7047 79.1085 88.0439 83.2247 88.0439Z" stroke="black" stroke-miterlimit="10"/>
<path d="M82.1586 22.1924C86.2747 22.1924 89.6139 18.8532 89.6139 14.7371C89.6139 10.621 86.2747 7.28186 82.1586 7.28186C78.0425 7.28186 74.7034 10.621 74.7034 14.7371C74.7034 18.8532 78.0425 22.1924 82.1586 22.1924Z" stroke="black" stroke-miterlimit="10"/>
<path d="M86.8623 74.3117C91.7715 66.7955 94.6932 57.6835 94.6932 47.8587C94.6932 38.034 91.5821 28.3345 86.3807 20.6833" stroke="black" stroke-miterlimit="10"/>
<path d="M77.6316 85.4882C77.1147 85.8831 76.5849 86.2651 76.0487 86.6312C75.5093 87.0004 74.9571 87.3568 74.3984 87.7003C73.8397 88.0439 73.265 88.3778 72.6871 88.6924C72.1092 89.0071 71.5152 89.3185 70.918 89.6107C70.3176 89.9061 69.7108 90.1854 69.0975 90.4519C68.4843 90.7184 67.855 90.9752 67.2289 91.2193C66.6028 91.4633 65.9575 91.6912 65.3153 91.9096C64.67 92.1279 64.0182 92.3302 63.3632 92.5228C62.705 92.7155 62.0436 92.8952 61.3758 93.059C60.708 93.2259 60.0337 93.3801 59.3595 93.5181C58.682 93.6594 58.0013 93.7846 57.3175 93.9002C56.6336 94.0158 55.9433 94.1153 55.2562 94.2052C54.5691 94.2951 53.8724 94.369 53.1789 94.4332C52.4854 94.4974 51.7854 94.5455 51.0887 94.5841C50.392 94.6226 49.692 94.6451 48.9921 94.6547C48.7032 94.6579 48.4174 94.6611 48.1284 94.6611H48.1413C47.4413 94.6611 46.7414 94.6483 46.0415 94.6226C45.3448 94.5969 44.6448 94.5584 43.9481 94.5038C43.2514 94.4524 42.5579 94.385 41.8644 94.308C41.1741 94.2309 40.4838 94.1378 39.7967 94.035C39.1096 93.9323 38.4289 93.8135 37.745 93.6851C37.0676 93.5567 36.3901 93.4122 35.7191 93.2581C35.048 93.1039 34.3834 92.9338 33.7188 92.754C33.0542 92.5742 32.4024 92.3783 31.7506 92.1728C31.0989 91.9673 30.4599 91.7458 29.821 91.5146C29.1821 91.2835 28.556 91.0395 27.9331 90.7794C27.3102 90.5193 26.7002 90.2528 26.0902 89.9671C25.4866 89.6845 24.8894 89.3892 24.2986 89.0809C23.711 88.7727 23.1331 88.4516 22.5616 88.1177C21.9933 87.787 21.4347 87.4403 20.8856 87.0807C20.3398 86.7243 19.8036 86.3518 19.2739 85.9666C19.0587 85.8092 18.8436 85.6487 18.6317 85.4882" stroke="black" stroke-miterlimit="10"/>
<path d="M19.428 9.31424C19.9674 8.94501 20.5196 8.58862 21.0783 8.24507C21.6369 7.90153 22.2117 7.56762 22.7896 7.25297C23.3707 6.9319 23.9615 6.62688 24.5587 6.33471C25.1559 6.04253 25.7659 5.75999 26.3792 5.4935C26.9956 5.2238 27.6217 4.97016 28.2478 4.72614C28.8739 4.48213 29.5192 4.25417 30.1614 4.03584C30.8067 3.81752 31.4585 3.61524 32.1135 3.4226C32.7684 3.22996 33.4331 3.05016 34.1009 2.88641C34.7687 2.71946 35.443 2.56534 36.1172 2.42728C36.7915 2.28922 37.4753 2.16079 38.1592 2.04521C38.8431 1.92962 39.5334 1.83009 40.2205 1.74019C40.9076 1.65029 41.6043 1.57645 42.2978 1.51223C42.9913 1.44802 43.6913 1.39986 44.388 1.36133C45.0847 1.3228 45.7846 1.30032 46.4846 1.29069C46.7735 1.29069 47.0593 1.28427 47.3482 1.28427H47.3354C48.0353 1.28427 48.7353 1.29711 49.4352 1.3228C50.1351 1.34849 50.8319 1.38701 51.5286 1.4416C52.2253 1.49297 52.9188 1.56039 53.6123 1.63745C54.3026 1.71451 54.9929 1.80762 55.68 1.91036C56.3671 2.0131 57.0478 2.1319 57.7317 2.26032C58.4091 2.38875 59.0866 2.53323 59.7576 2.68735C60.4287 2.84146 61.0933 3.01163 61.7579 3.19143C62.4225 3.37123 63.0743 3.56708 63.726 3.77257C64.3746 3.97805 65.0167 4.19959 65.6557 4.43076C66.2914 4.66193 66.9207 4.90594 67.5436 5.16601C68.1632 5.42287 68.7765 5.69257 69.3865 5.97832C69.9965 6.26407 70.5873 6.55624 71.1781 6.86447C71.7689 7.1727 72.3436 7.49377 72.9151 7.82768C73.4866 8.1616 74.042 8.50514 74.5911 8.86474C75.1401 9.22434 75.6731 9.59357 76.2028 9.97885C76.4179 10.1362 76.6331 10.2967 76.845 10.4572" stroke="black" stroke-miterlimit="10"/>
</g>
</g>
<defs>
<clipPath id="clip0_4062_21790">
<rect width="96" height="96" fill="white"/>
</clipPath>
</defs>
</svg>
