<svg width="96" height="96" viewBox="0 0 96 96" fill="none" xmlns="http://www.w3.org/2000/svg">
<path d="M73.1996 30.312H22.3479C22.0563 30.312 21.8199 30.5484 21.8199 30.84V34.2421C21.8199 34.5337 22.0563 34.7701 22.3479 34.7701H73.1996C73.4912 34.7701 73.7276 34.5337 73.7276 34.2421V30.84C73.7276 30.5484 73.4912 30.312 73.1996 30.312Z" stroke="black" stroke-linecap="round" stroke-linejoin="round"/>
<path d="M71.3588 59.3485L70.2852 59.7797C70.1092 59.8501 69.9068 59.8237 69.7607 59.704C69.164 59.213 68.4882 58.817 67.7525 58.5407C67.5765 58.4738 67.4533 58.3119 67.4252 58.1253L67.2632 56.9848C67.2263 56.7244 67.0028 56.5308 66.7405 56.5308H63.782C63.5197 56.5308 63.2962 56.7244 63.2592 56.9848L63.0973 58.1253C63.0709 58.3119 62.9477 58.4738 62.77 58.5407C62.0343 58.817 61.3584 59.213 60.7618 59.704C60.6157 59.8237 60.4133 59.8501 60.2373 59.7797L59.1637 59.3485C58.9191 59.25 58.641 59.3485 58.509 59.5738L57.0288 62.1364C56.8968 62.3634 56.9532 62.6538 57.1608 62.8157L58.0655 63.525C58.2151 63.6412 58.2925 63.8295 58.2626 64.0178C58.1992 64.3962 58.1658 64.7852 58.1658 65.1812C58.1658 65.5772 58.1992 65.9661 58.2626 66.3445C58.2943 66.5311 58.2151 66.7194 58.0655 66.8373L57.1608 67.5466C56.9549 67.7085 56.8986 67.9989 57.0288 68.226L58.509 70.7885C58.641 71.0156 58.9191 71.1124 59.1637 71.0138L60.2373 70.5826C60.4133 70.5122 60.6157 70.5386 60.7618 70.6583C61.3584 71.1493 62.0343 71.5453 62.77 71.8216C62.946 71.8885 63.0692 72.0504 63.0973 72.237L63.2592 73.3775C63.2962 73.638 63.5197 73.8316 63.782 73.8316H66.7405C67.0028 73.8316 67.2263 73.638 67.2632 73.3775L67.4252 72.237C67.4516 72.0504 67.5748 71.8885 67.7525 71.8216C68.4882 71.5453 69.164 71.1493 69.7607 70.6583C69.9068 70.5386 70.1092 70.5122 70.2852 70.5826L71.3588 71.0138C71.6034 71.1124 71.8815 71.0138 72.0135 70.7885L73.4936 68.226C73.6256 67.9989 73.5693 67.7085 73.3616 67.5466L72.457 66.8373C72.3074 66.7212 72.23 66.5328 72.2599 66.3445C72.3232 65.9661 72.3567 65.5772 72.3567 65.1812C72.3567 64.7852 72.3232 64.3962 72.2599 64.0178C72.2282 63.8312 72.3074 63.6429 72.457 63.525L73.3616 62.8157C73.5676 62.6538 73.6239 62.3634 73.4936 62.1364L72.0135 59.5738C71.8815 59.3468 71.6034 59.25 71.3588 59.3485Z" stroke="black" stroke-linecap="round" stroke-linejoin="round"/>
<path d="M65.2604 68.3439C67.0071 68.3439 68.4231 66.9279 68.4231 65.1812C68.4231 63.4344 67.0071 62.0184 65.2604 62.0184C63.5137 62.0184 62.0977 63.4344 62.0977 65.1812C62.0977 66.9279 63.5137 68.3439 65.2604 68.3439Z" stroke="black" stroke-linecap="round" stroke-linejoin="round"/>
<path d="M39.2035 56.888V52.3208" stroke="black" stroke-linecap="round" stroke-linejoin="round"/>
<path d="M43.7513 56.888V47.9155" stroke="black" stroke-linecap="round" stroke-linejoin="round"/>
<path d="M48.0299 56.888V47.8821" stroke="black" stroke-linecap="round" stroke-linejoin="round"/>
<path d="M52.4 56.888V43.9414" stroke="black" stroke-linecap="round" stroke-linejoin="round"/>
<path d="M56.8105 56.888V39.2" stroke="black" stroke-linecap="round" stroke-linejoin="round"/>
<path d="M47.9067 25.5723V30.3119" stroke="black" stroke-linejoin="round"/>
<path d="M48 25.5741C49.0974 25.5741 49.987 24.6844 49.987 23.587C49.987 22.4896 49.0974 21.6 48 21.6C46.9026 21.6 46.0129 22.4896 46.0129 23.587C46.0129 24.6844 46.9026 25.5741 48 25.5741Z" stroke="black" stroke-linejoin="round"/>
<path d="M57.9581 69.9999H26.44C26.1478 69.9999 25.912 69.7641 25.912 69.4719V35.298C25.912 35.0059 26.1478 34.77 26.44 34.77H69.3206C69.6128 34.77 69.8486 35.0059 69.8486 35.298V59.7039" stroke="black" stroke-linecap="round" stroke-linejoin="round"/>
</svg>
