<svg width="96" height="96" viewBox="0 0 96 96" fill="none" xmlns="http://www.w3.org/2000/svg">
<g clip-path="url(#clip0_4062_21799)">
<mask id="mask0_4062_21799" style="mask-type:luminance" maskUnits="userSpaceOnUse" x="4" y="4" width="88" height="88">
<path d="M92 4H4V91.9706H92V4Z" fill="white"/>
</mask>
<g mask="url(#mask0_4062_21799)">
<path d="M70.0736 25.8675H75.7538C76.4602 25.8675 76.8722 25.0729 76.4896 24.4842L63.4221 5.5304C63.0689 5.03007 62.3331 5.03007 61.9799 5.5304L48.9418 24.4548C48.5298 25.0729 48.9712 25.8381 49.6776 25.8381H55.3578V69.1612C55.3578 69.6615 55.7405 70.0441 56.2408 70.0441H69.1906C69.691 70.0441 70.0736 69.6615 70.0736 69.1612V25.8675Z" stroke="black" stroke-miterlimit="10"/>
<path d="M47.1171 40.6421H34.1672C33.6669 40.6421 33.2843 41.0247 33.2843 41.525V69.1906C33.2843 69.6909 33.6669 70.0735 34.1672 70.0735H47.1171C47.6174 70.0735 48 69.6909 48 69.1906V41.525C48 41.0247 47.6174 40.6421 47.1171 40.6421Z" stroke="black" stroke-miterlimit="10"/>
<path d="M25.0435 55.3578H12.0936C11.5933 55.3578 11.2107 55.7404 11.2107 56.2407V69.1906C11.2107 69.6909 11.5933 70.0735 12.0936 70.0735H25.0435C25.5438 70.0735 25.9264 69.6909 25.9264 69.1906V56.2407C25.9264 55.7404 25.5438 55.3578 25.0435 55.3578Z" stroke="black" stroke-miterlimit="10"/>
<path d="M53.2094 25.8676H6.06019C5.55985 25.8676 5.17725 26.2502 5.17725 26.7505V76.5485C5.17725 77.0488 5.55985 77.4314 6.06019 77.4314H89.9398C90.4401 77.4314 90.8227 77.0488 90.8227 76.5485V26.7505C90.8227 26.2502 90.4401 25.8676 89.9398 25.8676H75.7538" stroke="black" stroke-miterlimit="10"/>
<path d="M40.4067 77.4314V91.2936" stroke="black" stroke-miterlimit="10"/>
<path d="M55.3579 77.4314V91.2936" stroke="black" stroke-miterlimit="10"/>
<path d="M33.2843 90.7933H62.7157" stroke="black" stroke-miterlimit="10" stroke-linecap="round"/>
</g>
</g>
<defs>
<clipPath id="clip0_4062_21799">
<rect width="88" height="88" fill="white" transform="translate(4 4)"/>
</clipPath>
</defs>
</svg>
