<svg width="96" height="96" viewBox="0 0 96 96" fill="none" xmlns="http://www.w3.org/2000/svg">
<path d="M73.1996 30.312H22.3479C22.0563 30.312 21.8199 30.5484 21.8199 30.84V34.2421C21.8199 34.5337 22.0563 34.7701 22.3479 34.7701H73.1996C73.4912 34.7701 73.7276 34.5337 73.7276 34.2421V30.84C73.7276 30.5484 73.4912 30.312 73.1996 30.312Z" stroke="black" stroke-linecap="round" stroke-linejoin="round"/>
<path d="M39.2035 60.9501V56.3829" stroke="black" stroke-linecap="round" stroke-linejoin="round"/>
<path d="M43.7513 60.9501V51.9777" stroke="black" stroke-linecap="round" stroke-linejoin="round"/>
<path d="M48.0299 60.9501V51.9442" stroke="black" stroke-linecap="round" stroke-linejoin="round"/>
<path d="M52.4 60.9501V48.0035" stroke="black" stroke-linecap="round" stroke-linejoin="round"/>
<path d="M56.8105 60.9501V43.2621" stroke="black" stroke-linecap="round" stroke-linejoin="round"/>
<path d="M47.9067 25.5723V30.3119" stroke="black" stroke-linejoin="round"/>
<path d="M48 25.5741C49.0974 25.5741 49.987 24.6844 49.987 23.587C49.987 22.4896 49.0974 21.6 48 21.6C46.9026 21.6 46.0129 22.4896 46.0129 23.587C46.0129 24.6844 46.9026 25.5741 48 25.5741Z" stroke="black" stroke-linejoin="round"/>
<path fill-rule="evenodd" clip-rule="evenodd" d="M69.2925 34.77H26.44C26.1478 34.77 25.912 35.0059 25.912 35.298V69.4719C25.912 69.7641 26.1478 69.9999 26.44 69.9999H69.3189C69.611 69.9999 69.8486 69.7641 69.8469 69.4702C69.831 65.4204 69.7272 39.3918 69.8205 35.3086C69.8275 35.0129 69.5881 34.77 69.2925 34.77Z" stroke="black" stroke-linecap="round" stroke-linejoin="round"/>
</svg>
