<svg width="96" height="96" viewBox="0 0 96 96" fill="none" xmlns="http://www.w3.org/2000/svg">
<path d="M72.096 49.5303V29.376C72.096 29.0573 71.8387 28.8 71.52 28.8H20.6188C20.3001 28.8 20.0428 29.0573 20.0428 29.376V56.6938C20.0428 57.0125 20.3001 57.2698 20.6188 57.2698H33.0316C33.3465 57.2698 33.6038 57.5232 33.6076 57.8381L33.7094 65.2474C33.7171 65.7658 34.3507 66.0116 34.7059 65.6333L43.3651 56.3808" stroke="black" stroke-linejoin="round"/>
<path d="M75.4982 49.5303H43.9411C43.6224 49.5303 43.3651 49.7876 43.3651 50.1063V71.0132C43.3651 71.3319 43.6224 71.5892 43.9411 71.5892H57.5654C57.6518 71.5892 57.7363 71.6084 57.815 71.6468L66.0768 75.6154C66.4589 75.7997 66.9024 75.5213 66.9024 75.097V72.578C66.9024 72.2592 67.1597 72.002 67.4784 72.002H75.4982C75.817 72.002 76.0742 71.7447 76.0742 71.426V50.1082C76.0742 49.7895 75.817 49.5322 75.4982 49.5322V49.5303Z" stroke="black" stroke-linejoin="round"/>
<path d="M50.4 61.8951C51.4466 61.8951 52.2951 61.0466 52.2951 60C52.2951 58.9534 51.4466 58.105 50.4 58.105C49.3534 58.105 48.505 58.9534 48.505 60C48.505 61.0466 49.3534 61.8951 50.4 61.8951Z" stroke="black" stroke-linejoin="round"/>
<path d="M60 61.8951C61.0466 61.8951 61.8951 61.0466 61.8951 60C61.8951 58.9534 61.0466 58.105 60 58.105C58.9534 58.105 58.105 58.9534 58.105 60C58.105 61.0466 58.9534 61.8951 60 61.8951Z" stroke="black" stroke-linejoin="round"/>
<path d="M69.3792 61.8951C70.4258 61.8951 71.2742 61.0466 71.2742 60C71.2742 58.9534 70.4258 58.105 69.3792 58.105C68.3326 58.105 67.4841 58.9534 67.4841 60C67.4841 61.0466 68.3326 61.8951 69.3792 61.8951Z" stroke="black" stroke-linejoin="round"/>
</svg>
