<svg width="96" height="96" viewBox="0 0 96 96" fill="none" xmlns="http://www.w3.org/2000/svg">
<path d="M30.4299 65.3554V26.7956C30.4299 26.5034 30.6658 26.2676 30.9579 26.2676H65.1706C65.4627 26.2676 65.6986 26.5034 65.6986 26.7956V73.5394C65.6986 73.8316 65.4627 74.0674 65.1706 74.0674H34.8387" stroke="black" stroke-linejoin="round"/>
<path d="M65.1512 73.2771L60.9694 65.915C60.8761 65.7495 60.7001 65.6475 60.51 65.6475H26.8624C26.396 65.6475 26.1584 66.2071 26.4822 66.5433L33.6032 73.9054C33.7035 74.0075 33.839 74.0655 33.9833 74.0655H64.6918C65.0966 74.0655 65.35 73.6291 65.1512 73.2771Z" stroke="black" stroke-linecap="round" stroke-linejoin="round"/>
<path d="M39.2 39.2H56.8" stroke="black" stroke-linecap="round" stroke-linejoin="round"/>
<path d="M39.2 47.6973H56.8" stroke="black" stroke-linecap="round" stroke-linejoin="round"/>
<path d="M38.3306 56.4973H55.9306" stroke="black" stroke-linecap="round" stroke-linejoin="round"/>
</svg>
