<svg width="96" height="96" viewBox="0 0 96 96" fill="none" xmlns="http://www.w3.org/2000/svg">
<g clip-path="url(#clip0_4062_21858)">
<mask id="mask0_4062_21858" style="mask-type:luminance" maskUnits="userSpaceOnUse" x="0" y="0" width="96" height="96">
<path d="M95.9775 0H0V95.9454H95.9775V0Z" fill="white"/>
</mask>
<g mask="url(#mask0_4062_21858)">
<path d="M12.7529 88.0439C16.869 88.0439 20.2082 84.7048 20.2082 80.5887C20.2082 76.4726 16.869 73.1334 12.7529 73.1334C8.6368 73.1334 5.29767 76.4726 5.29767 80.5887C5.29767 84.7048 8.6368 88.0439 12.7529 88.0439Z" stroke="black" stroke-miterlimit="10"/>
<path d="M13.8157 22.1924C17.9318 22.1924 21.2709 18.8533 21.2709 14.7372C21.2709 10.6211 17.9318 7.28192 13.8157 7.28192C9.69954 7.28192 6.36041 10.6211 6.36041 14.7372C6.36041 18.8533 9.69954 22.1924 13.8157 22.1924Z" stroke="black" stroke-miterlimit="10"/>
<path d="M9.11521 74.3117C4.20604 66.7955 1.2843 57.6835 1.2843 47.8587C1.2843 38.034 4.39547 28.3345 9.59681 20.6833" stroke="black" stroke-miterlimit="10"/>
<path d="M83.2247 88.0439C87.3408 88.0439 90.6799 84.7048 90.6799 80.5887C90.6799 76.4726 87.3408 73.1334 83.2247 73.1334C79.1085 73.1334 75.7694 76.4726 75.7694 80.5887C75.7694 84.7048 79.1085 88.0439 83.2247 88.0439Z" stroke="black" stroke-miterlimit="10"/>
<path d="M82.1587 22.1924C86.2748 22.1924 89.6139 18.8533 89.6139 14.7372C89.6139 10.6211 86.2748 7.28192 82.1587 7.28192C78.0426 7.28192 74.7034 10.6211 74.7034 14.7372C74.7034 18.8533 78.0426 22.1924 82.1587 22.1924Z" stroke="black" stroke-miterlimit="10"/>
<path d="M86.8623 74.3117C91.7715 66.7955 94.6932 57.6835 94.6932 47.8587C94.6932 38.034 91.5821 28.3345 86.3807 20.6833" stroke="black" stroke-miterlimit="10"/>
<path d="M77.6316 85.4882C77.1147 85.8831 76.5849 86.2651 76.0487 86.6312C75.5093 87.0004 74.9571 87.3568 74.3984 87.7003C73.8397 88.0439 73.265 88.3778 72.6871 88.6924C72.1092 89.0071 71.5152 89.3185 70.918 89.6107C70.3176 89.9061 69.7108 90.1854 69.0975 90.4519C68.4843 90.7184 67.855 90.9752 67.2289 91.2193C66.6028 91.4633 65.9575 91.6912 65.3153 91.9096C64.67 92.1279 64.0182 92.3302 63.3632 92.5228C62.705 92.7155 62.0436 92.8952 61.3758 93.059C60.708 93.2259 60.0337 93.3801 59.3595 93.5181C58.682 93.6594 58.0013 93.7846 57.3175 93.9002C56.6336 94.0158 55.9433 94.1153 55.2562 94.2052C54.5691 94.2951 53.8724 94.369 53.1789 94.4332C52.4854 94.4974 51.7854 94.5455 51.0887 94.5841C50.392 94.6226 49.692 94.6451 48.9921 94.6547C48.7032 94.6579 48.4174 94.6611 48.1284 94.6611H48.1413C47.4413 94.6611 46.7414 94.6483 46.0415 94.6226C45.3448 94.5969 44.6448 94.5584 43.9481 94.5038C43.2514 94.4524 42.5579 94.385 41.8644 94.308C41.1741 94.2309 40.4838 94.1378 39.7967 94.035C39.1096 93.9323 38.4289 93.8135 37.745 93.6851C37.0676 93.5567 36.3901 93.4122 35.7191 93.2581C35.048 93.1039 34.3834 92.9338 33.7188 92.754C33.0606 92.5742 32.4024 92.3783 31.7506 92.1728C31.0989 91.9673 30.4599 91.7458 29.821 91.5146C29.1821 91.2835 28.556 91.0395 27.9331 90.7794C27.3102 90.5193 26.7002 90.2528 26.0902 89.9671C25.4866 89.6845 24.8894 89.3892 24.2986 89.0809C23.711 88.7727 23.1331 88.4516 22.5616 88.1177C21.9933 87.787 21.4347 87.4403 20.8856 87.0807C20.3398 86.7243 19.8036 86.3518 19.2739 85.9666C19.0587 85.8092 18.8436 85.6487 18.6317 85.4882" stroke="black" stroke-miterlimit="10"/>
<path d="M19.428 9.31427C19.9674 8.94504 20.5196 8.58865 21.0783 8.2451C21.6369 7.90156 22.2117 7.56765 22.7896 7.253C23.3707 6.93193 23.9615 6.62691 24.5587 6.33474C25.1559 6.04256 25.7659 5.76002 26.3792 5.49353C26.9956 5.22383 27.6217 4.97019 28.2478 4.72617C28.8739 4.48216 29.5192 4.2542 30.1614 4.03587C30.8067 3.81755 31.4585 3.61527 32.1135 3.42263C32.7684 3.22999 33.4331 3.05019 34.1009 2.88644C34.7687 2.71949 35.443 2.56537 36.1172 2.42731C36.7915 2.28925 37.4753 2.16082 38.1592 2.04524C38.8431 1.92965 39.5334 1.83012 40.2205 1.74022C40.9076 1.65032 41.6043 1.57648 42.2978 1.51226C42.9913 1.44805 43.6913 1.39989 44.388 1.36136C45.0847 1.32283 45.7846 1.30036 46.4846 1.29072C46.7735 1.29072 47.0593 1.2843 47.3482 1.2843H47.3354C48.0353 1.2843 48.7353 1.29714 49.4352 1.32283C50.1351 1.34852 50.8319 1.38704 51.5286 1.44163C52.2253 1.493 52.9188 1.56042 53.6123 1.63748C54.3026 1.71454 54.9929 1.80765 55.68 1.91039C56.3671 2.01313 57.0478 2.13193 57.7317 2.26036C58.4091 2.38878 59.0866 2.53326 59.7576 2.68738C60.4287 2.84149 61.0933 3.01166 61.7579 3.19146C62.4225 3.37126 63.0743 3.56711 63.726 3.7726C64.3746 3.97808 65.0167 4.19962 65.6557 4.43079C66.2914 4.66196 66.9207 4.90597 67.5436 5.16604C68.1632 5.4229 68.7765 5.6926 69.3865 5.97835C69.9965 6.2641 70.5873 6.55627 71.1781 6.8645C71.7689 7.17273 72.3436 7.4938 72.9151 7.82771C73.4866 8.16163 74.042 8.50517 74.5911 8.86477C75.1401 9.22437 75.6731 9.5936 76.2028 9.97888C76.4179 10.1362 76.6331 10.2967 76.845 10.4573" stroke="black" stroke-miterlimit="10"/>
<path d="M47.9261 61.0451C55.2465 61.0451 61.1799 55.1117 61.1799 47.7913C61.1799 40.4709 55.2465 34.5375 47.9261 34.5375C40.6057 34.5375 34.6724 40.4709 34.6724 47.7913C34.6724 55.1117 40.6057 61.0451 47.9261 61.0451Z" stroke="black" stroke-miterlimit="10"/>
<path d="M47.9872 77.5417H43.3413C42.8918 77.5417 42.529 77.1789 42.529 76.7294V73.5701C42.529 73.1944 42.2722 72.8637 41.9061 72.7802C38.7019 72.0418 36.3612 70.8538 33.7895 68.9659C33.4684 68.7316 33.0253 68.7669 32.7428 69.043L31.5099 70.2598C31.192 70.5745 30.6815 70.5713 30.3669 70.2598L25.7691 65.6621C25.4513 65.3443 25.4513 64.8305 25.7691 64.5127L27.4227 62.8592C27.6859 62.5959 27.7373 62.1914 27.5479 61.8735C26.1512 59.5136 24.1542 56.0364 23.4639 53.3459C23.3707 52.9863 23.0561 52.7294 22.6869 52.7262L19.2932 52.6813C18.8501 52.6748 18.4905 52.312 18.4905 51.8689V43.8197C18.4905 43.3734 18.8501 43.0106 19.2964 43.0074L22.796 42.9849C23.1588 42.9849 23.4703 42.7377 23.573 42.3877C24.3179 39.832 26.4851 36.4865 27.8818 34.2647C28.0744 33.9564 28.0391 33.5615 27.7983 33.2918L25.7724 31.0379C25.4834 30.7168 25.4962 30.2256 25.8012 29.9206L29.6412 26.0806C29.9591 25.7627 30.4696 25.7627 30.7875 26.0806L32.5758 27.8593C32.8487 28.129 33.2758 28.1772 33.5968 27.9621C36.0787 26.2829 38.8399 25.0564 41.874 24.3918C42.2529 24.3083 42.5258 23.9808 42.5226 23.5923L42.5065 19.2257C42.5065 18.7762 42.8693 18.4102 43.3188 18.4102H52.6491C53.0986 18.4102 53.4647 18.7762 53.4614 19.2257L53.4454 23.5923C53.4454 23.9808 53.7183 24.3083 54.094 24.3918C57.1281 25.0564 59.8893 26.2829 62.3711 27.9621C62.689 28.1772 63.1192 28.1322 63.3922 27.8593L65.1805 26.0806C65.4984 25.7659 66.0121 25.7659 66.3267 26.0806L70.1667 29.9206C70.4717 30.2256 70.4846 30.7168 70.1956 31.0379L68.1697 33.2918C67.9289 33.5615 67.8936 33.9596 68.0862 34.2647C69.4829 36.4865 71.6501 39.832 72.395 42.3877C72.4977 42.7377 72.8091 42.9817 73.1719 42.9849L76.6716 43.0074C77.1179 43.0074 77.4775 43.3734 77.4775 43.8197V51.8689C77.4775 52.312 77.1211 52.6748 76.6748 52.6813L73.2811 52.7262C72.9119 52.7326 72.594 52.9863 72.5041 53.3459C71.8138 56.0364 69.82 59.5168 68.4201 61.8735C68.2307 62.1914 68.2821 62.5991 68.5453 62.8592L70.1988 64.5127C70.5167 64.8305 70.5167 65.3443 70.1988 65.6621L65.6011 70.2598C65.2865 70.5745 64.776 70.5777 64.4581 70.2598L63.2252 69.043C62.9427 68.7637 62.4996 68.7283 62.1785 68.9659C59.6067 70.8538 57.2661 72.0418 54.0619 72.7802C53.6958 72.8637 53.439 73.1944 53.439 73.5701V76.7294C53.439 77.1789 53.0762 77.5417 52.6267 77.5417H47.9808H47.9872Z" stroke="black" stroke-miterlimit="10"/>
</g>
</g>
<defs>
<clipPath id="clip0_4062_21858">
<rect width="96" height="96" fill="white"/>
</clipPath>
</defs>
</svg>
