<svg width="96" height="96" viewBox="0 0 96 96" fill="none" xmlns="http://www.w3.org/2000/svg">
<g clip-path="url(#clip0_4062_21738)">
<mask id="mask0_4062_21738" style="mask-type:luminance" maskUnits="userSpaceOnUse" x="0" y="0" width="96" height="96">
<path d="M95.9775 0H0V95.9454H95.9775V0Z" fill="white"/>
</mask>
<g mask="url(#mask0_4062_21738)">
<path d="M12.7529 88.0439C16.869 88.0439 20.2081 84.7048 20.2081 80.5887C20.2081 76.4726 16.869 73.1334 12.7529 73.1334C8.63677 73.1334 5.29764 76.4726 5.29764 80.5887C5.29764 84.7048 8.63677 88.0439 12.7529 88.0439Z" stroke="black" stroke-miterlimit="10"/>
<path d="M13.8156 22.1924C17.9318 22.1924 21.2709 18.8533 21.2709 14.7372C21.2709 10.6211 17.9318 7.28192 13.8156 7.28192C9.69951 7.28192 6.36038 10.6211 6.36038 14.7372C6.36038 18.8533 9.69951 22.1924 13.8156 22.1924Z" stroke="black" stroke-miterlimit="10"/>
<path d="M9.11517 74.3117C4.20601 66.7955 1.28427 57.6835 1.28427 47.8587C1.28427 38.034 4.39544 28.3345 9.59678 20.6833" stroke="black" stroke-miterlimit="10"/>
<path d="M83.2246 88.0439C87.3407 88.0439 90.6798 84.7048 90.6798 80.5887C90.6798 76.4726 87.3407 73.1334 83.2246 73.1334C79.1085 73.1334 75.7693 76.4726 75.7693 80.5887C75.7693 84.7048 79.1085 88.0439 83.2246 88.0439Z" stroke="black" stroke-miterlimit="10"/>
<path d="M82.1587 22.1924C86.2748 22.1924 89.6139 18.8533 89.6139 14.7372C89.6139 10.6211 86.2748 7.28192 82.1587 7.28192C78.0425 7.28192 74.7034 10.6211 74.7034 14.7372C74.7034 18.8533 78.0425 22.1924 82.1587 22.1924Z" stroke="black" stroke-miterlimit="10"/>
<path d="M86.8623 74.3117C91.7715 66.7955 94.6932 57.6835 94.6932 47.8587C94.6932 38.034 91.5821 28.3345 86.3807 20.6833" stroke="black" stroke-miterlimit="10"/>
<path d="M77.6315 85.4882C77.1146 85.8831 76.5849 86.2651 76.0487 86.6312C75.5093 87.0004 74.957 87.3568 74.3984 87.7003C73.8397 88.0439 73.265 88.3778 72.6871 88.6924C72.1091 89.0071 71.5152 89.3185 70.918 89.6107C70.3176 89.9061 69.7107 90.1854 69.0975 90.4519C68.4843 90.7184 67.855 90.9752 67.2289 91.2193C66.6028 91.4633 65.9574 91.6912 65.3153 91.9096C64.6699 92.1279 64.0182 92.3302 63.3632 92.5228C62.705 92.7155 62.0436 92.8952 61.3758 93.059C60.7079 93.2259 60.0337 93.3801 59.3594 93.5181C58.682 93.6594 58.0013 93.7846 57.3174 93.9002C56.6336 94.0158 55.9433 94.1153 55.2562 94.2052C54.5691 94.2951 53.8724 94.369 53.1788 94.4332C52.4853 94.4974 51.7854 94.5455 51.0887 94.5841C50.3919 94.6226 49.692 94.6451 48.9921 94.6547C48.7031 94.6579 48.4174 94.6611 48.1284 94.6611H48.1412C47.4413 94.6611 46.7414 94.6483 46.0414 94.6226C45.3447 94.5969 44.6448 94.5584 43.9481 94.5038C43.2514 94.4524 42.5578 94.385 41.8643 94.308C41.174 94.2309 40.4837 94.1378 39.7966 94.035C39.1095 93.9323 38.4289 93.8135 37.745 93.6851C37.0675 93.5567 36.3901 93.4122 35.719 93.2581C35.048 93.1039 34.3834 92.9338 33.7188 92.754C33.0606 92.5742 32.4024 92.3783 31.7506 92.1728C31.0988 91.9673 30.4599 91.7458 29.821 91.5146C29.1821 91.2835 28.556 91.0395 27.9331 90.7794C27.3102 90.5193 26.7002 90.2528 26.0901 89.9671C25.4865 89.6845 24.8893 89.3892 24.2986 89.0809C23.711 88.7727 23.1331 88.4516 22.5616 88.1177C21.9933 87.787 21.4346 87.4403 20.8856 87.0807C20.3398 86.7243 19.8036 86.3518 19.2738 85.9666C19.0587 85.8092 18.8436 85.6487 18.6317 85.4882" stroke="black" stroke-miterlimit="10"/>
<path d="M19.4279 9.31427C19.9673 8.94504 20.5196 8.58865 21.0783 8.2451C21.6369 7.90156 22.2116 7.56765 22.7896 7.253C23.3707 6.93193 23.9615 6.62691 24.5587 6.33474C25.1558 6.04256 25.7659 5.76002 26.3791 5.49353C26.9956 5.22383 27.6217 4.97019 28.2477 4.72617C28.8738 4.48216 29.5192 4.2542 30.1613 4.03587C30.8067 3.81755 31.4584 3.61527 32.1134 3.42263C32.7684 3.22999 33.433 3.05019 34.1009 2.88644C34.7687 2.71949 35.4429 2.56537 36.1172 2.42731C36.7914 2.28925 37.4753 2.16082 38.1592 2.04524C38.8431 1.92965 39.5334 1.83012 40.2205 1.74022C40.9075 1.65032 41.6043 1.57648 42.2978 1.51226C42.9913 1.44805 43.6912 1.39989 44.388 1.36136C45.0847 1.32283 45.7846 1.30036 46.4845 1.29072C46.7735 1.29072 47.0593 1.2843 47.3482 1.2843H47.3354C48.0353 1.2843 48.7352 1.29714 49.4352 1.32283C50.1351 1.34852 50.8318 1.38704 51.5286 1.44163C52.2253 1.493 52.9188 1.56042 53.6123 1.63748C54.3026 1.71454 54.9929 1.80765 55.68 1.91039C56.3671 2.01313 57.0478 2.13193 57.7316 2.26036C58.4091 2.38878 59.0865 2.53326 59.7576 2.68738C60.4286 2.84149 61.0932 3.01166 61.7579 3.19146C62.4225 3.37126 63.0742 3.56711 63.726 3.7726C64.3746 3.97808 65.0167 4.19962 65.6556 4.43079C66.2914 4.66196 66.9207 4.90597 67.5435 5.16604C68.1632 5.4229 68.7764 5.6926 69.3865 5.97835C69.9965 6.2641 70.5873 6.55627 71.1781 6.8645C71.7688 7.17273 72.3435 7.4938 72.915 7.82771C73.4866 8.16163 74.042 8.50517 74.591 8.86477C75.1401 9.22437 75.673 9.5936 76.2028 9.97888C76.4179 10.1362 76.633 10.2967 76.8449 10.4573" stroke="black" stroke-miterlimit="10"/>
<path d="M28.0615 31.9947H77.7632C78.1774 31.9947 78.4696 32.3992 78.3379 32.7941L68.6352 61.9056C68.5517 62.1528 68.3205 62.3197 68.0605 62.3197H33.6321C33.3367 62.3197 33.0831 62.1046 33.0349 61.8125L27.3102 27.4451C27.2621 27.1529 27.0084 26.9378 26.713 26.9378H17.9575" stroke="black" stroke-miterlimit="10" stroke-linecap="round"/>
<path d="M33.6321 62.3198C33.6321 62.3198 31.7057 63.3921 31.7057 65.2447C31.7057 67.0973 33.1184 67.3734 33.1184 67.3734H63.4435" stroke="black" stroke-miterlimit="10" stroke-linecap="round"/>
<path d="M38.1752 74.6681C40.0952 74.6681 41.6492 73.1141 41.6492 71.1941C41.6492 69.2741 40.0952 67.7202 38.1752 67.7202C36.2552 67.7202 34.7013 69.2741 34.7013 71.1941C34.7013 73.1141 36.2552 74.6681 38.1752 74.6681Z" stroke="black" stroke-miterlimit="10" stroke-linecap="round"/>
<path d="M58.255 74.6681C60.175 74.6681 61.729 73.1141 61.729 71.1941C61.729 69.2741 60.175 67.7202 58.255 67.7202C56.335 67.7202 54.781 69.2741 54.781 71.1941C54.781 73.1141 56.335 74.6681 58.255 74.6681Z" stroke="black" stroke-miterlimit="10" stroke-linecap="round"/>
</g>
</g>
<defs>
<clipPath id="clip0_4062_21738">
<rect width="96" height="96" fill="white"/>
</clipPath>
</defs>
</svg>
