<svg width="96" height="96" viewBox="0 0 96 96" fill="none" xmlns="http://www.w3.org/2000/svg">
<g clip-path="url(#clip0_4062_21740)">
<mask id="mask0_4062_21740" style="mask-type:luminance" maskUnits="userSpaceOnUse" x="0" y="0" width="96" height="96">
<path d="M95.8272 0H0V95.9519H95.8272V0Z" fill="white"/>
</mask>
<g mask="url(#mask0_4062_21740)">
<path d="M2.24003 1.2843H21.6576C21.9328 1.2843 22.1952 1.4031 22.3776 1.60858L27.12 6.99935C27.2736 7.17594 27.36 7.40069 27.36 7.63828V32.563C27.36 33.0959 26.9312 33.5262 26.4 33.5262H2.36163C1.83363 33.5262 1.40483 33.0959 1.40163 32.5662L1.28003 2.25072C1.28003 1.71775 1.70883 1.2843 2.24003 1.2843Z" stroke="black" stroke-linecap="round" stroke-linejoin="round"/>
<path d="M7.7984 13.2634H20.8416" stroke="black" stroke-linecap="round" stroke-linejoin="round"/>
<path d="M7.7984 23.3547H20.8416" stroke="black" stroke-linecap="round" stroke-linejoin="round"/>
<path d="M35.8336 1.2843H55.2512C55.5264 1.2843 55.7888 1.4031 55.9712 1.60858L60.7136 6.99935C60.8672 7.17594 60.9536 7.40069 60.9536 7.63828V32.563C60.9536 33.0959 60.5248 33.5262 59.9936 33.5262H35.952C35.424 33.5262 34.9952 33.0959 34.992 32.5662L34.8704 2.25072C34.8704 1.71775 35.2992 1.2843 35.8304 1.2843H35.8336Z" stroke="black" stroke-linecap="round" stroke-linejoin="round"/>
<path d="M41.3889 13.2634H54.4321" stroke="black" stroke-linecap="round" stroke-linejoin="round"/>
<path d="M41.3889 23.3547H54.4321" stroke="black" stroke-linecap="round" stroke-linejoin="round"/>
<path d="M69.424 1.2843H88.8416C89.1168 1.2843 89.3792 1.4031 89.5616 1.60858L94.304 6.99935C94.4576 7.17594 94.544 7.40069 94.544 7.63828V32.563C94.544 33.0959 94.1152 33.5262 93.584 33.5262H69.5424C69.0144 33.5262 68.5856 33.0959 68.5824 32.5662L68.4608 2.25072C68.4608 1.71775 68.8896 1.2843 69.4208 1.2843H69.424Z" stroke="black" stroke-linecap="round" stroke-linejoin="round"/>
<path d="M74.9824 13.2634H88.0256" stroke="black" stroke-linecap="round" stroke-linejoin="round"/>
<path d="M74.9824 23.3547H88.0256" stroke="black" stroke-linecap="round" stroke-linejoin="round"/>
<path d="M14.272 33.5262V45.9163C14.272 46.4493 14.7008 46.8795 15.232 46.8795H82.3776C82.9088 46.8795 83.3376 46.4493 83.3376 45.9163V33.5262" stroke="black" stroke-linecap="round" stroke-linejoin="round"/>
<path d="M47.648 33.5262V60.2778" stroke="black" stroke-linecap="round" stroke-linejoin="round"/>
<path d="M52.8224 55.9497L48.2528 61.9377C47.8464 62.4707 47.0304 62.4322 46.6752 61.8606L42.9984 55.9465" stroke="black" stroke-miterlimit="10" stroke-linecap="round"/>
<path d="M47.8176 87.2445C51.136 87.2445 53.8272 84.5443 53.8272 81.2148C53.8272 77.8853 51.136 75.1851 47.8176 75.1851C44.4992 75.1851 41.808 77.8853 41.808 81.2148C41.808 84.5443 44.4992 87.2445 47.8176 87.2445Z" stroke="black" stroke-miterlimit="10"/>
<path d="M47.8176 94.6676H45.712C45.5072 94.6676 45.344 94.5006 45.344 94.2984V92.86C45.344 92.6898 45.2256 92.5389 45.0624 92.5004C43.6096 92.1632 42.5472 91.6238 41.3824 90.7634C41.2384 90.6574 41.0368 90.6735 40.9088 90.7987L40.3488 91.3509C40.2048 91.4922 39.9744 91.4922 39.8304 91.3509L37.7472 89.2608C37.6032 89.1163 37.6032 88.8819 37.7472 88.7374L38.496 87.9861C38.6144 87.8673 38.64 87.6811 38.5536 87.5366C37.92 86.4642 37.0144 84.8814 36.7008 83.6549C36.6592 83.4911 36.5152 83.3756 36.3488 83.3723L34.8096 83.3531C34.608 83.3531 34.4448 83.1861 34.4448 82.9838V79.3204C34.4448 79.1182 34.608 78.9512 34.8096 78.9512L36.3968 78.9416C36.5632 78.9416 36.704 78.8292 36.7488 78.6687C37.088 77.5064 38.0704 75.9845 38.704 74.9731C38.7904 74.8319 38.7744 74.6521 38.6656 74.5301L37.7472 73.5058C37.616 73.3582 37.6224 73.1366 37.76 72.9986L39.5008 71.2519C39.6448 71.1075 39.8784 71.1075 40.0224 71.2519L40.8352 72.061C40.96 72.183 41.152 72.2055 41.296 72.1092C42.4224 71.345 43.6736 70.7864 45.0496 70.4846C45.2224 70.446 45.344 70.2984 45.344 70.1218L45.3376 68.1343C45.3376 67.9289 45.5008 67.7619 45.7056 67.7619H49.936C50.1408 67.7619 50.304 67.9289 50.304 68.1343L50.2976 70.1218C50.2976 70.2984 50.4224 70.4493 50.592 70.4846C51.968 70.7864 53.2192 71.345 54.3456 72.1092C54.4896 72.2087 54.6848 72.1862 54.8064 72.061L55.6192 71.2519C55.7632 71.1075 55.9968 71.1075 56.1408 71.2519L57.8816 72.9986C58.0192 73.1366 58.0256 73.3614 57.8944 73.5058L56.976 74.5301C56.8672 74.6521 56.8512 74.8351 56.9376 74.9731C57.5712 75.9845 58.5536 77.5064 58.8928 78.6687C58.9376 78.826 59.0816 78.9384 59.2448 78.9416L60.832 78.9512C61.0336 78.9512 61.1968 79.1182 61.1968 79.3204V82.9838C61.1968 83.1861 61.0336 83.3499 60.832 83.3531L59.2928 83.3723C59.1232 83.3723 58.9824 83.4911 58.9408 83.6549C58.6272 84.8814 57.7216 86.461 57.088 87.5366C57.0016 87.6811 57.0272 87.8673 57.1456 87.9861L57.8944 88.7374C58.0384 88.8819 58.0384 89.1163 57.8944 89.2608L55.8112 91.3509C55.6672 91.4954 55.4368 91.4954 55.2928 91.3509L54.7328 90.7987C54.6048 90.6735 54.4032 90.6574 54.2592 90.7634C53.0912 91.6238 52.032 92.1632 50.5792 92.5004C50.4128 92.5389 50.2976 92.6898 50.2976 92.86V94.2984C50.2976 94.5038 50.1312 94.6676 49.9296 94.6676H47.8176Z" stroke="black" stroke-miterlimit="10"/>
</g>
</g>
<defs>
<clipPath id="clip0_4062_21740">
<rect width="96" height="96" fill="white"/>
</clipPath>
</defs>
</svg>
