<svg width="96" height="96" viewBox="0 0 96 96" fill="none" xmlns="http://www.w3.org/2000/svg">
<g clip-path="url(#clip0_4062_21877)">
<mask id="mask0_4062_21877" style="mask-type:luminance" maskUnits="userSpaceOnUse" x="4" y="9" width="88" height="78">
<path d="M91.8827 9.28H4V86.4853H91.8827V9.28Z" fill="white"/>
</mask>
<g mask="url(#mask0_4062_21877)">
<path d="M31.896 69.2667V23.8293C31.896 16.4373 25.912 10.4827 18.5493 10.4827C11.1867 10.4827 5.17334 16.4373 5.17334 23.8293V53.2213C5.17334 62.08 12.36 69.2667 21.2187 69.2667H31.9253H31.9224H31.896Z" stroke="black" stroke-miterlimit="10"/>
<path d="M77.3626 85.312C84.7546 85.312 90.7093 79.328 90.7093 71.9653V42.5733C90.7093 33.7147 83.5226 26.528 74.6639 26.528H63.9573V71.9653C63.9573 79.3574 69.9413 85.312 77.3039 85.312H77.3245H77.3626Z" stroke="black" stroke-miterlimit="10"/>
<path d="M31.896 69.2667V23.8293C31.896 16.76 26.3813 10.952 19.4293 10.4827C19.7227 10.4651 20.016 10.4475 20.3093 10.4475H47.9413C56.8 10.4475 63.9867 17.6341 63.9867 26.4928V71.9301C63.9867 78.9995 69.5013 84.8075 76.4533 85.2768C76.1424 84.6549 75.5381 85.2768 48.8213 85.2768C39.9627 85.2768 32.776 78.0901 32.776 69.2315L31.896 69.2667Z" stroke="black" stroke-miterlimit="10"/>
</g>
</g>
<defs>
<clipPath id="clip0_4062_21877">
<rect width="88" height="77.44" fill="white" transform="translate(4 9.28)"/>
</clipPath>
</defs>
</svg>
