<svg width="96" height="96" viewBox="0 0 96 96" fill="none" xmlns="http://www.w3.org/2000/svg">
<mask id="mask0_4062_21888" style="mask-type:luminance" maskUnits="userSpaceOnUse" x="4" y="8" width="88" height="80">
<path d="M91.9114 8.57718H4V87.3637H91.9114V8.57718Z" fill="white"/>
</mask>
<g mask="url(#mask0_4062_21888)">
<path d="M41.2672 46.1396H81.9598C83.6725 46.1396 85.149 44.9584 85.5329 43.2752L90.6712 19.6215C91.1732 17.3476 89.4309 15.2215 87.098 15.2215H35.7745" stroke="black" stroke-miterlimit="10"/>
<path d="M47.5866 86.1825H71.2403C72.953 86.1825 74.4591 84.9718 74.8135 83.2886L79.8041 59.6349C80.2765 57.3611 78.5638 55.2644 76.2309 55.2644H43.7477" stroke="black" stroke-miterlimit="10"/>
<path d="M8.81344 9.75839C6.51009 9.75839 4.79734 11.855 5.24029 14.0993L19.09 83.2295C19.4443 84.9128 20.9208 86.153 22.6631 86.153H48.7973L34.8296 12.7114C34.5047 10.9987 32.9987 9.75839 31.2564 9.75839H8.81344Z" stroke="black" stroke-miterlimit="10"/>
</g>
</svg>
