<svg width="96" height="96" viewBox="0 0 96 96" fill="none" xmlns="http://www.w3.org/2000/svg">
<mask id="mask0_4062_21883" style="mask-type:luminance" maskUnits="userSpaceOnUse" x="11" y="4" width="73" height="88">
<path d="M83.9974 4H11.8256V91.8228H83.9974V4Z" fill="white"/>
</mask>
<g mask="url(#mask0_4062_21883)">
<path d="M37.635 37.4282C39.0229 36.0403 41.2672 36.0403 42.6846 37.4282L68.7893 63.5329L42.6846 89.6376C41.2967 91.0255 39.0524 91.0255 37.635 89.6376L14.0403 66.0429C12.6524 64.655 12.6524 62.4107 14.0403 60.9933L37.635 37.3986H37.632L37.635 37.4282Z" stroke="black" stroke-miterlimit="10"/>
<path d="M37.6054 6.21477C38.9933 4.82685 41.2376 4.82685 42.6551 6.21477L68.7303 32.2899L42.6551 58.3651C41.2672 59.753 39.0229 59.753 37.6054 58.3651L14.0403 34.8C12.6524 33.4121 12.6524 31.1678 14.0403 29.7503L37.6054 6.21477Z" stroke="black" stroke-miterlimit="10"/>
<path d="M68.7302 32.2899L81.7826 45.3423C83.1705 46.7302 83.1705 48.9745 81.7826 50.3624L68.7598 63.5034L53.1088 47.8819L68.7007 32.2899H68.7184H68.7302Z" stroke="black" stroke-miterlimit="10"/>
<path d="M53.1088 47.8819L42.6255 58.3651C41.2376 59.753 38.9933 59.753 37.5759 58.3651L27.1222 47.9114L37.6054 37.4282C38.9933 36.0403 41.2376 36.0403 42.6551 37.4282L53.1088 47.8819Z" stroke="black" stroke-miterlimit="10"/>
</g>
</svg>
