<svg width="96" height="96" viewBox="0 0 96 96" fill="none" xmlns="http://www.w3.org/2000/svg">
<g clip-path="url(#clip0_4062_21744)">
<mask id="mask0_4062_21744" style="mask-type:luminance" maskUnits="userSpaceOnUse" x="0" y="0" width="96" height="96">
<path d="M95.8973 0H0V95.9519H95.8973V0Z" fill="white"/>
</mask>
<g mask="url(#mask0_4062_21744)">
<path d="M71.7175 47.8908C71.7175 62.9426 60.2874 69.2324 49.233 75.3167L48.228 75.8689C46.4236 74.8896 40.6026 71.5762 35.1604 66.7858C27.8722 60.3708 24.1766 54.0136 24.1766 47.8908V28.6908C27.397 25.1494 37.6391 20.0829 47.9455 20.0829C58.2518 20.0829 68.494 25.1526 71.7143 28.6908V47.8908H71.7175Z" stroke="black" stroke-linecap="round" stroke-linejoin="round"/>
<path d="M38.4418 48.0096L47.8973 57.4106L62.3904 38.4289" stroke="black" stroke-linecap="round" stroke-linejoin="round"/>
<path d="M56.03 93.9805C53.4165 94.4332 50.7323 94.6708 47.9904 94.6708C45.2485 94.6708 42.5804 94.4364 39.9765 93.9869C17.9992 90.1855 1.2843 71.0272 1.2843 47.9647C1.2843 36.6791 5.28805 26.331 11.9503 18.2561" stroke="black" stroke-miterlimit="10" stroke-linecap="round"/>
<path d="M6.948 11.7512L16.0086 23.1973C16.4453 23.7496 17.3089 23.6597 17.6268 23.0304L24.9472 8.37995C25.3036 7.66396 24.6839 6.85165 23.9005 7.00577L7.52271 10.21C6.81636 10.3481 6.50492 11.1861 6.95121 11.7544H6.948V11.7512Z" stroke="black" stroke-miterlimit="10"/>
<path d="M39.8705 1.9746C42.484 1.52189 45.1681 1.2843 47.9101 1.2843C50.652 1.2843 53.3201 1.51868 55.924 1.96818C77.9012 5.76644 94.613 24.9247 94.613 47.9872C94.613 59.2728 90.6092 69.6209 83.947 77.6958" stroke="black" stroke-miterlimit="10" stroke-linecap="round"/>
<path d="M88.9493 84.2007L79.8887 72.7545C79.4521 72.2023 78.5884 72.2922 78.2705 72.9215L70.9501 87.5719C70.5937 88.2879 71.2134 89.1002 71.9968 88.9461L88.3746 85.7418C89.081 85.6038 89.3924 84.7658 88.9461 84.1975H88.9493V84.2007Z" stroke="black" stroke-miterlimit="10"/>
</g>
</g>
<defs>
<clipPath id="clip0_4062_21744">
<rect width="96" height="96" fill="white"/>
</clipPath>
</defs>
</svg>
