<svg width="96" height="96" viewBox="0 0 96 96" fill="none" xmlns="http://www.w3.org/2000/svg">
<path d="M81.8217 61.5065H87.6458V55.6546" stroke="black" stroke-linecap="round" stroke-linejoin="round"/>
<path d="M81.4334 70.2427H71.56C71.0886 70.2427 70.728 70.6032 70.728 71.0747V87.7983C70.728 88.2698 71.0886 88.6303 71.56 88.6303H81.4334C81.9048 88.6303 82.2654 88.2698 82.2654 87.7983V71.0747C82.2654 70.6032 81.9048 70.2427 81.4334 70.2427Z" stroke="black" stroke-linecap="round" stroke-linejoin="round"/>
<path d="M60.7161 56.3202H50.8428C50.3713 56.3202 50.0107 56.6807 50.0107 57.1522V87.7983C50.0107 88.2698 50.3713 88.6303 50.8428 88.6303H60.7161C61.1875 88.6303 61.5481 88.2698 61.5481 87.7983V57.1522C61.5481 56.6807 61.1875 56.3202 60.7161 56.3202Z" stroke="black" stroke-linecap="round" stroke-linejoin="round"/>
<path d="M39.7769 49.4421H29.9036C29.4321 49.4421 29.0715 49.8027 29.0715 50.2742V87.7983C29.0715 88.2698 29.4321 88.6303 29.9036 88.6303H39.7769C40.2483 88.6303 40.6089 88.2698 40.6089 87.7983V50.2742C40.6089 49.8027 40.2483 49.4421 39.7769 49.4421Z" stroke="black" stroke-linecap="round" stroke-linejoin="round"/>
<path d="M19.0873 35.6029H9.21398C8.7425 35.6029 8.38196 35.9634 8.38196 36.4349V87.7983C8.38196 88.2698 8.7425 88.6303 9.21398 88.6303H19.0873C19.5588 88.6303 19.9193 88.2698 19.9193 87.7983V36.4349C19.9193 35.9634 19.5588 35.6029 19.0873 35.6029Z" stroke="black" stroke-linecap="round" stroke-linejoin="round"/>
<path d="M86.2036 60.203L61.1876 35.1314L49.6779 46.6688C49.4561 46.8906 49.1787 47.0016 48.9014 47.0016C48.5963 47.0016 48.319 46.8906 48.1248 46.6688L23.5248 22.0964" stroke="black" stroke-linecap="round" stroke-linejoin="round"/>
<path d="M13.5682 26.7003V23.2336" stroke="black" stroke-linecap="round" stroke-linejoin="round"/>
<path d="M16.8963 13.8595C16.8963 13.6986 16.8824 13.5267 16.8575 13.388C16.5524 11.5575 14.6665 10.5314 12.947 11.1415C10.4787 12.029 10.0904 16.0505 12.8388 16.8547L14.281 17.243C17.0544 18.0473 16.6384 22.0687 14.1728 22.9562C12.4533 23.5664 10.5674 22.568 10.2623 20.7098C10.2374 20.5489 10.2235 20.377 10.2235 20.2383" stroke="black" stroke-linecap="round" stroke-linejoin="round"/>
<path d="M13.5682 7.34198V10.8087" stroke="black" stroke-linecap="round" stroke-linejoin="round"/>
</svg>
