<svg width="96" height="96" viewBox="0 0 96 96" fill="none" xmlns="http://www.w3.org/2000/svg">
<path d="M70.9777 20.3492H76.9405V26.3675" stroke="black" stroke-linecap="round" stroke-linejoin="round"/>
<path d="M11.8487 69.688H21.6943C22.1658 69.688 22.5263 70.0485 22.5263 70.52V87.2436C22.5263 87.7151 22.1658 88.0756 21.6943 88.0756H11.8487C11.3773 88.0756 11.0167 87.7151 11.0167 87.2436V70.52C11.0167 70.0485 11.3773 69.688 11.8487 69.688Z" stroke="black" stroke-linecap="round" stroke-linejoin="round"/>
<path d="M32.5383 55.7656H42.3839C42.8554 55.7656 43.2159 56.1261 43.2159 56.5976V87.2437C43.2159 87.7151 42.8554 88.0757 42.3839 88.0757H32.5383C32.0668 88.0757 31.7063 87.7151 31.7063 87.2437V56.5976C31.7063 56.1261 32.0668 55.7656 32.5383 55.7656Z" stroke="black" stroke-linecap="round" stroke-linejoin="round"/>
<path d="M53.4497 48.8875H63.2953C63.7667 48.8875 64.1273 49.2481 64.1273 49.7195V87.2436C64.1273 87.7151 63.7667 88.0757 63.2953 88.0757H53.4497C52.9782 88.0757 52.6177 87.7151 52.6177 87.2436V49.7195C52.6177 49.2481 52.9782 48.8875 53.4497 48.8875Z" stroke="black" stroke-linecap="round" stroke-linejoin="round"/>
<path d="M74.1116 35.0482H83.9571C84.4286 35.0482 84.7891 35.4088 84.7891 35.8802V87.2436C84.7891 87.7151 84.4286 88.0756 83.9571 88.0756H74.1116C73.6401 88.0756 73.2795 87.7151 73.2795 87.2436V35.8802C73.2795 35.4088 73.6401 35.0482 74.1116 35.0482Z" stroke="black" stroke-linecap="round" stroke-linejoin="round"/>
<path d="M75.4705 21.6804L51.4251 41.011L31.4566 46.2805C31.2292 46.0531 11.4327 60.8408 11.1554 60.8408M11.1554 60.8408C10.8503 60.8408 11.355 60.6134 11.1554 60.8408Z" stroke="black" stroke-linecap="round" stroke-linejoin="round"/>
<path d="M59.0243 27.7542V24.2875" stroke="black" stroke-linecap="round" stroke-linejoin="round"/>
<path d="M62.3801 14.9134C62.3801 14.7525 62.3662 14.5806 62.3412 14.4419C62.0362 12.6114 60.1503 11.5853 58.4308 12.1954C55.9624 13.0829 55.5742 17.1044 58.3226 17.9086L59.7648 18.2969C62.5382 19.1012 62.1221 23.1226 59.6566 24.0101C57.9371 24.6203 56.0512 23.6218 55.7461 21.7637C55.7211 21.6028 55.7073 21.4309 55.7073 21.2922" stroke="black" stroke-linecap="round" stroke-linejoin="round"/>
<path d="M59.0243 8.39587V11.8626" stroke="black" stroke-linecap="round" stroke-linejoin="round"/>
</svg>
