<svg width="96" height="96" viewBox="0 0 96 96" fill="none" xmlns="http://www.w3.org/2000/svg">
<path d="M25.912 30.5161C28.3741 30.5161 30.3701 28.5202 30.3701 26.0581C30.3701 23.5959 28.3741 21.6 25.912 21.6C23.4499 21.6 21.4539 23.5959 21.4539 26.0581C21.4539 28.5202 23.4499 30.5161 25.912 30.5161Z" stroke="black" stroke-miterlimit="10" stroke-linecap="round"/>
<path d="M56.976 30.5161C59.4381 30.5161 61.4341 28.5202 61.4341 26.0581C61.4341 23.5959 59.4381 21.6 56.976 21.6C54.5139 21.6 52.5179 23.5959 52.5179 26.0581C52.5179 28.5202 54.5139 30.5161 56.976 30.5161Z" stroke="black" stroke-miterlimit="10" stroke-linecap="round"/>
<path d="M47.7853 52.1554C50.2474 52.1554 52.2434 50.1595 52.2434 47.6973C52.2434 45.2352 50.2474 43.2393 47.7853 43.2393C45.3231 43.2393 43.3272 45.2352 43.3272 47.6973C43.3272 50.1595 45.3231 52.1554 47.7853 52.1554Z" stroke="black" stroke-miterlimit="10" stroke-linecap="round"/>
<path d="M43.8623 73.872C46.0289 73.872 47.7853 72.1156 47.7853 69.9489C47.7853 67.7823 46.0289 66.0259 43.8623 66.0259C41.6956 66.0259 39.9392 67.7823 39.9392 69.9489C39.9392 72.1156 41.6956 73.872 43.8623 73.872Z" stroke="black" stroke-miterlimit="10" stroke-linecap="round"/>
<path d="M67.536 73.872C71.0353 73.872 73.872 71.0352 73.872 67.536C73.872 64.0367 71.0353 61.2 67.536 61.2C64.0367 61.2 61.2 64.0367 61.2 67.536C61.2 71.0352 64.0367 73.872 67.536 73.872Z" stroke="black" stroke-miterlimit="10" stroke-linecap="round"/>
<path d="M47.7853 70H60.9694" stroke="black" stroke-miterlimit="10" stroke-linecap="round"/>
<path d="M43.3272 47.6973H37.0862C30.9632 47.6973 26 52.6605 26 58.7835V58.912C26 65.035 30.9632 69.9982 37.0862 69.9982H39.9374" stroke="black" stroke-miterlimit="10" stroke-linecap="round"/>
<path d="M61.7386 25.8645C66.5381 27.0842 70.088 31.4331 70.088 36.6111C70.088 42.7341 65.1248 47.6973 59.0018 47.6973H52.2434" stroke="black" stroke-miterlimit="10" stroke-linecap="round"/>
<path d="M30.4299 25.5231H52.5179" stroke="black" stroke-miterlimit="10" stroke-linecap="round"/>
<path d="M65.0526 68.0042L66.2723 69.2239C66.4782 69.4298 66.8126 69.4298 67.0186 69.2239L70.5474 65.6951" stroke="black" stroke-linejoin="round"/>
</svg>
