<svg width="96" height="96" viewBox="0 0 96 96" fill="none" xmlns="http://www.w3.org/2000/svg">
<path d="M56.2408 14.5659C61.1853 15.5077 65.6 17.4796 69.5438 20.2756L73.5465 16.3023L80.4923 23.2481L76.3425 27.8394C78.3732 31.1358 82.2288 36.8749 83.0528 40.7893H89.9692V54.3866L83.1706 54.4749C82.4053 58.6247 78.903 64.5404 76.7839 68.0722L79.7271 71.0154C80.1686 71.4568 80.1686 72.1926 79.7271 72.6341L73.2816 79.0796C72.8401 79.521 72.1338 79.521 71.6629 79.0796L69.2201 76.6956C65.0702 79.8742 61.4502 81.7284 56.1819 82.8174V89.3217H40.4655V82.9645C35.2267 81.9933 31.695 79.6976 27.604 76.6368L24.396 79.7859L16.7732 72.1632L20.4522 68.4548C18.5097 65.1585 15.4488 58.4187 14.713 54.5338H7.17859V40.8481H14.8308C14.8308 40.8481 19.01 32.5779 21.2468 29.0167L16.6849 24.2194L24.1605 16.3318L28.7518 20.2756C29.1344 20.6582 29.7525 20.717 30.194 20.3933C33.9906 17.6856 35.8154 16.7144 40.5244 14.6836L40.6716 6.35449H55.9759C56.1231 6.35449 56.2702 6.47222 56.2702 6.64881V14.5659H56.2408Z" stroke="black" stroke-linecap="round" stroke-linejoin="round"/>
<path d="M48.7652 74.2234C63.3293 74.2234 75.1358 62.4169 75.1358 47.8529C75.1358 33.2888 63.3293 21.4823 48.7652 21.4823C34.2012 21.4823 22.3947 33.2888 22.3947 47.8529C22.3947 62.4169 34.2012 74.2234 48.7652 74.2234Z" stroke="black" stroke-linecap="round" stroke-linejoin="round"/>
<path d="M50.6194 27.2509L38.1993 48.3826L50.796 48.2943L45.6749 68.0723L59.3605 42.5552L46.4696 42.4669L50.6194 27.2509Z" stroke="black" stroke-linecap="round" stroke-linejoin="round"/>
</svg>
