<svg width="96" height="96" viewBox="0 0 96 96" fill="none" xmlns="http://www.w3.org/2000/svg">
<g clip-path="url(#clip0_4062_21814)">
<mask id="mask0_4062_21814" style="mask-type:luminance" maskUnits="userSpaceOnUse" x="4" y="4" width="88" height="88">
<path d="M91.7661 4H4V91.883H91.7661V4Z" fill="white"/>
</mask>
<g mask="url(#mask0_4062_21814)">
<path d="M47.8831 61.8578C55.7767 61.8578 62.1794 55.4552 62.1794 47.5615C62.1794 39.6678 55.7767 33.2651 47.8831 33.2651C39.9894 33.2651 33.5867 39.6678 33.5867 47.5615C33.5867 55.4552 39.9894 61.8578 47.8831 61.8578Z" stroke="black" stroke-miterlimit="10"/>
<path d="M53.8764 21.8924C57.6771 22.6233 61.0684 24.1435 64.109 26.307L67.1787 23.2664L72.5289 28.6166L69.3422 32.1542C70.9209 34.6977 73.8738 39.0831 74.5169 42.1236L79.8379 42.1587L79.7385 52.5959L74.6222 52.6631C74.0375 55.8498 71.3478 60.4106 69.7106 63.1296L71.991 65.41C72.3418 65.7608 72.3418 66.3163 71.991 66.6379L67.0209 71.608C66.67 71.9588 66.1438 71.9588 65.793 71.6138L63.9219 69.772C60.7352 72.1985 57.9577 73.6311 53.894 74.4789V79.4783H41.7903V74.5959C37.7557 73.8357 35.0368 72.0816 31.8793 69.7135L29.4235 72.1401L23.5471 66.2637L26.383 63.4278C24.892 60.8843 22.5239 55.7095 21.9684 52.6982H16.1212L16.2206 42.1733H22.0093C22.0093 42.1733 25.2253 35.7999 26.9502 33.0809L23.0618 28.9879L29.2013 22.8484L32.7389 26.3859C33.0312 26.6783 33.499 26.7075 33.8498 26.4736C36.7734 24.3979 38.1767 23.667 41.802 22.0882L41.9248 15.6856L53.9115 15.5862L53.8881 21.9888H53.8852L53.8764 21.8924Z" stroke="black" stroke-linecap="round" stroke-linejoin="round"/>
<path d="M84.1648 18.5887C88.0239 18.5887 91.1814 15.4605 91.1814 11.5721C91.1814 7.68372 88.0532 4.55548 84.1648 4.55548C80.2764 4.55548 77.1482 7.68372 77.1482 11.5721C77.1482 15.4605 80.2764 18.5887 84.1648 18.5887Z" stroke="black" stroke-miterlimit="10"/>
<path d="M11.6013 18.5887C15.4605 18.5887 18.6179 15.4605 18.6179 11.5721C18.6179 7.68372 15.4605 4.58472 11.6013 4.58472C7.74219 4.58472 4.58472 7.71296 4.58472 11.6013C4.58472 15.4897 7.71296 18.6179 11.6013 18.6179V18.5887Z" stroke="black" stroke-miterlimit="10"/>
<path d="M84.1648 91.2984C88.0239 91.2984 91.1814 88.1701 91.1814 84.2817C91.1814 80.3934 88.0532 77.2651 84.1648 77.2651C80.2764 77.2651 77.1482 80.3934 77.1482 84.2817C77.1482 88.1701 80.2764 91.2984 84.1648 91.2984Z" stroke="black" stroke-miterlimit="10"/>
<path d="M11.7475 91.2984C15.6944 91.2984 18.9103 88.0824 18.9103 84.1356C18.9103 80.1887 15.6944 76.9728 11.7475 76.9728C7.80066 76.9728 4.58472 80.1887 4.58472 84.1356C4.58472 88.0824 7.80066 91.2984 11.7475 91.2984Z" stroke="black" stroke-miterlimit="10"/>
<path d="M16.6299 16.4545L26.0146 25.8392" stroke="black" stroke-miterlimit="10"/>
<path d="M26.0146 69.4006L16.7468 78.7854" stroke="black" stroke-miterlimit="10"/>
<path d="M69.4299 69.2252L79.3701 79.1654" stroke="black" stroke-miterlimit="10"/>
<path d="M69.7515 25.9269L79.0193 16.6591" stroke="black" stroke-miterlimit="10"/>
</g>
</g>
<defs>
<clipPath id="clip0_4062_21814">
<rect width="88" height="88" fill="white" transform="translate(4 4)"/>
</clipPath>
</defs>
</svg>
