<svg width="96" height="96" viewBox="0 0 96 96" fill="none" xmlns="http://www.w3.org/2000/svg">
<g clip-path="url(#clip0_4062_21745)">
<mask id="mask0_4062_21745" style="mask-type:luminance" maskUnits="userSpaceOnUse" x="0" y="0" width="96" height="96">
<path d="M95.878 0H0V95.8812H95.878V0Z" fill="white"/>
</mask>
<g mask="url(#mask0_4062_21745)">
<path d="M91.5724 31.3814C93.5246 36.5282 94.5969 42.1084 94.5969 47.939C94.5969 73.7049 73.7081 94.5937 47.9422 94.5937C43.3156 94.5937 38.8463 93.9195 34.6242 92.6641C28.4725 90.834 22.8506 87.771 18.0474 83.7608" stroke="black" stroke-miterlimit="10" stroke-linecap="round"/>
<path d="M3.23641 61.3405C1.96497 57.0959 1.2843 52.5977 1.2843 47.939C1.2843 22.1731 22.1731 1.2843 47.939 1.2843C58.5054 1.2843 68.2499 4.79681 76.0712 10.7173" stroke="black" stroke-miterlimit="10" stroke-linecap="round"/>
<path d="M80.1102 19.1069C82.8907 19.1069 85.1446 16.853 85.1446 14.0725C85.1446 11.2921 82.8907 9.03815 80.1102 9.03815C77.3298 9.03815 75.0759 11.2921 75.0759 14.0725C75.0759 16.853 77.3298 19.1069 80.1102 19.1069Z" stroke="black" stroke-miterlimit="10"/>
<path d="M14.2973 85.302C17.0777 85.302 19.3316 83.0481 19.3316 80.2676C19.3316 77.4871 17.0777 75.2332 14.2973 75.2332C11.5168 75.2332 9.26288 77.4871 9.26288 80.2676C9.26288 83.0481 11.5168 85.302 14.2973 85.302Z" stroke="black" stroke-miterlimit="10"/>
<path d="M47.8331 60.8846C55.1535 60.8846 61.0868 54.9512 61.0868 47.6308C61.0868 40.3104 55.1535 34.377 47.8331 34.377C40.5127 34.377 34.5793 40.3104 34.5793 47.6308C34.5793 54.9512 40.5127 60.8846 47.8331 60.8846Z" stroke="black" stroke-miterlimit="10"/>
<path d="M47.8941 77.3811H43.2482C42.7987 77.3811 42.4359 77.0183 42.4359 76.5688V73.4095C42.4359 73.0338 42.179 72.7031 41.813 72.6197C38.6087 71.8812 36.2681 70.6932 33.6963 68.8054C33.3753 68.571 32.9322 68.6063 32.6496 68.8824L31.4167 70.0993C31.0989 70.4139 30.5884 70.4107 30.2737 70.0993L25.676 65.5015C25.3581 65.1837 25.3581 64.67 25.676 64.3521L27.3295 62.6986C27.5928 62.4353 27.6442 62.0308 27.4547 61.7129C26.0581 59.353 24.061 55.8759 23.3707 53.1853C23.2776 52.8257 22.963 52.5688 22.5937 52.5656L19.2 52.5207C18.7569 52.5142 18.3973 52.1514 18.3973 51.7084V43.6591C18.3973 43.2128 18.7569 42.85 19.2032 42.8468L22.7029 42.8244C23.0657 42.8244 23.3771 42.5771 23.4799 42.2272C24.2248 39.6714 26.392 36.3259 27.7886 34.1041C27.9813 33.7959 27.946 33.4009 27.7052 33.1312L25.6792 30.8773C25.3902 30.5563 25.4031 30.065 25.7081 29.76L29.5481 25.92C29.866 25.6021 30.3765 25.6021 30.6943 25.92L32.4827 27.6987C32.7556 27.9684 33.1826 28.0166 33.5037 27.8015C35.9856 26.1223 38.7468 24.8958 41.7809 24.2312C42.1597 24.1477 42.4327 23.8202 42.4294 23.4317L42.4134 19.0652C42.4134 18.6157 42.7762 18.2496 43.2257 18.2496H52.556C53.0055 18.2496 53.3715 18.6157 53.3683 19.0652L53.3523 23.4317C53.3523 23.8202 53.6252 24.1477 54.0008 24.2312C57.0349 24.8958 59.7961 26.1223 62.278 27.8015C62.5959 28.0166 63.0261 27.9716 63.299 27.6987L65.0874 25.92C65.4052 25.6054 65.9189 25.6054 66.2336 25.92L70.0736 29.76C70.3786 30.065 70.3914 30.5563 70.1025 30.8773L68.0765 33.1312C67.8357 33.4009 67.8004 33.7991 67.9931 34.1041C69.3897 36.3259 71.5569 39.6714 72.3018 42.2272C72.4046 42.5771 72.716 42.8211 73.0788 42.8244L76.5785 42.8468C77.0248 42.8468 77.3844 43.2128 77.3844 43.6591V51.7084C77.3844 52.1514 77.028 52.5142 76.5817 52.5207L73.188 52.5656C72.8187 52.572 72.5009 52.8257 72.411 53.1853C71.7207 55.8759 69.7268 59.3563 68.327 61.7129C68.1375 62.0308 68.1889 62.4385 68.4522 62.6986L70.1057 64.3521C70.4236 64.67 70.4236 65.1837 70.1057 65.5015L65.508 70.0993C65.1933 70.4139 64.6828 70.4171 64.365 70.0993L63.1321 68.8824C62.8495 68.6031 62.4064 68.5678 62.0854 68.8054C59.5136 70.6932 57.173 71.8812 53.9687 72.6197C53.6027 72.7031 53.3458 73.0338 53.3458 73.4095V76.5688C53.3458 77.0183 52.983 77.3811 52.5335 77.3811H47.8876H47.8941Z" stroke="black" stroke-miterlimit="10"/>
</g>
</g>
<defs>
<clipPath id="clip0_4062_21745">
<rect width="96" height="96" fill="white"/>
</clipPath>
</defs>
</svg>
