<svg width="96" height="96" viewBox="0 0 96 96" fill="none" xmlns="http://www.w3.org/2000/svg">
<g clip-path="url(#clip0_4062_21912)">
<mask id="mask0_4062_21912" style="mask-type:luminance" maskUnits="userSpaceOnUse" x="4" y="4" width="88" height="88">
<path d="M92 4H4V92H92V4Z" fill="white"/>
</mask>
<g mask="url(#mask0_4062_21912)">
<path d="M11.9759 18.7746C15.7431 18.7746 18.7746 15.7431 18.7746 11.9759C18.7746 8.20868 15.7431 5.17725 11.9759 5.17725C8.20868 5.17725 5.17725 8.20868 5.17725 11.9759C5.17725 15.7431 8.23812 18.7746 11.9759 18.7746Z" stroke="black" stroke-miterlimit="10"/>
<path d="M83.9946 18.7746C87.7619 18.7746 90.7933 15.7431 90.7933 11.9759C90.7933 8.20868 87.7324 5.17725 83.9946 5.17725C80.2569 5.17725 77.196 8.20868 77.196 11.9759C77.196 15.7431 80.2569 18.7746 83.9946 18.7746Z" stroke="black" stroke-miterlimit="10"/>
<path d="M11.9759 90.8227C15.7431 90.8227 18.7746 87.7913 18.7746 84.0241C18.7746 80.2568 15.7137 77.2254 11.9759 77.2254C8.23812 77.2254 5.17725 80.2568 5.17725 84.0241C5.17725 87.7913 8.23812 90.8227 11.9759 90.8227Z" stroke="black" stroke-miterlimit="10"/>
<path d="M83.9946 90.8227C87.7619 90.8227 90.7933 87.7913 90.7933 84.0241C90.7933 80.2568 87.7324 77.2254 83.9946 77.2254C80.2569 77.2254 77.196 80.2568 77.196 84.0241C77.196 87.7913 80.2569 90.8227 83.9946 90.8227Z" stroke="black" stroke-miterlimit="10"/>
<path d="M83.9946 18.7746V77.0488" stroke="black" stroke-miterlimit="10"/>
<path d="M11.9759 18.7746V77.0488" stroke="black" stroke-miterlimit="10"/>
<path d="M18.804 11.9759H77.196" stroke="black" stroke-miterlimit="10"/>
<path d="M18.804 84.024H77.196" stroke="black" stroke-miterlimit="10"/>
<path d="M39.4649 41.0542H26.515C26.0147 41.0542 25.6321 41.4368 25.6321 41.9371V69.6027C25.6321 70.103 26.0147 70.4856 26.515 70.4856H69.1906C69.6909 70.4856 70.0736 70.103 70.0736 69.6027V41.9371C70.0736 41.4368 69.6909 41.0542 69.1906 41.0542H56.2408" stroke="black" stroke-miterlimit="10"/>
<path d="M55.2107 69.6026V26.8093C55.2107 26.309 54.8281 25.9264 54.3277 25.9264H41.3779C40.8776 25.9264 40.495 26.309 40.495 26.8093V69.6026" stroke="black" stroke-miterlimit="10"/>
</g>
</g>
<defs>
<clipPath id="clip0_4062_21912">
<rect width="88" height="88" fill="white" transform="translate(4 4)"/>
</clipPath>
</defs>
</svg>
