<svg width="96" height="96" viewBox="0 0 96 96" fill="none" xmlns="http://www.w3.org/2000/svg">
<g clip-path="url(#clip0_4062_21914)">
<mask id="mask0_4062_21914" style="mask-type:luminance" maskUnits="userSpaceOnUse" x="4" y="4" width="88" height="88">
<path d="M91.8823 4H4V91.9706H91.8823V4Z" fill="white"/>
</mask>
<g mask="url(#mask0_4062_21914)">
<path d="M32.3425 52.091C36.61 52.0056 41.0248 51.8761 45.0569 50.2956C53.2682 47.0582 59.6254 38.3171 62.1271 30.0762C62.4508 29.0167 62.6569 27.8983 62.6863 26.8094C62.701 26.309 62.3037 25.897 61.8033 25.897H50.4428C49.6482 25.897 49.2656 24.9552 49.8248 24.396L69.7793 5.44213C70.1324 5.08896 70.6916 5.08896 71.0154 5.45096L90.4696 24.3754C91.0288 24.9346 90.6167 25.8764 89.8515 25.8764H78.3438C77.8729 25.8764 77.4609 26.259 77.4609 26.7593C76.99 49.4804 61.8328 63.0777 38.9646 63.0777C26.0736 63.0777 13.1237 57.2797 5.41271 48.1265C4.82408 47.4202 5.57164 46.3901 6.44281 46.7433C10.1806 48.3326 17.9211 50.7754 22.2769 51.3934C25.6321 51.8938 29.0167 52.1587 32.3425 52.0998V52.0939V52.091Z" stroke="black" stroke-miterlimit="10"/>
<path d="M84.1124 58.7424C84.1124 58.2421 83.7298 57.8595 83.2294 57.8595H71.6923C71.4039 57.8595 71.1331 58.0067 70.9565 58.2421C68.9552 61.097 66.5418 63.5692 63.7164 65.6294C63.4898 65.806 63.3632 66.0709 63.3632 66.3358L63.3691 89.9103C63.3691 90.4107 63.7517 90.7933 64.2521 90.7933H83.2353C83.7357 90.7933 84.1183 90.4107 84.1183 89.9103V58.7424H84.1212H84.1124Z" stroke="black" stroke-miterlimit="10"/>
<path d="M55.3579 69.5438C55.3579 68.9552 54.7692 68.5137 54.1806 68.7197C49.6187 70.2796 44.4977 71.0742 38.9351 71.0742C37.8167 71.0742 36.6689 71.0272 35.5505 70.9389C35.0502 70.8977 34.6087 71.292 34.6087 71.8218L34.6146 89.9221C34.6146 90.4225 34.9972 90.8051 35.4975 90.8051H54.4808C54.9811 90.8051 55.3638 90.4225 55.3638 89.9221V69.5556L55.3579 69.5438Z" stroke="black" stroke-miterlimit="10"/>
<path d="M25.9264 69.8087C25.9264 69.4261 25.6733 69.0729 25.3084 68.9552C18.2448 66.7478 11.5639 62.8923 6.7077 57.8889C6.1485 57.3297 5.17726 57.7065 5.17726 58.507V61.4796L5.18609 89.9398C5.18609 90.4401 5.5687 90.8227 6.06903 90.8227H25.0523C25.5526 90.8227 25.9353 90.4401 25.9353 89.9398V69.8087H25.9264Z" stroke="black" stroke-miterlimit="10"/>
</g>
</g>
<defs>
<clipPath id="clip0_4062_21914">
<rect width="88" height="88" fill="white" transform="translate(4 4)"/>
</clipPath>
</defs>
</svg>
