<svg width="96" height="96" viewBox="0 0 96 96" fill="none" xmlns="http://www.w3.org/2000/svg">
<mask id="mask0_4062_21863" style="mask-type:luminance" maskUnits="userSpaceOnUse" x="13" y="4" width="69" height="88">
<path d="M81.9933 4H13.8596V91.9706H81.9933V4Z" fill="white"/>
</mask>
<g mask="url(#mask0_4062_21863)">
<path d="M60.4201 55.711C56.6823 47.2936 48.1766 41.4368 38.3465 41.6134C25.3672 41.8312 15.0662 52.709 15.0662 65.6883V77.0194C15.0662 77.5492 15.5077 77.9906 16.0375 77.9906H46.0575" stroke="black" stroke-miterlimit="10"/>
<path d="M38.7291 40.2301C48.4121 40.2301 56.2703 32.3719 56.2703 22.689C56.2703 13.006 48.4121 5.17725 38.7291 5.17725C29.0462 5.17725 21.188 13.0354 21.188 22.7184C21.188 32.4013 29.0462 40.2595 38.7291 40.2595V40.2301Z" stroke="black" stroke-miterlimit="10"/>
<path d="M63.2749 90.7933C72.9578 90.7933 80.816 82.9351 80.816 73.2521C80.816 63.5692 72.9578 55.711 63.2749 55.711C53.592 55.711 45.7338 63.5692 45.7338 73.2521C45.7338 82.9351 53.592 90.7933 63.2749 90.7933Z" stroke="black" stroke-miterlimit="10"/>
<path d="M52.9739 72.5458L59.596 79.109L73.3994 67.3953" stroke="black" stroke-miterlimit="10" stroke-linecap="round"/>
</g>
</svg>
