<svg width="96" height="96" viewBox="0 0 96 96" fill="none" xmlns="http://www.w3.org/2000/svg">
<path d="M71.8752 62.8589C74.5037 63.8285 76.3776 66.3552 76.3776 69.3197C76.3776 73.1213 73.296 76.2029 69.4944 76.2029C65.6928 76.2029 62.6112 73.1213 62.6112 69.3197C62.6112 65.5181 65.6928 62.4365 69.4944 62.4365C70.3315 62.4365 71.1341 62.5863 71.8752 62.8589Z" stroke="black" stroke-linejoin="round"/>
<path d="M69.4925 65.136V71.6025" stroke="black" stroke-linejoin="round"/>
<path d="M66.7642 70.3123L69.145 72.1209C69.3504 72.2783 69.6365 72.2783 69.8419 72.1209L72.2227 70.3123" stroke="black" stroke-linejoin="round"/>
<path d="M71.7005 62.2867C74.3174 58.0339 75.8266 53.0285 75.8266 47.6698C75.8266 32.2445 63.3216 19.7415 47.8982 19.7415C32.4749 19.7415 19.9699 32.2445 19.9699 47.6698C19.9699 63.0951 32.473 75.5981 47.8982 75.5981C53.3088 75.5981 58.3603 74.0602 62.6381 71.3952" stroke="black" stroke-miterlimit="10" stroke-linecap="round"/>
<path d="M47.8483 69.0106C59.6371 69.0106 69.1949 59.4529 69.1949 47.6641C69.1949 35.8753 59.6371 26.3175 47.8483 26.3175C36.0595 26.3175 26.5018 35.8753 26.5018 47.6641C26.5018 59.4529 36.0595 69.0106 47.8483 69.0106Z" stroke="black" stroke-miterlimit="10" stroke-linecap="round"/>
<path d="M43.2806 52.1492C43.2806 54.6816 45.3331 56.7341 47.8656 56.7341C50.3981 56.7341 52.4506 54.6816 52.4506 52.1492C52.4506 49.6167 50.3981 47.5642 47.8656 47.5642C45.3331 47.5642 43.2806 45.5117 43.2806 42.9792C43.2806 40.4468 45.3331 38.3943 47.8656 38.3943C50.3981 38.3943 52.4506 40.4468 52.4506 42.9792" stroke="black" stroke-miterlimit="10" stroke-linecap="round"/>
<path d="M47.8656 33.5597V38.2272" stroke="black" stroke-miterlimit="10" stroke-linecap="round"/>
<path d="M47.8656 57.3293V61.9969" stroke="black" stroke-miterlimit="10" stroke-linecap="round"/>
</svg>
