<svg width="96" height="96" viewBox="0 0 96 96" fill="none" xmlns="http://www.w3.org/2000/svg">
<path d="M63.2083 73.1788H48.0327" stroke="black" stroke-miterlimit="10"/>
<path d="M69.0931 73.1789L75.4387 73.1732C75.7574 73.1732 76.0147 72.9159 76.0147 72.5991V62.7495C76.0147 62.4308 75.7574 62.1754 75.4387 62.1754H72.4454C72.2304 62.1754 72.0346 62.0564 71.9347 61.8663L67.3613 53.1092C67.2614 52.9191 67.0656 52.8 66.8506 52.8H34.9536C34.6349 52.8 34.3776 53.0573 34.3776 53.376L34.3584 72.5972C34.3584 72.9159 34.6157 73.1732 34.9344 73.1732H41.4355" stroke="black" stroke-miterlimit="10"/>
<path d="M48.0326 73.0848C48.0326 74.8185 46.6176 76.224 44.8723 76.224C43.127 76.224 41.712 74.8185 41.712 73.0848C41.712 71.351 43.127 69.9456 44.8723 69.9456C46.6176 69.9456 48.0326 71.351 48.0326 73.0848Z" stroke="black" stroke-miterlimit="10"/>
<path d="M69.529 73.0848C69.529 74.8185 68.1139 76.224 66.3686 76.224C64.6234 76.224 63.2083 74.8185 63.2083 73.0848C63.2083 71.351 64.6234 69.9456 66.3686 69.9456C68.1139 69.9456 69.529 71.351 69.529 73.0848Z" stroke="black" stroke-miterlimit="10"/>
<path d="M34.3008 72.0999C25.8547 67.296 20.1581 58.2164 20.1581 47.8061C20.1581 32.3808 32.6611 19.8778 48.0864 19.8778C63.5117 19.8778 76.0147 32.3808 76.0147 47.8061C76.0147 53.0516 74.569 57.9572 72.0538 62.1504" stroke="black" stroke-miterlimit="10"/>
<path d="M34.3584 52.6195C34.2471 51.1718 34.1895 49.6857 34.1895 48.1728C34.1895 32.6803 40.2605 20.1216 47.7504 20.1216C55.2403 20.1216 61.3114 32.6803 61.3114 48.1728C61.3114 49.7453 61.248 51.2889 61.129 52.7923" stroke="black" stroke-miterlimit="10"/>
<path d="M21.6 38.4H74.4" stroke="black" stroke-miterlimit="10"/>
<path d="M21.6 57.696H34.3584" stroke="black" stroke-miterlimit="10"/>
<path d="M69.5309 57.696H74.0698" stroke="black" stroke-miterlimit="10"/>
</svg>
