<svg width="96" height="96" viewBox="0 0 96 96" fill="none" xmlns="http://www.w3.org/2000/svg">
<path d="M61.061 52.5513L57.1731 56.8158C57.0851 56.9126 57.0358 57.0393 57.0358 57.1713V73.3422C57.0358 73.6344 56.8 73.8702 56.5078 73.8702H39.515C39.2229 73.8702 38.987 73.6344 38.987 73.3422V57.0165C38.987 56.8809 38.9342 56.7507 38.8427 56.6521L34.9461 52.5496C34.8528 52.451 34.8018 52.3208 34.8018 52.1853V26.2235C34.8018 26.0809 34.8598 25.9437 34.9637 25.8433L39.207 21.7478C39.3056 21.6528 39.4376 21.6 39.5731 21.6H56.5272C56.668 21.6 56.8018 21.6563 56.9003 21.7549L60.9888 25.8451C61.0874 25.9437 61.1437 26.0774 61.1437 26.2165L61.2 52.1941C61.2 52.3261 61.1507 52.4528 61.0627 52.5513H61.061Z" stroke="black" stroke-miterlimit="10" stroke-linecap="round"/>
<path d="M51.872 61.3672H44.128C43.8364 61.3672 43.6 61.6036 43.6 61.8952V65.072C43.6 65.3636 43.8364 65.6 44.128 65.6H51.872C52.1636 65.6 52.4 65.3636 52.4 65.072V61.8952C52.4 61.6036 52.1636 61.3672 51.872 61.3672Z" stroke="black" stroke-miterlimit="10" stroke-linecap="round"/>
<path d="M56.2298 48.1531L52.4053 52.2345C52.305 52.3419 52.1659 52.4017 52.0199 52.4017H43.8235C43.681 52.4017 43.5437 52.3436 43.4451 52.2415L39.3531 48.0369C39.2581 47.9383 39.2035 47.8063 39.2035 47.6691L39.2 30.5143V26.5297C39.2 26.2375 39.4359 26.0017 39.728 26.0017H55.8443C56.1365 26.0017 56.3723 26.2375 56.3723 26.5297V47.7923C56.3723 47.926 56.3213 48.0563 56.2298 48.1531Z" stroke="black" stroke-miterlimit="10" stroke-linecap="round"/>
</svg>
