<svg width="96" height="96" viewBox="0 0 96 96" fill="none" xmlns="http://www.w3.org/2000/svg">
<path d="M75.8784 35.4048V56.1984C75.8784 57.024 75.2064 57.6768 74.4 57.6768H69.12C68.4864 57.6768 67.9296 57.2928 67.7184 56.6976L60.7872 37.6512C60.4992 36.8448 60.9408 35.9616 61.7664 35.712C63.9552 35.0784 68.448 34.0224 74.3616 33.9072C75.1872 33.9072 75.8784 34.5792 75.8784 35.4048Z" stroke="black" stroke-miterlimit="10" stroke-linecap="round"/>
<path d="M66.3744 53.0304L63.3984 55.3536" stroke="black" stroke-miterlimit="10" stroke-linecap="round"/>
<path d="M20.1984 33.12L20.1216 52.704C20.1216 53.5296 20.7936 54.2016 21.6 54.2016H27.1104C27.7824 54.2016 28.3776 53.7408 28.5504 53.088L32.9472 35.808C33.12 35.0976 32.7552 34.3488 32.0832 34.0608C30.2784 33.312 26.5536 31.9872 21.7728 31.6416C20.928 31.5648 20.1984 32.256 20.1984 33.12Z" stroke="black" stroke-miterlimit="10" stroke-linecap="round"/>
<path d="M52.9536 51.648L59.9424 58.56C60.384 59.0016 61.056 59.1168 61.6128 58.848C63.9936 57.696 63.4368 55.4688 63.0912 54.5664C62.9952 54.336 62.8608 54.1248 62.6688 53.9712L49.8432 43.1232C49.44 42.7776 48.864 42.6816 48.3648 42.8544L46.3488 43.6032C46.0224 43.7184 45.7344 43.9488 45.5616 44.256C44.0448 46.9248 40.416 47.2896 39.1488 45.4272C37.8048 43.4496 40.896 39.0912 44.5824 36.3072C48.2688 33.5232 51.3984 35.424 51.3984 35.424L61.248 38.8608" stroke="black" stroke-miterlimit="10" stroke-linecap="round"/>
<path d="M59.4624 58.0992C59.4624 58.0992 60.0768 62.2848 56.0256 61.6896C55.6992 61.6512 55.392 61.4976 55.1616 61.248L49.1712 55.104" stroke="black" stroke-miterlimit="10" stroke-linecap="round"/>
<path d="M54.336 60.5952C54.336 60.5952 55.3152 63.9168 52.1088 64.1088C51.6864 64.128 51.264 63.9744 50.976 63.6864L44.736 57.5616" stroke="black" stroke-miterlimit="10" stroke-linecap="round"/>
<path d="M29.3184 50.112C29.3184 50.112 44.9472 68.448 50.4192 63.5328" stroke="black" stroke-miterlimit="10" stroke-linecap="round"/>
<path d="M32.7168 36.768H43.8336" stroke="black" stroke-miterlimit="10" stroke-linecap="round"/>
</svg>
