<svg width="96" height="96" viewBox="0 0 96 96" fill="none" xmlns="http://www.w3.org/2000/svg">
<g clip-path="url(#clip0_4062_21821)">
<mask id="mask0_4062_21821" style="mask-type:luminance" maskUnits="userSpaceOnUse" x="0" y="0" width="96" height="96">
<path d="M95.9936 0H0V95.9839H95.9936V0Z" fill="white"/>
</mask>
<g mask="url(#mask0_4062_21821)">
<path d="M47.9936 38.9715C47.9936 39.5045 48.4238 39.9347 48.9568 39.9347H62.8688C63.4017 39.9347 63.832 39.5045 63.832 38.9715V12.4158C63.832 6.26731 58.849 1.2843 52.7005 1.2843H40.0278C18.6317 1.2843 1.28427 18.6317 1.28427 40.0311V93.7397C1.28427 94.2727 1.71451 94.7029 2.24748 94.7029L93.7461 94.6804C94.2791 94.6804 94.7093 94.2502 94.7093 93.7172V87.7935C94.7093 83.5361 91.2578 80.0878 87.0004 80.0878L16.8498 80.107C16.3168 80.107 15.8865 79.6768 15.8865 79.1438V44.937C15.8865 39.2733 17.1644 32.9996 20.6769 28.4244C26.3245 21.0687 35.5746 15.1513 45.059 15.1513H47.0304C47.5633 15.1513 47.9936 15.5816 47.9936 16.1145V38.9715Z" stroke="black" stroke-miterlimit="10"/>
<path d="M47.9936 15.1481C51.5639 15.1481 54.4599 12.252 54.4599 8.68175C54.4599 5.11145 51.5639 2.21539 47.9936 2.21539C44.4233 2.21539 41.5272 5.11145 41.5272 8.68175C41.5272 12.252 44.4233 15.1481 47.9936 15.1481Z" stroke="black" stroke-miterlimit="10"/>
<path d="M52.007 39.9733V47.0304C52.007 47.5634 52.4372 47.9936 52.9702 47.9936H59.0705C59.6035 47.9936 60.0337 47.5634 60.0337 47.0304V39.6971" stroke="black" stroke-miterlimit="10"/>
</g>
</g>
<defs>
<clipPath id="clip0_4062_21821">
<rect width="96" height="96" fill="white"/>
</clipPath>
</defs>
</svg>
