<svg width="96" height="96" viewBox="0 0 96 96" fill="none" xmlns="http://www.w3.org/2000/svg">
<path d="M66.624 4.88306C66.624 4.88306 48.704 8.4706 48.48 22.3889C48.32 33.0519 48.384 57.9322 48.48 68.9938C48.48 75.3716 46.016 81.5834 41.376 85.7689C38.944 87.9613 35.776 89.8879 31.68 90.9177" stroke="black" stroke-linecap="round" stroke-linejoin="round"/>
<path d="M10.912 91.117L11.296 73.146C11.616 58.2976 23.552 46.4055 37.824 47.0035C38.176 47.0035 38.528 47.0367 38.912 47.0699" stroke="black" stroke-linecap="round" stroke-linejoin="round"/>
<path d="M29.6 48.0664L42.304 61.5861" stroke="black" stroke-linecap="round" stroke-linejoin="round"/>
<path d="M20.032 53.946L39.648 74.5412" stroke="black" stroke-linecap="round" stroke-linejoin="round"/>
<path d="M13.28 63.2803L31.488 81.8159" stroke="black" stroke-linecap="round" stroke-linejoin="round"/>
<path d="M11.2 77.2983L17.536 84.2408" stroke="black" stroke-linecap="round" stroke-linejoin="round"/>
<path d="M85.088 6.61035L84.704 24.5813C84.384 39.4297 72.448 51.3218 58.176 50.7238C57.824 50.7238 57.472 50.6906 57.088 50.6574" stroke="black" stroke-linecap="round" stroke-linejoin="round"/>
<path d="M66.4 49.6277L53.696 36.1412" stroke="black" stroke-linecap="round" stroke-linejoin="round"/>
<path d="M75.968 43.7481L56.352 23.1862" stroke="black" stroke-linecap="round" stroke-linejoin="round"/>
<path d="M82.72 34.4471L64.512 15.9114" stroke="black" stroke-linecap="round" stroke-linejoin="round"/>
<path d="M84.8 20.4291L78.464 13.4865" stroke="black" stroke-linecap="round" stroke-linejoin="round"/>
</svg>
