<svg width="96" height="96" viewBox="0 0 96 96" fill="none" xmlns="http://www.w3.org/2000/svg">
<path d="M20.3521 2.98962V10.663" stroke="black" stroke-linecap="round" stroke-linejoin="round"/>
<path d="M19.616 6.37788C19.616 6.37788 10.656 6.01248 10.656 14.9481C10.656 23.8838 7.26398 49.063 28.736 49.2623C29.248 49.2623 29.728 49.2623 30.24 49.2955C33.76 49.5281 51.648 48.9966 48.512 15.1142C48.512 15.1142 48.512 6.84293 40.096 6.84293" stroke="black" stroke-linecap="round" stroke-linejoin="round"/>
<path d="M39.296 2.98962V10.663" stroke="black" stroke-linecap="round" stroke-linejoin="round"/>
<path d="M29.408 49.3619L29.6 65.8713C29.696 73.8768 33.024 81.5502 38.944 86.699C43.072 90.2865 48.8 93.0104 56.576 92.6782C77.344 91.7481 80.544 71.5516 80.64 62.0512" stroke="black" stroke-linecap="round" stroke-linejoin="round"/>
<path d="M80.608 60.8554C84.5491 60.8554 87.744 57.5389 87.744 53.4478C87.744 49.3566 84.5491 46.0402 80.608 46.0402C76.6669 46.0402 73.472 49.3566 73.472 53.4478C73.472 57.5389 76.6669 60.8554 80.608 60.8554Z" stroke="black" stroke-linecap="round" stroke-linejoin="round"/>
</svg>
