<svg width="96" height="96" viewBox="0 0 96 96" fill="none" xmlns="http://www.w3.org/2000/svg">
<g clip-path="url(#clip0_4062_21899)">
<mask id="mask0_4062_21899" style="mask-type:luminance" maskUnits="userSpaceOnUse" x="0" y="0" width="96" height="96">
<path d="M96 0H0V96H96V0Z" fill="white"/>
</mask>
<g mask="url(#mask0_4062_21899)">
<path d="M52.3714 51.6282C56.8217 51.6282 60.4286 48.0342 60.4286 43.5998C60.4286 39.1653 56.8217 35.5713 52.3714 35.5713C47.9211 35.5713 44.3143 39.1653 44.3143 43.5998C44.3143 48.0342 47.9211 51.6282 52.3714 51.6282Z" stroke="black" stroke-linejoin="round"/>
<path d="M52.3714 59.9573C61.4605 59.9573 68.8285 52.6155 68.8285 43.5587C68.8285 34.5019 61.4605 27.1602 52.3714 27.1602C43.2822 27.1602 35.9142 34.5019 35.9142 43.5587C35.9142 52.6155 43.2822 59.9573 52.3714 59.9573Z" stroke="black" stroke-linejoin="round"/>
<path d="M63.7954 31.7552L80.5714 15.7153" stroke="black" stroke-linejoin="round"/>
<path d="M36 43.7296H18" stroke="black" stroke-linejoin="round"/>
<path d="M86.5714 17.4235C91.0217 17.4235 94.6286 13.8295 94.6286 9.39505C94.6286 4.9606 91.0217 1.36658 86.5714 1.36658C82.1211 1.36658 78.5143 4.9606 78.5143 9.39505C78.5143 13.8295 82.1211 17.4235 86.5714 17.4235Z" stroke="black" stroke-linejoin="round"/>
<path d="M9.42854 51.5872C13.8788 51.5872 17.4857 47.9932 17.4857 43.5587C17.4857 39.1243 13.8788 35.5303 9.42854 35.5303C4.97826 35.5303 1.3714 39.1243 1.3714 43.5587C1.3714 47.9932 4.97826 51.5872 9.42854 51.5872Z" stroke="black" stroke-linejoin="round"/>
<path d="M9.42854 94.6335C13.8788 94.6335 17.4857 91.0395 17.4857 86.605C17.4857 82.1706 13.8788 78.5765 9.42854 78.5765C4.97826 78.5765 1.3714 82.1706 1.3714 86.605C1.3714 91.0395 4.97826 94.6335 9.42854 94.6335Z" stroke="black" stroke-linejoin="round"/>
<path d="M86.5714 85.7509C91.0217 85.7509 94.6286 82.1569 94.6286 77.7224C94.6286 73.288 91.0217 69.694 86.5714 69.694C82.1211 69.694 78.5143 73.288 78.5143 77.7224C78.5143 82.1569 82.1211 85.7509 86.5714 85.7509Z" stroke="black" stroke-linejoin="round"/>
<path d="M26.9143 26.3061C31.3645 26.3061 34.9714 22.7121 34.9714 18.2776C34.9714 13.8432 31.3645 10.2491 26.9143 10.2491C22.464 10.2491 18.8571 13.8432 18.8571 18.2776C18.8571 22.7121 22.464 26.3061 26.9143 26.3061Z" stroke="black" stroke-linejoin="round"/>
<path d="M40.8 32.4555L32.5714 24.2562" stroke="black" stroke-linejoin="round"/>
<path d="M63.7714 55.0036L80.5714 72.0855" stroke="black" stroke-linejoin="round"/>
<path d="M40.3371 55.6356L15.0857 80.6264" stroke="black" stroke-linejoin="round"/>
</g>
</g>
<defs>
<clipPath id="clip0_4062_21899">
<rect width="96" height="96" fill="white"/>
</clipPath>
</defs>
</svg>
