<svg width="96" height="96" viewBox="0 0 96 96" fill="none" xmlns="http://www.w3.org/2000/svg">
<g clip-path="url(#clip0_4062_21879)">
<mask id="mask0_4062_21879" style="mask-type:luminance" maskUnits="userSpaceOnUse" x="0" y="0" width="96" height="96">
<path d="M96 0H0V96H96V0Z" fill="white"/>
</mask>
<g mask="url(#mask0_4062_21879)">
<mask id="mask1_4062_21879" style="mask-type:luminance" maskUnits="userSpaceOnUse" x="18" y="16" width="60" height="64">
<path d="M77.088 16.512H18.72V79.4704H77.088V16.512Z" fill="white"/>
</mask>
<g mask="url(#mask1_4062_21879)">
<path d="M60.9285 55.9548L69.4489 49.0038C71.1162 47.6431 73.5464 47.776 75.053 49.3118C76.657 50.9445 76.6401 53.5648 75.0107 55.1743L62.8431 67.2052C61.6174 68.4457 59.9459 69.1419 58.2004 69.1419H47.4634C45.7242 69.1419 44.059 69.8316 42.8292 71.0594L34.795 78.4451C34.5435 78.696 34.1357 78.692 33.8905 78.4366L24.3832 69.3065C24.1446 69.0595 24.1467 68.6671 24.3896 68.4225L35.8833 56.8324C38.1189 54.5858 41.1577 53.3221 44.3295 53.3221H56.7254C58.9146 53.3221 60.6877 55.0921 60.6877 57.2775C60.6877 59.463 58.9146 61.233 56.7254 61.233H45.0501" stroke="black" stroke-miterlimit="10" stroke-linecap="round"/>
<path d="M50.1513 47.0187C58.3294 47.0187 64.9605 40.3988 64.9605 32.2347C64.9605 24.0707 58.3294 17.4508 50.1513 17.4508C41.9733 17.4508 35.3422 24.0707 35.3422 32.2347C35.3422 40.3988 41.9733 47.0187 50.1513 47.0187Z" stroke="black" stroke-miterlimit="10"/>
<path d="M50.1872 32.8908C53.1415 32.8908 55.5358 30.5006 55.5358 27.5515C55.5358 24.6024 53.1415 22.2122 50.1872 22.2122C47.2331 22.2122 44.8389 24.6024 44.8389 27.5515C44.8389 30.5006 47.2331 32.8908 50.1872 32.8908Z" stroke="black" stroke-miterlimit="10"/>
<path d="M42.7828 45.4829V40.5612C42.7828 36.534 45.9631 33.1755 49.9951 33.0617C54.1982 32.9415 57.5878 36.3063 57.5878 40.4748V45.4829" stroke="black" stroke-miterlimit="10"/>
</g>
</g>
</g>
<defs>
<clipPath id="clip0_4062_21879">
<rect width="96" height="96" fill="white"/>
</clipPath>
</defs>
</svg>
