<svg width="96" height="96" viewBox="0 0 96 96" fill="none" xmlns="http://www.w3.org/2000/svg">
<path d="M30.9473 54.2479H22.9974C22.7058 54.2479 22.4694 54.4843 22.4694 54.7759V73.1855C22.4694 73.4771 22.7058 73.7135 22.9974 73.7135H30.9473C31.2389 73.7135 31.4753 73.4771 31.4753 73.1855V54.7759C31.4753 54.4843 31.2389 54.2479 30.9473 54.2479Z" stroke="black" stroke-linecap="round" stroke-linejoin="round"/>
<path d="M47.523 39.4094H39.2704C38.9788 39.4094 38.7424 39.6458 38.7424 39.9374V73.1856C38.7424 73.4772 38.9788 73.7136 39.2704 73.7136H47.523C47.8146 73.7136 48.051 73.4772 48.051 73.1856V39.9374C48.051 39.6458 47.8146 39.4094 47.523 39.4094Z" stroke="black" stroke-linecap="round" stroke-linejoin="round"/>
<path d="M64.1902 73.7136H56.0397C55.7475 73.7136 55.5117 73.4777 55.5117 73.1856V25.1517C55.5117 24.8595 55.7475 24.6237 56.0397 24.6237H64.1902C64.4824 24.6237 64.7182 24.8595 64.7182 25.1517V57.9845" stroke="black" stroke-linecap="round" stroke-linejoin="round"/>
<path d="M65.6986 73.872C70.0862 73.872 73.6414 70.315 73.6414 65.9291C73.6414 61.5432 70.0845 57.9862 65.6986 57.9862C61.3126 57.9862 57.7557 61.5432 57.7557 65.9291C57.7557 70.315 61.3126 73.872 65.6986 73.872Z" stroke="black" stroke-miterlimit="10" stroke-linecap="round"/>
<path d="M63.9984 67.5975C63.9984 68.5391 64.7623 69.303 65.7039 69.303C66.6455 69.303 67.4093 68.5391 67.4093 67.5975C67.4093 66.6559 66.6455 65.8921 65.7039 65.8921C64.7623 65.8921 63.9984 65.1282 63.9984 64.1866C63.9984 63.245 64.7623 62.4812 65.7039 62.4812C66.6455 62.4812 67.4093 63.245 67.4093 64.1866" stroke="black" stroke-miterlimit="10" stroke-linecap="round"/>
<path d="M65.7056 60.6808V62.4179" stroke="black" stroke-miterlimit="10" stroke-linecap="round"/>
<path d="M65.7056 69.5248V71.2619" stroke="black" stroke-miterlimit="10" stroke-linecap="round"/>
</svg>
