<svg width="96" height="96" viewBox="0 0 96 96" fill="none" xmlns="http://www.w3.org/2000/svg">
<g clip-path="url(#clip0_4062_21722)">
<mask id="mask0_4062_21722" style="mask-type:luminance" maskUnits="userSpaceOnUse" x="0" y="0" width="96" height="96">
<path d="M95.9034 0H0V95.8674H95.9034V0Z" fill="white"/>
</mask>
<g mask="url(#mask0_4062_21722)">
<path d="M6.82601 25.0674H18.8665C19.8577 25.0674 20.6774 25.8505 20.7335 26.8548L23.1211 59.5263C23.2021 60.9695 24.7824 61.7937 25.9886 61.02L45.0359 48.7958C46.2795 47.9969 47.9065 48.9032 47.9065 50.3969V59.2358C47.9065 60.7421 49.5585 61.6453 50.8021 60.8211L68.3876 49.1337C69.6312 48.3063 71.2832 49.2095 71.2832 50.719V59.2074C71.2832 60.72 72.9476 61.6232 74.1912 60.7832L91.7517 48.9221C92.9954 48.0821 94.6598 48.9853 94.6598 50.4979V92.7158C94.6598 93.7611 93.8213 94.6105 92.7897 94.6105H3.11692C2.04783 94.6105 1.19692 93.7042 1.24991 92.6211L4.959 26.8674C5.00887 25.86 5.83172 25.0674 6.82601 25.0674Z" stroke="black" stroke-linejoin="round"/>
<path d="M24.9943 19.8948C24.9943 18.739 24.8042 17.6274 24.4489 16.5948C23.0993 12.6348 19.387 9.78949 15.0203 9.78949C9.51276 9.78949 5.04626 14.3148 5.04626 19.8948" stroke="black" stroke-linecap="round" stroke-linejoin="round"/>
<path d="M47.333 16.4211C47.6041 15.4137 47.7475 14.3558 47.7475 13.2632C47.7475 6.63476 42.4457 1.26318 35.9034 1.26318C29.361 1.26318 24.0592 6.63476 24.0592 13.2632V15.619" stroke="black" stroke-linecap="round" stroke-linejoin="round"/>
</g>
</g>
<defs>
<clipPath id="clip0_4062_21722">
<rect width="96" height="96" fill="white"/>
</clipPath>
</defs>
</svg>
