<svg width="96" height="96" viewBox="0 0 96 96" fill="none" xmlns="http://www.w3.org/2000/svg">
<path d="M47.9616 41.5488C52.4471 41.5488 56.0832 37.9127 56.0832 33.4272C56.0832 28.9417 52.4471 25.3056 47.9616 25.3056C43.4761 25.3056 39.84 28.9417 39.84 33.4272C39.84 37.9127 43.4761 41.5488 47.9616 41.5488Z" stroke="black" stroke-miterlimit="10" stroke-linecap="round"/>
<path d="M50.8812 33.9034C51.1429 32.2915 50.0483 30.7726 48.4364 30.5111C46.8244 30.2494 45.3057 31.344 45.044 32.9559C44.7823 34.5677 45.8769 36.0866 47.4889 36.3483C49.1007 36.6098 50.6195 35.5152 50.8812 33.9034Z" stroke="black" stroke-miterlimit="10" stroke-linecap="round"/>
<path d="M44.352 26.016V21.4848C44.352 21.12 44.64 20.832 45.0048 20.832H50.8992C51.264 20.832 51.552 21.12 51.552 21.4848V26.016" stroke="black" stroke-miterlimit="10" stroke-linecap="round"/>
<path d="M42.7776 40.4736L34.4064 70.944C34.3104 71.2896 34.5216 71.6544 34.8672 71.7504L37.6128 72.4992C37.9584 72.5952 38.3232 72.384 38.4192 72.0384L46.7904 41.568" stroke="black" stroke-miterlimit="10" stroke-linecap="round"/>
<path d="M53.2416 40.4736L61.6128 70.944C61.7088 71.2896 61.4976 71.6544 61.152 71.7504L58.4064 72.4992C58.0608 72.5952 57.696 72.384 57.6 72.0384L49.2288 41.568" stroke="black" stroke-miterlimit="10" stroke-linecap="round"/>
<path d="M23.5776 49.5552C23.5776 49.5552 30.0864 60.5376 47.9616 60.5376C65.8368 60.5376 72.4224 49.5552 72.4224 49.5552" stroke="black" stroke-miterlimit="10" stroke-linecap="round"/>
<path d="M48 55.0464V66.8928" stroke="black" stroke-miterlimit="10" stroke-linecap="round"/>
<path d="M60.1152 72.0192L61.0368 75.168" stroke="black" stroke-miterlimit="10" stroke-linecap="round"/>
<path d="M36.2112 72.5184L35.4432 75.168" stroke="black" stroke-miterlimit="10" stroke-linecap="round"/>
</svg>
