<svg width="96" height="96" viewBox="0 0 96 96" fill="none" xmlns="http://www.w3.org/2000/svg">
<path d="M48.5952 55.5264L75.7632 39.4176C76.416 39.0336 76.3776 38.0928 75.7056 37.7664L48.3264 24.2304C48.0576 24.096 47.7504 24.096 47.4816 24.2304L20.3136 37.8048C19.6416 38.1312 19.6032 39.0912 20.256 39.456L47.6352 55.5456C47.9232 55.6992 48.288 55.6992 48.5952 55.5264Z" stroke="black" stroke-linecap="round" stroke-linejoin="round"/>
<path d="M19.776 57.9264V38.5728" stroke="black" stroke-linecap="round" stroke-linejoin="round"/>
<path d="M27.5328 43.7376V65.8752C27.5328 66.1632 27.6672 66.432 27.8976 66.624C29.3952 67.776 35.5776 71.8848 48.0576 71.8848C60.5376 71.8848 66.7008 67.776 68.1792 66.624C68.4096 66.4512 68.544 66.1824 68.544 65.8944L68.64 43.6608" stroke="black" stroke-linecap="round" stroke-linejoin="round"/>
<path d="M48.5952 55.5264L75.7632 39.4176C76.416 39.0336 76.3776 38.0928 75.7056 37.7664L48.3264 24.2304C48.0576 24.096 47.7504 24.096 47.4816 24.2304L20.3136 37.8048C19.6416 38.1312 19.6032 39.0912 20.256 39.456L47.6352 55.5456C47.9232 55.6992 48.288 55.6992 48.5952 55.5264Z" stroke="black" stroke-linecap="round" stroke-linejoin="round"/>
<path d="M19.776 57.9264V38.5728" stroke="black" stroke-linecap="round" stroke-linejoin="round"/>
<path d="M27.5328 43.7376V65.8752C27.5328 66.1632 27.6672 66.432 27.8976 66.624C29.3952 67.776 35.5776 71.8848 48.0576 71.8848C60.5376 71.8848 66.7008 67.776 68.1792 66.624C68.4096 66.4512 68.544 66.1824 68.544 65.8944L68.64 43.6608" stroke="black" stroke-linecap="round" stroke-linejoin="round"/>
</svg>
