<svg width="96" height="96" viewBox="0 0 96 96" fill="none" xmlns="http://www.w3.org/2000/svg">
<path d="M42.816 41.28C45.12 41.7216 47.1744 42.6432 48.9984 43.9488L50.8608 42.1056L54.1056 45.3504L52.1856 47.5008C53.1456 49.0368 54.9312 51.6864 55.3152 53.5296L58.5408 53.5488V59.8464L55.392 59.8848C55.0272 61.824 53.3952 64.5696 52.4352 66.2016L53.7984 67.5648C54.0096 67.776 54.0096 68.1024 53.7984 68.3136L50.8032 71.3088C50.592 71.52 50.2656 71.52 50.0544 71.3088L48.9216 70.1952C46.9824 71.6736 45.312 72.5376 42.8544 73.0368V76.0512H35.5392V73.0944C33.1008 72.6336 31.4496 71.5776 29.5488 70.1568L28.032 71.616L24.48 68.064L26.1888 66.336C25.2864 64.8 23.8656 61.6704 23.52 59.8464H19.9872V53.472H23.5392C23.5392 53.472 25.4784 49.632 26.5152 47.9808L24.384 45.7536L27.8592 42.0864L29.9904 43.9296C30.1632 44.1024 30.4512 44.1408 30.6624 43.9872C32.4288 42.7392 33.2736 42.2784 35.4624 41.3376L35.5392 37.4592H42.6624C42.7392 37.4592 42.7968 37.5168 42.7968 37.5936L42.816 41.28Z" stroke="black" stroke-linecap="round" stroke-linejoin="round"/>
<path d="M65.6256 22.464C67.1424 22.752 68.5056 23.3664 69.7152 24.2304L70.944 23.0016L73.0752 25.1328L71.808 26.5536C72.4416 27.5712 73.6128 29.3184 73.8624 30.5472L75.9936 30.5664V34.7328L73.9008 34.752C73.6704 36.0384 72.5952 37.8432 71.9424 38.9376L72.8448 39.84C72.9792 39.9744 72.9792 40.2048 72.8448 40.3392L70.8672 42.3168C70.7328 42.4512 70.5024 42.4512 70.368 42.3168L69.6192 41.5872C68.3328 42.5664 67.2384 43.1424 65.6064 43.4688V45.4656H60.768V43.5072C59.1552 43.2 58.0608 42.5088 56.8128 41.568L55.8336 42.528L53.4912 40.1856L54.624 39.0528C54.0288 38.0352 53.088 35.9616 52.8576 34.7712H50.5152V30.528H52.8768C52.8768 30.528 54.1632 27.9744 54.8544 26.8992L53.4528 25.4208L55.7568 23.0016L57.1584 24.2112C57.2736 24.3264 57.4656 24.3456 57.6 24.2496C58.7712 23.424 59.328 23.1168 60.768 22.5024L60.8256 19.9488H65.5296C65.5872 19.9488 65.6256 19.9872 65.6256 20.0448V22.464Z" stroke="black" stroke-linecap="round" stroke-linejoin="round"/>
<path d="M39.264 66.6816C44.7674 66.6816 49.2288 62.2202 49.2288 56.7168C49.2288 51.2134 44.7674 46.752 39.264 46.752C33.7606 46.752 29.2992 51.2134 29.2992 56.7168C29.2992 62.2202 33.7606 66.6816 39.264 66.6816Z" stroke="black" stroke-linecap="round" stroke-linejoin="round"/>
<path d="M66.048 29.9136L68.8128 29.5104C69.0624 29.472 69.2736 29.7024 69.216 29.9328L68.6592 32.448" stroke="black" stroke-miterlimit="10" stroke-linecap="round"/>
<path d="M68.5056 30.0672L62.8608 35.712C62.5728 36 62.0928 35.904 61.92 35.5392L61.0944 33.6384C60.9408 33.2736 60.48 33.1776 60.1728 33.4272L57.4848 35.8272" stroke="black" stroke-miterlimit="10" stroke-linecap="round"/>
<path d="M39.264 57.4656C41.2469 57.4656 42.8544 55.8581 42.8544 53.8752C42.8544 51.8923 41.2469 50.2848 39.264 50.2848C37.2811 50.2848 35.6736 51.8923 35.6736 53.8752C35.6736 55.8581 37.2811 57.4656 39.264 57.4656Z" stroke="black" stroke-miterlimit="10"/>
<path d="M34.2912 65.0112V64.0512C34.2912 60.576 36.0768 57.5616 39.1296 57.5616C42.1824 57.5616 44.2176 60.3648 44.2176 63.9744V65.0112C44.2176 65.1648 44.1216 65.28 44.0064 65.28H34.5024C34.3872 65.28 34.2912 65.1648 34.2912 65.0112Z" stroke="black" stroke-miterlimit="10"/>
</svg>
