<svg width="96" height="96" viewBox="0 0 96 96" fill="none" xmlns="http://www.w3.org/2000/svg">
<path d="M47.136 33.8496V37.056C47.136 37.5552 47.7504 37.8048 48.096 37.44L51.1296 34.2144C51.2256 34.0992 51.3792 34.0416 51.5328 34.0416L69.312 34.1376C69.6192 34.1376 69.8688 33.888 69.8688 33.6L70.0608 20.6208C70.0608 20.3136 69.8112 20.064 69.504 20.064L47.6928 20.0448C47.3856 20.0448 47.136 20.2944 47.136 20.6016V33.8496Z" stroke="black" stroke-linecap="round" stroke-linejoin="round"/>
<path d="M52.5504 28.8384C53.5789 28.8384 54.4128 28.0045 54.4128 26.976C54.4128 25.9474 53.5789 25.1136 52.5504 25.1136C51.5218 25.1136 50.688 25.9474 50.688 26.976C50.688 28.0045 51.5218 28.8384 52.5504 28.8384Z" stroke="black" stroke-linecap="round" stroke-linejoin="round"/>
<path d="M58.5984 28.8384C59.6269 28.8384 60.4608 28.0045 60.4608 26.976C60.4608 25.9474 59.6269 25.1136 58.5984 25.1136C57.5698 25.1136 56.736 25.9474 56.736 26.976C56.736 28.0045 57.5698 28.8384 58.5984 28.8384Z" stroke="black" stroke-linecap="round" stroke-linejoin="round"/>
<path d="M64.6656 28.8384C65.6942 28.8384 66.528 28.0045 66.528 26.976C66.528 25.9474 65.6942 25.1136 64.6656 25.1136C63.6371 25.1136 62.8032 25.9474 62.8032 26.976C62.8032 28.0045 63.6371 28.8384 64.6656 28.8384Z" stroke="black" stroke-linecap="round" stroke-linejoin="round"/>
<path d="M42.4129 69.0624L38.6497 75.9744" stroke="black" stroke-linecap="round" stroke-linejoin="round"/>
<path d="M53.5104 69.0624L57.2736 75.9744" stroke="black" stroke-linecap="round" stroke-linejoin="round"/>
<path d="M34.0416 75.9744H61.632" stroke="black" stroke-linecap="round" stroke-linejoin="round"/>
<path d="M20.9856 62.0352H75.4176" stroke="black" stroke-linecap="round" stroke-linejoin="round"/>
<path d="M29.7216 61.8816H47.232V57.4464C47.232 55.4688 46.6752 53.5104 45.5424 51.8784C44.2752 50.0544 42.1248 48.288 38.4768 48.288C34.8288 48.288 32.6784 49.9968 31.4112 51.7824C30.2784 53.376 29.7216 55.2768 29.7216 57.2352V61.8816Z" stroke="black" stroke-linecap="round" stroke-linejoin="round"/>
<path d="M38.4575 47.8464C42.0946 47.8464 45.0431 44.8978 45.0431 41.2608C45.0431 37.6237 42.0946 34.6752 38.4575 34.6752C34.8205 34.6752 31.8719 37.6237 31.8719 41.2608C31.8719 44.8978 34.8205 47.8464 38.4575 47.8464Z" stroke="black" stroke-linecap="round" stroke-linejoin="round"/>
<path d="M70.0608 28.4928H75.4176V68.9088H20.5824V28.4928H46.7328" stroke="black" stroke-linecap="round" stroke-linejoin="round"/>
</svg>
