<svg width="96" height="96" viewBox="0 0 96 96" fill="none" xmlns="http://www.w3.org/2000/svg">
<mask id="mask0_4062_21767" style="mask-type:luminance" maskUnits="userSpaceOnUse" x="0" y="0" width="96" height="96">
<path d="M95.7496 0H0V95.7407H95.7496V0Z" fill="white"/>
</mask>
<g mask="url(#mask0_4062_21767)">
<path d="M57.9628 88.758C69.9419 80.9343 81.0766 70.1851 87.9283 56.6155C96.549 39.5457 99.3391 12.0491 79.1663 3.30047C76.267 2.04266 73.1526 1.40149 70.035 1.40149C68.0637 1.40149 66.0955 1.65726 64.1787 2.16879C57.9371 3.83302 52.4629 9.07448 48.7096 14.6418C48.35 15.1743 47.634 15.2164 47.2262 14.7259C43.81 10.6056 39.8769 6.56937 35.3851 3.97667C32.4859 2.30543 29.2912 1.40149 26.0099 1.40149C16.7599 1.40149 7.66072 7.46981 3.76935 16.8246C-0.555465 27.2199 1.31638 39.7174 5.12427 49.9446C10.8489 65.3151 21.9291 77.3816 34.5054 86.3229C35.6837 87.1603 36.8749 87.9732 38.0821 88.758C40.7053 90.4713 46.0447 93.3898 47.5922 94.2307C47.8619 94.3778 48.1798 94.3778 48.4495 94.2307C49.997 93.3898 55.3364 90.4713 57.9596 88.758H57.9628Z" stroke="black" stroke-miterlimit="10" stroke-linecap="round"/>
<path d="M36.4158 71.9089C36.4158 71.9089 42.1148 66.1244 49.6631 57.8278C54.3411 52.6844 59.0255 45.9013 59.3241 38.3685C59.6099 31.1159 54.7649 23.8318 47.7463 23.8318C41.5786 23.8318 36.9263 29.739 36.5667 36.2488C36.114 44.4473 40.8112 52.2429 45.8906 57.8278C53.4389 66.1244 59.1379 71.9089 59.1379 71.9089" stroke="black" stroke-miterlimit="10" stroke-linecap="round"/>
</g>
</svg>
