<svg width="96" height="96" viewBox="0 0 96 96" fill="none" xmlns="http://www.w3.org/2000/svg">
<mask id="mask0_4062_21882" style="mask-type:luminance" maskUnits="userSpaceOnUse" x="0" y="0" width="96" height="96">
<path d="M95.9936 0H0V95.6918H95.9936V0Z" fill="white"/>
</mask>
<g mask="url(#mask0_4062_21882)">
<path d="M2.56858 94.4043H93.425C94.1346 94.4107 94.7093 93.8328 94.7093 93.1232V25.4031C94.7093 24.9183 94.4364 24.472 94.003 24.2569L48.5555 1.42235C48.1927 1.23934 47.7656 1.23934 47.4028 1.42235L1.99066 24.2537C1.55721 24.472 1.2843 24.9151 1.2843 25.3999V93.1168C1.2843 93.8264 1.85902 94.4011 2.56858 94.4011V94.4043Z" stroke="black" stroke-miterlimit="10"/>
<path d="M75.4708 39.3889H21.4925C16.9846 39.3889 13.3276 43.0459 13.3276 47.5537C13.3276 52.0616 16.9846 55.7185 21.4925 55.7185H75.4708C79.9786 55.7185 83.6356 52.0648 83.6356 47.5537C83.6356 43.0427 79.9818 39.3889 75.4708 39.3889Z" stroke="black" stroke-miterlimit="10"/>
<path d="M72.0738 50.4369C73.6888 50.4369 74.9956 49.1302 74.9956 47.5152C74.9956 45.9002 73.6888 44.5934 72.0738 44.5934C70.4589 44.5934 69.1521 45.9002 69.1521 47.5152C69.1521 49.1302 70.4589 50.4369 72.0738 50.4369Z" stroke="black" stroke-miterlimit="10"/>
<path d="M56.0204 50.4369C57.6354 50.4369 58.9421 49.1302 58.9421 47.5152C58.9421 45.9002 57.6354 44.5934 56.0204 44.5934C54.4054 44.5934 53.0986 45.9002 53.0986 47.5152C53.0986 49.1302 54.4054 50.4369 56.0204 50.4369Z" stroke="black" stroke-miterlimit="10"/>
<path d="M75.4708 68.4297H21.4925C16.9846 68.4297 13.3276 72.0835 13.3276 76.5945C13.3276 81.1055 16.9846 84.7593 21.4925 84.7593H75.4708C79.9786 84.7593 83.6356 81.1023 83.6356 76.5945C83.6356 72.0867 79.9818 68.4297 75.4708 68.4297Z" stroke="black" stroke-miterlimit="10"/>
<path d="M72.0738 79.4778C73.6888 79.4778 74.9956 78.171 74.9956 76.556C74.9956 74.941 73.6888 73.6343 72.0738 73.6343C70.4589 73.6343 69.1521 74.941 69.1521 76.556C69.1521 78.171 70.4589 79.4778 72.0738 79.4778Z" stroke="black" stroke-miterlimit="10"/>
<path d="M56.0204 79.4778C57.6354 79.4778 58.9421 78.171 58.9421 76.556C58.9421 74.941 57.6354 73.6343 56.0204 73.6343C54.4054 73.6343 53.0986 74.941 53.0986 76.556C53.0986 78.171 54.4054 79.4778 56.0204 79.4778Z" stroke="black" stroke-miterlimit="10"/>
</g>
</svg>
