<svg width="96" height="96" viewBox="0 0 96 96" fill="none" xmlns="http://www.w3.org/2000/svg">
<mask id="mask0_4062_21794" style="mask-type:luminance" maskUnits="userSpaceOnUse" x="0" y="0" width="96" height="96">
<path d="M95.8276 0H0V95.8844H95.8276V0Z" fill="white"/>
</mask>
<g mask="url(#mask0_4062_21794)">
<path d="M30.3718 75.002L14.3662 92.2146C11.645 95.1395 6.94644 95.4157 3.867 92.8311C0.787567 90.2464 0.496862 85.7836 3.21799 82.8586L19.3588 65.5048" stroke="black" stroke-miterlimit="10"/>
<path d="M52.5668 80.9001C75.7149 80.9001 94.4789 63.0775 94.4789 41.0906C94.4789 19.1037 75.7149 1.28107 52.5668 1.28107C29.4186 1.28107 10.6547 19.1037 10.6547 41.0906C10.6547 63.0775 29.4186 80.9001 52.5668 80.9001Z" stroke="black" stroke-miterlimit="10"/>
<path d="M33.6338 62.9876V48.8669C33.6338 48.3339 34.0867 47.9037 34.6479 47.9037H41.3611C41.9222 47.9037 42.3752 48.3339 42.3752 48.8669V62.9458C42.3752 63.4756 41.9256 63.9058 41.3679 63.909L34.6546 63.9508C34.0935 63.9508 33.6338 63.5205 33.6338 62.9876Z" stroke="black" stroke-miterlimit="10"/>
<path d="M50.3898 62.9875V40.8401C50.3898 40.3071 50.8427 39.8769 51.4039 39.8769H58.1171C58.6782 39.8769 59.1312 40.3071 59.1312 40.8401V62.9458C59.1312 63.4756 58.6816 63.9058 58.1239 63.909L51.4106 63.9507C50.8495 63.9507 50.3898 63.5205 50.3898 62.9875Z" stroke="black" stroke-miterlimit="10"/>
<path d="M67.2913 62.9876V24.7866C67.2913 24.2537 67.7442 23.8234 68.3053 23.8234H75.0186C75.5797 23.8234 76.0327 24.2537 76.0327 24.7866V62.9458C76.0327 63.4756 75.5831 63.9058 75.0253 63.909L68.3121 63.9508C67.751 63.9508 67.2913 63.5206 67.2913 62.9876Z" stroke="black" stroke-miterlimit="10"/>
</g>
</svg>
