<svg width="96" height="96" viewBox="0 0 96 96" fill="none" xmlns="http://www.w3.org/2000/svg">
<g clip-path="url(#clip0_4062_21927)">
<mask id="mask0_4062_21927" style="mask-type:luminance" maskUnits="userSpaceOnUse" x="0" y="0" width="96" height="96">
<path d="M95.8973 0H0V95.9519H95.8973V0Z" fill="white"/>
</mask>
<g mask="url(#mask0_4062_21927)">
<path d="M48.0546 48.8027C55.375 48.8027 61.3116 42.8661 61.3116 35.5457C61.3116 28.2253 55.375 22.2887 48.0546 22.2887C40.7342 22.2887 34.7976 28.2253 34.7976 35.5457C34.7976 42.8661 40.7342 48.8027 48.0546 48.8027Z" stroke="black" stroke-miterlimit="10"/>
<path d="M29.7054 70.5937V67.855C29.7054 57.8568 37.5909 49.5122 47.5858 49.2297C58.0046 48.9311 66.4102 57.2885 66.4102 67.6398V70.5937C66.4102 71.0207 66.0634 71.3675 65.6364 71.3675H30.4792C30.0522 71.3675 29.7054 71.0207 29.7054 70.5937Z" stroke="black" stroke-miterlimit="10"/>
<path d="M56.03 93.9805C53.4165 94.4332 50.7323 94.6708 47.9904 94.6708C45.2484 94.6708 42.5803 94.4364 39.9765 93.9869C17.9992 90.1855 1.28428 71.0272 1.28428 47.9647C1.28428 36.6791 5.28803 26.331 11.9502 18.2561" stroke="black" stroke-miterlimit="10" stroke-linecap="round"/>
<path d="M6.94796 11.7512L16.0086 23.1973C16.4452 23.7496 17.3089 23.6597 17.6268 23.0304L24.9472 8.37995C25.3035 7.66396 24.6839 6.85165 23.9005 7.00577L7.52268 10.21C6.81632 10.3481 6.50488 11.1861 6.95117 11.7544H6.94796V11.7512Z" stroke="black" stroke-miterlimit="10"/>
<path d="M39.8705 1.9746C42.484 1.52189 45.1682 1.2843 47.9101 1.2843C50.652 1.2843 53.3201 1.51868 55.924 1.96818C77.9013 5.76644 94.613 24.9247 94.613 47.9872C94.613 59.2728 90.6092 69.6209 83.947 77.6958" stroke="black" stroke-miterlimit="10" stroke-linecap="round"/>
<path d="M88.9493 84.2007L79.8887 72.7546C79.452 72.2023 78.5884 72.2922 78.2705 72.9215L70.9501 87.572C70.5937 88.288 71.2134 89.1003 71.9968 88.9462L88.3746 85.7419C89.0809 85.6038 89.3924 84.7658 88.9461 84.1975H88.9493V84.2007Z" stroke="black" stroke-miterlimit="10"/>
</g>
</g>
<defs>
<clipPath id="clip0_4062_21927">
<rect width="96" height="96" fill="white"/>
</clipPath>
</defs>
</svg>
