<svg width="96" height="96" viewBox="0 0 96 96" fill="none" xmlns="http://www.w3.org/2000/svg">
<path d="M65.6405 64.9805H30.3578V30.9897C30.3578 30.7257 30.5549 30.5127 30.7978 30.5127H65.2023C65.4452 30.5127 65.6423 30.7257 65.6423 30.9897V64.9805H65.6405Z" stroke="black" stroke-miterlimit="10"/>
<path d="M52.2716 31.0442V41.5127C52.2716 41.8876 51.8932 42.1428 51.5447 42.002L48.1444 40.6257C48.0176 40.5746 47.8751 40.5746 47.7484 40.6257L44.348 42.002C44.0013 42.1428 43.6212 41.8876 43.6212 41.5127V31.0442C43.6212 30.7521 43.857 30.5162 44.1492 30.5162H51.7418C52.034 30.5162 52.2698 30.7521 52.2698 31.0442H52.2716Z" stroke="black" stroke-miterlimit="10"/>
<path d="M73.1698 64.9805H22.8302C22.5386 64.9805 22.3022 65.2169 22.3022 65.5085V69.4931C22.3022 69.7847 22.5386 70.0211 22.8302 70.0211H73.1698C73.4614 70.0211 73.6978 69.7847 73.6978 69.4931V65.5085C73.6978 65.2169 73.4614 64.9805 73.1698 64.9805Z" stroke="black" stroke-miterlimit="10"/>
<path d="M34.3899 70.0211H26.44C26.1484 70.0211 25.912 70.2575 25.912 70.5491V73.344C25.912 73.6356 26.1484 73.872 26.44 73.872H34.3899C34.6815 73.872 34.9179 73.6356 34.9179 73.344V70.5491C34.9179 70.2575 34.6815 70.0211 34.3899 70.0211Z" stroke="black" stroke-miterlimit="10"/>
<path d="M69.5758 70.0211H61.6259C61.3343 70.0211 61.0979 70.2575 61.0979 70.5491V73.344C61.0979 73.6356 61.3343 73.872 61.6259 73.872H69.5758C69.8674 73.872 70.1038 73.6356 70.1038 73.344V70.5491C70.1038 70.2575 69.8674 70.0211 69.5758 70.0211Z" stroke="black" stroke-miterlimit="10"/>
<path d="M51.9776 70.0211H44.0277C43.7361 70.0211 43.4997 70.2575 43.4997 70.5491V73.344C43.4997 73.6356 43.7361 73.872 44.0277 73.872H51.9776C52.2692 73.872 52.5056 73.6356 52.5056 73.344V70.5491C52.5056 70.2575 52.2692 70.0211 51.9776 70.0211Z" stroke="black" stroke-miterlimit="10"/>
</svg>
