<svg width="96" height="96" viewBox="0 0 96 96" fill="none" xmlns="http://www.w3.org/2000/svg">
<path d="M48.1344 19.8336C49.3824 19.9104 50.5152 21.0432 50.6112 22.2912C50.6496 22.9248 50.496 23.5008 50.1696 23.9808C49.9392 24.3264 50.1888 24.7872 50.592 24.7872H57.984C58.1184 24.7872 58.2336 24.9024 58.2336 25.0368V31.9296C58.2336 32.3328 57.8112 32.5632 57.4656 32.3712C57.024 32.1216 56.5248 31.9872 55.9872 32.0256C54.6624 32.1024 53.568 33.1776 53.472 34.5024C53.3568 36.0576 54.6048 37.3632 56.1408 37.3632C56.6208 37.3632 57.0816 37.2288 57.4656 37.0176C57.8112 36.8256 58.2336 37.056 58.2336 37.4592V44.256C58.2336 44.3904 58.1184 44.5056 57.984 44.5056H37.9008C37.7664 44.5056 37.6512 44.3904 37.6512 44.256V37.4592C37.6512 37.056 38.0736 36.8256 38.4192 37.0176C38.8608 37.2672 39.36 37.4016 39.8976 37.3632C41.2224 37.2864 42.3168 36.2112 42.4128 34.8864C42.528 33.3312 41.28 32.0256 39.744 32.0256C39.264 32.0256 38.8032 32.16 38.4192 32.3712C38.0736 32.5632 37.6512 32.3328 37.6512 31.9296V25.0368C37.6512 24.9024 37.7664 24.7872 37.9008 24.7872H45.2928C45.696 24.7872 45.9456 24.3264 45.7152 23.9808C45.4272 23.5584 45.2544 23.04 45.2544 22.4832C45.2544 20.9472 46.56 19.7184 48.1344 19.8336Z" stroke="black" stroke-linecap="round" stroke-linejoin="round"/>
<path d="M35.3718 55.785C35.6284 52.1782 32.9126 49.0463 29.3058 48.7897C25.699 48.533 22.567 51.2489 22.3104 54.8557C22.0537 58.4625 24.7696 61.5944 28.3764 61.851C31.9832 62.1077 35.1151 59.3918 35.3718 55.785Z" stroke="black" stroke-miterlimit="10"/>
<path d="M19.7568 75.6864V73.9392C19.7568 67.5648 23.0208 62.0736 28.5888 62.0736C34.1568 62.0736 37.9008 67.2 37.9008 73.8048V75.6864C37.9008 75.9552 37.728 76.1856 37.5168 76.1856H20.1408C19.9296 76.1856 19.7568 75.9552 19.7568 75.6864Z" stroke="black" stroke-miterlimit="10"/>
<path d="M67.1616 61.8623C70.7775 61.8623 73.7088 58.9311 73.7088 55.3151C73.7088 51.6992 70.7775 48.7679 67.1616 48.7679C63.5457 48.7679 60.6144 51.6992 60.6144 55.3151C60.6144 58.9311 63.5457 61.8623 67.1616 61.8623Z" stroke="black" stroke-miterlimit="10"/>
<path d="M58.0992 75.6863V73.9391C58.0992 67.5647 61.3632 62.0735 66.9312 62.0735C72.4992 62.0735 76.2432 67.1999 76.2432 73.8047V75.6863C76.2432 75.9551 76.0704 76.1855 75.8592 76.1855H58.4832C58.272 76.1855 58.0992 75.9551 58.0992 75.6863Z" stroke="black" stroke-miterlimit="10"/>
</svg>
