<svg width="96" height="96" viewBox="0 0 96 96" fill="none" xmlns="http://www.w3.org/2000/svg">
<path d="M40.0128 47.1168L53.0304 24.3072C53.2608 23.904 53.856 23.9232 54.048 24.3456L76.4352 72.7872C76.608 73.1712 76.3392 73.6128 75.9168 73.6128H20.0832C19.6224 73.6128 19.3536 73.1136 19.6032 72.7296L37.1904 45.1968C37.4208 44.832 37.9584 44.8512 38.1696 45.216L42.8736 53.472C43.0656 53.8176 43.5456 53.856 43.8144 53.568L47.1552 49.7664C47.4048 49.4784 47.8656 49.5168 48.0768 49.824L51.1104 54.4128" stroke="black" stroke-miterlimit="10" stroke-linecap="round"/>
<path d="M46.656 35.5008L50.976 39.2064C51.1872 39.3792 51.4944 39.3984 51.7056 39.2064L55.6032 36.0192C55.8144 35.8464 56.1024 35.8464 56.3136 36L61.0368 39.4176" stroke="black" stroke-miterlimit="10" stroke-linecap="round"/>
<path d="M38.3232 36.9984C39.3624 36.9984 40.2048 36.156 40.2048 35.1168C40.2048 34.0776 39.3624 33.2352 38.3232 33.2352C37.284 33.2352 36.4416 34.0776 36.4416 35.1168C36.4416 36.156 37.284 36.9984 38.3232 36.9984Z" stroke="black" stroke-miterlimit="10" stroke-linecap="round"/>
<path d="M28.0704 38.9184C29.1096 38.9184 29.952 38.076 29.952 37.0368C29.952 35.9976 29.1096 35.1552 28.0704 35.1552C27.0312 35.1552 26.1888 35.9976 26.1888 37.0368C26.1888 38.076 27.0312 38.9184 28.0704 38.9184Z" stroke="black" stroke-miterlimit="10" stroke-linecap="round"/>
<path d="M30.4896 29.2032C31.5288 29.2032 32.3712 28.3608 32.3712 27.3216C32.3712 26.2824 31.5288 25.44 30.4896 25.44C29.4504 25.44 28.608 26.2824 28.608 27.3216C28.608 28.3608 29.4504 29.2032 30.4896 29.2032Z" stroke="black" stroke-miterlimit="10" stroke-linecap="round"/>
<path d="M42.048 26.1696C43.0872 26.1696 43.9296 25.3272 43.9296 24.288C43.9296 23.2488 43.0872 22.4064 42.048 22.4064C41.0088 22.4064 40.1664 23.2488 40.1664 24.288C40.1664 25.3272 41.0088 26.1696 42.048 26.1696Z" stroke="black" stroke-miterlimit="10" stroke-linecap="round"/>
</svg>
