<svg width="96" height="96" viewBox="0 0 96 96" fill="none" xmlns="http://www.w3.org/2000/svg">
<path d="M61.296 52.6848C58.3949 49.8317 54.7469 48.0288 50.7993 47.4509C57.3062 46.1511 62.2272 40.3968 62.2272 33.5117C62.2272 25.6743 55.8509 19.296 48.0115 19.296C40.1721 19.296 33.7958 25.6723 33.7958 33.5117C33.7958 40.4026 38.7264 46.1626 45.2448 47.4547C36.1267 48.8275 29.0649 56.8954 29.0649 66.4935V75.1853C29.0649 76.0243 29.7465 76.7059 30.5856 76.7059H65.0726C66.1113 76.7059 66.9561 75.8611 66.9561 74.8224V66.1959C66.9581 61.0733 64.9478 56.2752 61.296 52.6848ZM35.3337 33.5117C35.3337 26.521 41.0208 20.832 48.0134 20.832C55.0061 20.832 60.6931 26.5191 60.6931 33.5117C60.6931 40.5043 55.0061 46.1914 48.0134 46.1914C41.0208 46.1914 35.3337 40.5024 35.3337 33.5117ZM65.4221 74.8205C65.4221 75.0125 65.2665 75.168 65.0745 75.168H30.6029V66.4915C30.6029 56.8858 38.279 48.9427 47.7139 48.7853C52.4237 48.7143 56.8646 50.4807 60.2189 53.7792C63.575 57.0797 65.4221 61.488 65.4221 66.192V74.8205Z" fill="black"/>
</svg>
