<svg width="96" height="96" viewBox="0 0 96 96" fill="none" xmlns="http://www.w3.org/2000/svg">
<path d="M26 22.2494H29.997C30.2891 22.2494 30.525 22.4852 30.525 22.7774V65.0719C30.525 65.3641 30.7608 65.5999 31.053 65.5999H65.6" stroke="black" stroke-miterlimit="10" stroke-linecap="round"/>
<path d="M39.5044 73.9143C41.6657 73.9143 43.4187 72.1613 43.4187 70.0001C43.4187 67.8388 41.6657 66.0858 39.5044 66.0858C37.3432 66.0858 35.5902 67.8388 35.5902 70.0001C35.5902 72.1613 37.3432 73.9143 39.5044 73.9143Z" stroke="black" stroke-miterlimit="10" stroke-linecap="round"/>
<path d="M56.6486 73.9143C58.8099 73.9143 60.5629 72.1613 60.5629 70.0001C60.5629 67.8388 58.8099 66.0858 56.6486 66.0858C54.4873 66.0858 52.7344 67.8388 52.7344 70.0001C52.7344 72.1613 54.4873 73.9143 56.6486 73.9143Z" stroke="black" stroke-miterlimit="10" stroke-linecap="round"/>
<path d="M60.672 25.9314H39.8459C39.5543 25.9314 39.3179 26.1678 39.3179 26.4594V44.9887C39.3179 45.2803 39.5543 45.5167 39.8459 45.5167H60.672C60.9636 45.5167 61.2 45.2803 61.2 44.9887V26.4594C61.2 26.1678 60.9636 25.9314 60.672 25.9314Z" stroke="black" stroke-miterlimit="10" stroke-linecap="round"/>
<path d="M51.872 26.0458H48.6794C48.3878 26.0458 48.1514 26.2822 48.1514 26.5738V29.8245C48.1514 30.1161 48.3878 30.3525 48.6794 30.3525H51.872C52.1636 30.3525 52.4 30.1161 52.4 29.8245V26.5738C52.4 26.2822 52.1636 26.0458 51.872 26.0458Z" stroke="black" stroke-miterlimit="10" stroke-linecap="round"/>
<path d="M60.672 45.5166H39.8459C39.5543 45.5166 39.3179 45.753 39.3179 46.0446V65.072C39.3179 65.3636 39.5543 65.6 39.8459 65.6H60.672C60.9636 65.6 61.2 65.3636 61.2 65.072V46.0446C61.2 45.753 60.9636 45.5166 60.672 45.5166Z" stroke="black" stroke-miterlimit="10" stroke-linecap="round"/>
<path d="M51.872 45.631H48.6794C48.3878 45.631 48.1514 45.8674 48.1514 46.159V49.4097C48.1514 49.7013 48.3878 49.9377 48.6794 49.9377H51.872C52.1636 49.9377 52.4 49.7013 52.4 49.4097V46.159C52.4 45.8674 52.1636 45.631 51.872 45.631Z" stroke="black" stroke-miterlimit="10" stroke-linecap="round"/>
</svg>
