<svg width="96" height="96" viewBox="0 0 96 96" fill="none" xmlns="http://www.w3.org/2000/svg">
<path d="M36.6912 24.1536V32.9088H57.5808V24.1536H52.8C52.8 24.1536 51.552 19.6224 47.5008 19.6224C43.4496 19.6224 42.2016 24.1536 42.2016 24.1536H36.6912Z" stroke="black" stroke-linecap="round" stroke-linejoin="round"/>
<path d="M47.4816 39.5712H63.3792" stroke="black" stroke-linecap="round" stroke-linejoin="round"/>
<path d="M47.4816 42.7008H55.3152" stroke="black" stroke-linecap="round" stroke-linejoin="round"/>
<path d="M47.4816 50.9568H63.3792" stroke="black" stroke-linecap="round" stroke-linejoin="round"/>
<path d="M47.4816 54.0864H55.3152" stroke="black" stroke-linecap="round" stroke-linejoin="round"/>
<path d="M47.4816 62.9185H63.3792" stroke="black" stroke-linecap="round" stroke-linejoin="round"/>
<path d="M47.4816 66.048H55.3152" stroke="black" stroke-linecap="round" stroke-linejoin="round"/>
<path d="M32.7552 41.856L34.1568 43.5456C34.368 43.8144 34.7904 43.8144 35.0016 43.5456L38.9376 38.6304" stroke="black" stroke-miterlimit="10" stroke-linecap="round"/>
<path d="M32.7552 53.0496L34.1568 54.7392C34.368 55.008 34.7904 55.008 35.0016 54.7392L38.9376 49.824" stroke="black" stroke-miterlimit="10" stroke-linecap="round"/>
<path d="M32.7552 64.6272L34.1568 66.3168C34.368 66.5856 34.7904 66.5856 35.0016 66.3168L38.9376 61.4016" stroke="black" stroke-miterlimit="10" stroke-linecap="round"/>
<path d="M36.6912 28.3584H28.0704C27.3408 28.3584 26.7648 28.9344 26.7648 29.664V75.072C26.7648 75.8016 27.3408 76.3776 28.0704 76.3776H67.9296C68.6592 76.3776 69.2352 75.8016 69.2352 75.072V29.8176C69.2352 28.9728 68.544 28.2816 67.6992 28.2816L57.5808 28.3392" stroke="black" stroke-miterlimit="10" stroke-linecap="round"/>
</svg>
