<svg width="96" height="96" viewBox="0 0 96 96" fill="none" xmlns="http://www.w3.org/2000/svg">
<mask id="mask0_4062_21845" style="mask-type:luminance" maskUnits="userSpaceOnUse" x="0" y="0" width="96" height="96">
<path d="M95.797 0H0V95.7952H95.797V0Z" fill="white"/>
</mask>
<g mask="url(#mask0_4062_21845)">
<path d="M53.041 24.304V5.16163C53.041 3.01123 55.3289 1.28003 58.1709 1.28003H88.9755C91.8174 1.28003 94.1053 3.01123 94.1053 5.16163V90.6336C94.1053 92.784 91.8174 94.5152 88.9755 94.5152H62.4211" stroke="black" stroke-miterlimit="10"/>
<path d="M27.3663 47.8976V28.4704C27.3663 26.32 29.6543 24.5888 32.4962 24.5888H63.3008C66.1427 24.5888 68.4306 26.32 68.4306 28.4704V90.6336C68.4306 92.784 66.1427 94.5152 63.3008 94.5152H32.4962" stroke="black" stroke-miterlimit="10"/>
<path d="M1.69165 51.7792V90.6337C1.69165 92.7841 3.97958 94.5152 6.82152 94.5152H37.6261C40.468 94.5152 42.756 92.7841 42.756 90.6337V51.7792C42.756 49.6288 40.468 47.8976 37.6261 47.8976H6.82152C3.97958 47.8976 1.69165 49.6288 1.69165 51.7792Z" stroke="black" stroke-miterlimit="10"/>
</g>
</svg>
