<svg width="96" height="96" viewBox="0 0 96 96" fill="none" xmlns="http://www.w3.org/2000/svg">
<path fill-rule="evenodd" clip-rule="evenodd" d="M38.9747 35.02C37.9292 34.9267 36.8873 34.9619 35.8718 35.1186C35.68 35.1485 35.4881 35.0746 35.3684 34.9214L33.8795 32.9995C33.7281 32.8042 33.4624 32.7408 33.2389 32.8446L29.2542 34.7032C29.0307 34.807 28.9092 35.0517 28.962 35.2928L29.4777 37.6688C29.5182 37.8589 29.4513 38.0525 29.3052 38.181C28.61 38.7899 27.9747 39.4798 27.4185 40.2384C27.3041 40.395 27.1158 40.4795 26.924 40.4549L24.5128 40.1486C24.2681 40.117 24.034 40.2595 23.9496 40.4918L22.4465 44.6243C22.362 44.8566 22.45 45.1154 22.6577 45.2491L24.7011 46.5638C24.8648 46.6694 24.9528 46.8542 24.9404 47.0478C24.8788 47.9877 24.9228 48.924 25.0636 49.8374C25.0936 50.0293 25.0196 50.2211 24.8665 50.3408L22.9446 51.8298C22.7492 51.9811 22.6859 52.2469 22.7897 52.4704L24.6483 56.455C24.7521 56.6786 24.9968 56.8 25.2379 56.7472L27.6139 56.2315C27.804 56.191 27.9976 56.2579 28.126 56.404C28.735 57.0992 29.4249 57.7328 30.1852 58.2907C30.3419 58.4051 30.4264 58.5934 30.4017 58.7853L30.0955 61.1965C30.0638 61.4411 30.2064 61.6752 30.4387 61.7597L34.5712 63.2645C34.8035 63.349 35.0622 63.261 35.196 63.0533L36.5107 61.0099C36.6163 60.8462 36.8011 60.7582 36.9947 60.7706C37.9345 60.8322 38.8691 60.7882 39.7843 60.6474C39.9761 60.6174 40.168 60.6914 40.2876 60.8445L41.7766 62.7664C41.928 62.9618 42.1937 63.0251 42.4172 62.9213L46.4019 61.0627C46.6254 60.9589 46.7468 60.7125 46.694 60.4731L46.1784 58.0971C46.1379 57.907 46.2048 57.7134 46.3508 57.585C47.046 56.976 47.6797 56.2861 48.2376 55.5275C48.352 55.3709 48.5403 55.2864 48.7321 55.311L51.1433 55.6173C51.388 55.649 51.622 55.5064 51.7065 55.2741L53.2113 51.1416C53.2958 50.9093 53.2078 50.6506 53.0001 50.5168L50.9568 49.2021C50.7931 49.0965 50.7051 48.9117 50.7174 48.7181C50.779 47.7782 50.735 46.8419 50.5942 45.9285C50.5643 45.7366 50.6382 45.5448 50.7913 45.4251L52.7132 43.9362C52.9086 43.7848 52.972 43.519 52.8681 43.2955L51.0096 39.3109C50.9057 39.0874 50.6611 38.9659 50.42 39.0187L48.044 39.5344C47.8539 39.5749 47.6603 39.508 47.5318 39.3619C46.9228 38.6667 46.2329 38.0331 45.4744 37.4752C45.3177 37.3608 45.2332 37.1725 45.2579 36.9806L45.5641 34.5694C45.5958 34.3248 45.4533 34.0907 45.2209 34.0062L41.0902 32.5032C40.8579 32.4187 40.5992 32.5067 40.4654 32.7126L38.98 35.02H38.9747Z" stroke="black" stroke-miterlimit="10" stroke-linecap="round"/>
<path fill-rule="evenodd" clip-rule="evenodd" d="M40.1662 41.4563C43.7144 42.7482 45.5448 46.6712 44.2529 50.2211C42.9611 53.7693 39.0363 55.5997 35.4881 54.3079C31.9382 53.016 30.1096 49.0912 31.4014 45.5431C32.6932 41.9931 36.6163 40.1645 40.1662 41.4563Z" stroke="black" stroke-miterlimit="10" stroke-linecap="round"/>
<path fill-rule="evenodd" clip-rule="evenodd" d="M65.0104 57.504C64.4454 57.453 63.8822 57.4688 63.3331 57.5445C63.1483 57.5691 62.9653 57.4899 62.8526 57.3438L62.1838 56.4797C62.0325 56.2843 61.7667 56.221 61.5432 56.3248L59.5685 57.2453C59.3449 57.3491 59.2235 57.5938 59.2763 57.8349L59.5086 58.9032C59.5473 59.0845 59.491 59.2763 59.3537 59.4013C59.0123 59.7093 58.6973 60.0507 58.4157 60.4238C58.303 60.5717 58.1182 60.6438 57.9334 60.621L56.851 60.4837C56.6064 60.452 56.3723 60.5946 56.2878 60.8269L55.5433 62.8738C55.4589 63.1061 55.5469 63.3648 55.7545 63.4986L56.6733 64.0899C56.8299 64.1902 56.9249 64.3662 56.9144 64.551C56.8915 65.0174 56.9126 65.4821 56.976 65.9379C57.0024 66.1227 56.9232 66.3058 56.7753 66.4184L55.9112 67.0872C55.7158 67.2386 55.6525 67.5043 55.7563 67.7278L56.6768 69.7008C56.7806 69.9243 57.0253 70.0458 57.2664 69.993L58.3347 69.7606C58.516 69.7219 58.7078 69.7782 58.8328 69.9155C59.1408 70.257 59.4822 70.5702 59.8553 70.8536C60.0032 70.9662 60.0771 71.151 60.0525 71.3358L59.9152 72.4182C59.8835 72.6629 60.0261 72.897 60.2584 72.9814L62.3053 73.7259C62.5376 73.8104 62.7963 73.7224 62.9301 73.5147L63.5214 72.596C63.6217 72.4394 63.7977 72.3443 63.9825 72.3549C64.4489 72.3778 64.9136 72.3566 65.3677 72.2933C65.5525 72.2669 65.7355 72.3461 65.8481 72.4939L66.5169 73.3581C66.6683 73.5534 66.9341 73.6168 67.1576 73.513L69.1323 72.5925C69.3558 72.4886 69.4773 72.2422 69.4245 72.0029L69.1921 70.9346C69.1534 70.7533 69.2097 70.5614 69.347 70.4365C69.6885 70.1285 70.0017 69.787 70.2851 69.4139C70.3977 69.2661 70.5825 69.1939 70.7656 69.2168L71.848 69.3541C72.0926 69.3858 72.3267 69.2432 72.4112 69.0109L73.1557 66.964C73.2401 66.7317 73.1521 66.473 72.9445 66.3392L72.0257 65.7478C71.8691 65.6475 71.7741 65.4715 71.7846 65.2867C71.8075 64.8203 71.7864 64.3557 71.723 63.8998C71.6966 63.715 71.7758 63.532 71.9237 63.4194L72.7878 62.7506C72.9832 62.5992 73.0465 62.3334 72.9427 62.1099L72.0222 60.137C71.9184 59.9134 71.6737 59.792 71.4326 59.8448L70.3643 60.0771C70.183 60.1158 69.9912 60.0595 69.8662 59.9222C69.5582 59.5808 69.2168 59.2675 68.8437 58.9842C68.6958 58.8715 68.6219 58.6867 68.6465 58.5019L68.7838 57.4195C68.8155 57.1749 68.6729 56.9408 68.4406 56.8563L66.3937 56.1118C66.1614 56.0274 65.9027 56.1154 65.7689 56.3213L65.0086 57.5022L65.0104 57.504Z" stroke="black" stroke-miterlimit="10" stroke-linecap="round"/>
<path fill-rule="evenodd" clip-rule="evenodd" d="M65.6968 61.2158C67.7437 61.9603 68.7979 64.2237 68.0534 66.2688C67.3089 68.3157 65.0456 69.3699 63.0005 68.6254C60.9536 67.881 59.8993 65.6176 60.6438 63.5725C61.3883 61.5256 63.6517 60.4714 65.6968 61.2158Z" stroke="black" stroke-miterlimit="10" stroke-linecap="round"/>
<path d="M65.5824 52.4388V35.196" stroke="black" stroke-linecap="round" stroke-linejoin="round"/>
<path d="M61.42 38.9941L65.3044 35.1098C65.468 34.9461 65.732 34.9461 65.894 35.1098L69.7783 38.9941" stroke="black" stroke-linecap="round" stroke-linejoin="round"/>
</svg>
