<svg width="96" height="96" viewBox="0 0 96 96" fill="none" xmlns="http://www.w3.org/2000/svg">
<path d="M59.0193 56.7789C66.6468 56.7789 72.8301 50.5956 72.8301 42.9682C72.8301 35.3407 66.6468 29.1575 59.0193 29.1575C51.3919 29.1575 45.2086 35.3407 45.2086 42.9682C45.2086 50.5956 51.3919 56.7789 59.0193 56.7789Z" stroke="black" stroke-miterlimit="10" stroke-linecap="round"/>
<path d="M56.8492 61.5238V73.3721C56.8492 73.6638 57.0856 73.9001 57.3772 73.9001H60.6632C60.9548 73.9001 61.1912 73.6638 61.1912 73.3721V61.5238C61.1912 61.2322 60.9548 60.9958 60.6632 60.9958H57.3772C57.0856 60.9958 56.8492 61.2322 56.8492 61.5238Z" stroke="black" stroke-miterlimit="10" stroke-linecap="round"/>
<path d="M59.0194 56.712V60.4256" stroke="black" stroke-miterlimit="10" stroke-linecap="round"/>
<path d="M65.1301 37.5439L64.053 37.9768C63.877 38.0472 63.6746 38.0208 63.5285 37.9011C62.9301 37.4083 62.2525 37.0106 61.5151 36.7343C61.3391 36.6674 61.2159 36.5055 61.1877 36.3189L61.024 35.1749C60.9871 34.9144 60.7635 34.7208 60.5013 34.7208H57.534C57.2717 34.7208 57.0482 34.9144 57.0112 35.1749L56.8475 36.3189C56.8211 36.5055 56.698 36.6674 56.5202 36.7343C55.7828 37.0123 55.1052 37.4083 54.5068 37.9011C54.3607 38.0208 54.1583 38.0472 53.9823 37.9768L52.9051 37.5439C52.6605 37.4453 52.3824 37.5439 52.2504 37.7691L50.7668 40.3387C50.6348 40.5658 50.6911 40.8562 50.8988 41.0181L51.8051 41.7291C51.9547 41.8453 52.0322 42.0336 52.0023 42.2219C51.9389 42.6021 51.9055 42.9911 51.9055 43.3888C51.9055 43.7866 51.9389 44.1755 52.0023 44.5557C52.0339 44.7423 51.9547 44.9306 51.8051 45.0485L50.8988 45.7595C50.6928 45.9215 50.6365 46.2119 50.7668 46.4389L52.2504 49.0085C52.3824 49.2355 52.6605 49.3323 52.9051 49.2338L53.9823 48.8008C54.1583 48.7304 54.3607 48.7568 54.5068 48.8765C55.1052 49.3693 55.7828 49.7671 56.5202 50.0434C56.6962 50.1103 56.8194 50.2722 56.8475 50.4587L57.0112 51.6027C57.0482 51.8632 57.2717 52.0568 57.534 52.0568H60.5013C60.7635 52.0568 60.9871 51.8632 61.024 51.6027L61.1877 50.4587C61.2141 50.2722 61.3373 50.1103 61.5151 50.0434C62.2525 49.7653 62.9301 49.3693 63.5285 48.8765C63.6746 48.7568 63.877 48.7304 64.053 48.8008L65.1301 49.2338C65.3747 49.3323 65.6528 49.2338 65.7848 49.0085L67.2685 46.4389C67.4005 46.2119 67.3442 45.9215 67.1365 45.7595L66.2301 45.0485C66.0805 44.9323 66.0031 44.744 66.033 44.5557C66.0963 44.1755 66.1298 43.7866 66.1298 43.3888C66.1298 42.9911 66.0963 42.6021 66.033 42.2219C66.0013 42.0354 66.0805 41.8471 66.2301 41.7291L67.1365 41.0181C67.3424 40.8562 67.3988 40.5658 67.2685 40.3387L65.7848 37.7691C65.6528 37.5421 65.3747 37.4453 65.1301 37.5439Z" stroke="black" stroke-miterlimit="10" stroke-linecap="round"/>
<path d="M39.112 33.3322C40.744 33.3322 42.0671 32.0092 42.0671 30.3772C42.0671 28.7451 40.744 27.4221 39.112 27.4221C37.48 27.4221 36.157 28.7451 36.157 30.3772C36.157 32.0092 37.48 33.3322 39.112 33.3322Z" stroke="black" stroke-miterlimit="10" stroke-linecap="round"/>
<path d="M39.112 59.91C40.744 59.91 42.0671 58.5869 42.0671 56.9549C42.0671 55.3229 40.744 53.9999 39.112 53.9999C37.48 53.9999 36.157 55.3229 36.157 56.9549C36.157 58.5869 37.48 59.91 39.112 59.91Z" stroke="black" stroke-miterlimit="10" stroke-linecap="round"/>
<path d="M28.4623 43.366H36.157" stroke="black" stroke-miterlimit="10" stroke-linecap="round"/>
<path d="M42.067 43.366H51.9089" stroke="black" stroke-miterlimit="10" stroke-linecap="round"/>
<path d="M39.112 46.46C40.744 46.46 42.0671 45.137 42.0671 43.505C42.0671 41.8729 40.744 40.5499 39.112 40.5499C37.48 40.5499 36.157 41.8729 36.157 43.505C36.157 45.137 37.48 46.46 39.112 46.46Z" stroke="black" stroke-miterlimit="10" stroke-linecap="round"/>
<path d="M25.5072 46.46C27.1392 46.46 28.4622 45.137 28.4622 43.505C28.4622 41.8729 27.1392 40.5499 25.5072 40.5499C23.8751 40.5499 22.5521 41.8729 22.5521 43.505C22.5521 45.137 23.8751 46.46 25.5072 46.46Z" stroke="black" stroke-miterlimit="10" stroke-linecap="round"/>
<path d="M59 46.46C60.632 46.46 61.955 45.137 61.955 43.505C61.955 41.8729 60.632 40.5499 59 40.5499C57.3679 40.5499 56.0449 41.8729 56.0449 43.505C56.0449 45.137 57.3679 46.46 59 46.46Z" stroke="black" stroke-miterlimit="10" stroke-linecap="round"/>
<path d="M39.2 34.1716V40.5147" stroke="black" stroke-miterlimit="10" stroke-linecap="round"/>
<path d="M39.2 46.4934V53.9998" stroke="black" stroke-miterlimit="10" stroke-linecap="round"/>
</svg>
