<svg width="96" height="96" viewBox="0 0 96 96" fill="none" xmlns="http://www.w3.org/2000/svg">
<path d="M29.4528 37.2288H48.6528" stroke="black" stroke-miterlimit="10" stroke-linecap="round"/>
<path d="M29.4528 51.3217H48.6528" stroke="black" stroke-miterlimit="10" stroke-linecap="round"/>
<path d="M29.4528 41.8752H43.9104" stroke="black" stroke-miterlimit="10" stroke-linecap="round"/>
<path d="M29.4528 46.6752H43.9104" stroke="black" stroke-miterlimit="10" stroke-linecap="round"/>
<path d="M67.4304 33.984V70.6944C67.4304 71.424 66.8544 72 66.1248 72H26.2464C25.5168 72 24.9408 71.424 24.9408 70.6944V25.2864C24.9408 24.5568 25.5168 23.9808 26.2464 23.9808H54.528" stroke="black" stroke-miterlimit="10" stroke-linecap="round"/>
<path d="M53.9712 24.5376V33.9072C53.9712 34.2144 54.2208 34.464 54.528 34.464H66.8928C67.4112 34.464 67.6416 33.792 67.2192 33.4848L54.8544 24.1152C54.4896 23.8272 53.9712 24.096 53.9712 24.5376Z" stroke="black" stroke-miterlimit="10" stroke-linecap="round"/>
<path d="M57.8496 26.3808H65.9136C66.3168 26.3808 66.6816 26.5344 66.9696 26.8032L70.56 30.2016C70.8672 30.4896 71.04 30.8928 71.04 31.3152V68.0256C71.04 68.8896 70.3488 69.5808 69.4848 69.5808H67.488" stroke="black" stroke-miterlimit="10" stroke-linecap="round"/>
</svg>
