<svg width="96" height="96" viewBox="0 0 96 96" fill="none" xmlns="http://www.w3.org/2000/svg">
<path d="M62.476 35.4776V42.9224C62.476 43.2832 62.1205 43.5384 61.779 43.4222L58.817 42.4208C58.7078 42.3838 58.5882 42.3838 58.479 42.4208L55.517 43.4222C55.1755 43.5384 54.82 43.2832 54.82 42.9224V35.4776C54.82 35.1854 55.0558 34.9496 55.348 34.9496H61.948C62.2402 34.9496 62.476 35.1854 62.476 35.4776Z" stroke="black" stroke-linecap="round" stroke-linejoin="round"/>
<path d="M56.3107 69.7167H39.4112" stroke="black" stroke-linejoin="round"/>
<path d="M30.877 69.7237L23.448 69.7167C22.883 69.7167 22.4237 69.2573 22.4237 68.6924V55.4924C22.4237 54.9274 22.883 54.4681 23.448 54.4681H28.1384C28.5555 54.4681 28.9304 54.2164 29.087 53.8292L32.8358 44.5857C32.9925 44.2002 33.3674 43.9468 33.7845 43.9468H43.6" stroke="black" stroke-linejoin="round"/>
<path d="M60.6914 65.4557C63.0075 65.4557 64.8854 67.3213 64.8854 69.6216C64.8854 71.9219 63.0075 73.7875 60.6914 73.7875C58.3752 73.7875 56.4973 71.9237 56.4973 69.6216C56.4973 67.3213 58.3752 65.4557 60.6914 65.4557Z" stroke="black" stroke-linejoin="round"/>
<path d="M35.0851 65.4557C37.4013 65.4557 39.2792 67.3213 39.2792 69.6216C39.2792 71.9219 37.4013 73.7875 35.0851 73.7875C32.769 73.7875 30.891 71.9237 30.891 69.6216C30.891 67.3213 32.769 65.4557 35.0851 65.4557Z" stroke="black" stroke-linejoin="round"/>
<path d="M56.3107 69.7237H44.128C43.8358 69.7237 43.6 69.4861 43.6 69.194V35.4776C43.6 35.1855 43.8358 34.9479 44.128 34.9479H73.1698C73.4619 34.9479 73.6978 35.1855 73.6978 35.4776V69.194C73.6978 69.4861 73.4619 69.7237 73.1698 69.7237H65.0174" stroke="black" stroke-linejoin="round"/>
</svg>
