<svg width="96" height="96" viewBox="0 0 96 96" fill="none" xmlns="http://www.w3.org/2000/svg">
<path d="M48.4416 19.7952C51.3024 19.9872 53.9136 22.5792 54.1248 25.44C54.24 26.88 53.8368 28.224 53.1072 29.3184C52.5888 30.1056 53.1456 31.1616 54.0864 31.1616H71.04C71.3472 31.1616 71.616 31.4112 71.616 31.7376V47.5392C71.616 48.4416 70.6368 48.9984 69.8304 48.5376C68.832 47.9616 67.6608 47.6736 66.4128 47.7504C63.36 47.9232 60.8832 50.3808 60.672 53.4336C60.4224 57.024 63.264 60 66.7968 60C67.9104 60 68.9472 59.712 69.8496 59.1936C70.6368 58.7328 71.616 59.3088 71.616 60.2112V75.8016C71.616 76.1088 71.3664 76.3776 71.04 76.3776H24.96C24.6528 76.3776 24.384 76.128 24.384 75.8016V60.2112C24.384 59.3088 25.3632 58.752 26.1696 59.2128C27.168 59.7888 28.3392 60.0768 29.5872 60C32.64 59.8272 35.1168 57.3696 35.328 54.3168C35.5776 50.7264 32.736 47.7504 29.2032 47.7504C28.0896 47.7504 27.0528 48.0384 26.1504 48.5568C25.3632 49.0176 24.384 48.4416 24.384 47.5392V31.7376C24.384 31.4304 24.6336 31.1616 24.96 31.1616H41.9136C42.8544 31.1616 43.4112 30.1056 42.8928 29.3376C42.24 28.3584 41.856 27.1872 41.856 25.92C41.8752 22.3872 44.8512 19.5456 48.4416 19.7952Z" stroke="black" stroke-linecap="round" stroke-linejoin="round"/>
</svg>
