<svg width="96" height="96" viewBox="0 0 96 96" fill="none" xmlns="http://www.w3.org/2000/svg">
<mask id="mask0_4062_21915" style="mask-type:luminance" maskUnits="userSpaceOnUse" x="0" y="0" width="96" height="96">
<path d="M95.7214 0H0V95.99H95.7214V0Z" fill="white"/>
</mask>
<g mask="url(#mask0_4062_21915)">
<path d="M66.9289 58.7005L82.1082 47.6789C85.0786 45.5214 89.408 45.7322 92.0922 48.1673C94.9496 50.7563 94.9195 54.9107 92.0169 57.4629L70.3398 76.5391C68.1562 78.506 65.1784 79.6098 62.0687 79.6098H42.9402C39.8419 79.6098 36.8753 80.7036 34.6842 82.6504L20.3708 94.361C19.9228 94.7591 19.1962 94.7524 18.7595 94.3476L1.82212 79.8674C1.39671 79.476 1.40047 78.8538 1.83341 78.4658L22.3096 60.0887C26.2927 56.5263 31.7064 54.5227 37.3572 54.5227H59.4409C63.3412 54.5227 66.4998 57.3291 66.4998 60.7945C66.4998 64.2598 63.3412 67.0663 59.4409 67.0663H38.6409" stroke="black" stroke-miterlimit="10" stroke-linecap="round"/>
<path d="M28.9129 31.088V54.6398" stroke="black" stroke-miterlimit="10" stroke-linecap="square"/>
<path d="M77.1539 50.2713V31.854" stroke="black" stroke-miterlimit="10" stroke-linecap="square"/>
<path d="M38.3172 12.1188V5.74335C38.3172 5.18809 37.8127 4.73987 37.1878 4.73987H30.0348C29.4099 4.73987 28.9054 5.18809 28.9054 5.74335V20.4812" stroke="black" stroke-miterlimit="10" stroke-linecap="square"/>
<path d="M59.2565 53.2483V38.3432C59.2565 37.7879 58.752 37.3397 58.1271 37.3397H47.7741C47.1492 37.3397 46.6447 37.7879 46.6447 38.3432V53.2483" stroke="black" stroke-miterlimit="10" stroke-linecap="square"/>
<path d="M53.568 9.98472L82.8838 35.9649C83.3393 36.3663 84.0772 36.3529 84.5101 35.9348L87.4692 33.0849C87.8795 32.6902 87.8645 32.0748 87.4391 31.6934L53.5981 1.63239C53.1577 1.24103 52.4424 1.24103 52.0019 1.63239L18.1421 31.6299C17.7167 32.0079 17.6979 32.6166 18.1045 33.0147L21.0033 35.8512C21.4362 36.276 22.1779 36.2927 22.6372 35.888L51.9718 9.98472C52.4122 9.59671 53.1238 9.59671 53.5642 9.98472H53.568Z" stroke="black" stroke-linecap="round" stroke-linejoin="round"/>
</g>
</svg>
