<svg width="96" height="96" viewBox="0 0 96 96" fill="none" xmlns="http://www.w3.org/2000/svg">
<path d="M66.2776 53.6831C63.6165 49.3429 57.8578 48.1549 53.6971 51.0871C49.929 53.7429 48.8571 58.9402 51.2666 62.8703C53.9277 67.2104 59.6864 68.3984 63.847 65.4663C67.6152 62.8104 68.687 57.6132 66.2776 53.6831Z" stroke="black" stroke-linejoin="round"/>
<path d="M63.8453 65.4663L69.3189 73.7841" stroke="black" stroke-linecap="round" stroke-linejoin="round"/>
<path d="M56.1699 73.8086L39.5942 65.9238C39.4499 65.8552 39.2845 65.8552 39.1402 65.9238L23.0925 73.557C22.7422 73.7242 22.3374 73.469 22.3374 73.08V31.2237C22.3374 31.0283 22.4448 30.8488 22.619 30.7573L39.0715 22.047C39.2264 21.9661 39.4094 21.9661 39.5643 22.047L56.1506 30.7784C56.3054 30.8594 56.4902 30.8594 56.6433 30.7784L72.6013 22.3286C72.9533 22.1421 73.3757 22.3973 73.3757 22.795V65.4856C73.3757 65.6898 73.2595 65.8746 73.0747 65.9626L56.6222 73.8122C56.4779 73.8808 56.3125 73.8808 56.1682 73.8122L56.1699 73.8086Z" stroke="black" stroke-linejoin="round"/>
<path d="M39.3179 21.915V65.8165" stroke="black" stroke-linejoin="round"/>
<path d="M56.397 67.0767V73.916" stroke="black" stroke-linejoin="round"/>
<path d="M56.397 30.9069V49.8005" stroke="black" stroke-linejoin="round"/>
</svg>
