<svg width="96" height="96" viewBox="0 0 96 96" fill="none" xmlns="http://www.w3.org/2000/svg">
<g clip-path="url(#clip0_4062_21801)">
<mask id="mask0_4062_21801" style="mask-type:luminance" maskUnits="userSpaceOnUse" x="0" y="0" width="96" height="96">
<path d="M96 0H0V96H96V0Z" fill="white"/>
</mask>
<g mask="url(#mask0_4062_21801)">
<path d="M47.9962 61.255C50.3015 61.255 52.1704 59.3862 52.1704 57.0809C52.1704 54.7754 50.3015 52.9066 47.9962 52.9066C45.6908 52.9066 43.8219 54.7754 43.8219 57.0809C43.8219 59.3862 45.6908 61.255 47.9962 61.255Z" stroke="black" stroke-miterlimit="10"/>
<path d="M51.6031 59.2084L55.0885 61.2549" stroke="black" stroke-miterlimit="10" stroke-linecap="round"/>
<path d="M48.0165 48.6512L47.9962 52.7241" stroke="black" stroke-miterlimit="10" stroke-linecap="round"/>
<path d="M44.0853 59.2084L40.5798 61.2549" stroke="black" stroke-miterlimit="10" stroke-linecap="round"/>
<path d="M53.5872 25.5456C54.1776 22.4796 52.1706 19.5155 49.1047 18.9251C46.0387 18.3346 43.0746 20.3415 42.4842 23.4075C41.8938 26.4735 43.9006 29.4376 46.9666 30.028C50.0325 30.6184 52.9966 28.6117 53.5872 25.5456Z" stroke="black" stroke-miterlimit="10"/>
<path d="M40.2151 42.0657V40.5662C40.2151 35.0748 43.0316 30.313 47.8543 30.313C52.6771 30.313 55.8787 34.7505 55.8787 40.4446V42.0657C55.8787 42.3088 55.7368 42.4912 55.5544 42.4912H40.5596C40.3568 42.4912 40.2151 42.3088 40.2151 42.0657Z" stroke="black" stroke-miterlimit="10"/>
<path d="M26.2739 65.5914C29.3962 65.5914 31.9273 63.0602 31.9273 59.9379C31.9273 56.8154 29.3962 54.2843 26.2739 54.2843C23.1516 54.2843 20.6204 56.8154 20.6204 59.9379C20.6204 63.0602 23.1516 65.5914 26.2739 65.5914Z" stroke="black" stroke-miterlimit="10"/>
<path d="M18.432 77.5265V76.027C18.432 70.5356 21.2486 65.7738 26.0713 65.7738C30.894 65.7738 34.0956 70.2115 34.0956 75.9055V77.5265C34.0956 77.7696 33.9537 77.952 33.7713 77.952H18.7765C18.5941 77.952 18.432 77.7696 18.432 77.5265Z" stroke="black" stroke-miterlimit="10"/>
<path d="M69.8807 65.5914C73.003 65.5914 75.5341 63.0602 75.5341 59.9379C75.5341 56.8154 73.003 54.2843 69.8807 54.2843C66.7582 54.2843 64.2271 56.8154 64.2271 59.9379C64.2271 63.0602 66.7582 65.5914 69.8807 65.5914Z" stroke="black" stroke-miterlimit="10"/>
<path d="M62.059 77.5265V76.027C62.059 70.5356 64.8757 65.7738 69.6983 65.7738C74.521 65.7738 77.7226 70.2115 77.7226 75.9055V77.5265C77.7226 77.7696 77.5807 77.952 77.3983 77.952H62.4035C62.2009 77.952 62.059 77.7696 62.059 77.5265Z" stroke="black" stroke-miterlimit="10"/>
</g>
</g>
<defs>
<clipPath id="clip0_4062_21801">
<rect width="96" height="96" fill="white"/>
</clipPath>
</defs>
</svg>
