<svg width="96" height="96" viewBox="0 0 96 96" fill="none" xmlns="http://www.w3.org/2000/svg">
<path d="M56.272 73.872H27.2303C26.9381 73.872 26.7023 73.6362 26.7023 73.344V40.425C26.7023 40.1328 26.9381 39.897 27.2303 39.897H55.744C56.0362 39.897 56.272 40.1328 56.272 40.425V44.6384" stroke="black" stroke-miterlimit="10"/>
<path d="M68.944 53.2307H44.7792C44.4876 53.2307 44.2512 53.4671 44.2512 53.7587V73.344C44.2512 73.6356 44.4876 73.872 44.7792 73.872H68.944C69.2356 73.872 69.472 73.6356 69.472 73.344V53.7587C69.472 53.4671 69.2356 53.2307 68.944 53.2307Z" stroke="black" stroke-miterlimit="10" stroke-linecap="round"/>
<path d="M33.1755 39.1701C33.1755 34.7208 36.7835 31.1128 41.2328 31.1128C45.6821 31.1128 49.2901 34.7208 49.2901 39.1701" stroke="black" stroke-miterlimit="10"/>
<path d="M48.9486 52.6658C48.9486 48.2324 52.5425 44.6384 56.976 44.6384C61.4094 44.6384 65.0033 48.2324 65.0033 52.6658" stroke="black" stroke-miterlimit="10"/>
</svg>
