<svg width="96" height="96" viewBox="0 0 96 96" fill="none" xmlns="http://www.w3.org/2000/svg">
<path d="M56.4864 64.7232H36.5568C32.8704 64.7232 29.8752 61.728 29.8752 58.0416V38.112C29.8752 34.4256 32.8704 31.4304 36.5568 31.4304H56.4864C60.1728 31.4304 63.168 34.4256 63.168 38.112V58.0416C63.168 61.728 60.1728 64.7232 56.4864 64.7232Z" stroke="black" stroke-linecap="round" stroke-linejoin="round"/>
<path d="M35.5392 31.104L38.7072 21.312C38.9568 20.5632 39.648 20.064 40.4352 20.064H52.6464C53.3952 20.064 54.0672 20.5248 54.336 21.216L58.176 31.104" stroke="black" stroke-linecap="round" stroke-linejoin="round"/>
<path d="M58.1952 64.896L55.0272 74.688C54.7776 75.4368 54.0864 75.936 53.2992 75.936H41.088C40.3392 75.936 39.6671 75.4752 39.3983 74.784L35.5583 64.896" stroke="black" stroke-linecap="round" stroke-linejoin="round"/>
<path d="M63.168 38.2656H64.704C65.4912 38.2656 66.1248 38.8992 66.1248 39.6864V43.0656C66.1248 43.8528 65.4912 44.4864 64.704 44.4864H63.168" stroke="black" stroke-linecap="round" stroke-linejoin="round"/>
<path d="M33.5616 36.4224H41.9904" stroke="black" stroke-linecap="round" stroke-linejoin="round"/>
<path d="M33.5616 39.1104H38.8608" stroke="black" stroke-linecap="round" stroke-linejoin="round"/>
</svg>
