<svg width="96" height="96" viewBox="0 0 96 96" fill="none" xmlns="http://www.w3.org/2000/svg">
<path d="M69.56 39.2H26.44C26.1484 39.2 25.912 39.4363 25.912 39.728V69.2414C25.912 69.533 26.1484 69.7694 26.44 69.7694H69.56C69.8516 69.7694 70.088 69.533 70.088 69.2414V39.728C70.088 39.4363 69.8516 39.2 69.56 39.2Z" stroke="black" stroke-linecap="round" stroke-linejoin="round"/>
<path d="M22.8707 69.7694H73.1293C73.4214 69.7694 73.6573 70.0052 73.6573 70.2974V73.0588C73.6573 73.351 73.4214 73.5868 73.1293 73.5868H22.8707C22.5786 73.5868 22.3427 73.351 22.3427 73.0588V70.2974C22.3427 70.0052 22.5786 69.7694 22.8707 69.7694Z" stroke="black" stroke-linecap="round" stroke-linejoin="round"/>
<path d="M56.2227 48.0439H39.5907C39.2991 48.0439 39.0627 48.2803 39.0627 48.5719V65.2039C39.0627 65.4956 39.2991 65.7319 39.5907 65.7319H56.2227C56.5144 65.7319 56.7507 65.4956 56.7507 65.2039V48.5719C56.7507 48.2803 56.5144 48.0439 56.2227 48.0439Z" stroke="black" stroke-miterlimit="10" stroke-linecap="round"/>
<path d="M49.7477 48.0563H46.3104C46.0188 48.0563 45.7824 48.2927 45.7824 48.5843V51.872C45.7824 52.1636 46.0188 52.4 46.3104 52.4H49.7477C50.0393 52.4 50.2757 52.1636 50.2757 51.872V48.5843C50.2757 48.2927 50.0393 48.0563 49.7477 48.0563Z" stroke="black" stroke-miterlimit="10" stroke-linecap="round"/>
</svg>
