<svg width="96" height="96" viewBox="0 0 96 96" fill="none" xmlns="http://www.w3.org/2000/svg">
<mask id="mask0_4062_21850" style="mask-type:luminance" maskUnits="userSpaceOnUse" x="0" y="0" width="96" height="96">
<path d="M95.9676 0H0V95.9803H95.9676V0Z" fill="white"/>
</mask>
<g mask="url(#mask0_4062_21850)">
<path d="M33.7946 53.7044C33.7687 54.222 33.8465 54.4842 34.44 54.4547C35.3157 54.4121 36.1978 54.4317 37.0735 54.4481C37.4497 54.4547 37.6184 54.3269 37.6735 53.9272C38.2249 49.9758 38.7957 46.0276 39.3568 42.0795C39.5027 41.0638 39.0778 40.3332 38.28 39.7368C34.9589 37.25 31.6541 34.7468 28.3427 32.2502C27.2822 31.4507 27.2205 31.2214 27.7589 30.032C29.3611 26.4967 30.9308 22.9483 31.7968 19.1378C32.5784 15.6877 30.0681 12.3752 26.546 12.159C25.8616 12.1164 25.2195 12.3392 24.5838 12.5554C20.8995 13.807 17.4908 15.6648 13.9914 17.3358C12.2757 18.1549 11.173 19.377 10.3265 21.0414C9.2919 23.0794 8.07893 25.0289 6.95028 27.0209C6.26595 28.2234 6.47028 29.3407 7.47568 29.9566C8.54271 30.6087 9.84001 30.2319 10.5114 29.0327C11.5914 27.1029 12.6551 25.1632 13.693 23.2104C13.9946 22.6436 14.3968 22.2996 14.987 22.0669C17.2735 21.1692 19.5405 20.2354 21.8205 19.318C22.6476 18.9871 23.2346 19.3672 23.5103 20.0028" stroke="black" stroke-miterlimit="10" stroke-linecap="round"/>
<path d="M18.6389 27.8859C18.1816 29.4684 17.8541 31.0738 17.7081 32.7154C17.64 33.4951 17.6335 34.2782 17.5557 35.058C17.4584 36.0147 17.8508 36.7192 18.5514 37.3057C19.4952 38.1018 20.5752 38.6523 21.7006 39.1208C25.3038 40.6182 29.0692 41.4995 32.9027 42.1024C34.0184 42.2793 34.2746 42.548 34.2292 43.6947C34.093 47.0334 33.9568 50.3689 33.7946 53.7043" stroke="black" stroke-miterlimit="10" stroke-linecap="round"/>
<path d="M39.8757 61.427L31.3557 66.4203V55.4311C31.3557 54.8872 31.7903 54.4481 32.3287 54.4481H38.9027C39.4411 54.4481 39.8757 54.8872 39.8757 55.4311V61.427ZM39.8757 61.427V64.3004" stroke="black" stroke-miterlimit="10" stroke-linecap="round"/>
<path d="M77.773 16.2872C80.88 16.3036 85.4822 16.2872 88.5373 16.2872H93.5643C94.187 16.2872 94.4368 16.225 94.5924 15.8809C94.7416 15.5467 94.6605 15.2519 94.2876 14.7571C93.7881 14.0953 93.2951 13.4302 92.8054 12.765C92.1859 11.9263 91.5665 11.0875 90.9341 10.2586C90.5157 9.71139 90.5449 9.25596 91.0314 8.78743C91.6022 8.23698 92.1697 7.66033 92.7178 7.10333C93.1978 6.61514 93.6778 6.12695 94.1643 5.64859C94.6541 5.16695 94.7643 4.87535 94.6022 4.48545C94.44 4.1021 94.1189 4.05951 93.4995 4.06279C89.5816 4.06934 85.667 4.06934 81.7492 4.06934H77.773" stroke="black" stroke-miterlimit="10" stroke-linecap="round"/>
<path d="M1.2973 78.34C2.2119 77.914 3.14271 77.5241 4.06703 77.1244C10.0703 74.5262 16.0735 71.9345 22.0703 69.3232C22.6832 69.0545 23.2314 69.0414 23.8541 69.2806C27.3016 70.6108 30.7622 71.8985 34.2065 73.2385C34.7351 73.4417 35.0822 73.386 35.52 73.0321C42.5676 67.3147 49.6378 61.6202 56.6789 55.8963C57.347 55.3524 57.9632 55.1853 58.8032 55.3622C63.2497 56.2993 67.7092 57.1872 72.1589 58.0981C72.5157 58.1701 72.7816 58.1472 73.0541 57.849C78.6876 51.7024 84.3341 45.5689 89.9741 39.4288" stroke="black" stroke-miterlimit="10" stroke-linecap="round"/>
<path d="M30.1622 6.18271C30.2497 8.32223 30.986 9.94407 32.3449 11.0056C33.7168 12.077 35.2054 12.4145 36.5319 11.9493C37.813 11.5004 38.7957 10.3667 39.1589 8.90872C39.6616 6.8937 39.3243 4.9868 38.1568 3.23718C36.9406 1.41547 35.3287 0.904347 33.0941 1.62517C31.1643 2.24769 30.1492 3.82366 30.1622 6.18271Z" stroke="black" stroke-miterlimit="10" stroke-linecap="round"/>
<path d="M18.3892 42.6725C17.9027 44.2124 17.1308 46.8598 16.6508 48.403C16.5211 48.8191 16.2811 49.1369 15.9924 49.4416C14.5005 51.0307 13.0087 52.6231 11.5265 54.2187C10.5892 55.2278 10.5016 56.3222 11.267 57.233C12.013 58.1242 13.1935 58.2553 14.2638 57.5377C16.2876 56.1878 18.2984 54.815 20.3254 53.4684C20.6919 53.2259 20.9092 52.9179 21.0681 52.5149C21.9178 50.3328 23.4616 46.1685 24.3341 43.9962" stroke="black" stroke-miterlimit="10" stroke-linecap="round"/>
<path d="M35.3838 20.0945C35.893 20.7236 37.1838 21.6377 37.9816 21.5853C39.0227 21.5165 40.0735 21.5591 41.1178 21.5722C42.9049 21.5984 44.2443 22.8958 44.3286 24.6619C44.4065 26.323 43.1708 27.8498 41.4422 27.9252C38.9319 28.0366 35.4065 27.3682 33.9827 27.1782" stroke="black" stroke-miterlimit="10" stroke-linecap="round"/>
<path d="M39.8757 73.4023V85.9839C39.8757 86.5278 39.4411 86.9668 38.9027 86.9668H32.3287C31.7903 86.9668 31.3557 86.5278 31.3557 85.9839V75.7188" stroke="black" stroke-miterlimit="10" stroke-linecap="round"/>
<path d="M61.0995 49.6482L52.5795 54.6415V43.6522C52.5795 43.1084 53.0141 42.6693 53.5524 42.6693H60.1265C60.6649 42.6693 61.0995 43.1084 61.0995 43.6522V49.6482ZM61.0995 49.6482V52.5216" stroke="black" stroke-miterlimit="10" stroke-linecap="round"/>
<path d="M61.0995 59.9755V85.9872C61.0995 86.5311 60.6649 86.9701 60.1265 86.9701H53.5524C53.0141 86.9701 52.5795 86.5311 52.5795 85.9872V62.8653" stroke="black" stroke-miterlimit="10" stroke-linecap="round"/>
<path d="M82.3557 52.5248V85.9872C82.3557 86.5311 81.9211 86.9701 81.3827 86.9701H74.8087C74.2703 86.9701 73.8357 86.5311 73.8357 85.9872V60.4341" stroke="black" stroke-miterlimit="10" stroke-linecap="round"/>
<path d="M73.8389 41.4471L82.3589 36.4538M82.3589 36.4538V42.6692M82.3589 36.4538V30.4579C82.3589 29.914 81.9243 29.475 81.386 29.475H74.8119C74.2735 29.475 73.8389 29.914 73.8389 30.4579V51.7385" stroke="black" stroke-miterlimit="10" stroke-linecap="round"/>
<path d="M76.9427 29.2948V3.51892" stroke="black" stroke-miterlimit="10" stroke-linecap="round"/>
<path d="M90.9503 38.4132L85.7449 37.0961" stroke="black" stroke-miterlimit="10" stroke-linecap="round"/>
<path d="M91.1222 38.577L92.4908 43.4458" stroke="black" stroke-miterlimit="10" stroke-linecap="round"/>
<path d="M9.02271 74.8932V63.904C9.02271 63.3601 9.4573 62.921 9.99568 62.921H16.5697C17.1081 62.921 17.5427 63.3601 17.5427 63.904V65.9648" stroke="black" stroke-miterlimit="10" stroke-linecap="round"/>
<path d="M9.02271 83.1368L17.5427 74.998V85.9873C17.5427 86.5312 17.1081 86.9702 16.5697 86.9702H9.99568C9.4573 86.9702 9.02271 86.5312 9.02271 85.9873V79.3623" stroke="black" stroke-miterlimit="10" stroke-linecap="round"/>
</g>
</svg>
