<svg width="96" height="96" viewBox="0 0 96 96" fill="none" xmlns="http://www.w3.org/2000/svg">
<mask id="mask0_4062_21817" style="mask-type:luminance" maskUnits="userSpaceOnUse" x="0" y="0" width="96" height="96">
<path d="M95.9435 0H0V95.7566H95.9435V0Z" fill="white"/>
</mask>
<g mask="url(#mask0_4062_21817)">
<path d="M56.2522 23.6823C55.6951 23.6113 55.1417 23.5404 54.5845 23.4694C53.6734 23.3511 52.7285 23.2294 51.7948 23.1212C51.4673 22.506 51.1285 21.8908 50.7934 21.2823C50.4696 20.6975 50.1497 20.1127 49.8372 19.5246C49.3553 18.622 48.6212 18.1589 47.6649 18.1454C46.6673 18.1353 45.9144 18.6018 45.4136 19.5381C45.1125 20.0992 44.8075 20.657 44.4988 21.2147C44.1562 21.8367 43.8024 22.4789 43.4635 23.1178C42.4358 23.2395 41.3967 23.3713 40.3915 23.5032L38.9798 23.6857C37.6508 23.8547 37.1275 24.5612 36.9205 25.1223C36.7134 25.6936 36.6645 26.5488 37.6245 27.377C38.0311 27.7285 38.4339 28.0801 38.8367 28.435C39.4805 28.9995 40.1431 29.5843 40.8169 30.1522C40.8621 30.1894 40.8847 30.213 40.896 30.2266C40.896 30.2401 40.896 30.2671 40.8847 30.3111C40.6626 31.3285 40.4744 32.346 40.2899 33.3297C40.2221 33.6981 40.1544 34.0666 40.0828 34.4249L40.0678 34.5432C40.0339 35.3747 40.4292 36.1116 41.1294 36.5139C41.8146 36.9094 42.6993 36.9297 43.4899 36.568C44.7586 35.9899 46.1139 35.3511 47.6273 34.6142C48.5045 35.0401 49.3967 35.4592 50.2626 35.8682C50.7256 36.0846 51.1887 36.3043 51.6518 36.524C52.1224 36.7471 52.5478 36.8316 52.9205 36.8316C53.4814 36.8316 53.9294 36.6389 54.2532 36.4294C54.7878 36.0812 55.3751 35.4187 55.1379 34.222C55.0362 33.715 54.9421 33.2046 54.8405 32.6942C54.6824 31.8694 54.5242 31.0446 54.3548 30.2232C55.0249 29.6519 55.6951 29.0637 56.3426 28.4958C56.7605 28.1308 57.1784 27.7657 57.5962 27.4006C58.3718 26.728 58.6278 25.9775 58.3529 25.1697C58.1496 24.5815 57.6264 23.8446 56.2522 23.6756V23.6823Z" stroke="black" stroke-miterlimit="10"/>
<path d="M16.0979 36.835C11.9115 34.6141 9.40047 31.217 6.50165 27.2891C3.30542 22.9589 1.53224 17.8243 1.50589 12.8384C1.49459 10.675 2.29271 8.82936 3.94542 7.1933C5.77883 5.37809 8.00377 4.83048 10.2965 4.76288C11.0381 4.7426 11.7873 4.76964 12.5365 4.82372M41.2913 69.262C39.3826 65.2902 36.3595 61.9674 32.0414 59.111C24.9901 54.4429 20.3784 49.0209 17.9501 42.524C16.4028 38.3865 15.2659 34.0463 14.5807 29.6248C13.0748 19.9268 12.6306 10.3403 12.3934 2.24795V2.20738C12.3821 1.73753 12.8 1.35217 13.3233 1.35217H82.8687C83.2188 1.35217 83.5049 1.61245 83.4974 1.9302C83.1398 13.2305 82.56 22.6818 80.8621 32.106C80.0527 36.6051 78.6635 41.0198 76.7285 45.2248C74.3642 50.3663 70.2607 54.7843 63.8118 59.1212C59.4748 62.0417 56.4518 65.3646 54.5769 69.2789C54.5769 69.2891 54.5694 69.2925 54.5657 69.2992H41.3101L41.2913 69.2654M83.4071 4.8271C84.1525 4.77302 84.9016 4.7426 85.6471 4.76626C87.9398 4.83386 90.1609 5.38147 91.9981 7.19668C93.6508 8.83274 94.4489 10.6784 94.4376 12.8418C94.4113 17.8277 92.6381 22.9623 89.4419 27.2925C86.5431 31.2237 84.0358 34.6175 79.8456 36.8384" stroke="black" stroke-miterlimit="10"/>
<path d="M38.3435 69.3026H57.408C58.0329 69.3026 58.5374 69.7556 58.5374 70.3167V76.0801H37.2141V70.3167C37.2141 69.7556 37.7186 69.3026 38.3435 69.3026Z" stroke="black" stroke-miterlimit="10"/>
<path d="M25.1746 76.0801H70.5769C71.8946 76.0801 72.9638 77.0401 72.9638 78.2232V88.9522H22.7878V78.2232C22.7878 77.0401 23.8569 76.0801 25.1746 76.0801Z" stroke="black" stroke-miterlimit="10"/>
<path d="M17.4155 89.1617H78.4678C79.4202 89.1617 80.192 89.8547 80.192 90.7099V93.1606C80.192 93.8333 79.5821 94.3809 78.8329 94.3809H17.0504C16.3012 94.3809 15.6913 93.8333 15.6913 93.1606V90.7099C15.6913 89.8547 16.4631 89.1617 17.4155 89.1617Z" stroke="black" stroke-miterlimit="10"/>
</g>
</svg>
