<svg width="96" height="96" viewBox="0 0 96 96" fill="none" xmlns="http://www.w3.org/2000/svg">
<path fill-rule="evenodd" clip-rule="evenodd" d="M48.8272 38.9131C48.088 38.8463 47.3523 38.8709 46.6342 38.9783C46.4705 39.0029 46.3069 38.9395 46.2048 38.8093L45.1928 37.5034C45.0643 37.3362 44.8355 37.2816 44.6454 37.3714L41.8787 38.6615C41.6869 38.7512 41.583 38.9607 41.6288 39.1666L41.979 40.7805C42.0142 40.9424 41.9561 41.1079 41.8329 41.2187C41.3542 41.6411 40.9177 42.1163 40.5305 42.6391C40.432 42.7711 40.2718 42.8432 40.1081 42.8239L38.4696 42.6162C38.2601 42.5898 38.0595 42.7112 37.9873 42.9101L36.9437 45.7789C36.8715 45.9778 36.9454 46.1995 37.1232 46.3139L38.5118 47.208C38.6509 47.2978 38.7265 47.4562 38.7177 47.6216C38.679 48.2711 38.7089 48.9152 38.8022 49.5471C38.8269 49.7107 38.7635 49.8744 38.6333 49.9765L37.3273 50.9885C37.1601 51.117 37.1056 51.3458 37.1953 51.5359L38.4854 54.3008C38.5752 54.4927 38.7846 54.5965 38.9905 54.5507L40.6045 54.2005C40.7664 54.1653 40.9318 54.2234 41.0409 54.3466C41.4633 54.8253 41.9385 55.2618 42.4613 55.649C42.595 55.7475 42.6654 55.9077 42.6461 56.0714L42.4384 57.7082C42.412 57.9176 42.5334 58.1183 42.7323 58.1904L45.6011 59.2341C45.8 59.3063 46.0217 59.2323 46.1361 59.0546L47.0302 57.6659C47.12 57.5269 47.2784 57.4512 47.4438 57.46C48.0933 57.4987 48.7374 57.4688 49.3693 57.3755C49.5329 57.3509 49.6966 57.4143 49.7987 57.5445L50.8107 58.8504C50.9392 59.0176 51.168 59.0722 51.3581 58.9824L54.1248 57.6923C54.3166 57.6026 54.4205 57.3931 54.3747 57.1872L54.0245 55.5733C53.9893 55.4114 54.0473 55.2459 54.1705 55.1351C54.6493 54.7127 55.0857 54.2375 55.4729 53.7147C55.5715 53.5827 55.7317 53.5106 55.8953 53.5299L57.5321 53.7376C57.7416 53.764 57.9422 53.6426 58.0144 53.4437L59.0581 50.5749C59.1302 50.376 59.0563 50.1543 58.8785 50.0399L57.4899 49.1458C57.3509 49.056 57.2752 48.8976 57.284 48.7322C57.3227 48.0827 57.2928 47.4386 57.1995 46.8067C57.1749 46.6431 57.2382 46.4794 57.3685 46.3773L58.6744 45.3653C58.8416 45.2368 58.8961 45.008 58.8064 44.8179L57.5163 42.053C57.4265 41.8611 57.2171 41.7573 57.0112 41.8031L55.3973 42.1533C55.2353 42.1885 55.0699 42.1304 54.959 42.0072C54.5366 41.5285 54.0614 41.092 53.5387 40.7048C53.4049 40.6063 53.3346 40.4461 53.3539 40.2824L53.5616 38.6456C53.588 38.4362 53.4665 38.2355 53.2677 38.1634L50.4006 37.1197C50.2018 37.0475 49.98 37.1215 49.8656 37.2992L48.8272 38.9131Z" stroke="black" stroke-miterlimit="10" stroke-linecap="round"/>
<path fill-rule="evenodd" clip-rule="evenodd" d="M49.6649 43.7249C52.1536 44.6313 53.4384 47.3822 52.532 49.8726C51.6256 52.3613 48.8729 53.6443 46.3843 52.7397C43.8957 51.8333 42.6126 49.0806 43.5173 46.592C44.4237 44.1033 47.1745 42.8185 49.6649 43.7249Z" stroke="black" stroke-miterlimit="10" stroke-linecap="round"/>
<path d="M48 66.2424L51.4056 69.648C51.6133 69.8557 51.6115 70.1919 51.4038 70.3978L48.0018 73.7576" stroke="black" stroke-miterlimit="10" stroke-linecap="round"/>
<path d="M51.5587 29.7576L48.1531 26.352C47.9454 26.1444 47.9472 25.8082 48.1549 25.6023L51.557 22.2424" stroke="black" stroke-miterlimit="10" stroke-linecap="round"/>
<path d="M50.9322 69.8064C49.973 69.9349 48.9944 70 48 70C35.849 70 26 60.1511 26 48C26 38.9783 31.4296 31.2255 39.2 27.8304" stroke="black" stroke-miterlimit="10" stroke-linecap="round"/>
<path d="M48 26C60.151 26 70 35.849 70 48C70 56.9866 64.6109 64.7165 56.888 68.1309" stroke="black" stroke-miterlimit="10" stroke-linecap="round"/>
</svg>
