<svg width="96" height="96" viewBox="0 0 96 96" fill="none" xmlns="http://www.w3.org/2000/svg">
<path d="M57.0816 76.0896H75.9744V71.3088C75.9744 69.1776 75.36 67.0656 74.1504 65.2992C72.7872 63.3216 70.4448 61.4208 66.528 61.4208C62.6112 61.4208 60.2688 63.264 58.9056 65.2032C57.696 66.912 57.0816 68.9856 57.0816 71.0784V76.0896Z" stroke="black" stroke-linecap="round" stroke-linejoin="round"/>
<path d="M66.528 60.9408C70.4514 60.9408 73.632 57.7602 73.632 53.8368C73.632 49.9134 70.4514 46.7328 66.528 46.7328C62.6046 46.7328 59.424 49.9134 59.424 53.8368C59.424 57.7602 62.6046 60.9408 66.528 60.9408Z" stroke="black" stroke-linecap="round" stroke-linejoin="round"/>
<path d="M20.0064 76.0896H38.8992V71.3088C38.8992 69.1776 38.2848 67.0656 37.0752 65.2992C35.712 63.3216 33.3696 61.4208 29.4528 61.4208C25.536 61.4208 23.1936 63.264 21.8304 65.2032C20.6208 66.912 20.0064 68.9856 20.0064 71.0784V76.0896Z" stroke="black" stroke-linecap="round" stroke-linejoin="round"/>
<path d="M29.4528 60.9408C33.3762 60.9408 36.5568 57.7602 36.5568 53.8368C36.5568 49.9134 33.3762 46.7328 29.4528 46.7328C25.5294 46.7328 22.3488 49.9134 22.3488 53.8368C22.3488 57.7602 25.5294 60.9408 29.4528 60.9408Z" stroke="black" stroke-linecap="round" stroke-linejoin="round"/>
<path d="M38.6496 49.2672H57.5424V44.4864C57.5424 42.3552 56.928 40.2432 55.7184 38.4768C54.3552 36.4992 52.0128 34.5984 48.096 34.5984C44.1792 34.5984 41.8368 36.4416 40.4736 38.3808C39.264 40.0896 38.6496 42.1632 38.6496 44.256V49.2672Z" stroke="black" stroke-linecap="round" stroke-linejoin="round"/>
<path d="M48.096 34.1184C52.0194 34.1184 55.2 30.9378 55.2 27.0144C55.2 23.091 52.0194 19.9104 48.096 19.9104C44.1726 19.9104 40.992 23.091 40.992 27.0144C40.992 30.9378 44.1726 34.1184 48.096 34.1184Z" stroke="black" stroke-linecap="round" stroke-linejoin="round"/>
</svg>
