<svg width="96" height="96" viewBox="0 0 96 96" fill="none" xmlns="http://www.w3.org/2000/svg">
<path d="M48.0001 93.8881C73.3433 93.8881 93.8881 73.3433 93.8881 48.0001C93.8881 22.6568 73.3433 2.11206 48.0001 2.11206C22.6568 2.11206 2.11206 22.6568 2.11206 48.0001C2.11206 73.3433 22.6568 93.8881 48.0001 93.8881Z" stroke="black" stroke-miterlimit="10"/>
<path d="M42.0706 71.9999V65.1054C42.0706 58.7928 49.3933 52.3564 53.6133 49.1383C60.936 43.8159 65.28 39.6074 65.28 31.8096C65.28 22.4025 58.5778 14.976 49.021 14.976C38.2231 14.976 30.528 22.6502 30.528 33.0474" stroke="black" stroke-linecap="round"/>
<path d="M42.048 78.336C42.6843 78.336 43.2 77.8203 43.2 77.184C43.2 76.5477 42.6843 76.032 42.048 76.032C41.4117 76.032 40.896 76.5477 40.896 77.184C40.896 77.8203 41.4117 78.336 42.048 78.336Z" fill="black" stroke="black" stroke-miterlimit="10"/>
</svg>
