<svg width="96" height="96" viewBox="0 0 96 96" fill="none" xmlns="http://www.w3.org/2000/svg">
<path d="M61.4024 69.0742H31.7236C31.4314 69.0742 31.1956 68.8383 31.1956 68.5462V31.6971C31.1956 31.4049 31.4314 31.1691 31.7236 31.1691H64.3346C64.6268 31.1691 64.8626 31.4049 64.8626 31.6971V61.8247" stroke="black" stroke-miterlimit="10" stroke-linecap="round"/>
<path d="M30.6693 39.9198H27.1845C26.8929 39.9198 26.6565 40.1562 26.6565 40.4478V46.7152C26.6565 47.0068 26.8929 47.2432 27.1845 47.2432H30.6693C30.9609 47.2432 31.1973 47.0068 31.1973 46.7152V40.4478C31.1973 40.1562 30.9609 39.9198 30.6693 39.9198Z" stroke="black" stroke-miterlimit="10" stroke-linecap="round"/>
<path d="M68.8772 39.9375H65.3924C65.1008 39.9375 64.8644 40.1739 64.8644 40.4655V46.7329C64.8644 47.0245 65.1008 47.2609 65.3924 47.2609H68.8772C69.1688 47.2609 69.4052 47.0245 69.4052 46.7329V40.4655C69.4052 40.1739 69.1688 39.9375 68.8772 39.9375Z" stroke="black" stroke-miterlimit="10" stroke-linecap="round"/>
<path d="M42.3293 69.0742H34.566C34.2744 69.0742 34.038 69.3106 34.038 69.6022V73.0729C34.038 73.3645 34.2744 73.6009 34.566 73.6009H42.3293C42.6209 73.6009 42.8573 73.3645 42.8573 73.0729V69.6022C42.8573 69.3106 42.6209 69.0742 42.3293 69.0742Z" stroke="black" stroke-miterlimit="10" stroke-linecap="round"/>
<path d="M61.4023 69.0742H53.6548C53.3627 69.0742 53.1268 69.3101 53.1268 69.6022V73.0729C53.1268 73.3651 53.3627 73.6009 53.6548 73.6009H61.4023C61.6945 73.6009 61.9303 73.3651 61.9303 73.0729V70.4294" stroke="black" stroke-miterlimit="10" stroke-linecap="round"/>
<path d="M31.178 64.8766H61.5785" stroke="black" stroke-miterlimit="10"/>
<path d="M59.6759 39.9375H35.6325C35.3409 39.9375 35.1045 40.1739 35.1045 40.4655V64.3469C35.1045 64.6385 35.3409 64.8749 35.6325 64.8749H59.6759C59.9675 64.8749 60.2039 64.6385 60.2039 64.3469V40.4655C60.2039 40.1739 59.9675 39.9375 59.6759 39.9375Z" stroke="black" stroke-miterlimit="10"/>
<path d="M55.7441 44.3779H40.4866C40.195 44.3779 39.9586 44.6143 39.9586 44.9059V55.5328C39.9586 55.8244 40.195 56.0608 40.4866 56.0608H55.7441C56.0357 56.0608 56.2721 55.8244 56.2721 55.5328V44.9059C56.2721 44.6143 56.0357 44.3779 55.7441 44.3779Z" stroke="black" stroke-miterlimit="10"/>
<path d="M39.4306 59.9803H36.1113C35.8196 59.9803 35.5833 60.2167 35.5833 60.5083V64.3487C35.5833 64.6403 35.8196 64.8767 36.1113 64.8767H39.4306C39.7222 64.8767 39.9586 64.6403 39.9586 64.3487V60.5083C39.9586 60.2167 39.7222 59.9803 39.4306 59.9803Z" stroke="black" stroke-miterlimit="10"/>
<path d="M59.3959 59.9803H56.0766C55.785 59.9803 55.5486 60.2167 55.5486 60.5083V64.3487C55.5486 64.6403 55.785 64.8767 56.0766 64.8767H59.3959C59.6875 64.8767 59.9239 64.6403 59.9239 64.3487V60.5083C59.9239 60.2167 59.6875 59.9803 59.3959 59.9803Z" stroke="black" stroke-miterlimit="10"/>
<path d="M43.6 61.2H52.4" stroke="black" stroke-miterlimit="10"/>
<path d="M64.7887 68.0094L66.0084 69.2291C66.2143 69.435 66.5487 69.435 66.7546 69.2291L70.2834 65.7003" stroke="black" stroke-linejoin="round"/>
<path d="M65.3536 73.4654C62.9442 72.5766 61.2264 70.2604 61.2264 67.543C61.2264 64.0582 64.0512 61.2334 67.536 61.2334C71.0208 61.2334 73.8456 64.0582 73.8456 67.543C73.8456 71.0278 71.0208 73.8526 67.536 73.8526C66.7687 73.8526 66.033 73.7153 65.3536 73.4654Z" stroke="black" stroke-linejoin="round"/>
</svg>
