<svg width="96" height="96" viewBox="0 0 96 96" fill="none" xmlns="http://www.w3.org/2000/svg">
<path d="M66.5472 72.7871L69.1008 71.5775C69.3888 71.4431 69.504 71.1167 69.3888 70.8287L68.6976 69.2159C68.5632 68.9087 68.7168 68.5631 69.0432 68.4479L71.5968 67.5647C72.0192 67.4111 72.1152 66.8927 71.7888 66.5855L62.112 57.8879C61.7472 57.5615 61.152 57.8111 61.152 58.3103V70.6367C61.152 71.0399 61.5552 71.3279 61.9392 71.1743L63.9936 70.3487C64.2624 70.2335 64.5696 70.3487 64.704 70.5983L65.7984 72.5567C65.952 72.8063 66.2784 72.9215 66.5472 72.7871Z" stroke="black" stroke-miterlimit="10" stroke-linecap="round"/>
<path d="M19.8144 19.2H76.2624C76.5888 19.2 76.8384 19.4496 76.8384 19.776V76.224C76.8384 76.5504 76.5888 76.8 76.2624 76.8H19.7376C19.4112 76.8 19.1616 76.5504 19.1616 76.224L19.2576 19.776C19.2384 19.4496 19.5072 19.2 19.8144 19.2Z" stroke="black" stroke-miterlimit="10" stroke-linecap="round"/>
<path d="M19.1616 28.704H76.6272" stroke="black" stroke-miterlimit="10" stroke-linecap="round"/>
<path d="M28.8768 42.24C31.1248 42.24 32.9472 40.4177 32.9472 38.1696C32.9472 35.9216 31.1248 34.0992 28.8768 34.0992C26.6288 34.0992 24.8064 35.9216 24.8064 38.1696C24.8064 40.4177 26.6288 42.24 28.8768 42.24Z" stroke="black" stroke-miterlimit="10" stroke-linecap="round"/>
<path d="M32.9472 38.1696H43.488" stroke="black" stroke-miterlimit="10" stroke-linecap="round"/>
<path d="M38.2272 38.592V57.6H43.488" stroke="black" stroke-miterlimit="10" stroke-linecap="round"/>
<path d="M53.9904 44.832H44.0832C43.7568 44.832 43.5072 44.5824 43.5072 44.256V34.3488C43.5072 34.0224 43.7568 33.7728 44.0832 33.7728H53.9904C54.3168 33.7728 54.5664 34.0224 54.5664 34.3488V44.256C54.5664 44.5824 54.2976 44.832 53.9904 44.832Z" stroke="black" stroke-miterlimit="10" stroke-linecap="round"/>
<path d="M53.9904 63.2256H44.0832C43.7568 63.2256 43.5072 62.976 43.5072 62.6496V52.7424C43.5072 52.416 43.7568 52.1664 44.0832 52.1664H53.9904C54.3168 52.1664 54.5664 52.416 54.5664 52.7424V62.6496C54.5664 62.976 54.2976 63.2256 53.9904 63.2256Z" stroke="black" stroke-miterlimit="10" stroke-linecap="round"/>
<path d="M46.2144 39.9168L47.4816 41.4528C47.6736 41.6832 48.0576 41.6832 48.2496 41.4528L51.8208 36.9984" stroke="black" stroke-miterlimit="10" stroke-linecap="round"/>
</svg>
