<svg width="96" height="96" viewBox="0 0 96 96" fill="none" xmlns="http://www.w3.org/2000/svg">
<path d="M66.392 73.872H26.5544C26.2622 73.872 26.0264 73.6361 26.0264 73.344V30.3947C26.0264 30.1025 26.2622 29.8667 26.5544 29.8667H69.5036C69.7958 29.8667 70.0316 30.1025 70.0316 30.3947V61.7227" stroke="black" stroke-linejoin="round"/>
<path d="M52.6341 41.129L48.3028 37.2746L43.9556 41.129V30.2188H52.6341V41.129Z" stroke="black" stroke-linecap="round" stroke-linejoin="round"/>
<path d="M69.78 61.7544C72.1894 62.6432 73.9072 64.9593 73.9072 67.6768C73.9072 71.1616 71.0824 73.9864 67.5976 73.9864C64.1128 73.9864 61.288 71.1616 61.288 67.6768C61.288 64.192 64.1128 61.3672 67.5976 61.3672C68.3649 61.3672 69.1006 61.5045 69.78 61.7544Z" stroke="black" stroke-linejoin="round"/>
<path d="M65.4152 67.9619L66.6806 69.2273L69.78 66.1279" stroke="black" stroke-linejoin="round"/>
</svg>
