<svg width="96" height="96" viewBox="0 0 96 96" fill="none" xmlns="http://www.w3.org/2000/svg">
<path d="M22.9235 73.872H72.728C73.117 73.8755 73.432 73.5552 73.432 73.1627V35.6817C73.432 35.4142 73.2824 35.166 73.0448 35.0481L48.132 22.4096C47.9331 22.3075 47.699 22.3075 47.5002 22.4096L22.6067 35.0464C22.3691 35.1678 22.2195 35.4124 22.2195 35.68V73.1592C22.2195 73.5516 22.5346 73.8702 22.9235 73.8702V73.872Z" stroke="black" stroke-miterlimit="10"/>
<path d="M45.2333 56.8879H33.4026C33.111 56.8879 32.8746 57.1243 32.8746 57.4159V69.2467C32.8746 69.5383 33.111 69.7747 33.4026 69.7747H45.2333C45.5249 69.7747 45.7613 69.5383 45.7613 69.2467V57.4159C45.7613 57.1243 45.5249 56.8879 45.2333 56.8879Z" stroke="black" stroke-miterlimit="10"/>
<path d="M62.659 56.8879H50.8283C50.5367 56.8879 50.3003 57.1243 50.3003 57.4159V69.2467C50.3003 69.5383 50.5367 69.7747 50.8283 69.7747H62.659C62.9506 69.7747 63.187 69.5383 63.187 69.2467V57.4159C63.187 57.1243 62.9506 56.8879 62.659 56.8879Z" stroke="black" stroke-miterlimit="10"/>
<path d="M45.2333 39.3567H33.4026C33.111 39.3567 32.8746 39.5931 32.8746 39.8847V51.7154C32.8746 52.007 33.111 52.2434 33.4026 52.2434H45.2333C45.5249 52.2434 45.7613 52.007 45.7613 51.7154V39.8847C45.7613 39.5931 45.5249 39.3567 45.2333 39.3567Z" stroke="black" stroke-miterlimit="10"/>
<path d="M62.659 39.3567H50.8283C50.5367 39.3567 50.3003 39.5931 50.3003 39.8847V51.7154C50.3003 52.007 50.5367 52.2434 50.8283 52.2434H62.659C62.9506 52.2434 63.187 52.007 63.187 51.7154V39.8847C63.187 39.5931 62.9506 39.3567 62.659 39.3567Z" stroke="black" stroke-miterlimit="10"/>
<path d="M40.8755 39.3567H37.5315C37.2399 39.3567 37.0035 39.5931 37.0035 39.8847V43.2287C37.0035 43.5203 37.2399 43.7567 37.5315 43.7567H40.8755C41.1671 43.7567 41.4035 43.5203 41.4035 43.2287V39.8847C41.4035 39.5931 41.1671 39.3567 40.8755 39.3567Z" stroke="black" stroke-miterlimit="10"/>
<path d="M58.648 39.3567H55.304C55.0124 39.3567 54.776 39.5931 54.776 39.8847V43.2287C54.776 43.5203 55.0124 43.7567 55.304 43.7567H58.648C58.9396 43.7567 59.176 43.5203 59.176 43.2287V39.8847C59.176 39.5931 58.9396 39.3567 58.648 39.3567Z" stroke="black" stroke-miterlimit="10"/>
<path d="M40.8755 57.0535H37.5315C37.2399 57.0535 37.0035 57.2899 37.0035 57.5815V60.9255C37.0035 61.2171 37.2399 61.4535 37.5315 61.4535H40.8755C41.1671 61.4535 41.4035 61.2171 41.4035 60.9255V57.5815C41.4035 57.2899 41.1671 57.0535 40.8755 57.0535Z" stroke="black" stroke-miterlimit="10"/>
<path d="M58.648 57.0535H55.304C55.0124 57.0535 54.776 57.2899 54.776 57.5815V60.9255C54.776 61.2171 55.0124 61.4535 55.304 61.4535H58.648C58.9396 61.4535 59.176 61.2171 59.176 60.9255V57.5815C59.176 57.2899 58.9396 57.0535 58.648 57.0535Z" stroke="black" stroke-miterlimit="10"/>
<path d="M44.2864 30.4H51.784" stroke="black" stroke-miterlimit="10" stroke-linecap="round"/>
</svg>
