<svg width="131" height="36" viewBox="0 0 131 36" fill="none" xmlns="http://www.w3.org/2000/svg">
<g clip-path="url(#clip0_5565_514)">
<path d="M129.984 20.9955C129.997 19.0465 129.225 17.2235 127.813 15.8634C126.4 14.5021 124.533 13.786 122.559 13.8468C118.826 13.9628 115.772 16.9421 115.605 20.6307C115.518 22.583 116.217 24.4364 117.576 25.8494C118.935 27.2636 120.77 28.0495 122.751 28.0619H122.849C126.792 28.0619 129.999 24.8924 129.999 20.9955H129.984ZM122.851 25.783H122.761C121.42 25.774 120.173 25.2403 119.25 24.2798C118.327 23.3194 117.851 22.0595 117.911 20.732C118.024 18.2279 120.098 16.2034 122.634 16.1246C122.688 16.1235 122.74 16.1224 122.794 16.1224C124.079 16.1224 125.285 16.6065 126.205 17.4949C127.166 18.4204 127.69 19.6601 127.681 20.9853L127.696 20.9966C127.696 23.6369 125.523 25.7841 122.852 25.7841L122.851 25.783Z" fill="black"/>
<path d="M107.172 13.7432H107.074C105.208 13.7432 103.5 14.4548 102.226 15.6179V13.7252H99.915V28.0045H102.218L102.228 21.3141V20.8007C102.228 18.1637 104.408 16.0188 107.075 16.0188H107.165C108.503 16.0278 109.75 16.5603 110.671 17.5197C111.593 18.479 112.068 19.7366 112.009 21.063V28.0033H114.31V21.1384C114.39 19.1984 113.691 17.3575 112.34 15.9523C110.982 14.5404 109.149 13.7556 107.172 13.7432Z" fill="black"/>
<path d="M95.4698 15.7103C94.072 14.412 92.2482 13.7297 90.323 13.7894C86.5944 13.9054 83.5436 16.8812 83.3784 20.5642C83.2907 22.5132 83.9902 24.3654 85.347 25.7762C86.7049 27.1881 88.5378 27.9729 90.5155 27.9864H90.6135C92.4795 27.9864 94.1837 27.2748 95.4562 26.1117V28.0045H97.7721V13.7252H95.4687V15.7103H95.4698ZM95.4573 20.9178V20.929C95.4573 23.566 93.2814 25.7109 90.6146 25.7109H90.5246C89.1861 25.7019 87.9398 25.1693 87.017 24.2089C86.0954 23.2496 85.6204 21.9919 85.6796 20.6655C85.7924 18.1637 87.8646 16.1426 90.3959 16.0638C90.4494 16.0627 90.5018 16.0616 90.5554 16.0616C91.8381 16.0616 93.0434 16.5446 93.9638 17.4318C94.923 18.3562 95.4664 19.5936 95.4573 20.9178Z" fill="black"/>
<path d="M79.7889 15.7238C78.3911 14.4256 76.5684 13.7432 74.642 13.8029C70.9135 13.9189 67.8627 16.8948 67.6975 20.5777C67.6098 22.5267 68.3093 24.3789 69.6661 25.7897C71.024 27.2017 72.8569 27.9864 74.8346 28H74.9325C76.7906 28 78.4834 27.294 79.7547 26.141V27.9425C79.7547 30.5795 77.5846 32.7233 74.9166 32.7233H74.8209C73.561 32.7143 72.3842 32.2391 71.4819 31.3834L69.854 32.9924C71.1892 34.276 72.9367 34.9876 74.8107 35H74.8186H74.9166C78.8536 35 82.057 31.8338 82.057 27.9425V20.5721V13.7399H79.7878V15.7249L79.7889 15.7238ZM79.7547 21.3006C79.5691 23.7698 77.4775 25.7244 74.9325 25.7244H74.8425C73.504 25.7154 72.2577 25.1828 71.335 24.2224C70.4134 23.2631 69.9383 22.0054 69.9976 20.6791C70.1103 18.1772 72.1825 16.1561 74.7138 16.0773C74.7674 16.0762 74.8198 16.0751 74.8733 16.0751C76.156 16.0751 77.3613 16.5581 78.2818 17.4454C79.241 18.3698 79.7639 19.6072 79.7547 20.9313V21.3006Z" fill="black"/>
<path d="M67.2863 13.8581C66.9058 13.795 66.5162 13.7601 66.1221 13.7579H66.0241C64.1581 13.7579 62.4436 14.4695 61.17 15.6326V13.7399H58.8643V28.0191H61.17V20.8153C61.17 18.1783 63.3561 16.0334 66.0241 16.0334H66.1141C66.5151 16.0357 66.9081 16.0863 67.2863 16.1809V13.8581Z" fill="black"/>
<path d="M54.3383 15.7238C52.9405 14.4256 51.119 13.7433 49.1926 13.8029C45.464 13.9189 42.4133 16.8948 42.2481 20.5778C42.1604 22.5268 42.8598 24.379 44.2166 25.7898C45.5745 27.2017 47.4075 27.9865 49.3851 28H49.4831C51.3491 28 53.0522 27.2884 54.3258 26.1253V28.018H56.6418V13.7388H54.3383V15.7238ZM54.3258 20.9313V20.9426C54.3258 23.5795 52.1499 25.7245 49.4831 25.7245H49.3931C48.0545 25.7154 46.8083 25.1829 45.8855 24.2224C44.9639 23.2631 44.4889 22.0055 44.5481 20.6791C44.6609 18.1772 46.7331 16.1562 49.2644 16.0774C49.3179 16.0762 49.3703 16.0751 49.4238 16.0751C50.7066 16.0751 51.9118 16.5581 52.8312 17.4454C53.7904 18.3698 54.3338 19.6072 54.3246 20.9313H54.3258Z" fill="black"/>
<path d="M18.693 -9.47581e-05C2.99721 -9.47581e-05 0 34.9999 0 34.9999H0.624277C2.19864 25.1738 6.8192 3.93396 18.6087 3.93396C30.0405 3.93396 34.7283 23.8902 36.4439 34.062H27.4841C27.401 33.5272 27.3098 32.9755 27.2096 32.4159C27.0512 31.5601 26.8849 30.6797 26.6856 29.7992H31.3813C29.6908 20.7713 26.0522 8.72373 18.6919 8.72373C11.3315 8.72373 8.47559 20.7713 6.78503 29.7992H6.98552C8.98367 21.6271 12.6052 10.9204 18.7169 10.9204C24.6031 10.9204 28.0344 20.8366 30.0576 28.8601H26.4691C25.0451 22.7789 22.6471 16.2608 18.6919 16.2608C14.5293 16.2608 12.8717 23.4612 11.4808 29.7902H25.7355C25.969 30.6628 26.1855 31.5433 26.3768 32.4069C26.5762 33.2873 26.7596 34.16 26.9259 34.983H37.3837C37.3837 34.9999 34.3865 -0.0012207 18.6907 -0.0012207M12.6564 28.8691C14.0553 23.8328 15.5545 18.4755 18.7101 18.4755C21.8827 18.4755 24.0312 23.7258 25.4792 28.8691H12.6564Z" fill="#FF5C00"/>
</g>
<defs>
<clipPath id="clip0_5565_514">
<rect width="130.468" height="36" fill="white"/>
</clipPath>
</defs>
</svg>
