<svg width="100" height="96" viewBox="0 0 100 96" fill="none" xmlns="http://www.w3.org/2000/svg">
<path d="M99.983 77.4132C99.9973 75.1758 99.1185 73.0832 97.5089 71.5219C95.8993 69.9592 93.7717 69.1372 91.5222 69.207C87.2684 69.3401 83.7882 72.7601 83.5987 76.9944C83.4988 79.2356 84.2958 81.3631 85.8444 82.9852C87.393 84.6086 89.4842 85.5108 91.7415 85.525H91.8532C96.3458 85.525 99.9999 81.8866 99.9999 77.4132H99.983ZM91.8532 82.9089H91.7506C90.2228 82.8986 88.8027 82.2859 87.75 81.1834C86.6985 80.0809 86.1559 78.6346 86.2247 77.1107C86.3532 74.2362 88.717 71.9122 91.6066 71.8217C91.6676 71.8205 91.7273 71.8192 91.7883 71.8192C93.2525 71.8192 94.6272 72.3749 95.676 73.3947C96.7703 74.4572 97.3674 75.8802 97.357 77.4015L97.3739 77.4145C97.3739 80.4454 94.8985 82.9102 91.8545 82.9102L91.8532 82.9089Z" fill="black"/>
<path d="M73.9877 69.0881H73.8761C71.7499 69.0881 69.804 69.9049 68.3528 71.2401V69.0674H65.719V85.4591H68.3437L68.3541 77.7789V77.1895C68.3541 74.1625 70.8386 71.7002 73.8774 71.7002H73.98C75.5052 71.7106 76.9253 72.3219 77.9754 73.4232C79.0256 74.5244 79.5669 75.9681 79.4994 77.4907V85.4578H82.1215V77.5773C82.2124 75.3503 81.4166 73.237 79.8771 71.624C78.3298 70.0032 76.2412 69.1023 73.9877 69.0881Z" fill="black"/>
<path d="M60.6553 71.3447C59.0626 69.8545 56.9844 69.0712 54.7906 69.1397C50.542 69.2728 47.0657 72.689 46.8775 76.9168C46.7776 79.1541 47.5746 81.2803 49.1206 82.8998C50.6679 84.5206 52.7565 85.4215 55.01 85.437H55.1216C57.2479 85.437 59.1898 84.6202 60.6397 83.285V85.4577H63.2787V69.066H60.654V71.3447H60.6553ZM60.6397 77.3239V77.3368C60.6397 80.3639 58.1604 82.8262 55.1216 82.8262H55.0191C53.4938 82.8158 52.0737 82.2044 51.0223 81.1019C49.9721 80.0007 49.4308 78.557 49.4983 77.0344C49.6268 74.1624 51.9881 71.8424 54.8724 71.7519C54.9334 71.7506 54.9931 71.7493 55.0541 71.7493C56.5157 71.7493 57.8891 72.3038 58.938 73.3223C60.0309 74.3834 60.6501 75.8039 60.6397 77.3239Z" fill="black"/>
<path d="M42.7859 71.3614C41.1932 69.8711 39.1163 69.0879 36.9212 69.1564C32.6726 69.2895 29.1964 72.7056 29.0081 76.9334C28.9082 79.1708 29.7052 81.297 31.2512 82.9165C32.7985 84.5373 34.8871 85.4382 37.1406 85.4537H37.2522C39.3694 85.4537 41.2983 84.6433 42.747 83.3197V85.3878C42.747 88.4148 40.2741 90.8758 37.2341 90.8758H37.125C35.6893 90.8654 34.3484 90.32 33.3203 89.3377L31.4654 91.1847C32.9867 92.6582 34.978 93.475 37.1133 93.4892H37.1224H37.2341C41.7202 93.4892 45.3704 89.8547 45.3704 85.3878V76.927V69.084H42.7846V71.3627L42.7859 71.3614ZM42.7483 77.7632C42.5367 80.5977 40.1534 82.8415 37.2535 82.8415H37.151C35.6257 82.8312 34.2056 82.2198 33.1542 81.1173C32.1041 80.0161 31.5628 78.5723 31.6303 77.0498C31.7588 74.1778 34.12 71.8577 37.0043 71.7672C37.0653 71.766 37.125 71.7647 37.186 71.7647C38.6477 71.7647 40.021 72.3191 41.0699 73.3376C42.1629 74.3988 42.7587 75.8193 42.7483 77.3393V77.7632Z" fill="black"/>
<path d="M28.5396 69.2185C28.106 69.1461 27.6621 69.106 27.2129 69.1034H27.1013C24.975 69.1034 23.0214 69.9203 21.5702 71.2555V69.0828H18.9429V85.4744H21.5702V77.2049C21.5702 74.1779 24.0612 71.7156 27.1013 71.7156H27.2038C27.6608 71.7182 28.1086 71.7764 28.5396 71.8849V69.2185Z" fill="black"/>
<path d="M13.7856 71.3615C12.1929 69.8712 10.1172 69.0879 7.92219 69.1564C3.67358 69.2896 0.197333 72.7057 0.00911163 76.9335C-0.0908403 79.1708 0.706179 81.297 2.25219 82.9165C3.7995 84.5374 5.88811 85.4382 8.14157 85.4537H8.2532C10.3795 85.4537 12.3201 84.6369 13.7713 83.3017V85.4744H16.4103V69.0828H13.7856V71.3615ZM13.7713 77.3393V77.3523C13.7713 80.3793 11.292 82.8416 8.2532 82.8416H8.15065C6.62541 82.8312 5.20532 82.2199 4.15387 81.1174C3.10373 80.0161 2.56243 78.5724 2.62993 77.0498C2.75844 74.1779 5.11964 71.8578 8.00397 71.7673C8.06498 71.766 8.12469 71.7647 8.1857 71.7647C9.64734 71.7647 11.0207 72.3192 12.0683 73.3377C13.1612 74.3989 13.7804 75.8193 13.77 77.3393H13.7713Z" fill="black"/>
<path d="M49.9993 2.00002C24.5842 2.00002 19.7307 59.0956 19.7307 59.0956H20.7419C23.29 43.0658 30.7735 8.41736 49.8643 8.41736C68.3762 8.41736 75.9673 40.9719 78.7439 57.5652H64.2366C64.1016 56.6928 63.9536 55.7932 63.7914 54.8807C63.5356 53.4848 63.2656 52.0475 62.9424 50.6115H70.5466C67.8089 35.8846 61.9169 16.2306 49.9993 16.2306C38.0803 16.2306 33.4566 35.8846 30.7189 50.6115H31.0422C34.2783 37.2805 40.143 19.8148 50.0395 19.8148C59.5713 19.8148 65.1258 35.9919 68.4021 49.0799H62.5906C60.2853 39.1585 56.4027 28.5263 49.998 28.5263C43.2571 28.5263 40.5739 40.2727 38.3218 50.596H61.4042C61.7819 52.019 62.1324 53.455 62.4427 54.8652C62.7659 56.3011 63.0631 57.7242 63.3318 59.0671H80.2666C80.2666 59.0943 75.413 1.99744 49.998 1.99744M40.2248 49.0941C42.4899 40.8776 44.9173 32.1389 50.0265 32.1389C55.1643 32.1389 58.6419 40.7044 60.9875 49.0941H40.2248Z" fill="black"/>
</svg>
