<svg width="39" height="36" viewBox="0 0 39 36" fill="none" xmlns="http://www.w3.org/2000/svg">
<path d="M18.9997 0.000514256C3.04708 0.000514256 0 36 0 36H0.635022C2.23414 25.8933 6.93125 4.04668 18.9154 4.04668C30.5355 4.04668 35.3005 24.5727 37.0436 35.0347H27.9368C27.8525 34.4845 27.7594 33.9173 27.6576 33.3418C27.4972 32.4614 27.3275 31.5558 27.1244 30.6502H31.8976C30.1792 21.3648 26.4807 8.97274 18.9997 8.97274C11.5178 8.97274 8.61521 21.3643 6.89731 30.6502H7.10041C9.13146 22.2447 12.813 11.2329 19.0255 11.2329C25.0091 11.2329 28.4958 21.4327 30.5525 29.6849H26.9049C25.4574 23.4295 23.0202 16.7262 19.0003 16.7262C14.7685 16.7262 13.0845 24.1325 11.671 30.6414H26.1598C26.3968 31.5388 26.6169 32.4444 26.8118 33.3331C27.0149 34.2387 27.201 35.136 27.3702 35.9825H38C38 35.9995 34.9529 0 18.9997 0M12.8639 29.6937C14.2857 24.5136 15.8092 19.0028 19.0167 19.0028C22.2412 19.0028 24.4249 24.403 25.8971 29.6937H12.8639Z" fill="#FF5C00"/>
</svg>
